M48
;DRILL file {Pcbnew (2013-07-07 BZR 4022)-stable} date Thu 15 Aug 2013 03:04:38 PM NZST
;FORMAT={-:-/ absolute / metric / decimal}
FMAT,2
METRIC,TZ
T1C0.400
T2C0.600
T3C0.700
T4C0.800
T5C0.813
T6C0.899
T7C0.900
T8C1.016
T9C1.500
T10C1.524
T11C3.302
%
G90
G05
M71
T1
X54.2Y-88.3
X56.3Y-93.8
X57.6Y-121.9
X57.7Y-77.3
X59.3Y-78.
X60.2Y-84.6
X61.2Y-84.6
X61.3Y-86.3
X62.2Y-84.8
X62.23Y-93.726
X63.Y-84.1
X63.4Y-86.2
X63.7Y-94.1
X63.754Y-85.09
X63.9Y-96.
X64.8Y-95.5
X64.9Y-94.1
X72.Y-81.2
X72.4Y-111.5
X73.8Y-81.5
X73.9Y-120.4
X73.914Y-123.825
X76.4Y-88.
X76.6Y-65.4
X77.089Y-119.507
X77.216Y-115.951
X77.6Y-69.2
X77.724Y-94.488
X77.724Y-108.966
X78.Y-82.3
X78.7Y-76.9
X78.8Y-75.8
X78.8Y-112.4
X79.6Y-69.1
X79.7Y-77.2
X80.7Y-120.7
X80.9Y-124.9
X81.4Y-110.7
X81.534Y-95.758
X81.6Y-104.9
X82.3Y-115.9
X82.55Y-99.822
X82.6Y-109.6
X84.8Y-110.5
X90.17Y-108.712
X90.17Y-110.236
X90.17Y-119.888
X90.932Y-115.824
X91.186Y-109.474
X91.694Y-118.11
X92.71Y-104.902
X94.488Y-94.996
X94.488Y-109.982
X95.1Y-77.2
X95.5Y-75.6
X95.8Y-55.8
X96.774Y-81.661
X98.Y-56.
X98.Y-102.4
X98.044Y-96.52
X98.044Y-123.444
X99.06Y-94.234
X99.06Y-95.758
X99.06Y-105.41
X99.06Y-121.158
X100.076Y-104.14
X100.076Y-123.952
X105.Y-97.5
X105.1Y-87.4
T2
X51.7Y-64.1
X51.7Y-70.5
X51.7Y-86.4
X51.7Y-100.3
X51.7Y-111.2
X51.7Y-122.8
X54.9Y-96.5
X55.Y-84.2
X55.Y-86.1
X55.4Y-89.2
X56.7Y-77.1
X57.Y-122.8
X57.Y-129.3
X57.14Y-86.93
X57.3Y-91.2
X58.3Y-64.2
X58.3Y-66.3
X58.3Y-68.6
X58.3Y-71.
X58.3Y-73.6
X58.3Y-75.9
X58.3Y-90.3
X58.7Y-84.2
X62.1Y-118.3
X62.1Y-121.3
X63.1Y-72.
X63.2Y-105.2
X64.375Y-101.8
X64.9Y-115.3
X65.151Y-91.567
X65.4Y-90.
X66.8Y-98.1
X67.Y-121.3
X67.2Y-90.
X67.4Y-99.2
X67.564Y-91.567
X68.1Y-105.
X68.1Y-108.
X68.1Y-109.9
X68.1Y-112.2
X68.1Y-116.3
X68.1Y-124.2
X68.8Y-51.6
X68.8Y-54.
X68.8Y-56.4
X68.8Y-58.8
X68.8Y-61.3
X68.8Y-63.7
X68.8Y-66.4
X68.8Y-68.9
X68.8Y-71.5
X69.Y-76.6
X69.4Y-80.4
X69.4Y-92.2
X69.6Y-88.1
X70.1Y-127.5
X71.1Y-75.3
X71.4Y-105.
X71.4Y-108.1
X71.4Y-112.3
X71.7Y-124.2
X72.1Y-121.3
X72.898Y-83.439
X72.898Y-86.868
X74.6Y-129.3
X74.8Y-100.5
X75.184Y-83.439
X75.4Y-89.8
X75.5Y-85.
X75.8Y-61.4
X75.8Y-105.
X76.2Y-108.
X76.2Y-109.9
X76.3Y-81.3
X76.8Y-101.9
X77.2Y-114.3
X77.4Y-52.5
X77.597Y-83.693
X77.978Y-62.865
X78.5Y-121.3
X78.6Y-124.2
X79.2Y-61.4
X79.63Y-114.22
X79.8Y-101.9
X80.391Y-83.312
X80.9Y-69.
X82.1Y-55.2
X82.1Y-71.1
X82.1Y-87.1
X82.296Y-60.325
X82.6Y-98.6
X82.8Y-101.7
X83.058Y-63.246
X83.3Y-84.7
X83.3Y-89.
X83.312Y-115.062
X83.312Y-117.856
X84.2Y-57.8
X84.66Y-112.26
X85.852Y-69.596
X85.979Y-83.312
X85.979Y-92.202
X86.8Y-51.9
X87.63Y-113.792
X87.884Y-102.362
X88.519Y-73.452
X88.8Y-75.2
X89.1Y-105.3
X89.154Y-80.264
X89.154Y-83.312
X89.154Y-89.154
X89.154Y-92.202
X89.154Y-106.68
X89.2Y-129.3
X90.4Y-122.6
X90.8Y-126.2
X90.932Y-73.406
X90.932Y-99.568
X90.932Y-107.696
X91.8Y-89.1
X91.82Y-92.33
X92.08Y-83.01
X92.2Y-75.3
X92.71Y-116.84
X92.8Y-106.
X92.8Y-107.7
X93.Y-58.5
X94.8Y-105.1
X95.25Y-93.472
X95.504Y-100.076
X96.2Y-60.9
X96.25Y-63.975
X96.7Y-122.5
X96.77Y-112.93
X96.9Y-97.6
X96.9Y-101.5
X97.Y-103.4
X98.3Y-79.2
X99.1Y-122.5
X99.568Y-65.659
X99.725Y-79.475
X100.9Y-105.4
X101.6Y-124.1
X102.6Y-82.8
X102.87Y-66.548
X102.9Y-129.3
X103.06Y-100.24
X103.886Y-116.84
X103.891Y-111.52
X103.9Y-88.8
X103.9Y-96.4
X104.975Y-79.475
X106.Y-123.
X107.8Y-125.6
X107.823Y-66.802
X108.299Y-74.266
X108.399Y-77.566
X110.399Y-73.666
X111.4Y-64.3
X111.499Y-72.266
X111.5Y-70.6
X111.6Y-129.3
X112.2Y-84.7
X112.2Y-91.
X112.2Y-104.
X112.2Y-118.5
X115.2Y-72.742
X115.951Y-75.057
X116.205Y-76.835
X116.332Y-73.66
X116.8Y-64.3
X116.9Y-70.6
X116.9Y-84.7
X116.9Y-91.
X116.9Y-104.
X116.9Y-122.6
T3
X86.8Y-60.3
X87.1Y-62.4
X88.7Y-64.8
X88.9Y-66.548
X89.5Y-58.7
X92.456Y-73.406
X92.786Y-60.286
X92.8Y-68.2
T4
X60.95Y-79.7
X60.95Y-81.3
X62.55Y-79.7
X62.55Y-81.3
X87.5Y-54.
X89.5Y-54.
X91.5Y-54.
T5
X101.346Y-69.596
X101.346Y-77.216
X103.886Y-69.596
X103.886Y-77.216
T6
X75.27Y-55.372
X79.67Y-55.372
T7
X60.198Y-124.988
X60.198Y-127.488
T8
X53.75Y-90.23
X53.75Y-92.77
X59.944Y-90.17
X59.944Y-92.71
X59.944Y-95.25
X59.944Y-97.79
X59.944Y-100.33
X59.944Y-102.87
X59.944Y-107.95
X59.944Y-110.49
X59.944Y-113.03
X59.944Y-115.57
X59.944Y-118.11
X59.944Y-120.65
X70.117Y-73.452
X82.55Y-119.888
X82.55Y-122.428
X85.09Y-119.888
X85.09Y-122.428
X85.103Y-73.452
X87.63Y-119.888
X87.63Y-122.428
X96.52Y-66.04
X96.52Y-68.58
X96.52Y-71.12
X98.23Y-127.75
X100.77Y-127.75
X108.204Y-81.026
X108.204Y-83.566
X108.204Y-86.106
X108.204Y-88.646
X108.204Y-91.186
X108.204Y-93.726
X108.204Y-96.266
X108.204Y-98.806
X108.204Y-102.87
X108.204Y-105.41
X108.204Y-107.95
X108.204Y-110.49
X108.204Y-113.03
X108.204Y-115.57
X108.204Y-118.11
X108.204Y-120.65
T9
X85.4Y-54.
X93.6Y-54.
T10
X61.214Y-59.69
X61.214Y-64.77
X63.754Y-62.23
X66.294Y-59.69
X66.294Y-64.77
T11
X54.305Y-67.31
X54.305Y-126.314
X70.117Y-100.63
X85.103Y-100.63
X114.3Y-67.31
X114.3Y-126.314
T8
X99.17Y-58.794G85X99.17Y-60.778
G05
X105.242Y-57.5G85X103.258Y-57.5
G05
X105.492Y-63.596G85X103.008Y-63.596
G05
T0
M30
