G04 (created by PCBNEW (2013-07-07 BZR 4022)-stable) date Sat 27 Jul 2013 03:47:40 PM NZST*
%MOIN*%
G04 Gerber Fmt 3.4, Leading zero omitted, Abs format*
%FSLAX34Y34*%
G01*
G70*
G90*
G04 APERTURE LIST*
%ADD10C,0.00590551*%
%ADD11C,0.00787402*%
%ADD12C,0.00984252*%
%ADD13C,0.0108268*%
%ADD14C,0.00511811*%
%ADD15C,0.00393701*%
%ADD16C,0.019685*%
%ADD17C,0.015*%
%ADD18C,0.006*%
%ADD19C,0.008*%
%ADD20C,0.0039*%
%ADD21C,0.0047*%
%ADD22C,0.005*%
%ADD23C,0.0028*%
%ADD24C,0.012*%
%ADD25C,0.0026*%
%ADD26C,0.004*%
%ADD27C,2.75591e-07*%
%ADD28C,0.0043*%
%ADD29C,0.0045*%
%ADD30C,0.01*%
%ADD31C,0.00295276*%
%ADD32C,0.0059*%
G04 APERTURE END LIST*
G54D10*
G54D11*
X21086Y-39572D02*
X21427Y-39460D01*
X21086Y-39347D01*
X21427Y-38920D02*
X21427Y-39190D01*
X21427Y-39055D02*
X20915Y-39055D01*
X20988Y-39100D01*
X21037Y-39145D01*
X21062Y-39190D01*
X21378Y-38717D02*
X21403Y-38695D01*
X21427Y-38717D01*
X21403Y-38740D01*
X21378Y-38717D01*
X21427Y-38717D01*
X20915Y-38402D02*
X20915Y-38357D01*
X20940Y-38312D01*
X20964Y-38290D01*
X21013Y-38267D01*
X21110Y-38245D01*
X21232Y-38245D01*
X21330Y-38267D01*
X21378Y-38290D01*
X21403Y-38312D01*
X21427Y-38357D01*
X21427Y-38402D01*
X21403Y-38447D01*
X21378Y-38470D01*
X21330Y-38492D01*
X21232Y-38515D01*
X21110Y-38515D01*
X21013Y-38492D01*
X20964Y-38470D01*
X20940Y-38447D01*
X20915Y-38402D01*
G54D12*
X30453Y-41980D02*
X30641Y-41980D01*
X30416Y-42104D02*
X30547Y-41671D01*
X30678Y-42104D01*
X30753Y-41671D02*
X30978Y-41671D01*
X30866Y-42104D02*
X30866Y-41671D01*
X31109Y-42104D02*
X31109Y-41815D01*
X31109Y-41856D02*
X31128Y-41836D01*
X31166Y-41815D01*
X31222Y-41815D01*
X31259Y-41836D01*
X31278Y-41877D01*
X31278Y-42104D01*
X31278Y-41877D02*
X31297Y-41836D01*
X31334Y-41815D01*
X31391Y-41815D01*
X31428Y-41836D01*
X31447Y-41877D01*
X31447Y-42104D01*
X31784Y-42083D02*
X31747Y-42104D01*
X31672Y-42104D01*
X31634Y-42083D01*
X31616Y-42042D01*
X31616Y-41877D01*
X31634Y-41836D01*
X31672Y-41815D01*
X31747Y-41815D01*
X31784Y-41836D01*
X31803Y-41877D01*
X31803Y-41918D01*
X31616Y-41960D01*
X32140Y-41815D02*
X32140Y-42166D01*
X32122Y-42207D01*
X32103Y-42228D01*
X32065Y-42248D01*
X32009Y-42248D01*
X31972Y-42228D01*
X32140Y-42083D02*
X32103Y-42104D01*
X32028Y-42104D01*
X31991Y-42083D01*
X31972Y-42063D01*
X31953Y-42021D01*
X31953Y-41898D01*
X31972Y-41856D01*
X31991Y-41836D01*
X32028Y-41815D01*
X32103Y-41815D01*
X32140Y-41836D01*
X32497Y-42104D02*
X32497Y-41877D01*
X32478Y-41836D01*
X32440Y-41815D01*
X32365Y-41815D01*
X32328Y-41836D01*
X32497Y-42083D02*
X32459Y-42104D01*
X32365Y-42104D01*
X32328Y-42083D01*
X32309Y-42042D01*
X32309Y-42001D01*
X32328Y-41960D01*
X32365Y-41939D01*
X32459Y-41939D01*
X32497Y-41918D01*
X32647Y-41671D02*
X32890Y-41671D01*
X32759Y-41836D01*
X32815Y-41836D01*
X32853Y-41856D01*
X32872Y-41877D01*
X32890Y-41918D01*
X32890Y-42021D01*
X32872Y-42063D01*
X32853Y-42083D01*
X32815Y-42104D01*
X32703Y-42104D01*
X32665Y-42083D01*
X32647Y-42063D01*
X33040Y-41712D02*
X33059Y-41691D01*
X33097Y-41671D01*
X33190Y-41671D01*
X33228Y-41691D01*
X33247Y-41712D01*
X33265Y-41753D01*
X33265Y-41795D01*
X33247Y-41856D01*
X33022Y-42104D01*
X33265Y-42104D01*
X33490Y-41856D02*
X33453Y-41836D01*
X33434Y-41815D01*
X33415Y-41774D01*
X33415Y-41753D01*
X33434Y-41712D01*
X33453Y-41691D01*
X33490Y-41671D01*
X33565Y-41671D01*
X33603Y-41691D01*
X33622Y-41712D01*
X33640Y-41753D01*
X33640Y-41774D01*
X33622Y-41815D01*
X33603Y-41836D01*
X33565Y-41856D01*
X33490Y-41856D01*
X33453Y-41877D01*
X33434Y-41898D01*
X33415Y-41939D01*
X33415Y-42021D01*
X33434Y-42063D01*
X33453Y-42083D01*
X33490Y-42104D01*
X33565Y-42104D01*
X33603Y-42083D01*
X33622Y-42063D01*
X33640Y-42021D01*
X33640Y-41939D01*
X33622Y-41898D01*
X33603Y-41877D01*
X33565Y-41856D01*
X31419Y-42561D02*
X31381Y-42541D01*
X31362Y-42520D01*
X31344Y-42479D01*
X31344Y-42458D01*
X31362Y-42417D01*
X31381Y-42396D01*
X31419Y-42376D01*
X31494Y-42376D01*
X31531Y-42396D01*
X31550Y-42417D01*
X31569Y-42458D01*
X31569Y-42479D01*
X31550Y-42520D01*
X31531Y-42541D01*
X31494Y-42561D01*
X31419Y-42561D01*
X31381Y-42582D01*
X31362Y-42602D01*
X31344Y-42644D01*
X31344Y-42726D01*
X31362Y-42767D01*
X31381Y-42788D01*
X31419Y-42809D01*
X31494Y-42809D01*
X31531Y-42788D01*
X31550Y-42767D01*
X31569Y-42726D01*
X31569Y-42644D01*
X31550Y-42602D01*
X31531Y-42582D01*
X31494Y-42561D01*
X31737Y-42809D02*
X31737Y-42376D01*
X31869Y-42685D01*
X32000Y-42376D01*
X32000Y-42809D01*
X32187Y-42809D02*
X32187Y-42376D01*
X32187Y-42582D02*
X32412Y-42582D01*
X32412Y-42809D02*
X32412Y-42376D01*
X32562Y-42520D02*
X32769Y-42520D01*
X32562Y-42809D01*
X32769Y-42809D01*
G54D13*
X37622Y-20741D02*
X37622Y-20268D01*
X37787Y-20268D01*
X37828Y-20291D01*
X37849Y-20313D01*
X37870Y-20358D01*
X37870Y-20426D01*
X37849Y-20471D01*
X37828Y-20493D01*
X37787Y-20516D01*
X37622Y-20516D01*
X38014Y-20268D02*
X38117Y-20741D01*
X38200Y-20403D01*
X38282Y-20741D01*
X38385Y-20268D01*
X38798Y-20741D02*
X38653Y-20516D01*
X38550Y-20741D02*
X38550Y-20268D01*
X38715Y-20268D01*
X38756Y-20291D01*
X38777Y-20313D01*
X38798Y-20358D01*
X38798Y-20426D01*
X38777Y-20471D01*
X38756Y-20493D01*
X38715Y-20516D01*
X38550Y-20516D01*
G54D11*
X26299Y-40866D02*
X26299Y-36220D01*
G54D12*
X25690Y-38278D02*
X26123Y-38278D01*
X26123Y-38458D01*
X26103Y-38503D01*
X26082Y-38526D01*
X26041Y-38548D01*
X25979Y-38548D01*
X25938Y-38526D01*
X25917Y-38503D01*
X25897Y-38458D01*
X25897Y-38278D01*
X26123Y-38841D02*
X26123Y-38931D01*
X26103Y-38976D01*
X26062Y-39021D01*
X25979Y-39043D01*
X25835Y-39043D01*
X25752Y-39021D01*
X25711Y-38976D01*
X25690Y-38931D01*
X25690Y-38841D01*
X25711Y-38796D01*
X25752Y-38751D01*
X25835Y-38728D01*
X25979Y-38728D01*
X26062Y-38751D01*
X26103Y-38796D01*
X26123Y-38841D01*
X26123Y-39201D02*
X25690Y-39313D01*
X26000Y-39403D01*
X25690Y-39493D01*
X26123Y-39606D01*
X25917Y-39786D02*
X25917Y-39943D01*
X25690Y-40011D02*
X25690Y-39786D01*
X26123Y-39786D01*
X26123Y-40011D01*
X25690Y-40483D02*
X25897Y-40326D01*
X25690Y-40213D02*
X26123Y-40213D01*
X26123Y-40393D01*
X26103Y-40438D01*
X26082Y-40461D01*
X26041Y-40483D01*
X25979Y-40483D01*
X25938Y-40461D01*
X25917Y-40438D01*
X25897Y-40393D01*
X25897Y-40213D01*
G54D10*
X25294Y-47578D02*
X25339Y-47591D01*
X25414Y-47591D01*
X25444Y-47578D01*
X25459Y-47565D01*
X25474Y-47539D01*
X25474Y-47513D01*
X25459Y-47486D01*
X25444Y-47473D01*
X25414Y-47460D01*
X25354Y-47447D01*
X25324Y-47434D01*
X25309Y-47421D01*
X25294Y-47395D01*
X25294Y-47368D01*
X25309Y-47342D01*
X25324Y-47329D01*
X25354Y-47316D01*
X25429Y-47316D01*
X25474Y-47329D01*
X25789Y-47565D02*
X25774Y-47578D01*
X25729Y-47591D01*
X25699Y-47591D01*
X25654Y-47578D01*
X25624Y-47552D01*
X25609Y-47526D01*
X25594Y-47473D01*
X25594Y-47434D01*
X25609Y-47381D01*
X25624Y-47355D01*
X25654Y-47329D01*
X25699Y-47316D01*
X25729Y-47316D01*
X25774Y-47329D01*
X25789Y-47342D01*
X26074Y-47591D02*
X25924Y-47591D01*
X25924Y-47316D01*
X25286Y-46594D02*
X25331Y-46607D01*
X25406Y-46607D01*
X25436Y-46594D01*
X25451Y-46581D01*
X25466Y-46555D01*
X25466Y-46528D01*
X25451Y-46502D01*
X25436Y-46489D01*
X25406Y-46476D01*
X25346Y-46463D01*
X25316Y-46450D01*
X25301Y-46437D01*
X25286Y-46410D01*
X25286Y-46384D01*
X25301Y-46358D01*
X25316Y-46345D01*
X25346Y-46332D01*
X25421Y-46332D01*
X25466Y-46345D01*
X25601Y-46607D02*
X25601Y-46332D01*
X25676Y-46332D01*
X25721Y-46345D01*
X25751Y-46371D01*
X25766Y-46397D01*
X25781Y-46450D01*
X25781Y-46489D01*
X25766Y-46541D01*
X25751Y-46568D01*
X25721Y-46594D01*
X25676Y-46607D01*
X25601Y-46607D01*
X25901Y-46528D02*
X26051Y-46528D01*
X25871Y-46607D02*
X25976Y-46332D01*
X26081Y-46607D01*
G54D11*
X39800Y-33550D02*
X39800Y-47850D01*
X25800Y-47950D02*
X25850Y-47950D01*
X26311Y-42021D02*
X26311Y-47871D01*
G54D12*
X40074Y-40227D02*
X40507Y-40227D01*
X40507Y-40340D01*
X40487Y-40407D01*
X40445Y-40452D01*
X40404Y-40475D01*
X40322Y-40497D01*
X40260Y-40497D01*
X40177Y-40475D01*
X40136Y-40452D01*
X40095Y-40407D01*
X40074Y-40340D01*
X40074Y-40227D01*
X40074Y-40700D02*
X40507Y-40700D01*
X40487Y-41172D02*
X40507Y-41127D01*
X40507Y-41060D01*
X40487Y-40992D01*
X40445Y-40947D01*
X40404Y-40925D01*
X40322Y-40902D01*
X40260Y-40902D01*
X40177Y-40925D01*
X40136Y-40947D01*
X40095Y-40992D01*
X40074Y-41060D01*
X40074Y-41105D01*
X40095Y-41172D01*
X40115Y-41195D01*
X40260Y-41195D01*
X40260Y-41105D01*
X40074Y-41397D02*
X40507Y-41397D01*
X40507Y-41555D02*
X40507Y-41825D01*
X40074Y-41690D02*
X40507Y-41690D01*
X40198Y-41960D02*
X40198Y-42185D01*
X40074Y-41915D02*
X40507Y-42072D01*
X40074Y-42230D01*
X40074Y-42612D02*
X40074Y-42387D01*
X40507Y-42387D01*
X39909Y-43264D02*
X39930Y-43242D01*
X39992Y-43197D01*
X40033Y-43174D01*
X40095Y-43152D01*
X40198Y-43129D01*
X40280Y-43129D01*
X40384Y-43152D01*
X40445Y-43174D01*
X40487Y-43197D01*
X40549Y-43242D01*
X40569Y-43264D01*
X40239Y-43444D02*
X40239Y-43804D01*
X40074Y-44029D02*
X40507Y-44029D01*
X40507Y-44209D01*
X40487Y-44254D01*
X40466Y-44277D01*
X40425Y-44299D01*
X40363Y-44299D01*
X40322Y-44277D01*
X40301Y-44254D01*
X40280Y-44209D01*
X40280Y-44029D01*
X40507Y-44457D02*
X40074Y-44569D01*
X40384Y-44659D01*
X40074Y-44749D01*
X40507Y-44862D01*
X40074Y-45042D02*
X40507Y-45042D01*
X40198Y-45199D01*
X40507Y-45357D01*
X40074Y-45357D01*
X39909Y-45537D02*
X39930Y-45559D01*
X39992Y-45604D01*
X40033Y-45627D01*
X40095Y-45649D01*
X40198Y-45672D01*
X40280Y-45672D01*
X40384Y-45649D01*
X40445Y-45627D01*
X40487Y-45604D01*
X40549Y-45559D01*
X40569Y-45537D01*
X27027Y-25635D02*
X27003Y-25613D01*
X26978Y-25568D01*
X26978Y-25455D01*
X27003Y-25410D01*
X27027Y-25388D01*
X27076Y-25365D01*
X27125Y-25365D01*
X27198Y-25388D01*
X27490Y-25658D01*
X27490Y-25365D01*
X27441Y-25163D02*
X27466Y-25140D01*
X27490Y-25163D01*
X27466Y-25185D01*
X27441Y-25163D01*
X27490Y-25163D01*
X27149Y-24735D02*
X27490Y-24735D01*
X26954Y-24848D02*
X27320Y-24960D01*
X27320Y-24668D01*
X27003Y-24240D02*
X26978Y-24285D01*
X26978Y-24353D01*
X27003Y-24420D01*
X27051Y-24465D01*
X27100Y-24488D01*
X27198Y-24510D01*
X27271Y-24510D01*
X27368Y-24488D01*
X27417Y-24465D01*
X27466Y-24420D01*
X27490Y-24353D01*
X27490Y-24308D01*
X27466Y-24240D01*
X27441Y-24218D01*
X27271Y-24218D01*
X27271Y-24308D01*
X27490Y-24015D02*
X26978Y-24015D01*
X27222Y-24015D02*
X27222Y-23745D01*
X27490Y-23745D02*
X26978Y-23745D01*
X27149Y-23565D02*
X27149Y-23318D01*
X27490Y-23565D01*
X27490Y-23318D01*
X28007Y-49200D02*
X28138Y-49200D01*
X28194Y-49427D02*
X28007Y-49427D01*
X28007Y-48994D01*
X28194Y-48994D01*
X28325Y-48994D02*
X28588Y-49427D01*
X28588Y-48994D02*
X28325Y-49427D01*
X28682Y-48994D02*
X28907Y-48994D01*
X28794Y-49427D02*
X28794Y-48994D01*
X28138Y-49905D02*
X28194Y-49925D01*
X28213Y-49946D01*
X28232Y-49987D01*
X28232Y-50049D01*
X28213Y-50090D01*
X28194Y-50111D01*
X28157Y-50131D01*
X28007Y-50131D01*
X28007Y-49698D01*
X28138Y-49698D01*
X28175Y-49719D01*
X28194Y-49740D01*
X28213Y-49781D01*
X28213Y-49822D01*
X28194Y-49863D01*
X28175Y-49884D01*
X28138Y-49905D01*
X28007Y-49905D01*
X28382Y-50008D02*
X28569Y-50008D01*
X28344Y-50131D02*
X28475Y-49698D01*
X28607Y-50131D01*
X28682Y-49698D02*
X28907Y-49698D01*
X28794Y-50131D02*
X28794Y-49698D01*
X28982Y-49698D02*
X29206Y-49698D01*
X29094Y-50131D02*
X29094Y-49698D01*
G54D11*
X39409Y-26671D02*
X39221Y-26671D01*
X39221Y-26238D01*
X39540Y-26444D02*
X39671Y-26444D01*
X39728Y-26671D02*
X39540Y-26671D01*
X39540Y-26238D01*
X39728Y-26238D01*
X39896Y-26671D02*
X39896Y-26238D01*
X39990Y-26238D01*
X40046Y-26258D01*
X40084Y-26300D01*
X40103Y-26341D01*
X40121Y-26423D01*
X40121Y-26485D01*
X40103Y-26568D01*
X40084Y-26609D01*
X40046Y-26650D01*
X39990Y-26671D01*
X39896Y-26671D01*
X40590Y-26444D02*
X40721Y-26444D01*
X40778Y-26671D02*
X40590Y-26671D01*
X40590Y-26238D01*
X40778Y-26238D01*
X40946Y-26671D02*
X40946Y-26238D01*
X41171Y-26671D01*
X41171Y-26238D01*
X41490Y-26444D02*
X41546Y-26465D01*
X41565Y-26485D01*
X41584Y-26526D01*
X41584Y-26588D01*
X41565Y-26630D01*
X41546Y-26650D01*
X41509Y-26671D01*
X41359Y-26671D01*
X41359Y-26238D01*
X41490Y-26238D01*
X41527Y-26258D01*
X41546Y-26279D01*
X41565Y-26320D01*
X41565Y-26362D01*
X41546Y-26403D01*
X41527Y-26423D01*
X41490Y-26444D01*
X41359Y-26444D01*
X35779Y-22507D02*
X35836Y-22528D01*
X35854Y-22548D01*
X35873Y-22589D01*
X35873Y-22651D01*
X35854Y-22693D01*
X35836Y-22713D01*
X35798Y-22734D01*
X35648Y-22734D01*
X35648Y-22301D01*
X35779Y-22301D01*
X35817Y-22321D01*
X35836Y-22342D01*
X35854Y-22383D01*
X35854Y-22425D01*
X35836Y-22466D01*
X35817Y-22486D01*
X35779Y-22507D01*
X35648Y-22507D01*
X36023Y-22610D02*
X36211Y-22610D01*
X35986Y-22734D02*
X36117Y-22301D01*
X36248Y-22734D01*
X36323Y-22301D02*
X36548Y-22301D01*
X36436Y-22734D02*
X36436Y-22301D01*
X36623Y-22301D02*
X36848Y-22301D01*
X36736Y-22734D02*
X36736Y-22301D01*
X33755Y-22301D02*
X33755Y-22651D01*
X33773Y-22693D01*
X33792Y-22713D01*
X33830Y-22734D01*
X33905Y-22734D01*
X33942Y-22713D01*
X33961Y-22693D01*
X33980Y-22651D01*
X33980Y-22301D01*
X34148Y-22713D02*
X34205Y-22734D01*
X34298Y-22734D01*
X34336Y-22713D01*
X34355Y-22693D01*
X34373Y-22651D01*
X34373Y-22610D01*
X34355Y-22569D01*
X34336Y-22548D01*
X34298Y-22528D01*
X34223Y-22507D01*
X34186Y-22486D01*
X34167Y-22466D01*
X34148Y-22425D01*
X34148Y-22383D01*
X34167Y-22342D01*
X34186Y-22321D01*
X34223Y-22301D01*
X34317Y-22301D01*
X34373Y-22321D01*
X34673Y-22507D02*
X34730Y-22528D01*
X34748Y-22548D01*
X34767Y-22589D01*
X34767Y-22651D01*
X34748Y-22693D01*
X34730Y-22713D01*
X34692Y-22734D01*
X34542Y-22734D01*
X34542Y-22301D01*
X34673Y-22301D01*
X34711Y-22321D01*
X34730Y-22342D01*
X34748Y-22383D01*
X34748Y-22425D01*
X34730Y-22466D01*
X34711Y-22486D01*
X34673Y-22507D01*
X34542Y-22507D01*
G54D12*
X37110Y-50117D02*
X37073Y-50096D01*
X37017Y-50096D01*
X36961Y-50117D01*
X36923Y-50158D01*
X36904Y-50199D01*
X36886Y-50282D01*
X36886Y-50344D01*
X36904Y-50426D01*
X36923Y-50467D01*
X36961Y-50508D01*
X37017Y-50529D01*
X37054Y-50529D01*
X37110Y-50508D01*
X37129Y-50488D01*
X37129Y-50344D01*
X37054Y-50344D01*
X37298Y-50529D02*
X37298Y-50096D01*
X37523Y-50529D01*
X37523Y-50096D01*
X37710Y-50529D02*
X37710Y-50096D01*
X37804Y-50096D01*
X37860Y-50117D01*
X37898Y-50158D01*
X37917Y-50199D01*
X37935Y-50282D01*
X37935Y-50344D01*
X37917Y-50426D01*
X37898Y-50467D01*
X37860Y-50508D01*
X37804Y-50529D01*
X37710Y-50529D01*
X33243Y-49505D02*
X33243Y-49072D01*
X33412Y-49485D02*
X33468Y-49505D01*
X33562Y-49505D01*
X33599Y-49485D01*
X33618Y-49464D01*
X33637Y-49423D01*
X33637Y-49382D01*
X33618Y-49341D01*
X33599Y-49320D01*
X33562Y-49299D01*
X33487Y-49279D01*
X33449Y-49258D01*
X33430Y-49237D01*
X33412Y-49196D01*
X33412Y-49155D01*
X33430Y-49114D01*
X33449Y-49093D01*
X33487Y-49072D01*
X33580Y-49072D01*
X33637Y-49093D01*
X33805Y-49505D02*
X33805Y-49072D01*
X33955Y-49072D01*
X33993Y-49093D01*
X34011Y-49114D01*
X34030Y-49155D01*
X34030Y-49217D01*
X34011Y-49258D01*
X33993Y-49279D01*
X33955Y-49299D01*
X33805Y-49299D01*
G54D14*
X27373Y-44284D02*
X27294Y-44153D01*
X27238Y-44284D02*
X27238Y-44009D01*
X27328Y-44009D01*
X27350Y-44022D01*
X27362Y-44035D01*
X27373Y-44061D01*
X27373Y-44101D01*
X27362Y-44127D01*
X27350Y-44140D01*
X27328Y-44153D01*
X27238Y-44153D01*
X27474Y-44140D02*
X27553Y-44140D01*
X27587Y-44284D02*
X27474Y-44284D01*
X27474Y-44009D01*
X27587Y-44009D01*
X27677Y-44271D02*
X27710Y-44284D01*
X27767Y-44284D01*
X27789Y-44271D01*
X27800Y-44258D01*
X27812Y-44232D01*
X27812Y-44206D01*
X27800Y-44179D01*
X27789Y-44166D01*
X27767Y-44153D01*
X27722Y-44140D01*
X27699Y-44127D01*
X27688Y-44114D01*
X27677Y-44087D01*
X27677Y-44061D01*
X27688Y-44035D01*
X27699Y-44022D01*
X27722Y-44009D01*
X27778Y-44009D01*
X27812Y-44022D01*
X27913Y-44140D02*
X27992Y-44140D01*
X28025Y-44284D02*
X27913Y-44284D01*
X27913Y-44009D01*
X28025Y-44009D01*
X28093Y-44009D02*
X28228Y-44009D01*
X28160Y-44284D02*
X28160Y-44009D01*
G54D15*
X22135Y-47365D02*
X21820Y-47365D01*
X22135Y-47182D02*
X21955Y-47319D01*
X21820Y-47182D02*
X22000Y-47365D01*
X22135Y-47046D02*
X21925Y-47046D01*
X21820Y-47046D02*
X21835Y-47061D01*
X21850Y-47046D01*
X21835Y-47030D01*
X21820Y-47046D01*
X21850Y-47046D01*
X22105Y-46712D02*
X22120Y-46727D01*
X22135Y-46772D01*
X22135Y-46803D01*
X22120Y-46848D01*
X22090Y-46879D01*
X22060Y-46894D01*
X22000Y-46909D01*
X21955Y-46909D01*
X21895Y-46894D01*
X21865Y-46879D01*
X21835Y-46848D01*
X21820Y-46803D01*
X21820Y-46772D01*
X21835Y-46727D01*
X21850Y-46712D01*
X22045Y-46590D02*
X22045Y-46438D01*
X22135Y-46620D02*
X21820Y-46514D01*
X22135Y-46408D01*
X22135Y-46302D02*
X21820Y-46302D01*
X21820Y-46226D01*
X21835Y-46180D01*
X21865Y-46150D01*
X21895Y-46134D01*
X21955Y-46119D01*
X22000Y-46119D01*
X22060Y-46134D01*
X22090Y-46150D01*
X22120Y-46180D01*
X22135Y-46226D01*
X22135Y-46302D01*
X21970Y-45633D02*
X21970Y-45740D01*
X22135Y-45740D02*
X21820Y-45740D01*
X21820Y-45588D01*
X22135Y-45466D02*
X21925Y-45466D01*
X21985Y-45466D02*
X21955Y-45451D01*
X21940Y-45436D01*
X21925Y-45406D01*
X21925Y-45375D01*
X22120Y-45147D02*
X22135Y-45178D01*
X22135Y-45239D01*
X22120Y-45269D01*
X22090Y-45284D01*
X21970Y-45284D01*
X21940Y-45269D01*
X21925Y-45239D01*
X21925Y-45178D01*
X21940Y-45147D01*
X21970Y-45132D01*
X22000Y-45132D01*
X22030Y-45284D01*
X22135Y-44859D02*
X21970Y-44859D01*
X21940Y-44874D01*
X21925Y-44904D01*
X21925Y-44965D01*
X21940Y-44996D01*
X22120Y-44859D02*
X22135Y-44889D01*
X22135Y-44965D01*
X22120Y-44996D01*
X22090Y-45011D01*
X22060Y-45011D01*
X22030Y-44996D01*
X22015Y-44965D01*
X22015Y-44889D01*
X22000Y-44859D01*
X22135Y-44707D02*
X21820Y-44707D01*
X22015Y-44677D02*
X22135Y-44586D01*
X21925Y-44586D02*
X22045Y-44707D01*
X22135Y-44312D02*
X21820Y-44312D01*
X22120Y-44312D02*
X22135Y-44343D01*
X22135Y-44403D01*
X22120Y-44434D01*
X22105Y-44449D01*
X22075Y-44464D01*
X21985Y-44464D01*
X21955Y-44449D01*
X21940Y-44434D01*
X21925Y-44403D01*
X21925Y-44343D01*
X21940Y-44312D01*
X21925Y-44024D02*
X22135Y-44024D01*
X21925Y-44160D02*
X22090Y-44160D01*
X22120Y-44145D01*
X22135Y-44115D01*
X22135Y-44069D01*
X22120Y-44039D01*
X22105Y-44024D01*
X22135Y-43872D02*
X21925Y-43872D01*
X21820Y-43872D02*
X21835Y-43887D01*
X21850Y-43872D01*
X21835Y-43857D01*
X21820Y-43872D01*
X21850Y-43872D01*
X21925Y-43720D02*
X22135Y-43720D01*
X21955Y-43720D02*
X21940Y-43705D01*
X21925Y-43674D01*
X21925Y-43629D01*
X21940Y-43598D01*
X21970Y-43583D01*
X22135Y-43583D01*
X22135Y-43386D02*
X22120Y-43416D01*
X22105Y-43431D01*
X22075Y-43447D01*
X21985Y-43447D01*
X21955Y-43431D01*
X21940Y-43416D01*
X21925Y-43386D01*
X21925Y-43340D01*
X21940Y-43310D01*
X21955Y-43295D01*
X21985Y-43280D01*
X22075Y-43280D01*
X22105Y-43295D01*
X22120Y-43310D01*
X22135Y-43340D01*
X22135Y-43386D01*
X21925Y-42930D02*
X22135Y-42854D01*
X21925Y-42778D01*
X21850Y-42672D02*
X21835Y-42657D01*
X21820Y-42627D01*
X21820Y-42551D01*
X21835Y-42520D01*
X21850Y-42505D01*
X21880Y-42490D01*
X21910Y-42490D01*
X21955Y-42505D01*
X22135Y-42687D01*
X22135Y-42490D01*
X22105Y-42353D02*
X22120Y-42338D01*
X22135Y-42353D01*
X22120Y-42368D01*
X22105Y-42353D01*
X22135Y-42353D01*
X22135Y-42034D02*
X22135Y-42217D01*
X22135Y-42125D02*
X21820Y-42125D01*
X21865Y-42156D01*
X21895Y-42186D01*
X21910Y-42217D01*
X22135Y-41761D02*
X21970Y-41761D01*
X21940Y-41776D01*
X21925Y-41807D01*
X21925Y-41867D01*
X21940Y-41898D01*
X22120Y-41761D02*
X22135Y-41791D01*
X22135Y-41867D01*
X22120Y-41898D01*
X22090Y-41913D01*
X22060Y-41913D01*
X22030Y-41898D01*
X22015Y-41867D01*
X22015Y-41791D01*
X22000Y-41761D01*
X22120Y-41230D02*
X22135Y-41260D01*
X22135Y-41321D01*
X22120Y-41351D01*
X22105Y-41366D01*
X22075Y-41381D01*
X21985Y-41381D01*
X21955Y-41366D01*
X21940Y-41351D01*
X21925Y-41321D01*
X21925Y-41260D01*
X21940Y-41230D01*
X22135Y-41047D02*
X22120Y-41078D01*
X22105Y-41093D01*
X22075Y-41108D01*
X21985Y-41108D01*
X21955Y-41093D01*
X21940Y-41078D01*
X21925Y-41047D01*
X21925Y-41002D01*
X21940Y-40971D01*
X21955Y-40956D01*
X21985Y-40941D01*
X22075Y-40941D01*
X22105Y-40956D01*
X22120Y-40971D01*
X22135Y-41002D01*
X22135Y-41047D01*
X22135Y-40804D02*
X21925Y-40804D01*
X21955Y-40804D02*
X21940Y-40789D01*
X21925Y-40759D01*
X21925Y-40713D01*
X21940Y-40683D01*
X21970Y-40668D01*
X22135Y-40668D01*
X21970Y-40668D02*
X21940Y-40652D01*
X21925Y-40622D01*
X21925Y-40577D01*
X21940Y-40546D01*
X21970Y-40531D01*
X22135Y-40531D01*
X21925Y-40379D02*
X22240Y-40379D01*
X21940Y-40379D02*
X21925Y-40349D01*
X21925Y-40288D01*
X21940Y-40258D01*
X21955Y-40242D01*
X21985Y-40227D01*
X22075Y-40227D01*
X22105Y-40242D01*
X22120Y-40258D01*
X22135Y-40288D01*
X22135Y-40349D01*
X22120Y-40379D01*
X22135Y-39954D02*
X21970Y-39954D01*
X21940Y-39969D01*
X21925Y-39999D01*
X21925Y-40060D01*
X21940Y-40091D01*
X22120Y-39954D02*
X22135Y-39984D01*
X22135Y-40060D01*
X22120Y-40091D01*
X22090Y-40106D01*
X22060Y-40106D01*
X22030Y-40091D01*
X22015Y-40060D01*
X22015Y-39984D01*
X22000Y-39954D01*
X21925Y-39848D02*
X21925Y-39726D01*
X21820Y-39802D02*
X22090Y-39802D01*
X22120Y-39787D01*
X22135Y-39757D01*
X22135Y-39726D01*
X22255Y-39286D02*
X22240Y-39301D01*
X22195Y-39331D01*
X22165Y-39347D01*
X22120Y-39362D01*
X22045Y-39377D01*
X21985Y-39377D01*
X21910Y-39362D01*
X21865Y-39347D01*
X21835Y-39331D01*
X21790Y-39301D01*
X21775Y-39286D01*
X22135Y-39164D02*
X21925Y-39164D01*
X21985Y-39164D02*
X21955Y-39149D01*
X21940Y-39134D01*
X21925Y-39104D01*
X21925Y-39073D01*
X22135Y-38800D02*
X22135Y-38982D01*
X22135Y-38891D02*
X21820Y-38891D01*
X21865Y-38921D01*
X21895Y-38952D01*
X21910Y-38982D01*
X22135Y-38496D02*
X22135Y-38678D01*
X22135Y-38587D02*
X21820Y-38587D01*
X21865Y-38618D01*
X21895Y-38648D01*
X21910Y-38678D01*
X21820Y-38223D02*
X21820Y-38284D01*
X21835Y-38314D01*
X21850Y-38329D01*
X21895Y-38359D01*
X21955Y-38375D01*
X22075Y-38375D01*
X22105Y-38359D01*
X22120Y-38344D01*
X22135Y-38314D01*
X22135Y-38253D01*
X22120Y-38223D01*
X22105Y-38208D01*
X22075Y-38192D01*
X22000Y-38192D01*
X21970Y-38208D01*
X21955Y-38223D01*
X21940Y-38253D01*
X21940Y-38314D01*
X21955Y-38344D01*
X21970Y-38359D01*
X22000Y-38375D01*
X22255Y-38086D02*
X22240Y-38071D01*
X22195Y-38041D01*
X22165Y-38025D01*
X22120Y-38010D01*
X22045Y-37995D01*
X21985Y-37995D01*
X21910Y-38010D01*
X21865Y-38025D01*
X21835Y-38041D01*
X21790Y-38071D01*
X21775Y-38086D01*
G54D16*
X20588Y-46845D02*
X20547Y-46915D01*
X20547Y-47028D01*
X20588Y-47145D01*
X20671Y-47230D01*
X20753Y-47278D01*
X20918Y-47336D01*
X21042Y-47352D01*
X21207Y-47335D01*
X21289Y-47308D01*
X21372Y-47243D01*
X21413Y-47136D01*
X21413Y-47061D01*
X21372Y-46943D01*
X21331Y-46901D01*
X21042Y-46864D01*
X21042Y-47014D01*
X21413Y-46573D02*
X20836Y-46501D01*
X21001Y-46522D02*
X20918Y-46474D01*
X20877Y-46431D01*
X20836Y-46351D01*
X20836Y-46276D01*
X20836Y-45676D02*
X21413Y-45748D01*
X20836Y-46014D02*
X21289Y-46070D01*
X21372Y-46043D01*
X21413Y-45973D01*
X21413Y-45861D01*
X21372Y-45781D01*
X21331Y-45738D01*
X20836Y-45376D02*
X21413Y-45261D01*
X20836Y-45001D01*
X21413Y-44774D02*
X20836Y-44701D01*
X20547Y-44665D02*
X20588Y-44708D01*
X20629Y-44676D01*
X20588Y-44633D01*
X20547Y-44665D01*
X20629Y-44676D01*
X20836Y-44326D02*
X21413Y-44399D01*
X20918Y-44337D02*
X20877Y-44294D01*
X20836Y-44214D01*
X20836Y-44101D01*
X20877Y-44032D01*
X20959Y-44004D01*
X21413Y-44061D01*
X21413Y-42449D02*
X21413Y-42486D01*
X21372Y-42556D01*
X21248Y-42653D01*
X21001Y-42810D01*
X20877Y-42869D01*
X20753Y-42891D01*
X20671Y-42881D01*
X20588Y-42833D01*
X20547Y-42753D01*
X20547Y-42716D01*
X20588Y-42646D01*
X20671Y-42619D01*
X20712Y-42624D01*
X20794Y-42672D01*
X20836Y-42714D01*
X21001Y-42960D01*
X21042Y-43002D01*
X21124Y-43050D01*
X21248Y-43066D01*
X21331Y-43038D01*
X21372Y-43006D01*
X21413Y-42936D01*
X21413Y-42824D01*
X21372Y-42744D01*
X21331Y-42701D01*
X21166Y-42568D01*
X21042Y-42515D01*
X20959Y-42505D01*
X21331Y-41051D02*
X21372Y-41094D01*
X21413Y-41212D01*
X21413Y-41287D01*
X21372Y-41394D01*
X21289Y-41459D01*
X21207Y-41486D01*
X21042Y-41503D01*
X20918Y-41487D01*
X20753Y-41429D01*
X20671Y-41381D01*
X20588Y-41296D01*
X20547Y-41178D01*
X20547Y-41103D01*
X20588Y-40996D01*
X20629Y-40964D01*
X21413Y-40612D02*
X21372Y-40681D01*
X21331Y-40714D01*
X21248Y-40741D01*
X21001Y-40710D01*
X20918Y-40662D01*
X20877Y-40620D01*
X20836Y-40539D01*
X20836Y-40427D01*
X20877Y-40357D01*
X20918Y-40325D01*
X21001Y-40298D01*
X21248Y-40329D01*
X21331Y-40376D01*
X21372Y-40419D01*
X21413Y-40499D01*
X21413Y-40612D01*
G54D10*
X37434Y-26203D02*
X37158Y-26203D01*
X37158Y-26147D01*
X37171Y-26113D01*
X37198Y-26091D01*
X37224Y-26079D01*
X37276Y-26068D01*
X37316Y-26068D01*
X37368Y-26079D01*
X37395Y-26091D01*
X37421Y-26113D01*
X37434Y-26147D01*
X37434Y-26203D01*
X37408Y-25832D02*
X37421Y-25843D01*
X37434Y-25877D01*
X37434Y-25899D01*
X37421Y-25933D01*
X37395Y-25956D01*
X37368Y-25967D01*
X37316Y-25978D01*
X37276Y-25978D01*
X37224Y-25967D01*
X37198Y-25956D01*
X37171Y-25933D01*
X37158Y-25899D01*
X37158Y-25877D01*
X37171Y-25843D01*
X37185Y-25832D01*
X37158Y-28329D02*
X37381Y-28329D01*
X37408Y-28318D01*
X37421Y-28307D01*
X37434Y-28284D01*
X37434Y-28239D01*
X37421Y-28217D01*
X37408Y-28205D01*
X37381Y-28194D01*
X37158Y-28194D01*
X37421Y-28093D02*
X37434Y-28059D01*
X37434Y-28003D01*
X37421Y-27980D01*
X37408Y-27969D01*
X37381Y-27958D01*
X37355Y-27958D01*
X37329Y-27969D01*
X37316Y-27980D01*
X37303Y-28003D01*
X37290Y-28048D01*
X37276Y-28070D01*
X37263Y-28082D01*
X37237Y-28093D01*
X37211Y-28093D01*
X37185Y-28082D01*
X37171Y-28070D01*
X37158Y-28048D01*
X37158Y-27992D01*
X37171Y-27958D01*
X37290Y-27778D02*
X37303Y-27744D01*
X37316Y-27733D01*
X37342Y-27722D01*
X37381Y-27722D01*
X37408Y-27733D01*
X37421Y-27744D01*
X37434Y-27767D01*
X37434Y-27857D01*
X37158Y-27857D01*
X37158Y-27778D01*
X37171Y-27755D01*
X37185Y-27744D01*
X37211Y-27733D01*
X37237Y-27733D01*
X37263Y-27744D01*
X37276Y-27755D01*
X37290Y-27778D01*
X37290Y-27857D01*
G54D11*
X37384Y-28962D02*
X37384Y-28607D01*
X37534Y-28962D02*
X37534Y-28607D01*
X37714Y-28962D01*
X37714Y-28607D01*
X37864Y-28962D02*
X37864Y-28607D01*
X37984Y-28607D01*
X38014Y-28624D01*
X38029Y-28641D01*
X38044Y-28675D01*
X38044Y-28726D01*
X38029Y-28759D01*
X38014Y-28776D01*
X37984Y-28793D01*
X37864Y-28793D01*
X38179Y-28607D02*
X38179Y-28894D01*
X38194Y-28928D01*
X38209Y-28945D01*
X38239Y-28962D01*
X38299Y-28962D01*
X38329Y-28945D01*
X38344Y-28928D01*
X38359Y-28894D01*
X38359Y-28607D01*
X38464Y-28607D02*
X38644Y-28607D01*
X38554Y-28962D02*
X38554Y-28607D01*
X37212Y-29520D02*
X37257Y-29537D01*
X37332Y-29537D01*
X37362Y-29520D01*
X37377Y-29503D01*
X37392Y-29469D01*
X37392Y-29435D01*
X37377Y-29402D01*
X37362Y-29385D01*
X37332Y-29368D01*
X37272Y-29351D01*
X37242Y-29334D01*
X37227Y-29317D01*
X37212Y-29284D01*
X37212Y-29250D01*
X37227Y-29216D01*
X37242Y-29199D01*
X37272Y-29182D01*
X37347Y-29182D01*
X37392Y-29199D01*
X37527Y-29351D02*
X37632Y-29351D01*
X37677Y-29537D02*
X37527Y-29537D01*
X37527Y-29182D01*
X37677Y-29182D01*
X37962Y-29537D02*
X37812Y-29537D01*
X37812Y-29182D01*
X38067Y-29351D02*
X38172Y-29351D01*
X38217Y-29537D02*
X38067Y-29537D01*
X38067Y-29182D01*
X38217Y-29182D01*
X38532Y-29503D02*
X38517Y-29520D01*
X38472Y-29537D01*
X38442Y-29537D01*
X38397Y-29520D01*
X38367Y-29486D01*
X38352Y-29452D01*
X38337Y-29385D01*
X38337Y-29334D01*
X38352Y-29267D01*
X38367Y-29233D01*
X38397Y-29199D01*
X38442Y-29182D01*
X38472Y-29182D01*
X38517Y-29199D01*
X38532Y-29216D01*
X38622Y-29182D02*
X38802Y-29182D01*
X38712Y-29537D02*
X38712Y-29182D01*
G54D10*
X40665Y-31048D02*
X40860Y-31048D01*
X40755Y-31183D01*
X40800Y-31183D01*
X40830Y-31200D01*
X40845Y-31217D01*
X40860Y-31251D01*
X40860Y-31335D01*
X40845Y-31369D01*
X40830Y-31386D01*
X40800Y-31403D01*
X40710Y-31403D01*
X40680Y-31386D01*
X40665Y-31369D01*
X40950Y-31048D02*
X41055Y-31403D01*
X41160Y-31048D01*
X39821Y-31048D02*
X39671Y-31048D01*
X39656Y-31217D01*
X39671Y-31200D01*
X39701Y-31183D01*
X39776Y-31183D01*
X39806Y-31200D01*
X39821Y-31217D01*
X39836Y-31251D01*
X39836Y-31335D01*
X39821Y-31369D01*
X39806Y-31386D01*
X39776Y-31403D01*
X39701Y-31403D01*
X39671Y-31386D01*
X39656Y-31369D01*
X39926Y-31048D02*
X40031Y-31403D01*
X40136Y-31048D01*
G54D12*
X24618Y-35775D02*
X24487Y-35569D01*
X24393Y-35775D02*
X24393Y-35342D01*
X24543Y-35342D01*
X24581Y-35362D01*
X24599Y-35383D01*
X24618Y-35424D01*
X24618Y-35486D01*
X24599Y-35527D01*
X24581Y-35548D01*
X24543Y-35569D01*
X24393Y-35569D01*
X24787Y-35548D02*
X24918Y-35548D01*
X24974Y-35775D02*
X24787Y-35775D01*
X24787Y-35342D01*
X24974Y-35342D01*
X25124Y-35754D02*
X25181Y-35775D01*
X25274Y-35775D01*
X25312Y-35754D01*
X25331Y-35734D01*
X25349Y-35692D01*
X25349Y-35651D01*
X25331Y-35610D01*
X25312Y-35589D01*
X25274Y-35569D01*
X25199Y-35548D01*
X25162Y-35527D01*
X25143Y-35507D01*
X25124Y-35465D01*
X25124Y-35424D01*
X25143Y-35383D01*
X25162Y-35362D01*
X25199Y-35342D01*
X25293Y-35342D01*
X25349Y-35362D01*
X25518Y-35548D02*
X25649Y-35548D01*
X25706Y-35775D02*
X25518Y-35775D01*
X25518Y-35342D01*
X25706Y-35342D01*
X25818Y-35342D02*
X26043Y-35342D01*
X25931Y-35775D02*
X25931Y-35342D01*
X24356Y-36242D02*
X24599Y-36242D01*
X24468Y-36407D01*
X24524Y-36407D01*
X24562Y-36427D01*
X24581Y-36448D01*
X24599Y-36489D01*
X24599Y-36592D01*
X24581Y-36634D01*
X24562Y-36654D01*
X24524Y-36675D01*
X24412Y-36675D01*
X24374Y-36654D01*
X24356Y-36634D01*
X24712Y-36242D02*
X24843Y-36675D01*
X24974Y-36242D01*
X25068Y-36242D02*
X25312Y-36242D01*
X25181Y-36407D01*
X25237Y-36407D01*
X25274Y-36427D01*
X25293Y-36448D01*
X25312Y-36489D01*
X25312Y-36592D01*
X25293Y-36634D01*
X25274Y-36654D01*
X25237Y-36675D01*
X25124Y-36675D01*
X25087Y-36654D01*
X25068Y-36634D01*
X24581Y-37242D02*
X24393Y-37242D01*
X24374Y-37448D01*
X24393Y-37427D01*
X24431Y-37407D01*
X24524Y-37407D01*
X24562Y-37427D01*
X24581Y-37448D01*
X24599Y-37489D01*
X24599Y-37592D01*
X24581Y-37634D01*
X24562Y-37654D01*
X24524Y-37675D01*
X24431Y-37675D01*
X24393Y-37654D01*
X24374Y-37634D01*
X24712Y-37242D02*
X24843Y-37675D01*
X24974Y-37242D01*
X24599Y-38262D02*
X24562Y-38242D01*
X24506Y-38242D01*
X24449Y-38262D01*
X24412Y-38304D01*
X24393Y-38345D01*
X24374Y-38427D01*
X24374Y-38489D01*
X24393Y-38572D01*
X24412Y-38613D01*
X24449Y-38654D01*
X24506Y-38675D01*
X24543Y-38675D01*
X24599Y-38654D01*
X24618Y-38634D01*
X24618Y-38489D01*
X24543Y-38489D01*
X24787Y-38675D02*
X24787Y-38242D01*
X25012Y-38675D01*
X25012Y-38242D01*
X25199Y-38675D02*
X25199Y-38242D01*
X25293Y-38242D01*
X25349Y-38262D01*
X25387Y-38304D01*
X25406Y-38345D01*
X25424Y-38427D01*
X25424Y-38489D01*
X25406Y-38572D01*
X25387Y-38613D01*
X25349Y-38654D01*
X25293Y-38675D01*
X25199Y-38675D01*
X24599Y-39262D02*
X24562Y-39242D01*
X24506Y-39242D01*
X24449Y-39262D01*
X24412Y-39304D01*
X24393Y-39345D01*
X24374Y-39427D01*
X24374Y-39489D01*
X24393Y-39572D01*
X24412Y-39613D01*
X24449Y-39654D01*
X24506Y-39675D01*
X24543Y-39675D01*
X24599Y-39654D01*
X24618Y-39634D01*
X24618Y-39489D01*
X24543Y-39489D01*
X24787Y-39675D02*
X24787Y-39242D01*
X25012Y-39675D01*
X25012Y-39242D01*
X25199Y-39675D02*
X25199Y-39242D01*
X25293Y-39242D01*
X25349Y-39262D01*
X25387Y-39304D01*
X25406Y-39345D01*
X25424Y-39427D01*
X25424Y-39489D01*
X25406Y-39572D01*
X25387Y-39613D01*
X25349Y-39654D01*
X25293Y-39675D01*
X25199Y-39675D01*
X24337Y-40242D02*
X24468Y-40675D01*
X24599Y-40242D01*
X24731Y-40675D02*
X24731Y-40386D01*
X24731Y-40242D02*
X24712Y-40262D01*
X24731Y-40283D01*
X24749Y-40262D01*
X24731Y-40242D01*
X24731Y-40283D01*
X24918Y-40386D02*
X24918Y-40675D01*
X24918Y-40427D02*
X24937Y-40407D01*
X24974Y-40386D01*
X25031Y-40386D01*
X25068Y-40407D01*
X25087Y-40448D01*
X25087Y-40675D01*
X25814Y-42317D02*
X25814Y-42542D01*
X25690Y-42272D02*
X26123Y-42429D01*
X25690Y-42587D01*
X25690Y-42744D02*
X26123Y-42744D01*
X25690Y-43014D01*
X26123Y-43014D01*
X25814Y-43217D02*
X25814Y-43442D01*
X25690Y-43172D02*
X26123Y-43329D01*
X25690Y-43487D01*
X25690Y-43869D02*
X25690Y-43644D01*
X26123Y-43644D01*
X26123Y-44116D02*
X26123Y-44206D01*
X26103Y-44251D01*
X26062Y-44296D01*
X25979Y-44319D01*
X25835Y-44319D01*
X25752Y-44296D01*
X25711Y-44251D01*
X25690Y-44206D01*
X25690Y-44116D01*
X25711Y-44071D01*
X25752Y-44026D01*
X25835Y-44004D01*
X25979Y-44004D01*
X26062Y-44026D01*
X26103Y-44071D01*
X26123Y-44116D01*
X26103Y-44769D02*
X26123Y-44724D01*
X26123Y-44656D01*
X26103Y-44589D01*
X26062Y-44544D01*
X26020Y-44521D01*
X25938Y-44499D01*
X25876Y-44499D01*
X25793Y-44521D01*
X25752Y-44544D01*
X25711Y-44589D01*
X25690Y-44656D01*
X25690Y-44701D01*
X25711Y-44769D01*
X25732Y-44791D01*
X25876Y-44791D01*
X25876Y-44701D01*
X25690Y-45354D02*
X26123Y-45354D01*
X25690Y-45579D02*
X26123Y-45579D01*
X25690Y-45849D01*
X26123Y-45849D01*
X24374Y-42551D02*
X24562Y-42551D01*
X24337Y-42675D02*
X24468Y-42242D01*
X24599Y-42675D01*
X24806Y-42242D02*
X24843Y-42242D01*
X24881Y-42262D01*
X24899Y-42283D01*
X24918Y-42324D01*
X24937Y-42407D01*
X24937Y-42510D01*
X24918Y-42592D01*
X24899Y-42634D01*
X24881Y-42654D01*
X24843Y-42675D01*
X24806Y-42675D01*
X24768Y-42654D01*
X24749Y-42634D01*
X24731Y-42592D01*
X24712Y-42510D01*
X24712Y-42407D01*
X24731Y-42324D01*
X24749Y-42283D01*
X24768Y-42262D01*
X24806Y-42242D01*
X24374Y-43551D02*
X24562Y-43551D01*
X24337Y-43675D02*
X24468Y-43242D01*
X24599Y-43675D01*
X24937Y-43675D02*
X24712Y-43675D01*
X24824Y-43675D02*
X24824Y-43242D01*
X24787Y-43304D01*
X24749Y-43345D01*
X24712Y-43365D01*
X24374Y-44551D02*
X24562Y-44551D01*
X24337Y-44675D02*
X24468Y-44242D01*
X24599Y-44675D01*
X24712Y-44283D02*
X24731Y-44262D01*
X24768Y-44242D01*
X24862Y-44242D01*
X24899Y-44262D01*
X24918Y-44283D01*
X24937Y-44324D01*
X24937Y-44365D01*
X24918Y-44427D01*
X24693Y-44675D01*
X24937Y-44675D01*
X24374Y-45551D02*
X24562Y-45551D01*
X24337Y-45675D02*
X24468Y-45242D01*
X24599Y-45675D01*
X24693Y-45242D02*
X24937Y-45242D01*
X24806Y-45407D01*
X24862Y-45407D01*
X24899Y-45427D01*
X24918Y-45448D01*
X24937Y-45489D01*
X24937Y-45592D01*
X24918Y-45634D01*
X24899Y-45654D01*
X24862Y-45675D01*
X24749Y-45675D01*
X24712Y-45654D01*
X24693Y-45634D01*
X24374Y-46551D02*
X24562Y-46551D01*
X24337Y-46675D02*
X24468Y-46242D01*
X24599Y-46675D01*
X24899Y-46386D02*
X24899Y-46675D01*
X24806Y-46221D02*
X24712Y-46530D01*
X24956Y-46530D01*
X24374Y-47551D02*
X24562Y-47551D01*
X24337Y-47675D02*
X24468Y-47242D01*
X24599Y-47675D01*
X24918Y-47242D02*
X24731Y-47242D01*
X24712Y-47448D01*
X24731Y-47427D01*
X24768Y-47407D01*
X24862Y-47407D01*
X24899Y-47427D01*
X24918Y-47448D01*
X24937Y-47489D01*
X24937Y-47592D01*
X24918Y-47634D01*
X24899Y-47654D01*
X24862Y-47675D01*
X24768Y-47675D01*
X24731Y-47654D01*
X24712Y-47634D01*
X40200Y-47675D02*
X40068Y-47469D01*
X39975Y-47675D02*
X39975Y-47242D01*
X40125Y-47242D01*
X40162Y-47262D01*
X40181Y-47283D01*
X40200Y-47324D01*
X40200Y-47386D01*
X40181Y-47427D01*
X40162Y-47448D01*
X40125Y-47469D01*
X39975Y-47469D01*
X40331Y-47242D02*
X40593Y-47675D01*
X40593Y-47242D02*
X40331Y-47675D01*
X41043Y-47386D02*
X40743Y-47510D01*
X41043Y-47634D01*
X41231Y-47510D02*
X41531Y-47510D01*
X41793Y-47242D02*
X41831Y-47242D01*
X41868Y-47262D01*
X41887Y-47283D01*
X41906Y-47324D01*
X41925Y-47407D01*
X41925Y-47510D01*
X41906Y-47592D01*
X41887Y-47634D01*
X41868Y-47654D01*
X41831Y-47675D01*
X41793Y-47675D01*
X41756Y-47654D01*
X41737Y-47634D01*
X41718Y-47592D01*
X41700Y-47510D01*
X41700Y-47407D01*
X41718Y-47324D01*
X41737Y-47283D01*
X41756Y-47262D01*
X41793Y-47242D01*
X40012Y-46242D02*
X40237Y-46242D01*
X40125Y-46675D02*
X40125Y-46242D01*
X40331Y-46242D02*
X40593Y-46675D01*
X40593Y-46242D02*
X40331Y-46675D01*
X40743Y-46510D02*
X41043Y-46510D01*
X41231Y-46386D02*
X41531Y-46510D01*
X41231Y-46634D01*
X41925Y-46675D02*
X41700Y-46675D01*
X41812Y-46675D02*
X41812Y-46242D01*
X41775Y-46304D01*
X41737Y-46345D01*
X41700Y-46365D01*
X41700Y-45283D02*
X41718Y-45262D01*
X41756Y-45242D01*
X41850Y-45242D01*
X41887Y-45262D01*
X41906Y-45283D01*
X41925Y-45324D01*
X41925Y-45365D01*
X41906Y-45427D01*
X41681Y-45675D01*
X41925Y-45675D01*
X41231Y-44510D02*
X41531Y-44510D01*
X41681Y-44242D02*
X41925Y-44242D01*
X41793Y-44407D01*
X41850Y-44407D01*
X41887Y-44427D01*
X41906Y-44448D01*
X41925Y-44489D01*
X41925Y-44592D01*
X41906Y-44634D01*
X41887Y-44654D01*
X41850Y-44675D01*
X41737Y-44675D01*
X41700Y-44654D01*
X41681Y-44634D01*
X41887Y-43386D02*
X41887Y-43675D01*
X41793Y-43221D02*
X41700Y-43530D01*
X41943Y-43530D01*
X41231Y-42510D02*
X41531Y-42510D01*
X41906Y-42242D02*
X41718Y-42242D01*
X41700Y-42448D01*
X41718Y-42427D01*
X41756Y-42407D01*
X41850Y-42407D01*
X41887Y-42427D01*
X41906Y-42448D01*
X41925Y-42489D01*
X41925Y-42592D01*
X41906Y-42634D01*
X41887Y-42654D01*
X41850Y-42675D01*
X41756Y-42675D01*
X41718Y-42654D01*
X41700Y-42634D01*
X41231Y-41510D02*
X41531Y-41510D01*
X41887Y-41242D02*
X41812Y-41242D01*
X41775Y-41262D01*
X41756Y-41283D01*
X41718Y-41345D01*
X41700Y-41427D01*
X41700Y-41592D01*
X41718Y-41634D01*
X41737Y-41654D01*
X41775Y-41675D01*
X41850Y-41675D01*
X41887Y-41654D01*
X41906Y-41634D01*
X41925Y-41592D01*
X41925Y-41489D01*
X41906Y-41448D01*
X41887Y-41427D01*
X41850Y-41407D01*
X41775Y-41407D01*
X41737Y-41427D01*
X41718Y-41448D01*
X41700Y-41489D01*
X41681Y-40242D02*
X41943Y-40242D01*
X41775Y-40675D01*
X41775Y-38827D02*
X41737Y-38807D01*
X41718Y-38786D01*
X41700Y-38745D01*
X41700Y-38724D01*
X41718Y-38683D01*
X41737Y-38662D01*
X41775Y-38642D01*
X41850Y-38642D01*
X41887Y-38662D01*
X41906Y-38683D01*
X41925Y-38724D01*
X41925Y-38745D01*
X41906Y-38786D01*
X41887Y-38807D01*
X41850Y-38827D01*
X41775Y-38827D01*
X41737Y-38848D01*
X41718Y-38869D01*
X41700Y-38910D01*
X41700Y-38992D01*
X41718Y-39034D01*
X41737Y-39054D01*
X41775Y-39075D01*
X41850Y-39075D01*
X41887Y-39054D01*
X41906Y-39034D01*
X41925Y-38992D01*
X41925Y-38910D01*
X41906Y-38869D01*
X41887Y-38848D01*
X41850Y-38827D01*
X40931Y-37910D02*
X41231Y-37910D01*
X41737Y-38075D02*
X41812Y-38075D01*
X41850Y-38054D01*
X41868Y-38034D01*
X41906Y-37972D01*
X41925Y-37889D01*
X41925Y-37724D01*
X41906Y-37683D01*
X41887Y-37662D01*
X41850Y-37642D01*
X41775Y-37642D01*
X41737Y-37662D01*
X41718Y-37683D01*
X41700Y-37724D01*
X41700Y-37827D01*
X41718Y-37869D01*
X41737Y-37889D01*
X41775Y-37910D01*
X41850Y-37910D01*
X41887Y-37889D01*
X41906Y-37869D01*
X41925Y-37827D01*
X40856Y-36910D02*
X41156Y-36910D01*
X41550Y-37075D02*
X41325Y-37075D01*
X41437Y-37075D02*
X41437Y-36642D01*
X41400Y-36704D01*
X41362Y-36745D01*
X41325Y-36765D01*
X41793Y-36642D02*
X41831Y-36642D01*
X41868Y-36662D01*
X41887Y-36683D01*
X41906Y-36724D01*
X41925Y-36807D01*
X41925Y-36910D01*
X41906Y-36992D01*
X41887Y-37034D01*
X41868Y-37054D01*
X41831Y-37075D01*
X41793Y-37075D01*
X41756Y-37054D01*
X41737Y-37034D01*
X41718Y-36992D01*
X41700Y-36910D01*
X41700Y-36807D01*
X41718Y-36724D01*
X41737Y-36683D01*
X41756Y-36662D01*
X41793Y-36642D01*
X40856Y-35910D02*
X41156Y-35910D01*
X41550Y-36075D02*
X41325Y-36075D01*
X41437Y-36075D02*
X41437Y-35642D01*
X41400Y-35704D01*
X41362Y-35745D01*
X41325Y-35765D01*
X41925Y-36075D02*
X41700Y-36075D01*
X41812Y-36075D02*
X41812Y-35642D01*
X41775Y-35704D01*
X41737Y-35745D01*
X41700Y-35765D01*
X41550Y-35075D02*
X41325Y-35075D01*
X41437Y-35075D02*
X41437Y-34642D01*
X41400Y-34704D01*
X41362Y-34745D01*
X41325Y-34765D01*
X41700Y-34683D02*
X41718Y-34662D01*
X41756Y-34642D01*
X41850Y-34642D01*
X41887Y-34662D01*
X41906Y-34683D01*
X41925Y-34724D01*
X41925Y-34765D01*
X41906Y-34827D01*
X41681Y-35075D01*
X41925Y-35075D01*
X41550Y-34075D02*
X41325Y-34075D01*
X41437Y-34075D02*
X41437Y-33642D01*
X41400Y-33704D01*
X41362Y-33745D01*
X41325Y-33765D01*
X41681Y-33642D02*
X41925Y-33642D01*
X41793Y-33807D01*
X41850Y-33807D01*
X41887Y-33827D01*
X41906Y-33848D01*
X41925Y-33889D01*
X41925Y-33992D01*
X41906Y-34034D01*
X41887Y-34054D01*
X41850Y-34075D01*
X41737Y-34075D01*
X41700Y-34054D01*
X41681Y-34034D01*
X41100Y-32662D02*
X41062Y-32642D01*
X41006Y-32642D01*
X40950Y-32662D01*
X40912Y-32704D01*
X40893Y-32745D01*
X40875Y-32827D01*
X40875Y-32889D01*
X40893Y-32972D01*
X40912Y-33013D01*
X40950Y-33054D01*
X41006Y-33075D01*
X41043Y-33075D01*
X41100Y-33054D01*
X41118Y-33034D01*
X41118Y-32889D01*
X41043Y-32889D01*
X41287Y-33075D02*
X41287Y-32642D01*
X41512Y-33075D01*
X41512Y-32642D01*
X41700Y-33075D02*
X41700Y-32642D01*
X41793Y-32642D01*
X41850Y-32662D01*
X41887Y-32704D01*
X41906Y-32745D01*
X41925Y-32827D01*
X41925Y-32889D01*
X41906Y-32972D01*
X41887Y-33013D01*
X41850Y-33054D01*
X41793Y-33075D01*
X41700Y-33075D01*
X40650Y-31951D02*
X40837Y-31951D01*
X40612Y-32075D02*
X40743Y-31642D01*
X40875Y-32075D01*
X41231Y-32075D02*
X41100Y-31869D01*
X41006Y-32075D02*
X41006Y-31642D01*
X41156Y-31642D01*
X41193Y-31662D01*
X41212Y-31683D01*
X41231Y-31724D01*
X41231Y-31786D01*
X41212Y-31827D01*
X41193Y-31848D01*
X41156Y-31869D01*
X41006Y-31869D01*
X41400Y-31848D02*
X41531Y-31848D01*
X41587Y-32075D02*
X41400Y-32075D01*
X41400Y-31642D01*
X41587Y-31642D01*
X41887Y-31848D02*
X41756Y-31848D01*
X41756Y-32075D02*
X41756Y-31642D01*
X41943Y-31642D01*
G54D17*
X29102Y-23355D02*
X31898Y-23355D01*
X31898Y-23355D02*
X31898Y-19733D01*
X31898Y-19733D02*
X29102Y-19733D01*
X29102Y-19733D02*
X29102Y-23355D01*
G54D18*
X37310Y-40342D02*
X37310Y-40792D01*
X35130Y-40342D02*
X35130Y-40782D01*
X37310Y-40342D02*
X35130Y-40342D01*
X37780Y-41222D02*
X38210Y-41222D01*
X37790Y-43432D02*
X38210Y-43432D01*
X38210Y-43442D02*
X38220Y-41222D01*
X34240Y-43422D02*
X34230Y-41252D01*
X34930Y-43852D02*
X37760Y-43852D01*
X34240Y-41242D02*
X34650Y-41242D01*
X34690Y-43602D02*
X34690Y-40822D01*
X37770Y-40802D02*
X34730Y-40802D01*
X37770Y-43852D02*
X37770Y-40852D01*
X35100Y-44302D02*
X37320Y-44302D01*
X37320Y-44302D02*
X37320Y-43852D01*
X34920Y-43848D02*
X34690Y-43618D01*
X35100Y-44300D02*
X35100Y-43848D01*
X34690Y-43422D02*
X34238Y-43422D01*
X35283Y-43440D02*
G75*
G03X35283Y-43440I-188J0D01*
G74*
G01*
G54D17*
X41400Y-28400D02*
X41400Y-29400D01*
X41400Y-29400D02*
X39400Y-29400D01*
X39400Y-29400D02*
X39400Y-28400D01*
X39400Y-28400D02*
X41400Y-28400D01*
X38900Y-30900D02*
X38900Y-26900D01*
X38900Y-26900D02*
X41900Y-26900D01*
X41900Y-26900D02*
X41900Y-30900D01*
X41900Y-30900D02*
X38900Y-30900D01*
G54D19*
X37029Y-28632D02*
X37029Y-27432D01*
X37029Y-27432D02*
X34229Y-27432D01*
X34229Y-27432D02*
X34229Y-28632D01*
X37029Y-29832D02*
X37029Y-30132D01*
X37029Y-30132D02*
X36429Y-31032D01*
X36429Y-31032D02*
X34829Y-31032D01*
X34829Y-31032D02*
X34229Y-30132D01*
X34229Y-30132D02*
X34229Y-29832D01*
G54D20*
X27629Y-30526D02*
G75*
G03X27629Y-30526I-50J0D01*
G74*
G01*
X27129Y-30526D02*
X27529Y-30526D01*
X27529Y-30526D02*
X27529Y-31126D01*
X27529Y-31126D02*
X27129Y-31126D01*
X26729Y-31126D02*
X26329Y-31126D01*
X26329Y-31126D02*
X26329Y-30526D01*
X26329Y-30526D02*
X26729Y-30526D01*
X33350Y-44950D02*
G75*
G03X33350Y-44950I-50J0D01*
G74*
G01*
X33300Y-45400D02*
X33300Y-45000D01*
X33300Y-45000D02*
X33900Y-45000D01*
X33900Y-45000D02*
X33900Y-45400D01*
X33900Y-45800D02*
X33900Y-46200D01*
X33900Y-46200D02*
X33300Y-46200D01*
X33300Y-46200D02*
X33300Y-45800D01*
X34011Y-26929D02*
G75*
G03X34011Y-26929I-50J0D01*
G74*
G01*
X33961Y-26479D02*
X33961Y-26879D01*
X33961Y-26879D02*
X33361Y-26879D01*
X33361Y-26879D02*
X33361Y-26479D01*
X33361Y-26079D02*
X33361Y-25679D01*
X33361Y-25679D02*
X33961Y-25679D01*
X33961Y-25679D02*
X33961Y-26079D01*
G54D21*
X34244Y-45897D02*
X34244Y-46172D01*
X34244Y-45503D02*
X34244Y-45228D01*
X34756Y-45897D02*
X34756Y-46172D01*
X34756Y-45228D02*
X34756Y-45503D01*
X34750Y-46172D02*
X34250Y-46172D01*
X34250Y-45228D02*
X34750Y-45228D01*
X22598Y-31870D02*
X22873Y-31870D01*
X22204Y-31870D02*
X21929Y-31870D01*
X22598Y-31358D02*
X22873Y-31358D01*
X21929Y-31358D02*
X22204Y-31358D01*
X22873Y-31364D02*
X22873Y-31864D01*
X21929Y-31864D02*
X21929Y-31364D01*
X26378Y-31791D02*
X26653Y-31791D01*
X25984Y-31791D02*
X25709Y-31791D01*
X26378Y-31279D02*
X26653Y-31279D01*
X25709Y-31279D02*
X25984Y-31279D01*
X26653Y-31285D02*
X26653Y-31785D01*
X25709Y-31785D02*
X25709Y-31285D01*
X26122Y-30472D02*
X26122Y-30197D01*
X26122Y-30866D02*
X26122Y-31141D01*
X25610Y-30472D02*
X25610Y-30197D01*
X25610Y-31141D02*
X25610Y-30866D01*
X25616Y-30197D02*
X26116Y-30197D01*
X26116Y-31141D02*
X25616Y-31141D01*
X26182Y-34916D02*
X26457Y-34916D01*
X25788Y-34916D02*
X25513Y-34916D01*
X26182Y-34404D02*
X26457Y-34404D01*
X25513Y-34404D02*
X25788Y-34404D01*
X26457Y-34410D02*
X26457Y-34910D01*
X25513Y-34910D02*
X25513Y-34410D01*
X26557Y-32636D02*
X26832Y-32636D01*
X26163Y-32636D02*
X25888Y-32636D01*
X26557Y-32124D02*
X26832Y-32124D01*
X25888Y-32124D02*
X26163Y-32124D01*
X26832Y-32130D02*
X26832Y-32630D01*
X25888Y-32630D02*
X25888Y-32130D01*
X26279Y-27716D02*
X26554Y-27716D01*
X25885Y-27716D02*
X25610Y-27716D01*
X26279Y-27204D02*
X26554Y-27204D01*
X25610Y-27204D02*
X25885Y-27204D01*
X26554Y-27210D02*
X26554Y-27710D01*
X25610Y-27710D02*
X25610Y-27210D01*
X22598Y-33051D02*
X22873Y-33051D01*
X22204Y-33051D02*
X21929Y-33051D01*
X22598Y-32539D02*
X22873Y-32539D01*
X21929Y-32539D02*
X22204Y-32539D01*
X22873Y-32545D02*
X22873Y-33045D01*
X21929Y-33045D02*
X21929Y-32545D01*
X28779Y-31397D02*
X28779Y-31672D01*
X28779Y-31003D02*
X28779Y-30728D01*
X29291Y-31397D02*
X29291Y-31672D01*
X29291Y-30728D02*
X29291Y-31003D01*
X29285Y-31672D02*
X28785Y-31672D01*
X28785Y-30728D02*
X29285Y-30728D01*
X31830Y-24842D02*
X31830Y-24567D01*
X31830Y-25236D02*
X31830Y-25511D01*
X31318Y-24842D02*
X31318Y-24567D01*
X31318Y-25511D02*
X31318Y-25236D01*
X31324Y-24567D02*
X31824Y-24567D01*
X31824Y-25511D02*
X31324Y-25511D01*
X29763Y-31397D02*
X29763Y-31672D01*
X29763Y-31003D02*
X29763Y-30728D01*
X30275Y-31397D02*
X30275Y-31672D01*
X30275Y-30728D02*
X30275Y-31003D01*
X30269Y-31672D02*
X29769Y-31672D01*
X29769Y-30728D02*
X30269Y-30728D01*
X28326Y-35708D02*
X28326Y-35433D01*
X28326Y-36102D02*
X28326Y-36377D01*
X27814Y-35708D02*
X27814Y-35433D01*
X27814Y-36377D02*
X27814Y-36102D01*
X27820Y-35433D02*
X28320Y-35433D01*
X28320Y-36377D02*
X27820Y-36377D01*
X30511Y-34940D02*
X30236Y-34940D01*
X30905Y-34940D02*
X31180Y-34940D01*
X30511Y-35452D02*
X30236Y-35452D01*
X31180Y-35452D02*
X30905Y-35452D01*
X30236Y-35446D02*
X30236Y-34946D01*
X31180Y-34946D02*
X31180Y-35446D01*
X36417Y-39153D02*
X36142Y-39153D01*
X36811Y-39153D02*
X37086Y-39153D01*
X36417Y-39665D02*
X36142Y-39665D01*
X37086Y-39665D02*
X36811Y-39665D01*
X36142Y-39659D02*
X36142Y-39159D01*
X37086Y-39159D02*
X37086Y-39659D01*
G54D22*
X31147Y-31650D02*
X31147Y-30750D01*
X31147Y-30750D02*
X31647Y-30750D01*
X31647Y-30750D02*
X31647Y-31650D01*
X31647Y-31650D02*
X31147Y-31650D01*
X24848Y-27516D02*
X24848Y-26616D01*
X24848Y-26616D02*
X25348Y-26616D01*
X25348Y-26616D02*
X25348Y-27516D01*
X25348Y-27516D02*
X24848Y-27516D01*
X21951Y-30616D02*
X22851Y-30616D01*
X22851Y-30616D02*
X22851Y-31116D01*
X22851Y-31116D02*
X21951Y-31116D01*
X21951Y-31116D02*
X21951Y-30616D01*
X21951Y-33332D02*
X22851Y-33332D01*
X22851Y-33332D02*
X22851Y-33832D01*
X22851Y-33832D02*
X21951Y-33832D01*
X21951Y-33832D02*
X21951Y-33332D01*
X31836Y-31650D02*
X31836Y-30750D01*
X31836Y-30750D02*
X32336Y-30750D01*
X32336Y-30750D02*
X32336Y-31650D01*
X32336Y-31650D02*
X31836Y-31650D01*
X33608Y-31650D02*
X33608Y-30750D01*
X33608Y-30750D02*
X34108Y-30750D01*
X34108Y-30750D02*
X34108Y-31650D01*
X34108Y-31650D02*
X33608Y-31650D01*
X30650Y-46350D02*
X31550Y-46350D01*
X31550Y-46350D02*
X31550Y-46850D01*
X31550Y-46850D02*
X30650Y-46850D01*
X30650Y-46850D02*
X30650Y-46350D01*
X32466Y-36355D02*
X32466Y-35455D01*
X32466Y-35455D02*
X32966Y-35455D01*
X32966Y-35455D02*
X32966Y-36355D01*
X32966Y-36355D02*
X32466Y-36355D01*
X37053Y-23284D02*
X37053Y-22384D01*
X37053Y-22384D02*
X37553Y-22384D01*
X37553Y-22384D02*
X37553Y-23284D01*
X37553Y-23284D02*
X37053Y-23284D01*
X37742Y-23284D02*
X37742Y-22384D01*
X37742Y-22384D02*
X38242Y-22384D01*
X38242Y-22384D02*
X38242Y-23284D01*
X38242Y-23284D02*
X37742Y-23284D01*
X38175Y-37536D02*
X38175Y-36636D01*
X38175Y-36636D02*
X38675Y-36636D01*
X38675Y-36636D02*
X38675Y-37536D01*
X38675Y-37536D02*
X38175Y-37536D01*
X35376Y-38135D02*
X36276Y-38135D01*
X36276Y-38135D02*
X36276Y-38635D01*
X36276Y-38635D02*
X35376Y-38635D01*
X35376Y-38635D02*
X35376Y-38135D01*
X30458Y-31650D02*
X30458Y-30750D01*
X30458Y-30750D02*
X30958Y-30750D01*
X30958Y-30750D02*
X30958Y-31650D01*
X30958Y-31650D02*
X30458Y-31650D01*
X28096Y-31650D02*
X28096Y-30750D01*
X28096Y-30750D02*
X28596Y-30750D01*
X28596Y-30750D02*
X28596Y-31650D01*
X28596Y-31650D02*
X28096Y-31650D01*
X40101Y-34198D02*
X41001Y-34198D01*
X41001Y-34198D02*
X41001Y-34698D01*
X41001Y-34698D02*
X40101Y-34698D01*
X40101Y-34698D02*
X40101Y-34198D01*
X36833Y-38253D02*
X37733Y-38253D01*
X37733Y-38253D02*
X37733Y-38753D01*
X37733Y-38753D02*
X36833Y-38753D01*
X36833Y-38753D02*
X36833Y-38253D01*
G54D23*
X23865Y-29725D02*
X23865Y-29925D01*
X23865Y-29925D02*
X24165Y-29925D01*
X24165Y-29925D02*
X24165Y-29725D01*
X23865Y-29525D02*
X23865Y-29325D01*
X23865Y-29325D02*
X24165Y-29325D01*
X24165Y-29325D02*
X24165Y-29525D01*
X24456Y-29725D02*
X24456Y-29925D01*
X24456Y-29925D02*
X24756Y-29925D01*
X24756Y-29925D02*
X24756Y-29725D01*
X24456Y-29525D02*
X24456Y-29325D01*
X24456Y-29325D02*
X24756Y-29325D01*
X24756Y-29325D02*
X24756Y-29525D01*
G54D24*
X43000Y-47900D02*
X42200Y-47900D01*
X43000Y-40100D02*
X42200Y-40100D01*
X42200Y-47900D02*
X42200Y-40100D01*
X43000Y-40100D02*
X43000Y-47900D01*
X43000Y-39300D02*
X42200Y-39300D01*
X43000Y-31500D02*
X42200Y-31500D01*
X42200Y-39300D02*
X42200Y-31500D01*
X43000Y-31500D02*
X43000Y-39300D01*
G54D19*
X35000Y-48700D02*
X32000Y-48700D01*
X32000Y-46700D02*
X35000Y-46700D01*
X35000Y-46700D02*
X35000Y-48700D01*
X32000Y-48700D02*
X32000Y-46700D01*
G54D18*
X37500Y-25500D02*
X38500Y-25500D01*
X38500Y-25500D02*
X38500Y-28500D01*
X38500Y-28500D02*
X37500Y-28500D01*
X37500Y-28500D02*
X37500Y-25500D01*
X38500Y-26500D02*
X37500Y-26500D01*
X21661Y-37023D02*
X20661Y-37023D01*
X20661Y-37023D02*
X20661Y-35023D01*
X20661Y-35023D02*
X21661Y-35023D01*
X21661Y-35023D02*
X21661Y-37023D01*
X40173Y-49795D02*
X40173Y-50795D01*
X40173Y-50795D02*
X38173Y-50795D01*
X38173Y-50795D02*
X38173Y-49795D01*
X38173Y-49795D02*
X40173Y-49795D01*
G54D24*
X23100Y-42000D02*
X24100Y-42000D01*
X24100Y-42000D02*
X24100Y-48000D01*
X24100Y-48000D02*
X23100Y-48000D01*
X23100Y-48000D02*
X23100Y-42000D01*
X23100Y-43000D02*
X24100Y-43000D01*
X23100Y-35000D02*
X24100Y-35000D01*
X24100Y-35000D02*
X24100Y-41000D01*
X24100Y-41000D02*
X23100Y-41000D01*
X23100Y-41000D02*
X23100Y-35000D01*
X23100Y-36000D02*
X24100Y-36000D01*
G54D25*
X37723Y-21123D02*
X38077Y-21123D01*
X38077Y-21123D02*
X38077Y-20966D01*
X37723Y-20966D02*
X38077Y-20966D01*
X37723Y-21123D02*
X37723Y-20966D01*
X37723Y-21634D02*
X38077Y-21634D01*
X38077Y-21634D02*
X38077Y-21477D01*
X37723Y-21477D02*
X38077Y-21477D01*
X37723Y-21634D02*
X37723Y-21477D01*
X37723Y-21300D02*
X37782Y-21300D01*
X37782Y-21300D02*
X37782Y-21182D01*
X37723Y-21182D02*
X37782Y-21182D01*
X37723Y-21300D02*
X37723Y-21182D01*
X38018Y-21300D02*
X38077Y-21300D01*
X38077Y-21300D02*
X38077Y-21182D01*
X38018Y-21182D02*
X38077Y-21182D01*
X38018Y-21300D02*
X38018Y-21182D01*
X37841Y-21300D02*
X37959Y-21300D01*
X37959Y-21300D02*
X37959Y-21182D01*
X37841Y-21182D02*
X37959Y-21182D01*
X37841Y-21300D02*
X37841Y-21182D01*
G54D26*
X37743Y-21123D02*
X37743Y-21477D01*
X38057Y-21123D02*
X38057Y-21477D01*
G54D25*
X40374Y-33995D02*
X40374Y-33641D01*
X40374Y-33641D02*
X40217Y-33641D01*
X40217Y-33995D02*
X40217Y-33641D01*
X40374Y-33995D02*
X40217Y-33995D01*
X40885Y-33995D02*
X40885Y-33641D01*
X40885Y-33641D02*
X40728Y-33641D01*
X40728Y-33995D02*
X40728Y-33641D01*
X40885Y-33995D02*
X40728Y-33995D01*
X40551Y-33995D02*
X40551Y-33936D01*
X40551Y-33936D02*
X40433Y-33936D01*
X40433Y-33995D02*
X40433Y-33936D01*
X40551Y-33995D02*
X40433Y-33995D01*
X40551Y-33700D02*
X40551Y-33641D01*
X40551Y-33641D02*
X40433Y-33641D01*
X40433Y-33700D02*
X40433Y-33641D01*
X40551Y-33700D02*
X40433Y-33700D01*
X40551Y-33877D02*
X40551Y-33759D01*
X40551Y-33759D02*
X40433Y-33759D01*
X40433Y-33877D02*
X40433Y-33759D01*
X40551Y-33877D02*
X40433Y-33877D01*
G54D26*
X40374Y-33975D02*
X40728Y-33975D01*
X40374Y-33661D02*
X40728Y-33661D01*
G54D25*
X32854Y-31397D02*
X32500Y-31397D01*
X32500Y-31397D02*
X32500Y-31554D01*
X32854Y-31554D02*
X32500Y-31554D01*
X32854Y-31397D02*
X32854Y-31554D01*
X32854Y-30886D02*
X32500Y-30886D01*
X32500Y-30886D02*
X32500Y-31043D01*
X32854Y-31043D02*
X32500Y-31043D01*
X32854Y-30886D02*
X32854Y-31043D01*
X32854Y-31220D02*
X32795Y-31220D01*
X32795Y-31220D02*
X32795Y-31338D01*
X32854Y-31338D02*
X32795Y-31338D01*
X32854Y-31220D02*
X32854Y-31338D01*
X32559Y-31220D02*
X32500Y-31220D01*
X32500Y-31220D02*
X32500Y-31338D01*
X32559Y-31338D02*
X32500Y-31338D01*
X32559Y-31220D02*
X32559Y-31338D01*
X32736Y-31220D02*
X32618Y-31220D01*
X32618Y-31220D02*
X32618Y-31338D01*
X32736Y-31338D02*
X32618Y-31338D01*
X32736Y-31220D02*
X32736Y-31338D01*
G54D26*
X32834Y-31397D02*
X32834Y-31043D01*
X32520Y-31397D02*
X32520Y-31043D01*
G54D25*
X38423Y-21123D02*
X38777Y-21123D01*
X38777Y-21123D02*
X38777Y-20966D01*
X38423Y-20966D02*
X38777Y-20966D01*
X38423Y-21123D02*
X38423Y-20966D01*
X38423Y-21634D02*
X38777Y-21634D01*
X38777Y-21634D02*
X38777Y-21477D01*
X38423Y-21477D02*
X38777Y-21477D01*
X38423Y-21634D02*
X38423Y-21477D01*
X38423Y-21300D02*
X38482Y-21300D01*
X38482Y-21300D02*
X38482Y-21182D01*
X38423Y-21182D02*
X38482Y-21182D01*
X38423Y-21300D02*
X38423Y-21182D01*
X38718Y-21300D02*
X38777Y-21300D01*
X38777Y-21300D02*
X38777Y-21182D01*
X38718Y-21182D02*
X38777Y-21182D01*
X38718Y-21300D02*
X38718Y-21182D01*
X38541Y-21300D02*
X38659Y-21300D01*
X38659Y-21300D02*
X38659Y-21182D01*
X38541Y-21182D02*
X38659Y-21182D01*
X38541Y-21300D02*
X38541Y-21182D01*
G54D26*
X38443Y-21123D02*
X38443Y-21477D01*
X38757Y-21123D02*
X38757Y-21477D01*
G54D25*
X33444Y-31397D02*
X33090Y-31397D01*
X33090Y-31397D02*
X33090Y-31554D01*
X33444Y-31554D02*
X33090Y-31554D01*
X33444Y-31397D02*
X33444Y-31554D01*
X33444Y-30886D02*
X33090Y-30886D01*
X33090Y-30886D02*
X33090Y-31043D01*
X33444Y-31043D02*
X33090Y-31043D01*
X33444Y-30886D02*
X33444Y-31043D01*
X33444Y-31220D02*
X33385Y-31220D01*
X33385Y-31220D02*
X33385Y-31338D01*
X33444Y-31338D02*
X33385Y-31338D01*
X33444Y-31220D02*
X33444Y-31338D01*
X33149Y-31220D02*
X33090Y-31220D01*
X33090Y-31220D02*
X33090Y-31338D01*
X33149Y-31338D02*
X33090Y-31338D01*
X33149Y-31220D02*
X33149Y-31338D01*
X33326Y-31220D02*
X33208Y-31220D01*
X33208Y-31220D02*
X33208Y-31338D01*
X33326Y-31338D02*
X33208Y-31338D01*
X33326Y-31220D02*
X33326Y-31338D01*
G54D26*
X33424Y-31397D02*
X33424Y-31043D01*
X33110Y-31397D02*
X33110Y-31043D01*
G54D22*
X35500Y-26400D02*
X36050Y-26400D01*
X35400Y-26350D02*
X36100Y-26350D01*
X35250Y-26300D02*
X36250Y-26300D01*
X36300Y-26250D02*
X35200Y-26250D01*
X35150Y-26200D02*
X36350Y-26200D01*
X36400Y-26150D02*
X35100Y-26150D01*
X35050Y-26100D02*
X36450Y-26100D01*
X36700Y-25500D02*
G75*
G03X36700Y-25500I-950J0D01*
G74*
G01*
X34700Y-26550D02*
X34700Y-24750D01*
X34700Y-24750D02*
X35000Y-24450D01*
X35000Y-24450D02*
X36500Y-24450D01*
X36500Y-24450D02*
X36800Y-24750D01*
X36800Y-24750D02*
X36800Y-26550D01*
X36800Y-26550D02*
X34700Y-26550D01*
X35750Y-24650D02*
X35750Y-24950D01*
X35600Y-24800D02*
X35900Y-24800D01*
G54D10*
X28858Y-45787D02*
G75*
G03X28858Y-45787I-590J0D01*
G74*
G01*
X27047Y-44606D02*
X29488Y-44606D01*
X29488Y-44606D02*
X29488Y-46968D01*
X29488Y-46968D02*
X27047Y-46968D01*
X27047Y-46968D02*
X27047Y-44606D01*
G54D21*
X26279Y-26929D02*
X26554Y-26929D01*
X25885Y-26929D02*
X25610Y-26929D01*
X26279Y-26417D02*
X26554Y-26417D01*
X25610Y-26417D02*
X25885Y-26417D01*
X26554Y-26423D02*
X26554Y-26923D01*
X25610Y-26923D02*
X25610Y-26423D01*
G54D10*
X26751Y-32900D02*
X26751Y-34159D01*
X26751Y-34159D02*
X25728Y-34159D01*
X25728Y-34159D02*
X25728Y-32900D01*
X25728Y-32900D02*
X26751Y-32900D01*
G54D22*
X37638Y-33178D02*
X37638Y-31928D01*
X37638Y-31928D02*
X36938Y-31928D01*
X36938Y-31928D02*
X36938Y-33178D01*
X39438Y-33178D02*
X39438Y-31928D01*
X39438Y-31928D02*
X38738Y-31928D01*
X38738Y-31928D02*
X38738Y-33178D01*
X36838Y-35578D02*
X36838Y-33178D01*
X36838Y-33178D02*
X39538Y-33178D01*
X39538Y-33178D02*
X39538Y-36278D01*
X39538Y-36328D02*
X36838Y-36328D01*
X36838Y-36278D02*
X36838Y-35578D01*
G54D17*
X26147Y-19911D02*
X26147Y-19539D01*
X24053Y-19911D02*
X24053Y-19539D01*
X24053Y-23260D02*
X24053Y-21772D01*
X26147Y-23260D02*
X26147Y-21772D01*
X23843Y-20035D02*
X25205Y-19911D01*
X26357Y-21524D02*
X24053Y-21772D01*
X23843Y-21524D02*
X26357Y-21276D01*
X23843Y-21276D02*
X26357Y-21028D01*
X23843Y-21028D02*
X26357Y-20780D01*
X23843Y-20780D02*
X26357Y-20531D01*
X23843Y-20531D02*
X26357Y-20283D01*
X23843Y-20283D02*
X26357Y-20035D01*
X23843Y-20035D02*
X24053Y-19911D01*
X24053Y-19911D02*
X26147Y-19911D01*
X26147Y-19911D02*
X26357Y-20035D01*
X26357Y-20035D02*
X26357Y-21648D01*
X26357Y-21648D02*
X26147Y-21772D01*
X26147Y-21772D02*
X24053Y-21772D01*
X24053Y-21772D02*
X23843Y-21648D01*
X23843Y-21648D02*
X23843Y-20035D01*
X26147Y-19539D02*
X24053Y-19539D01*
X23860Y-23260D02*
X26340Y-23260D01*
X26340Y-23260D02*
X26340Y-25740D01*
X26340Y-25740D02*
X23860Y-25740D01*
X23860Y-25740D02*
X23860Y-23260D01*
G54D18*
X27302Y-50959D02*
X27302Y-48440D01*
X27302Y-50959D02*
X22774Y-50959D01*
X22774Y-50959D02*
X22774Y-48440D01*
X22774Y-48440D02*
X27302Y-48440D01*
X24625Y-50959D02*
X24625Y-48440D01*
G54D17*
X42743Y-19837D02*
X42743Y-19537D01*
X42743Y-19537D02*
X39343Y-19537D01*
X39343Y-19537D02*
X39343Y-19837D01*
X42743Y-21037D02*
X39343Y-21037D01*
X42743Y-24837D02*
X39343Y-24837D01*
X39343Y-19837D02*
X39343Y-24837D01*
X42743Y-19837D02*
X42743Y-24837D01*
G54D10*
X36338Y-20393D02*
X36338Y-18818D01*
X36338Y-18818D02*
X35236Y-18818D01*
X35236Y-18818D02*
X35236Y-20393D01*
X34055Y-20551D02*
X36417Y-20551D01*
X36417Y-20551D02*
X36417Y-20433D01*
X34055Y-20551D02*
X34055Y-20433D01*
X36929Y-22125D02*
X33543Y-22125D01*
X33543Y-22125D02*
X33543Y-20393D01*
X33543Y-20393D02*
X36929Y-20393D01*
X36929Y-20393D02*
X36929Y-22125D01*
X44822Y-30374D02*
X45295Y-30374D01*
X45295Y-30374D02*
X45295Y-31122D01*
X45295Y-31122D02*
X44822Y-31122D01*
X44822Y-31122D02*
X44822Y-30374D01*
G54D22*
X43726Y-31493D02*
X43726Y-30593D01*
X43726Y-30593D02*
X44226Y-30593D01*
X44226Y-30593D02*
X44226Y-31493D01*
X44226Y-31493D02*
X43726Y-31493D01*
G54D20*
X44916Y-30216D02*
G75*
G03X44916Y-30216I-50J0D01*
G74*
G01*
X44866Y-29766D02*
X44866Y-30166D01*
X44866Y-30166D02*
X44266Y-30166D01*
X44266Y-30166D02*
X44266Y-29766D01*
X44266Y-29366D02*
X44266Y-28966D01*
X44266Y-28966D02*
X44866Y-28966D01*
X44866Y-28966D02*
X44866Y-29366D01*
G54D21*
X44684Y-31279D02*
X44409Y-31279D01*
X45078Y-31279D02*
X45353Y-31279D01*
X44684Y-31791D02*
X44409Y-31791D01*
X45353Y-31791D02*
X45078Y-31791D01*
X44409Y-31785D02*
X44409Y-31285D01*
X45353Y-31285D02*
X45353Y-31785D01*
G54D22*
X28951Y-28704D02*
G75*
G03X28951Y-28704I-141J0D01*
G74*
G01*
X28610Y-27604D02*
X28910Y-27604D01*
X28910Y-27604D02*
X28910Y-28104D01*
X28910Y-28104D02*
X28610Y-28104D01*
X32660Y-28904D02*
X28610Y-28904D01*
X28610Y-26804D02*
X32660Y-26804D01*
X28610Y-26804D02*
X28610Y-28904D01*
X32660Y-26804D02*
X32660Y-28904D01*
X31187Y-38385D02*
X31187Y-35826D01*
X31181Y-35826D02*
X29448Y-35826D01*
X29450Y-35826D02*
X29450Y-38385D01*
X29448Y-38385D02*
X31181Y-38385D01*
X29826Y-36156D02*
G75*
G03X29826Y-36156I-111J0D01*
G74*
G01*
G54D18*
X25511Y-30867D02*
X25511Y-32517D01*
X25511Y-32517D02*
X25511Y-32892D01*
X25511Y-32892D02*
X23111Y-32892D01*
X23111Y-32892D02*
X23111Y-30492D01*
X23111Y-30492D02*
X25136Y-30492D01*
X25136Y-30492D02*
X25511Y-30867D01*
G54D21*
X27086Y-30413D02*
X27361Y-30413D01*
X26692Y-30413D02*
X26417Y-30413D01*
X27086Y-29901D02*
X27361Y-29901D01*
X26417Y-29901D02*
X26692Y-29901D01*
X27361Y-29907D02*
X27361Y-30407D01*
X26417Y-30407D02*
X26417Y-29907D01*
G54D27*
X0Y0D02*
X0Y0D01*
X0Y0D01*
X0Y0D01*
X0Y0D01*
X0Y0D01*
X0Y0D01*
X0Y0D01*
X0Y0D01*
X0Y0D01*
X0Y0D01*
X0Y0D01*
X0Y0D01*
X0Y0D01*
X0Y0D01*
X0Y0D01*
X0Y0D01*
X0Y0D01*
X0Y0D01*
X0Y0D01*
X0Y0D02*
X0Y0D01*
X0Y0D02*
X0Y0D01*
X0Y0D02*
X0Y0D01*
X0Y0D01*
X0Y0D01*
X0Y0D01*
X0Y0D01*
X0Y0D01*
X0Y0D01*
X0Y0D01*
X0Y0D01*
X0Y0D02*
X0Y0D01*
X0Y0D01*
X0Y0D01*
X0Y0D01*
X0Y0D01*
X0Y0D01*
X0Y0D01*
X0Y0D01*
X0Y0D01*
X0Y0D01*
X0Y0D01*
X0Y0D01*
X0Y0D01*
X0Y0D01*
X0Y0D01*
X0Y0D01*
X0Y0D01*
X0Y0D01*
X0Y0D02*
X0Y0D01*
X0Y0D01*
X0Y0D02*
X0Y0D01*
X0Y0D02*
X0Y0D01*
X0Y0D01*
X0Y0D02*
X0Y0D01*
X0Y0D01*
X0Y0D02*
X0Y0D01*
X0Y0D02*
X0Y0D01*
X0Y0D01*
X0Y0D02*
X0Y0D01*
X0Y0D01*
X0Y0D02*
X0Y0D01*
X0Y0D02*
X0Y0D01*
X0Y0D01*
X0Y0D02*
X0Y0D01*
X0Y0D01*
G54D24*
X28048Y-21394D02*
X28048Y-21823D01*
X28019Y-21909D01*
X27962Y-21966D01*
X27876Y-21994D01*
X27819Y-21994D01*
X28648Y-21994D02*
X28305Y-21994D01*
X28476Y-21994D02*
X28476Y-21394D01*
X28419Y-21480D01*
X28362Y-21537D01*
X28305Y-21566D01*
G54D19*
X37494Y-44926D02*
X37494Y-45331D01*
X37513Y-45379D01*
X37532Y-45402D01*
X37570Y-45426D01*
X37646Y-45426D01*
X37684Y-45402D01*
X37703Y-45379D01*
X37723Y-45331D01*
X37723Y-44926D01*
X38084Y-44926D02*
X38008Y-44926D01*
X37970Y-44950D01*
X37951Y-44974D01*
X37913Y-45045D01*
X37894Y-45141D01*
X37894Y-45331D01*
X37913Y-45379D01*
X37932Y-45402D01*
X37970Y-45426D01*
X38046Y-45426D01*
X38084Y-45402D01*
X38103Y-45379D01*
X38123Y-45331D01*
X38123Y-45212D01*
X38103Y-45164D01*
X38084Y-45141D01*
X38046Y-45117D01*
X37970Y-45117D01*
X37932Y-45141D01*
X37913Y-45164D01*
X37894Y-45212D01*
G54D10*
X42191Y-28973D02*
X42247Y-28994D01*
X42341Y-28994D01*
X42379Y-28973D01*
X42397Y-28952D01*
X42416Y-28911D01*
X42416Y-28870D01*
X42397Y-28829D01*
X42379Y-28808D01*
X42341Y-28787D01*
X42266Y-28767D01*
X42229Y-28746D01*
X42210Y-28726D01*
X42191Y-28684D01*
X42191Y-28643D01*
X42210Y-28602D01*
X42229Y-28581D01*
X42266Y-28561D01*
X42360Y-28561D01*
X42416Y-28581D01*
X42547Y-28561D02*
X42641Y-28994D01*
X42716Y-28684D01*
X42791Y-28994D01*
X42885Y-28561D01*
X43241Y-28994D02*
X43016Y-28994D01*
X43128Y-28994D02*
X43128Y-28561D01*
X43091Y-28622D01*
X43053Y-28664D01*
X43016Y-28684D01*
G54D19*
X35425Y-31244D02*
X35425Y-31567D01*
X35444Y-31606D01*
X35463Y-31625D01*
X35501Y-31644D01*
X35577Y-31644D01*
X35615Y-31625D01*
X35634Y-31606D01*
X35653Y-31567D01*
X35653Y-31244D01*
X35825Y-31282D02*
X35844Y-31263D01*
X35882Y-31244D01*
X35977Y-31244D01*
X36015Y-31263D01*
X36034Y-31282D01*
X36053Y-31320D01*
X36053Y-31358D01*
X36034Y-31415D01*
X35806Y-31644D01*
X36053Y-31644D01*
G54D28*
X27732Y-30951D02*
X27732Y-31017D01*
X27835Y-31017D02*
X27638Y-31017D01*
X27638Y-30923D01*
X27732Y-30782D02*
X27741Y-30754D01*
X27751Y-30745D01*
X27769Y-30735D01*
X27798Y-30735D01*
X27816Y-30745D01*
X27826Y-30754D01*
X27835Y-30773D01*
X27835Y-30848D01*
X27638Y-30848D01*
X27638Y-30782D01*
X27648Y-30763D01*
X27657Y-30754D01*
X27676Y-30745D01*
X27694Y-30745D01*
X27713Y-30754D01*
X27723Y-30763D01*
X27732Y-30782D01*
X27732Y-30848D01*
X27835Y-30548D02*
X27835Y-30660D01*
X27835Y-30604D02*
X27638Y-30604D01*
X27666Y-30623D01*
X27685Y-30641D01*
X27694Y-30660D01*
X33473Y-44775D02*
X33463Y-44784D01*
X33435Y-44793D01*
X33417Y-44793D01*
X33388Y-44784D01*
X33370Y-44765D01*
X33360Y-44747D01*
X33351Y-44709D01*
X33351Y-44681D01*
X33360Y-44643D01*
X33370Y-44625D01*
X33388Y-44606D01*
X33417Y-44596D01*
X33435Y-44596D01*
X33463Y-44606D01*
X33473Y-44615D01*
X33548Y-44615D02*
X33557Y-44606D01*
X33576Y-44596D01*
X33623Y-44596D01*
X33642Y-44606D01*
X33651Y-44615D01*
X33660Y-44634D01*
X33660Y-44653D01*
X33651Y-44681D01*
X33539Y-44793D01*
X33660Y-44793D01*
X33736Y-44615D02*
X33745Y-44606D01*
X33764Y-44596D01*
X33811Y-44596D01*
X33829Y-44606D01*
X33839Y-44615D01*
X33848Y-44634D01*
X33848Y-44653D01*
X33839Y-44681D01*
X33726Y-44793D01*
X33848Y-44793D01*
X33628Y-25454D02*
X33619Y-25464D01*
X33591Y-25473D01*
X33572Y-25473D01*
X33544Y-25464D01*
X33525Y-25445D01*
X33516Y-25426D01*
X33506Y-25389D01*
X33506Y-25360D01*
X33516Y-25323D01*
X33525Y-25304D01*
X33544Y-25285D01*
X33572Y-25276D01*
X33591Y-25276D01*
X33619Y-25285D01*
X33628Y-25295D01*
X33806Y-25276D02*
X33713Y-25276D01*
X33703Y-25370D01*
X33713Y-25360D01*
X33731Y-25351D01*
X33778Y-25351D01*
X33797Y-25360D01*
X33806Y-25370D01*
X33816Y-25389D01*
X33816Y-25435D01*
X33806Y-25454D01*
X33797Y-25464D01*
X33778Y-25473D01*
X33731Y-25473D01*
X33713Y-25464D01*
X33703Y-25454D01*
G54D29*
X34384Y-45072D02*
X34375Y-45082D01*
X34350Y-45091D01*
X34332Y-45091D01*
X34307Y-45082D01*
X34290Y-45063D01*
X34281Y-45044D01*
X34272Y-45006D01*
X34272Y-44977D01*
X34281Y-44939D01*
X34290Y-44920D01*
X34307Y-44901D01*
X34332Y-44891D01*
X34350Y-44891D01*
X34375Y-44901D01*
X34384Y-44911D01*
X34452Y-44911D02*
X34461Y-44901D01*
X34478Y-44891D01*
X34521Y-44891D01*
X34538Y-44901D01*
X34547Y-44911D01*
X34555Y-44930D01*
X34555Y-44949D01*
X34547Y-44977D01*
X34444Y-45091D01*
X34555Y-45091D01*
X34615Y-44891D02*
X34727Y-44891D01*
X34667Y-44968D01*
X34692Y-44968D01*
X34710Y-44977D01*
X34718Y-44987D01*
X34727Y-45006D01*
X34727Y-45053D01*
X34718Y-45072D01*
X34710Y-45082D01*
X34692Y-45091D01*
X34641Y-45091D01*
X34624Y-45082D01*
X34615Y-45072D01*
X21459Y-31676D02*
X21450Y-31685D01*
X21424Y-31695D01*
X21407Y-31695D01*
X21381Y-31685D01*
X21364Y-31666D01*
X21356Y-31647D01*
X21347Y-31609D01*
X21347Y-31580D01*
X21356Y-31542D01*
X21364Y-31523D01*
X21381Y-31504D01*
X21407Y-31495D01*
X21424Y-31495D01*
X21450Y-31504D01*
X21459Y-31514D01*
X21630Y-31695D02*
X21527Y-31695D01*
X21579Y-31695D02*
X21579Y-31495D01*
X21561Y-31523D01*
X21544Y-31542D01*
X21527Y-31552D01*
X21801Y-31695D02*
X21699Y-31695D01*
X21750Y-31695D02*
X21750Y-31495D01*
X21733Y-31523D01*
X21716Y-31542D01*
X21699Y-31552D01*
X26852Y-31597D02*
X26844Y-31606D01*
X26818Y-31616D01*
X26801Y-31616D01*
X26775Y-31606D01*
X26758Y-31587D01*
X26749Y-31568D01*
X26741Y-31530D01*
X26741Y-31502D01*
X26749Y-31464D01*
X26758Y-31444D01*
X26775Y-31425D01*
X26801Y-31416D01*
X26818Y-31416D01*
X26844Y-31425D01*
X26852Y-31435D01*
X27024Y-31616D02*
X26921Y-31616D01*
X26972Y-31616D02*
X26972Y-31416D01*
X26955Y-31444D01*
X26938Y-31464D01*
X26921Y-31473D01*
X27092Y-31435D02*
X27101Y-31425D01*
X27118Y-31416D01*
X27161Y-31416D01*
X27178Y-31425D01*
X27187Y-31435D01*
X27195Y-31454D01*
X27195Y-31473D01*
X27187Y-31502D01*
X27084Y-31616D01*
X27195Y-31616D01*
X25836Y-30061D02*
X25827Y-30071D01*
X25801Y-30080D01*
X25784Y-30080D01*
X25758Y-30071D01*
X25741Y-30052D01*
X25733Y-30033D01*
X25724Y-29995D01*
X25724Y-29966D01*
X25733Y-29928D01*
X25741Y-29909D01*
X25758Y-29890D01*
X25784Y-29880D01*
X25801Y-29880D01*
X25827Y-29890D01*
X25836Y-29900D01*
X25938Y-29966D02*
X25921Y-29957D01*
X25913Y-29947D01*
X25904Y-29928D01*
X25904Y-29919D01*
X25913Y-29900D01*
X25921Y-29890D01*
X25938Y-29880D01*
X25973Y-29880D01*
X25990Y-29890D01*
X25998Y-29900D01*
X26007Y-29919D01*
X26007Y-29928D01*
X25998Y-29947D01*
X25990Y-29957D01*
X25973Y-29966D01*
X25938Y-29966D01*
X25921Y-29976D01*
X25913Y-29985D01*
X25904Y-30004D01*
X25904Y-30042D01*
X25913Y-30061D01*
X25921Y-30071D01*
X25938Y-30080D01*
X25973Y-30080D01*
X25990Y-30071D01*
X25998Y-30061D01*
X26007Y-30042D01*
X26007Y-30004D01*
X25998Y-29985D01*
X25990Y-29976D01*
X25973Y-29966D01*
X26713Y-34734D02*
X26704Y-34743D01*
X26679Y-34753D01*
X26661Y-34753D01*
X26636Y-34743D01*
X26619Y-34724D01*
X26610Y-34705D01*
X26601Y-34667D01*
X26601Y-34638D01*
X26610Y-34600D01*
X26619Y-34581D01*
X26636Y-34562D01*
X26661Y-34553D01*
X26679Y-34553D01*
X26704Y-34562D01*
X26713Y-34572D01*
X26884Y-34753D02*
X26781Y-34753D01*
X26833Y-34753D02*
X26833Y-34553D01*
X26816Y-34581D01*
X26799Y-34600D01*
X26781Y-34610D01*
X26944Y-34553D02*
X27064Y-34553D01*
X26987Y-34753D01*
X27074Y-32411D02*
X27065Y-32421D01*
X27040Y-32430D01*
X27022Y-32430D01*
X26997Y-32421D01*
X26980Y-32402D01*
X26971Y-32383D01*
X26962Y-32345D01*
X26962Y-32316D01*
X26971Y-32278D01*
X26980Y-32259D01*
X26997Y-32240D01*
X27022Y-32230D01*
X27040Y-32230D01*
X27065Y-32240D01*
X27074Y-32250D01*
X27245Y-32430D02*
X27142Y-32430D01*
X27194Y-32430D02*
X27194Y-32230D01*
X27177Y-32259D01*
X27160Y-32278D01*
X27142Y-32288D01*
X27331Y-32430D02*
X27365Y-32430D01*
X27382Y-32421D01*
X27391Y-32411D01*
X27408Y-32383D01*
X27417Y-32345D01*
X27417Y-32269D01*
X27408Y-32250D01*
X27400Y-32240D01*
X27382Y-32230D01*
X27348Y-32230D01*
X27331Y-32240D01*
X27322Y-32250D01*
X27314Y-32269D01*
X27314Y-32316D01*
X27322Y-32335D01*
X27331Y-32345D01*
X27348Y-32354D01*
X27382Y-32354D01*
X27400Y-32345D01*
X27408Y-32335D01*
X27417Y-32316D01*
X26840Y-27522D02*
X26831Y-27532D01*
X26805Y-27541D01*
X26788Y-27541D01*
X26762Y-27532D01*
X26745Y-27513D01*
X26737Y-27493D01*
X26728Y-27455D01*
X26728Y-27427D01*
X26737Y-27389D01*
X26745Y-27370D01*
X26762Y-27351D01*
X26788Y-27341D01*
X26805Y-27341D01*
X26831Y-27351D01*
X26840Y-27360D01*
X26994Y-27408D02*
X26994Y-27541D01*
X26951Y-27332D02*
X26908Y-27474D01*
X27020Y-27474D01*
X21380Y-32896D02*
X21371Y-32906D01*
X21346Y-32915D01*
X21328Y-32915D01*
X21303Y-32906D01*
X21286Y-32887D01*
X21277Y-32867D01*
X21268Y-32829D01*
X21268Y-32801D01*
X21277Y-32763D01*
X21286Y-32744D01*
X21303Y-32725D01*
X21328Y-32715D01*
X21346Y-32715D01*
X21371Y-32725D01*
X21380Y-32734D01*
X21551Y-32915D02*
X21448Y-32915D01*
X21500Y-32915D02*
X21500Y-32715D01*
X21483Y-32744D01*
X21466Y-32763D01*
X21448Y-32772D01*
X21706Y-32715D02*
X21671Y-32715D01*
X21654Y-32725D01*
X21646Y-32734D01*
X21628Y-32763D01*
X21620Y-32801D01*
X21620Y-32877D01*
X21628Y-32896D01*
X21637Y-32906D01*
X21654Y-32915D01*
X21688Y-32915D01*
X21706Y-32906D01*
X21714Y-32896D01*
X21723Y-32877D01*
X21723Y-32829D01*
X21714Y-32810D01*
X21706Y-32801D01*
X21688Y-32791D01*
X21654Y-32791D01*
X21637Y-32801D01*
X21628Y-32810D01*
X21620Y-32829D01*
X28919Y-30475D02*
X28911Y-30484D01*
X28885Y-30494D01*
X28868Y-30494D01*
X28842Y-30484D01*
X28825Y-30465D01*
X28816Y-30446D01*
X28808Y-30408D01*
X28808Y-30380D01*
X28816Y-30341D01*
X28825Y-30322D01*
X28842Y-30303D01*
X28868Y-30294D01*
X28885Y-30294D01*
X28911Y-30303D01*
X28919Y-30313D01*
X29091Y-30494D02*
X28988Y-30494D01*
X29039Y-30494D02*
X29039Y-30294D01*
X29022Y-30322D01*
X29005Y-30341D01*
X28988Y-30351D01*
X29151Y-30294D02*
X29262Y-30294D01*
X29202Y-30370D01*
X29228Y-30370D01*
X29245Y-30380D01*
X29254Y-30389D01*
X29262Y-30408D01*
X29262Y-30456D01*
X29254Y-30475D01*
X29245Y-30484D01*
X29228Y-30494D01*
X29176Y-30494D01*
X29159Y-30484D01*
X29151Y-30475D01*
X30954Y-25199D02*
X30945Y-25209D01*
X30919Y-25218D01*
X30902Y-25218D01*
X30877Y-25209D01*
X30859Y-25190D01*
X30851Y-25171D01*
X30842Y-25133D01*
X30842Y-25104D01*
X30851Y-25066D01*
X30859Y-25047D01*
X30877Y-25028D01*
X30902Y-25018D01*
X30919Y-25018D01*
X30945Y-25028D01*
X30954Y-25037D01*
X31125Y-25218D02*
X31022Y-25218D01*
X31074Y-25218D02*
X31074Y-25018D01*
X31057Y-25047D01*
X31039Y-25066D01*
X31022Y-25075D01*
X29844Y-30494D02*
X29836Y-30504D01*
X29810Y-30514D01*
X29793Y-30514D01*
X29767Y-30504D01*
X29750Y-30485D01*
X29742Y-30466D01*
X29733Y-30428D01*
X29733Y-30399D01*
X29742Y-30361D01*
X29750Y-30342D01*
X29767Y-30323D01*
X29793Y-30314D01*
X29810Y-30314D01*
X29836Y-30323D01*
X29844Y-30333D01*
X30016Y-30514D02*
X29913Y-30514D01*
X29964Y-30514D02*
X29964Y-30314D01*
X29947Y-30342D01*
X29930Y-30361D01*
X29913Y-30371D01*
X30170Y-30380D02*
X30170Y-30514D01*
X30127Y-30304D02*
X30084Y-30447D01*
X30196Y-30447D01*
X27955Y-35239D02*
X27946Y-35248D01*
X27920Y-35258D01*
X27903Y-35258D01*
X27878Y-35248D01*
X27860Y-35229D01*
X27852Y-35210D01*
X27843Y-35172D01*
X27843Y-35143D01*
X27852Y-35105D01*
X27860Y-35086D01*
X27878Y-35067D01*
X27903Y-35058D01*
X27920Y-35058D01*
X27946Y-35067D01*
X27955Y-35077D01*
X28126Y-35258D02*
X28023Y-35258D01*
X28075Y-35258D02*
X28075Y-35058D01*
X28058Y-35086D01*
X28040Y-35105D01*
X28023Y-35115D01*
X28229Y-35143D02*
X28212Y-35134D01*
X28203Y-35124D01*
X28195Y-35105D01*
X28195Y-35096D01*
X28203Y-35077D01*
X28212Y-35067D01*
X28229Y-35058D01*
X28263Y-35058D01*
X28280Y-35067D01*
X28289Y-35077D01*
X28298Y-35096D01*
X28298Y-35105D01*
X28289Y-35124D01*
X28280Y-35134D01*
X28263Y-35143D01*
X28229Y-35143D01*
X28212Y-35153D01*
X28203Y-35162D01*
X28195Y-35181D01*
X28195Y-35220D01*
X28203Y-35239D01*
X28212Y-35248D01*
X28229Y-35258D01*
X28263Y-35258D01*
X28280Y-35248D01*
X28289Y-35239D01*
X28298Y-35220D01*
X28298Y-35181D01*
X28289Y-35162D01*
X28280Y-35153D01*
X28263Y-35143D01*
X31459Y-35258D02*
X31450Y-35268D01*
X31424Y-35277D01*
X31407Y-35277D01*
X31381Y-35268D01*
X31364Y-35249D01*
X31356Y-35230D01*
X31347Y-35192D01*
X31347Y-35163D01*
X31356Y-35125D01*
X31364Y-35106D01*
X31381Y-35087D01*
X31407Y-35077D01*
X31424Y-35077D01*
X31450Y-35087D01*
X31459Y-35096D01*
X31527Y-35096D02*
X31536Y-35087D01*
X31553Y-35077D01*
X31596Y-35077D01*
X31613Y-35087D01*
X31621Y-35096D01*
X31630Y-35115D01*
X31630Y-35134D01*
X31621Y-35163D01*
X31519Y-35277D01*
X31630Y-35277D01*
X31801Y-35277D02*
X31699Y-35277D01*
X31750Y-35277D02*
X31750Y-35077D01*
X31733Y-35106D01*
X31716Y-35125D01*
X31699Y-35134D01*
X35592Y-39668D02*
X35584Y-39677D01*
X35558Y-39687D01*
X35541Y-39687D01*
X35515Y-39677D01*
X35498Y-39658D01*
X35490Y-39639D01*
X35481Y-39601D01*
X35481Y-39572D01*
X35490Y-39534D01*
X35498Y-39515D01*
X35515Y-39496D01*
X35541Y-39487D01*
X35558Y-39487D01*
X35584Y-39496D01*
X35592Y-39506D01*
X35661Y-39506D02*
X35670Y-39496D01*
X35687Y-39487D01*
X35730Y-39487D01*
X35747Y-39496D01*
X35755Y-39506D01*
X35764Y-39525D01*
X35764Y-39544D01*
X35755Y-39572D01*
X35652Y-39687D01*
X35764Y-39687D01*
X35875Y-39487D02*
X35892Y-39487D01*
X35910Y-39496D01*
X35918Y-39506D01*
X35927Y-39525D01*
X35935Y-39563D01*
X35935Y-39611D01*
X35927Y-39649D01*
X35918Y-39668D01*
X35910Y-39677D01*
X35892Y-39687D01*
X35875Y-39687D01*
X35858Y-39677D01*
X35850Y-39668D01*
X35841Y-39649D01*
X35832Y-39611D01*
X35832Y-39563D01*
X35841Y-39525D01*
X35850Y-39506D01*
X35858Y-39496D01*
X35875Y-39487D01*
X31347Y-32088D02*
X31287Y-31993D01*
X31245Y-32088D02*
X31245Y-31888D01*
X31313Y-31888D01*
X31330Y-31898D01*
X31339Y-31907D01*
X31347Y-31926D01*
X31347Y-31955D01*
X31339Y-31974D01*
X31330Y-31984D01*
X31313Y-31993D01*
X31245Y-31993D01*
X31502Y-31888D02*
X31467Y-31888D01*
X31450Y-31898D01*
X31442Y-31907D01*
X31425Y-31936D01*
X31416Y-31974D01*
X31416Y-32050D01*
X31425Y-32069D01*
X31433Y-32079D01*
X31450Y-32088D01*
X31485Y-32088D01*
X31502Y-32079D01*
X31510Y-32069D01*
X31519Y-32050D01*
X31519Y-32003D01*
X31510Y-31984D01*
X31502Y-31974D01*
X31485Y-31965D01*
X31450Y-31965D01*
X31433Y-31974D01*
X31425Y-31984D01*
X31416Y-32003D01*
X25048Y-26419D02*
X24963Y-26419D01*
X24963Y-26219D01*
X25203Y-26419D02*
X25100Y-26419D01*
X25151Y-26419D02*
X25151Y-26219D01*
X25134Y-26248D01*
X25117Y-26267D01*
X25100Y-26276D01*
X21584Y-30947D02*
X21524Y-30851D01*
X21481Y-30947D02*
X21481Y-30747D01*
X21549Y-30747D01*
X21567Y-30756D01*
X21575Y-30766D01*
X21584Y-30785D01*
X21584Y-30813D01*
X21575Y-30832D01*
X21567Y-30842D01*
X21549Y-30851D01*
X21481Y-30851D01*
X21644Y-30747D02*
X21755Y-30747D01*
X21695Y-30823D01*
X21721Y-30823D01*
X21738Y-30832D01*
X21747Y-30842D01*
X21755Y-30861D01*
X21755Y-30908D01*
X21747Y-30928D01*
X21738Y-30937D01*
X21721Y-30947D01*
X21669Y-30947D01*
X21652Y-30937D01*
X21644Y-30928D01*
X21584Y-33624D02*
X21524Y-33529D01*
X21481Y-33624D02*
X21481Y-33424D01*
X21549Y-33424D01*
X21567Y-33433D01*
X21575Y-33443D01*
X21584Y-33462D01*
X21584Y-33490D01*
X21575Y-33509D01*
X21567Y-33519D01*
X21549Y-33529D01*
X21481Y-33529D01*
X21669Y-33624D02*
X21704Y-33624D01*
X21721Y-33614D01*
X21729Y-33605D01*
X21747Y-33576D01*
X21755Y-33538D01*
X21755Y-33462D01*
X21747Y-33443D01*
X21738Y-33433D01*
X21721Y-33424D01*
X21687Y-33424D01*
X21669Y-33433D01*
X21661Y-33443D01*
X21652Y-33462D01*
X21652Y-33509D01*
X21661Y-33529D01*
X21669Y-33538D01*
X21687Y-33548D01*
X21721Y-33548D01*
X21738Y-33538D01*
X21747Y-33529D01*
X21755Y-33509D01*
X32056Y-32088D02*
X31996Y-31993D01*
X31953Y-32088D02*
X31953Y-31888D01*
X32022Y-31888D01*
X32039Y-31898D01*
X32048Y-31907D01*
X32056Y-31926D01*
X32056Y-31955D01*
X32048Y-31974D01*
X32039Y-31984D01*
X32022Y-31993D01*
X31953Y-31993D01*
X32116Y-31888D02*
X32236Y-31888D01*
X32159Y-32088D01*
X33828Y-32088D02*
X33768Y-31993D01*
X33725Y-32088D02*
X33725Y-31888D01*
X33793Y-31888D01*
X33811Y-31898D01*
X33819Y-31907D01*
X33828Y-31926D01*
X33828Y-31955D01*
X33819Y-31974D01*
X33811Y-31984D01*
X33793Y-31993D01*
X33725Y-31993D01*
X33931Y-31974D02*
X33913Y-31965D01*
X33905Y-31955D01*
X33896Y-31936D01*
X33896Y-31926D01*
X33905Y-31907D01*
X33913Y-31898D01*
X33931Y-31888D01*
X33965Y-31888D01*
X33982Y-31898D01*
X33991Y-31907D01*
X33999Y-31926D01*
X33999Y-31936D01*
X33991Y-31955D01*
X33982Y-31965D01*
X33965Y-31974D01*
X33931Y-31974D01*
X33913Y-31984D01*
X33905Y-31993D01*
X33896Y-32012D01*
X33896Y-32050D01*
X33905Y-32069D01*
X33913Y-32079D01*
X33931Y-32088D01*
X33965Y-32088D01*
X33982Y-32079D01*
X33991Y-32069D01*
X33999Y-32050D01*
X33999Y-32012D01*
X33991Y-31993D01*
X33982Y-31984D01*
X33965Y-31974D01*
X30986Y-47206D02*
X30926Y-47111D01*
X30883Y-47206D02*
X30883Y-47006D01*
X30952Y-47006D01*
X30969Y-47016D01*
X30978Y-47025D01*
X30986Y-47045D01*
X30986Y-47073D01*
X30978Y-47092D01*
X30969Y-47102D01*
X30952Y-47111D01*
X30883Y-47111D01*
X31158Y-47206D02*
X31055Y-47206D01*
X31106Y-47206D02*
X31106Y-47006D01*
X31089Y-47035D01*
X31072Y-47054D01*
X31055Y-47064D01*
X31218Y-47006D02*
X31329Y-47006D01*
X31269Y-47083D01*
X31295Y-47083D01*
X31312Y-47092D01*
X31320Y-47102D01*
X31329Y-47121D01*
X31329Y-47168D01*
X31320Y-47187D01*
X31312Y-47197D01*
X31295Y-47206D01*
X31243Y-47206D01*
X31226Y-47197D01*
X31218Y-47187D01*
X32600Y-36773D02*
X32540Y-36678D01*
X32497Y-36773D02*
X32497Y-36573D01*
X32566Y-36573D01*
X32583Y-36583D01*
X32592Y-36592D01*
X32600Y-36611D01*
X32600Y-36640D01*
X32592Y-36659D01*
X32583Y-36669D01*
X32566Y-36678D01*
X32497Y-36678D01*
X32772Y-36773D02*
X32669Y-36773D01*
X32720Y-36773D02*
X32720Y-36573D01*
X32703Y-36602D01*
X32686Y-36621D01*
X32669Y-36631D01*
X32883Y-36573D02*
X32900Y-36573D01*
X32917Y-36583D01*
X32926Y-36592D01*
X32935Y-36611D01*
X32943Y-36650D01*
X32943Y-36697D01*
X32935Y-36735D01*
X32926Y-36754D01*
X32917Y-36764D01*
X32900Y-36773D01*
X32883Y-36773D01*
X32866Y-36764D01*
X32857Y-36754D01*
X32849Y-36735D01*
X32840Y-36697D01*
X32840Y-36650D01*
X32849Y-36611D01*
X32857Y-36592D01*
X32866Y-36583D01*
X32883Y-36573D01*
X37273Y-23702D02*
X37213Y-23607D01*
X37170Y-23702D02*
X37170Y-23502D01*
X37238Y-23502D01*
X37256Y-23512D01*
X37264Y-23522D01*
X37273Y-23541D01*
X37273Y-23569D01*
X37264Y-23588D01*
X37256Y-23598D01*
X37238Y-23607D01*
X37170Y-23607D01*
X37444Y-23702D02*
X37341Y-23702D01*
X37393Y-23702D02*
X37393Y-23502D01*
X37376Y-23531D01*
X37358Y-23550D01*
X37341Y-23560D01*
X37962Y-23702D02*
X37902Y-23607D01*
X37859Y-23702D02*
X37859Y-23502D01*
X37927Y-23502D01*
X37944Y-23512D01*
X37953Y-23522D01*
X37962Y-23541D01*
X37962Y-23569D01*
X37953Y-23588D01*
X37944Y-23598D01*
X37927Y-23607D01*
X37859Y-23607D01*
X38030Y-23522D02*
X38039Y-23512D01*
X38056Y-23502D01*
X38099Y-23502D01*
X38116Y-23512D01*
X38124Y-23522D01*
X38133Y-23541D01*
X38133Y-23560D01*
X38124Y-23588D01*
X38022Y-23702D01*
X38133Y-23702D01*
X38978Y-36891D02*
X38918Y-36796D01*
X38875Y-36891D02*
X38875Y-36691D01*
X38944Y-36691D01*
X38961Y-36701D01*
X38970Y-36711D01*
X38978Y-36730D01*
X38978Y-36758D01*
X38970Y-36777D01*
X38961Y-36787D01*
X38944Y-36796D01*
X38875Y-36796D01*
X39150Y-36891D02*
X39047Y-36891D01*
X39098Y-36891D02*
X39098Y-36691D01*
X39081Y-36720D01*
X39064Y-36739D01*
X39047Y-36749D01*
X39321Y-36891D02*
X39218Y-36891D01*
X39270Y-36891D02*
X39270Y-36691D01*
X39253Y-36720D01*
X39235Y-36739D01*
X39218Y-36749D01*
X35711Y-37876D02*
X35651Y-37780D01*
X35608Y-37876D02*
X35608Y-37676D01*
X35676Y-37676D01*
X35693Y-37685D01*
X35702Y-37695D01*
X35711Y-37714D01*
X35711Y-37742D01*
X35702Y-37761D01*
X35693Y-37771D01*
X35676Y-37780D01*
X35608Y-37780D01*
X35882Y-37876D02*
X35779Y-37876D01*
X35831Y-37876D02*
X35831Y-37676D01*
X35813Y-37704D01*
X35796Y-37723D01*
X35779Y-37733D01*
X36045Y-37676D02*
X35959Y-37676D01*
X35951Y-37771D01*
X35959Y-37761D01*
X35976Y-37752D01*
X36019Y-37752D01*
X36036Y-37761D01*
X36045Y-37771D01*
X36053Y-37790D01*
X36053Y-37838D01*
X36045Y-37857D01*
X36036Y-37866D01*
X36019Y-37876D01*
X35976Y-37876D01*
X35959Y-37866D01*
X35951Y-37857D01*
X30639Y-32088D02*
X30579Y-31993D01*
X30536Y-32088D02*
X30536Y-31888D01*
X30605Y-31888D01*
X30622Y-31898D01*
X30630Y-31907D01*
X30639Y-31926D01*
X30639Y-31955D01*
X30630Y-31974D01*
X30622Y-31984D01*
X30605Y-31993D01*
X30536Y-31993D01*
X30802Y-31888D02*
X30716Y-31888D01*
X30707Y-31984D01*
X30716Y-31974D01*
X30733Y-31965D01*
X30776Y-31965D01*
X30793Y-31974D01*
X30802Y-31984D01*
X30810Y-32003D01*
X30810Y-32050D01*
X30802Y-32069D01*
X30793Y-32079D01*
X30776Y-32088D01*
X30733Y-32088D01*
X30716Y-32079D01*
X30707Y-32069D01*
X28316Y-30592D02*
X28256Y-30497D01*
X28213Y-30592D02*
X28213Y-30392D01*
X28282Y-30392D01*
X28299Y-30402D01*
X28307Y-30411D01*
X28316Y-30430D01*
X28316Y-30459D01*
X28307Y-30478D01*
X28299Y-30488D01*
X28282Y-30497D01*
X28213Y-30497D01*
X28470Y-30459D02*
X28470Y-30592D01*
X28427Y-30383D02*
X28385Y-30526D01*
X28496Y-30526D01*
X40238Y-35080D02*
X40178Y-34985D01*
X40135Y-35080D02*
X40135Y-34880D01*
X40204Y-34880D01*
X40221Y-34890D01*
X40230Y-34900D01*
X40238Y-34919D01*
X40238Y-34947D01*
X40230Y-34966D01*
X40221Y-34976D01*
X40204Y-34985D01*
X40135Y-34985D01*
X40410Y-35080D02*
X40307Y-35080D01*
X40358Y-35080D02*
X40358Y-34880D01*
X40341Y-34909D01*
X40324Y-34928D01*
X40307Y-34938D01*
X40478Y-34900D02*
X40487Y-34890D01*
X40504Y-34880D01*
X40547Y-34880D01*
X40564Y-34890D01*
X40572Y-34900D01*
X40581Y-34919D01*
X40581Y-34938D01*
X40572Y-34966D01*
X40470Y-35080D01*
X40581Y-35080D01*
X37069Y-37994D02*
X37009Y-37899D01*
X36966Y-37994D02*
X36966Y-37794D01*
X37035Y-37794D01*
X37052Y-37803D01*
X37060Y-37813D01*
X37069Y-37832D01*
X37069Y-37861D01*
X37060Y-37880D01*
X37052Y-37889D01*
X37035Y-37899D01*
X36966Y-37899D01*
X37240Y-37994D02*
X37137Y-37994D01*
X37189Y-37994D02*
X37189Y-37794D01*
X37172Y-37822D01*
X37155Y-37841D01*
X37137Y-37851D01*
X37395Y-37861D02*
X37395Y-37994D01*
X37352Y-37784D02*
X37309Y-37927D01*
X37420Y-37927D01*
G54D15*
X23490Y-29686D02*
X23481Y-29696D01*
X23453Y-29705D01*
X23434Y-29705D01*
X23406Y-29696D01*
X23387Y-29677D01*
X23378Y-29658D01*
X23368Y-29621D01*
X23368Y-29593D01*
X23378Y-29555D01*
X23387Y-29536D01*
X23406Y-29518D01*
X23434Y-29508D01*
X23453Y-29508D01*
X23481Y-29518D01*
X23490Y-29527D01*
X23556Y-29508D02*
X23687Y-29508D01*
X23603Y-29705D01*
X25065Y-29686D02*
X25056Y-29696D01*
X25028Y-29705D01*
X25009Y-29705D01*
X24981Y-29696D01*
X24962Y-29677D01*
X24953Y-29658D01*
X24943Y-29621D01*
X24943Y-29593D01*
X24953Y-29555D01*
X24962Y-29536D01*
X24981Y-29518D01*
X25009Y-29508D01*
X25028Y-29508D01*
X25056Y-29518D01*
X25065Y-29527D01*
X25234Y-29508D02*
X25196Y-29508D01*
X25178Y-29518D01*
X25168Y-29527D01*
X25149Y-29555D01*
X25140Y-29593D01*
X25140Y-29668D01*
X25149Y-29686D01*
X25159Y-29696D01*
X25178Y-29705D01*
X25215Y-29705D01*
X25234Y-29696D01*
X25243Y-29686D01*
X25253Y-29668D01*
X25253Y-29621D01*
X25243Y-29602D01*
X25234Y-29593D01*
X25215Y-29583D01*
X25178Y-29583D01*
X25159Y-29593D01*
X25149Y-29602D01*
X25140Y-29621D01*
G54D19*
X42304Y-39486D02*
X42304Y-39772D01*
X42285Y-39829D01*
X42247Y-39867D01*
X42190Y-39886D01*
X42152Y-39886D01*
X42494Y-39886D02*
X42494Y-39486D01*
X42647Y-39486D01*
X42685Y-39505D01*
X42704Y-39524D01*
X42723Y-39562D01*
X42723Y-39619D01*
X42704Y-39657D01*
X42685Y-39676D01*
X42647Y-39695D01*
X42494Y-39695D01*
X43066Y-39486D02*
X42990Y-39486D01*
X42952Y-39505D01*
X42933Y-39524D01*
X42894Y-39581D01*
X42875Y-39657D01*
X42875Y-39810D01*
X42894Y-39848D01*
X42913Y-39867D01*
X42952Y-39886D01*
X43028Y-39886D01*
X43066Y-39867D01*
X43085Y-39848D01*
X43104Y-39810D01*
X43104Y-39714D01*
X43085Y-39676D01*
X43066Y-39657D01*
X43028Y-39638D01*
X42952Y-39638D01*
X42913Y-39657D01*
X42894Y-39676D01*
X42875Y-39714D01*
X42304Y-30903D02*
X42304Y-31189D01*
X42285Y-31246D01*
X42247Y-31284D01*
X42190Y-31303D01*
X42152Y-31303D01*
X42494Y-31303D02*
X42494Y-30903D01*
X42647Y-30903D01*
X42685Y-30922D01*
X42704Y-30941D01*
X42723Y-30979D01*
X42723Y-31036D01*
X42704Y-31075D01*
X42685Y-31094D01*
X42647Y-31113D01*
X42494Y-31113D01*
X43066Y-31036D02*
X43066Y-31303D01*
X42971Y-30884D02*
X42875Y-31170D01*
X43123Y-31170D01*
X31112Y-48390D02*
X31112Y-47990D01*
X31112Y-48180D02*
X31341Y-48180D01*
X31341Y-48390D02*
X31341Y-47990D01*
X31493Y-47990D02*
X31741Y-47990D01*
X31607Y-48142D01*
X31664Y-48142D01*
X31703Y-48161D01*
X31722Y-48180D01*
X31741Y-48218D01*
X31741Y-48314D01*
X31722Y-48352D01*
X31703Y-48371D01*
X31664Y-48390D01*
X31550Y-48390D01*
X31512Y-48371D01*
X31493Y-48352D01*
G54D18*
X37737Y-24919D02*
X37737Y-25205D01*
X37718Y-25262D01*
X37680Y-25300D01*
X37623Y-25319D01*
X37585Y-25319D01*
X37928Y-25319D02*
X37928Y-24919D01*
X38080Y-24919D01*
X38118Y-24938D01*
X38137Y-24957D01*
X38156Y-24995D01*
X38156Y-25052D01*
X38137Y-25090D01*
X38118Y-25109D01*
X38080Y-25128D01*
X37928Y-25128D01*
X38537Y-25319D02*
X38308Y-25319D01*
X38423Y-25319D02*
X38423Y-24919D01*
X38385Y-24976D01*
X38347Y-25014D01*
X38308Y-25033D01*
X20911Y-34467D02*
X20911Y-34681D01*
X20897Y-34724D01*
X20868Y-34752D01*
X20825Y-34767D01*
X20797Y-34767D01*
X21054Y-34767D02*
X21054Y-34467D01*
X21168Y-34467D01*
X21197Y-34481D01*
X21211Y-34495D01*
X21225Y-34524D01*
X21225Y-34567D01*
X21211Y-34595D01*
X21197Y-34609D01*
X21168Y-34624D01*
X21054Y-34624D01*
X21339Y-34495D02*
X21354Y-34481D01*
X21382Y-34467D01*
X21454Y-34467D01*
X21482Y-34481D01*
X21497Y-34495D01*
X21511Y-34524D01*
X21511Y-34552D01*
X21497Y-34595D01*
X21325Y-34767D01*
X21511Y-34767D01*
X38923Y-50866D02*
X38923Y-51080D01*
X38908Y-51123D01*
X38880Y-51152D01*
X38837Y-51166D01*
X38808Y-51166D01*
X39066Y-51166D02*
X39066Y-50866D01*
X39180Y-50866D01*
X39208Y-50880D01*
X39223Y-50895D01*
X39237Y-50923D01*
X39237Y-50966D01*
X39223Y-50995D01*
X39208Y-51009D01*
X39180Y-51023D01*
X39066Y-51023D01*
X39337Y-50866D02*
X39537Y-50866D01*
X39408Y-51166D01*
G54D19*
X23288Y-41395D02*
X23288Y-41681D01*
X23269Y-41738D01*
X23231Y-41776D01*
X23174Y-41795D01*
X23136Y-41795D01*
X23479Y-41795D02*
X23479Y-41395D01*
X23631Y-41395D01*
X23669Y-41414D01*
X23688Y-41433D01*
X23707Y-41471D01*
X23707Y-41529D01*
X23688Y-41567D01*
X23669Y-41586D01*
X23631Y-41605D01*
X23479Y-41605D01*
X24069Y-41395D02*
X23879Y-41395D01*
X23860Y-41586D01*
X23879Y-41567D01*
X23917Y-41548D01*
X24012Y-41548D01*
X24050Y-41567D01*
X24069Y-41586D01*
X24088Y-41624D01*
X24088Y-41719D01*
X24069Y-41757D01*
X24050Y-41776D01*
X24012Y-41795D01*
X23917Y-41795D01*
X23879Y-41776D01*
X23860Y-41757D01*
X23288Y-34309D02*
X23288Y-34594D01*
X23269Y-34652D01*
X23231Y-34690D01*
X23174Y-34709D01*
X23136Y-34709D01*
X23479Y-34709D02*
X23479Y-34309D01*
X23631Y-34309D01*
X23669Y-34328D01*
X23688Y-34347D01*
X23707Y-34385D01*
X23707Y-34442D01*
X23688Y-34480D01*
X23669Y-34499D01*
X23631Y-34518D01*
X23479Y-34518D01*
X23841Y-34309D02*
X24088Y-34309D01*
X23955Y-34461D01*
X24012Y-34461D01*
X24050Y-34480D01*
X24069Y-34499D01*
X24088Y-34537D01*
X24088Y-34632D01*
X24069Y-34671D01*
X24050Y-34690D01*
X24012Y-34709D01*
X23898Y-34709D01*
X23860Y-34690D01*
X23841Y-34671D01*
G54D22*
X37752Y-20593D02*
X37752Y-20393D01*
X37800Y-20393D01*
X37828Y-20403D01*
X37847Y-20422D01*
X37857Y-20441D01*
X37866Y-20479D01*
X37866Y-20507D01*
X37857Y-20545D01*
X37847Y-20564D01*
X37828Y-20584D01*
X37800Y-20593D01*
X37752Y-20593D01*
X38057Y-20593D02*
X37942Y-20593D01*
X38000Y-20593D02*
X38000Y-20393D01*
X37980Y-20422D01*
X37961Y-20441D01*
X37942Y-20450D01*
X40403Y-33427D02*
X40403Y-33227D01*
X40451Y-33227D01*
X40479Y-33236D01*
X40498Y-33255D01*
X40508Y-33275D01*
X40517Y-33313D01*
X40517Y-33341D01*
X40508Y-33379D01*
X40498Y-33398D01*
X40479Y-33417D01*
X40451Y-33427D01*
X40403Y-33427D01*
X40689Y-33227D02*
X40651Y-33227D01*
X40632Y-33236D01*
X40622Y-33246D01*
X40603Y-33275D01*
X40594Y-33313D01*
X40594Y-33389D01*
X40603Y-33408D01*
X40613Y-33417D01*
X40632Y-33427D01*
X40670Y-33427D01*
X40689Y-33417D01*
X40698Y-33408D01*
X40708Y-33389D01*
X40708Y-33341D01*
X40698Y-33322D01*
X40689Y-33313D01*
X40670Y-33303D01*
X40632Y-33303D01*
X40613Y-33313D01*
X40603Y-33322D01*
X40594Y-33341D01*
X32529Y-30514D02*
X32529Y-30314D01*
X32577Y-30314D01*
X32605Y-30323D01*
X32624Y-30342D01*
X32634Y-30361D01*
X32643Y-30399D01*
X32643Y-30428D01*
X32634Y-30466D01*
X32624Y-30485D01*
X32605Y-30504D01*
X32577Y-30514D01*
X32529Y-30514D01*
X32710Y-30314D02*
X32834Y-30314D01*
X32767Y-30390D01*
X32796Y-30390D01*
X32815Y-30399D01*
X32824Y-30409D01*
X32834Y-30428D01*
X32834Y-30475D01*
X32824Y-30494D01*
X32815Y-30504D01*
X32796Y-30514D01*
X32739Y-30514D01*
X32720Y-30504D01*
X32710Y-30494D01*
X38452Y-20593D02*
X38452Y-20393D01*
X38500Y-20393D01*
X38528Y-20403D01*
X38547Y-20422D01*
X38557Y-20441D01*
X38566Y-20479D01*
X38566Y-20507D01*
X38557Y-20545D01*
X38547Y-20564D01*
X38528Y-20584D01*
X38500Y-20593D01*
X38452Y-20593D01*
X38642Y-20412D02*
X38652Y-20403D01*
X38671Y-20393D01*
X38719Y-20393D01*
X38738Y-20403D01*
X38747Y-20412D01*
X38757Y-20431D01*
X38757Y-20450D01*
X38747Y-20479D01*
X38633Y-20593D01*
X38757Y-20593D01*
X33120Y-30514D02*
X33120Y-30314D01*
X33167Y-30314D01*
X33196Y-30323D01*
X33215Y-30342D01*
X33224Y-30361D01*
X33234Y-30399D01*
X33234Y-30428D01*
X33224Y-30466D01*
X33215Y-30485D01*
X33196Y-30504D01*
X33167Y-30514D01*
X33120Y-30514D01*
X33405Y-30380D02*
X33405Y-30514D01*
X33358Y-30304D02*
X33310Y-30447D01*
X33434Y-30447D01*
G54D21*
X34849Y-24234D02*
X34839Y-24243D01*
X34811Y-24252D01*
X34792Y-24252D01*
X34764Y-24243D01*
X34745Y-24224D01*
X34736Y-24206D01*
X34727Y-24168D01*
X34727Y-24140D01*
X34736Y-24102D01*
X34745Y-24084D01*
X34764Y-24065D01*
X34792Y-24055D01*
X34811Y-24055D01*
X34839Y-24065D01*
X34849Y-24074D01*
X34914Y-24055D02*
X35036Y-24055D01*
X34971Y-24131D01*
X34999Y-24131D01*
X35017Y-24140D01*
X35027Y-24149D01*
X35036Y-24168D01*
X35036Y-24215D01*
X35027Y-24234D01*
X35017Y-24243D01*
X34999Y-24252D01*
X34942Y-24252D01*
X34924Y-24243D01*
X34914Y-24234D01*
G54D10*
X27967Y-47581D02*
X28023Y-47600D01*
X28117Y-47600D01*
X28155Y-47581D01*
X28173Y-47562D01*
X28192Y-47525D01*
X28192Y-47487D01*
X28173Y-47450D01*
X28155Y-47431D01*
X28117Y-47412D01*
X28042Y-47394D01*
X28005Y-47375D01*
X27986Y-47356D01*
X27967Y-47319D01*
X27967Y-47281D01*
X27986Y-47244D01*
X28005Y-47225D01*
X28042Y-47206D01*
X28136Y-47206D01*
X28192Y-47225D01*
X28342Y-47244D02*
X28361Y-47225D01*
X28398Y-47206D01*
X28492Y-47206D01*
X28530Y-47225D01*
X28548Y-47244D01*
X28567Y-47281D01*
X28567Y-47319D01*
X28548Y-47375D01*
X28323Y-47600D01*
X28567Y-47600D01*
G54D29*
X26840Y-26735D02*
X26831Y-26744D01*
X26805Y-26754D01*
X26788Y-26754D01*
X26762Y-26744D01*
X26745Y-26725D01*
X26737Y-26706D01*
X26728Y-26668D01*
X26728Y-26639D01*
X26737Y-26601D01*
X26745Y-26582D01*
X26762Y-26563D01*
X26788Y-26554D01*
X26805Y-26554D01*
X26831Y-26563D01*
X26840Y-26573D01*
X26908Y-26573D02*
X26917Y-26563D01*
X26934Y-26554D01*
X26977Y-26554D01*
X26994Y-26563D01*
X27002Y-26573D01*
X27011Y-26592D01*
X27011Y-26611D01*
X27002Y-26639D01*
X26900Y-26754D01*
X27011Y-26754D01*
G54D10*
X27251Y-33481D02*
X27251Y-33631D01*
X27146Y-33316D02*
X27251Y-33481D01*
X27356Y-33316D01*
X27626Y-33631D02*
X27446Y-33631D01*
X27536Y-33631D02*
X27536Y-33316D01*
X27506Y-33361D01*
X27476Y-33391D01*
X27446Y-33406D01*
G54D19*
X35704Y-33911D02*
X35837Y-34411D01*
X35971Y-33911D01*
X36333Y-34411D02*
X36199Y-34172D01*
X36104Y-34411D02*
X36104Y-33911D01*
X36256Y-33911D01*
X36295Y-33934D01*
X36314Y-33958D01*
X36333Y-34006D01*
X36333Y-34077D01*
X36314Y-34125D01*
X36295Y-34149D01*
X36256Y-34172D01*
X36104Y-34172D01*
X36714Y-34411D02*
X36485Y-34411D01*
X36599Y-34411D02*
X36599Y-33911D01*
X36561Y-33982D01*
X36523Y-34030D01*
X36485Y-34053D01*
G54D24*
X28299Y-25538D02*
X28299Y-25252D01*
X28471Y-25595D02*
X27871Y-25395D01*
X28471Y-25195D01*
X28471Y-24995D02*
X27871Y-24995D01*
X28471Y-24652D01*
X27871Y-24652D01*
X27871Y-24452D02*
X27871Y-24109D01*
X28471Y-24281D02*
X27871Y-24281D01*
X28471Y-23595D02*
X28471Y-23938D01*
X28471Y-23766D02*
X27871Y-23766D01*
X27956Y-23824D01*
X28014Y-23881D01*
X28042Y-23938D01*
G54D18*
X25348Y-49373D02*
X25391Y-49388D01*
X25405Y-49402D01*
X25419Y-49430D01*
X25419Y-49473D01*
X25405Y-49502D01*
X25391Y-49516D01*
X25362Y-49530D01*
X25248Y-49530D01*
X25248Y-49230D01*
X25348Y-49230D01*
X25376Y-49245D01*
X25391Y-49259D01*
X25405Y-49288D01*
X25405Y-49316D01*
X25391Y-49345D01*
X25376Y-49359D01*
X25348Y-49373D01*
X25248Y-49373D01*
X25533Y-49445D02*
X25676Y-49445D01*
X25505Y-49530D02*
X25605Y-49230D01*
X25705Y-49530D01*
X25762Y-49230D02*
X25933Y-49230D01*
X25848Y-49530D02*
X25848Y-49230D01*
X25991Y-49230D02*
X26162Y-49230D01*
X26076Y-49530D02*
X26076Y-49230D01*
X26419Y-49530D02*
X26248Y-49530D01*
X26333Y-49530D02*
X26333Y-49230D01*
X26305Y-49273D01*
X26276Y-49302D01*
X26248Y-49316D01*
G54D30*
X42583Y-25155D02*
X42583Y-25441D01*
X42564Y-25498D01*
X42526Y-25536D01*
X42468Y-25555D01*
X42430Y-25555D01*
X42754Y-25193D02*
X42773Y-25174D01*
X42811Y-25155D01*
X42907Y-25155D01*
X42945Y-25174D01*
X42964Y-25193D01*
X42983Y-25231D01*
X42983Y-25269D01*
X42964Y-25327D01*
X42735Y-25555D01*
X42983Y-25555D01*
G54D10*
X32574Y-21872D02*
X32630Y-21891D01*
X32724Y-21891D01*
X32761Y-21872D01*
X32780Y-21854D01*
X32799Y-21816D01*
X32799Y-21779D01*
X32780Y-21741D01*
X32761Y-21722D01*
X32724Y-21704D01*
X32649Y-21685D01*
X32611Y-21666D01*
X32592Y-21647D01*
X32574Y-21610D01*
X32574Y-21572D01*
X32592Y-21535D01*
X32611Y-21516D01*
X32649Y-21497D01*
X32742Y-21497D01*
X32799Y-21516D01*
X33173Y-21891D02*
X32949Y-21891D01*
X33061Y-21891D02*
X33061Y-21497D01*
X33023Y-21554D01*
X32986Y-21591D01*
X32949Y-21610D01*
G54D15*
X24028Y-27609D02*
X24056Y-27620D01*
X24066Y-27632D01*
X24075Y-27654D01*
X24075Y-27688D01*
X24066Y-27710D01*
X24056Y-27722D01*
X24038Y-27733D01*
X23963Y-27733D01*
X23963Y-27497D01*
X24028Y-27497D01*
X24047Y-27508D01*
X24056Y-27519D01*
X24066Y-27542D01*
X24066Y-27564D01*
X24056Y-27587D01*
X24047Y-27598D01*
X24028Y-27609D01*
X23963Y-27609D01*
X24253Y-27733D02*
X24160Y-27733D01*
X24160Y-27497D01*
X24319Y-27733D02*
X24319Y-27497D01*
X24431Y-27733D01*
X24431Y-27497D01*
X24628Y-27733D02*
X24516Y-27733D01*
X24572Y-27733D02*
X24572Y-27497D01*
X24553Y-27530D01*
X24535Y-27553D01*
X24516Y-27564D01*
G54D31*
X45028Y-30075D02*
X45028Y-30187D01*
X45033Y-30200D01*
X45039Y-30206D01*
X45050Y-30213D01*
X45073Y-30213D01*
X45084Y-30206D01*
X45089Y-30200D01*
X45095Y-30187D01*
X45095Y-30075D01*
X45208Y-30075D02*
X45151Y-30075D01*
X45146Y-30141D01*
X45151Y-30134D01*
X45163Y-30127D01*
X45191Y-30127D01*
X45202Y-30134D01*
X45208Y-30141D01*
X45213Y-30154D01*
X45213Y-30187D01*
X45208Y-30200D01*
X45202Y-30206D01*
X45191Y-30213D01*
X45163Y-30213D01*
X45151Y-30206D01*
X45146Y-30200D01*
G54D29*
X43395Y-30789D02*
X43309Y-30789D01*
X43309Y-30589D01*
X43446Y-30608D02*
X43455Y-30599D01*
X43472Y-30589D01*
X43515Y-30589D01*
X43532Y-30599D01*
X43540Y-30608D01*
X43549Y-30627D01*
X43549Y-30646D01*
X43540Y-30675D01*
X43438Y-30789D01*
X43549Y-30789D01*
G54D28*
X45164Y-29667D02*
X45154Y-29676D01*
X45126Y-29686D01*
X45107Y-29686D01*
X45079Y-29676D01*
X45060Y-29657D01*
X45051Y-29639D01*
X45042Y-29601D01*
X45042Y-29573D01*
X45051Y-29535D01*
X45060Y-29517D01*
X45079Y-29498D01*
X45107Y-29489D01*
X45126Y-29489D01*
X45154Y-29498D01*
X45164Y-29507D01*
X45257Y-29686D02*
X45295Y-29686D01*
X45314Y-29676D01*
X45323Y-29667D01*
X45342Y-29639D01*
X45351Y-29601D01*
X45351Y-29526D01*
X45342Y-29507D01*
X45332Y-29498D01*
X45314Y-29489D01*
X45276Y-29489D01*
X45257Y-29498D01*
X45248Y-29507D01*
X45239Y-29526D01*
X45239Y-29573D01*
X45248Y-29592D01*
X45257Y-29601D01*
X45276Y-29610D01*
X45314Y-29610D01*
X45332Y-29601D01*
X45342Y-29592D01*
X45351Y-29573D01*
G54D29*
X45632Y-31597D02*
X45623Y-31606D01*
X45598Y-31616D01*
X45580Y-31616D01*
X45555Y-31606D01*
X45538Y-31587D01*
X45529Y-31568D01*
X45520Y-31530D01*
X45520Y-31502D01*
X45529Y-31464D01*
X45538Y-31444D01*
X45555Y-31425D01*
X45580Y-31416D01*
X45598Y-31416D01*
X45623Y-31425D01*
X45632Y-31435D01*
X45803Y-31616D02*
X45700Y-31616D01*
X45752Y-31616D02*
X45752Y-31416D01*
X45735Y-31444D01*
X45718Y-31464D01*
X45700Y-31473D01*
X45966Y-31416D02*
X45880Y-31416D01*
X45872Y-31511D01*
X45880Y-31502D01*
X45898Y-31492D01*
X45940Y-31492D01*
X45958Y-31502D01*
X45966Y-31511D01*
X45975Y-31530D01*
X45975Y-31578D01*
X45966Y-31597D01*
X45958Y-31606D01*
X45940Y-31616D01*
X45898Y-31616D01*
X45880Y-31606D01*
X45872Y-31597D01*
G54D22*
X27999Y-27695D02*
X27999Y-27938D01*
X28014Y-27966D01*
X28028Y-27981D01*
X28056Y-27995D01*
X28114Y-27995D01*
X28142Y-27981D01*
X28156Y-27966D01*
X28171Y-27938D01*
X28171Y-27695D01*
X28471Y-27995D02*
X28299Y-27995D01*
X28385Y-27995D02*
X28385Y-27695D01*
X28356Y-27738D01*
X28328Y-27766D01*
X28299Y-27781D01*
G54D32*
X30153Y-38670D02*
X30153Y-38925D01*
X30168Y-38955D01*
X30183Y-38970D01*
X30213Y-38985D01*
X30273Y-38985D01*
X30303Y-38970D01*
X30318Y-38955D01*
X30333Y-38925D01*
X30333Y-38670D01*
X30618Y-38775D02*
X30618Y-38985D01*
X30543Y-38655D02*
X30468Y-38880D01*
X30663Y-38880D01*
G54D10*
X25095Y-30111D02*
X25095Y-30334D01*
X25106Y-30360D01*
X25118Y-30374D01*
X25140Y-30387D01*
X25185Y-30387D01*
X25208Y-30374D01*
X25219Y-30360D01*
X25230Y-30334D01*
X25230Y-30111D01*
X25320Y-30111D02*
X25466Y-30111D01*
X25388Y-30216D01*
X25421Y-30216D01*
X25444Y-30229D01*
X25455Y-30242D01*
X25466Y-30269D01*
X25466Y-30334D01*
X25455Y-30360D01*
X25444Y-30374D01*
X25421Y-30387D01*
X25354Y-30387D01*
X25331Y-30374D01*
X25320Y-30360D01*
G54D29*
X27640Y-30219D02*
X27631Y-30228D01*
X27605Y-30238D01*
X27588Y-30238D01*
X27563Y-30228D01*
X27545Y-30209D01*
X27537Y-30190D01*
X27528Y-30152D01*
X27528Y-30124D01*
X27537Y-30086D01*
X27545Y-30067D01*
X27563Y-30047D01*
X27588Y-30038D01*
X27605Y-30038D01*
X27631Y-30047D01*
X27640Y-30057D01*
X27811Y-30238D02*
X27708Y-30238D01*
X27760Y-30238D02*
X27760Y-30038D01*
X27743Y-30067D01*
X27725Y-30086D01*
X27708Y-30095D01*
X27923Y-30038D02*
X27940Y-30038D01*
X27957Y-30047D01*
X27965Y-30057D01*
X27974Y-30076D01*
X27983Y-30114D01*
X27983Y-30162D01*
X27974Y-30200D01*
X27965Y-30219D01*
X27957Y-30228D01*
X27940Y-30238D01*
X27923Y-30238D01*
X27905Y-30228D01*
X27897Y-30219D01*
X27888Y-30200D01*
X27880Y-30162D01*
X27880Y-30114D01*
X27888Y-30076D01*
X27897Y-30057D01*
X27905Y-30047D01*
X27923Y-30038D01*
M02*
