M48
;DRILL file {Pcbnew (2013-07-07 BZR 4022)-stable} date Fri 19 Jul 2013 08:50:12 PM NZST
;FORMAT={-:-/ absolute / metric / decimal}
FMAT,2
METRIC,TZ
T1C0.400
T2C0.635
T3C0.800
T4C0.813
T5C0.899
T6C0.900
T7C1.016
T8C1.500
T9C1.524
T10C3.302
%
G90
G05
M71
T1
X55.Y-86.1
X55.4Y-89.2
X59.3Y-77.3
X59.6Y-86.3
X60.2Y-84.6
X60.4Y-72.
X61.2Y-84.6
X61.3Y-86.3
X62.2Y-84.8
X62.2Y-94.3
X62.2Y-95.4
X63.Y-84.1
X63.1Y-72.
X63.3Y-95.5
X63.4Y-86.2
X63.7Y-94.1
X64.2Y-84.9
X64.5Y-116.
X64.9Y-94.1
X65.2Y-76.8
X65.3Y-88.
X68.9Y-88.
X68.9Y-92.7
X72.Y-81.2
X72.8Y-111.5
X73.8Y-81.5
X73.9Y-120.4
X74.5Y-86.7
X75.7Y-115.9
X75.7Y-119.7
X76.3Y-81.3
X76.4Y-88.
X76.6Y-65.4
X77.6Y-69.2
X77.724Y-94.488
X77.724Y-108.966
X78.Y-82.3
X78.7Y-76.9
X78.8Y-75.8
X78.8Y-112.4
X79.6Y-69.1
X79.7Y-77.2
X80.7Y-120.7
X80.9Y-124.9
X81.4Y-110.7
X81.534Y-95.758
X82.1Y-71.1
X82.1Y-87.1
X82.3Y-115.9
X82.55Y-99.822
X82.55Y-104.14
X82.6Y-109.6
X84.8Y-110.5
X87.1Y-62.4
X87.5Y-102.5
X90.17Y-108.712
X90.17Y-110.236
X90.17Y-119.888
X90.932Y-115.824
X91.186Y-109.474
X91.44Y-104.902
X91.694Y-118.11
X92.71Y-104.902
X92.71Y-109.728
X94.488Y-94.996
X94.488Y-109.982
X95.8Y-55.8
X96.2Y-60.9
X96.52Y-80.264
X98.Y-56.
X98.044Y-96.52
X98.044Y-103.124
X98.044Y-123.444
X99.06Y-94.234
X99.06Y-95.758
X99.06Y-105.41
X99.06Y-121.158
X100.076Y-104.14
X100.076Y-123.952
X101.346Y-99.822
X101.5Y-90.2
X103.886Y-127.762
X105.Y-97.7
X105.1Y-87.3
X110.5Y-76.4
X110.5Y-78.9
X110.9Y-80.6
X111.6Y-74.3
X112.05Y-80.65
X112.9Y-81.6
X114.425Y-75.125
X114.45Y-77.25
X114.45Y-78.65
X114.9Y-74.1
X114.9Y-81.6
X115.9Y-79.625
X116.1Y-80.7
X116.5Y-75.1
X116.7Y-78.8
T2
X51.7Y-86.4
X51.8Y-72.5
X52.1Y-100.3
X52.1Y-113.5
X52.2Y-121.3
X56.3Y-93.8
X57.6Y-121.9
X57.7Y-71.1
X57.7Y-76.8
X66.5Y-90.2
X67.4Y-99.2
X70.1Y-127.5
X72.1Y-129.
X75.4Y-89.7
X75.5Y-85.
X79.2Y-61.4
X80.9Y-69.
X83.3Y-84.7
X83.3Y-89.
X83.312Y-115.062
X83.312Y-117.856
X84.2Y-57.8
X84.4Y-60.4
X87.63Y-113.792
X88.7Y-64.8
X88.8Y-75.2
X89.154Y-80.264
X89.154Y-89.154
X89.154Y-106.68
X89.2Y-129.
X90.932Y-81.788
X90.932Y-99.568
X91.5Y-58.5
X92.2Y-75.3
X92.7Y-57.6
X92.71Y-116.84
X92.786Y-60.286
X92.8Y-68.2
X95.1Y-77.2
X95.25Y-93.472
X95.5Y-75.6
X95.504Y-100.076
X98.3Y-79.2
X103.886Y-89.154
X103.886Y-116.84
X106.2Y-81.7
X107.8Y-125.6
X108.2Y-66.8
X109.4Y-128.9
X113.9Y-83.4
X116.1Y-90.8
X116.2Y-103.6
X116.3Y-121.1
T3
X60.95Y-79.7
X60.95Y-81.3
X62.55Y-79.7
X62.55Y-81.3
X87.5Y-54.
X89.5Y-54.
X91.5Y-54.
T4
X101.346Y-69.596
X101.346Y-77.216
X103.886Y-69.596
X103.886Y-77.216
T5
X75.27Y-55.372
X79.67Y-55.372
T6
X60.198Y-124.988
X60.198Y-127.488
T7
X53.75Y-90.23
X53.75Y-92.77
X59.944Y-90.17
X59.944Y-92.71
X59.944Y-95.25
X59.944Y-97.79
X59.944Y-100.33
X59.944Y-102.87
X59.944Y-107.95
X59.944Y-110.49
X59.944Y-113.03
X59.944Y-115.57
X59.944Y-118.11
X59.944Y-120.65
X70.117Y-73.452
X82.55Y-119.888
X82.55Y-122.428
X85.09Y-119.888
X85.09Y-122.428
X85.103Y-73.452
X87.63Y-119.888
X87.63Y-122.428
X96.52Y-66.04
X96.52Y-68.58
X96.52Y-71.12
X98.23Y-127.75
X100.77Y-127.75
X108.204Y-81.026
X108.204Y-83.566
X108.204Y-86.106
X108.204Y-88.646
X108.204Y-91.186
X108.204Y-93.726
X108.204Y-96.266
X108.204Y-98.806
X108.204Y-102.87
X108.204Y-105.41
X108.204Y-107.95
X108.204Y-110.49
X108.204Y-113.03
X108.204Y-115.57
X108.204Y-118.11
X108.204Y-120.65
T8
X85.4Y-54.
X93.6Y-54.
T9
X61.214Y-59.69
X61.214Y-64.77
X63.754Y-62.23
X66.294Y-59.69
X66.294Y-64.77
T10
X54.305Y-67.31
X54.305Y-126.314
X70.117Y-100.63
X85.103Y-100.63
X114.3Y-67.31
X114.3Y-126.314
T7
X99.17Y-58.794G85X99.17Y-60.778
G05
X105.242Y-57.5G85X103.258Y-57.5
G05
X105.492Y-63.596G85X103.008Y-63.596
G05
T0
M30
