G04 (created by PCBNEW (2013-07-07 BZR 4022)-stable) date Sun 28 Jul 2013 12:35:28 PM NZST*
%MOIN*%
G04 Gerber Fmt 3.4, Leading zero omitted, Abs format*
%FSLAX34Y34*%
G01*
G70*
G90*
G04 APERTURE LIST*
%ADD10C,0.00590551*%
%ADD11C,0.0354*%
%ADD12C,0.252*%
%ADD13R,0.06X0.06*%
%ADD14C,0.06*%
%ADD15C,0.1*%
%ADD16R,0.0629921X0.0629921*%
%ADD17C,0.0629921*%
%ADD18O,0.189X0.0984252*%
%ADD19R,0.19685X0.0984252*%
%ADD20O,0.0984252X0.189*%
%ADD21C,0.0551181*%
%ADD22O,0.0787402X0.0984252*%
%ADD23C,0.08*%
%ADD24C,0.13*%
%ADD25R,0.0708661X0.0708661*%
G04 APERTURE END LIST*
G54D10*
G54D11*
X29634Y-21800D03*
X31366Y-21800D03*
G54D12*
X21380Y-26500D03*
X21380Y-49730D03*
X45000Y-26500D03*
X45000Y-49730D03*
G54D13*
X39900Y-30400D03*
G54D14*
X40900Y-30400D03*
X40900Y-27400D03*
X39900Y-27400D03*
G54D13*
X42600Y-47500D03*
G54D14*
X42600Y-46500D03*
X42600Y-45500D03*
X42600Y-44500D03*
X42600Y-43500D03*
X42600Y-42500D03*
X42600Y-41500D03*
X42600Y-40500D03*
G54D13*
X42600Y-38900D03*
G54D14*
X42600Y-37900D03*
X42600Y-36900D03*
X42600Y-35900D03*
X42600Y-34900D03*
X42600Y-33900D03*
X42600Y-32900D03*
X42600Y-31900D03*
G54D13*
X32500Y-48200D03*
G54D14*
X32500Y-47200D03*
X33500Y-48200D03*
X33500Y-47200D03*
X34500Y-48200D03*
X34500Y-47200D03*
G54D13*
X38000Y-26000D03*
G54D14*
X38000Y-27000D03*
X38000Y-28000D03*
G54D13*
X21161Y-36523D03*
G54D14*
X21161Y-35523D03*
G54D13*
X39673Y-50295D03*
G54D14*
X38673Y-50295D03*
G54D13*
X23600Y-42500D03*
G54D14*
X23600Y-43500D03*
X23600Y-44500D03*
X23600Y-45500D03*
X23600Y-46500D03*
X23600Y-47500D03*
G54D13*
X23600Y-35500D03*
G54D14*
X23600Y-36500D03*
X23600Y-37500D03*
X23600Y-38500D03*
X23600Y-39500D03*
X23600Y-40500D03*
G54D15*
X25100Y-24500D03*
X26100Y-23500D03*
X24100Y-23500D03*
X24100Y-25500D03*
X26100Y-25500D03*
G54D16*
X23700Y-50192D03*
G54D17*
X23700Y-49207D03*
G54D18*
X41043Y-22637D03*
G54D19*
X41043Y-25037D03*
G54D20*
X39043Y-23537D03*
G54D21*
X35236Y-21259D03*
X36023Y-21259D03*
X34448Y-21259D03*
G54D22*
X33622Y-21259D03*
X36850Y-21259D03*
G54D23*
X33505Y-28918D03*
X27605Y-28918D03*
G54D24*
X33505Y-39618D03*
X27605Y-39618D03*
G54D25*
X24625Y-31377D03*
X24625Y-32007D03*
X23996Y-31377D03*
X23996Y-32007D03*
M02*
