G04 (created by PCBNEW (2013-07-07 BZR 4022)-stable) date Thu 15 Aug 2013 03:34:48 PM NZST*
%MOIN*%
G04 Gerber Fmt 3.4, Leading zero omitted, Abs format*
%FSLAX34Y34*%
G01*
G70*
G90*
G04 APERTURE LIST*
%ADD10C,0.00590551*%
%ADD11C,0.0354*%
%ADD12R,0.0787X0.0984*%
%ADD13R,0.0197X0.0906*%
%ADD14C,0.252*%
%ADD15R,0.0177X0.0787*%
%ADD16R,0.0787X0.0177*%
%ADD17R,0.06X0.06*%
%ADD18C,0.06*%
%ADD19R,0.144X0.08*%
%ADD20R,0.04X0.08*%
%ADD21R,0.035X0.055*%
%ADD22R,0.055X0.035*%
%ADD23R,0.045X0.025*%
%ADD24R,0.025X0.045*%
%ADD25R,0.0236X0.0157*%
%ADD26R,0.0314X0.0314*%
%ADD27R,0.063X0.1181*%
%ADD28R,0.0787402X0.0551181*%
%ADD29R,0.0472441X0.0551181*%
%ADD30R,0.065X0.12*%
%ADD31R,0.24X0.24*%
%ADD32C,0.1*%
%ADD33R,0.0629921X0.0629921*%
%ADD34C,0.0629921*%
%ADD35O,0.189X0.0984252*%
%ADD36R,0.19685X0.0984252*%
%ADD37O,0.0984252X0.189*%
%ADD38C,0.0551181*%
%ADD39O,0.0787402X0.0984252*%
%ADD40R,0.015748X0.011811*%
%ADD41R,0.0137795X0.0334646*%
%ADD42R,0.023874X0.057874*%
%ADD43R,0.0610236X0.023622*%
%ADD44R,0.0610236X0.0314961*%
%ADD45C,0.08*%
%ADD46C,0.13*%
%ADD47R,0.037874X0.017874*%
%ADD48R,0.017874X0.037874*%
%ADD49R,0.0708661X0.0708661*%
%ADD50R,0.0472441X0.145669*%
G04 APERTURE END LIST*
G54D10*
G54D11*
X29634Y-21800D03*
X31366Y-21800D03*
G54D12*
X28768Y-20619D03*
X32252Y-20619D03*
X28748Y-22784D03*
X32252Y-22784D03*
G54D13*
X30500Y-22784D03*
X30815Y-22784D03*
X31130Y-22784D03*
X30185Y-22784D03*
X29870Y-22784D03*
G54D14*
X21380Y-26500D03*
X21380Y-49730D03*
X45000Y-26500D03*
X45000Y-49730D03*
G54D15*
X37313Y-44218D03*
X36998Y-44218D03*
X36683Y-44218D03*
X36368Y-44218D03*
X36053Y-44218D03*
X35738Y-44218D03*
X35423Y-44218D03*
X35108Y-44218D03*
X35110Y-40452D03*
X37320Y-40452D03*
X37000Y-40452D03*
X36680Y-40452D03*
X36370Y-40452D03*
X36050Y-40452D03*
X35740Y-40452D03*
X35420Y-40452D03*
G54D16*
X34320Y-43434D03*
X34320Y-43120D03*
X34320Y-42804D03*
X34320Y-42490D03*
X34320Y-42174D03*
X34320Y-41860D03*
X34320Y-41544D03*
X34320Y-41230D03*
X38100Y-43432D03*
X38100Y-43122D03*
X38100Y-42802D03*
X38100Y-42492D03*
X38100Y-42182D03*
X38100Y-41862D03*
X38100Y-41542D03*
X38100Y-41222D03*
G54D17*
X39900Y-30400D03*
G54D18*
X40900Y-30400D03*
X40900Y-27400D03*
X39900Y-27400D03*
G54D19*
X35629Y-30532D03*
G54D20*
X35629Y-27932D03*
X34729Y-27932D03*
X36529Y-27932D03*
G54D21*
X27304Y-30826D03*
X26554Y-30826D03*
G54D22*
X33600Y-45225D03*
X33600Y-45975D03*
X33661Y-26654D03*
X33661Y-25904D03*
G54D23*
X34500Y-45400D03*
X34500Y-46000D03*
G54D24*
X22101Y-31614D03*
X22701Y-31614D03*
X25881Y-31535D03*
X26481Y-31535D03*
G54D23*
X25866Y-30969D03*
X25866Y-30369D03*
G54D24*
X25685Y-34660D03*
X26285Y-34660D03*
X26060Y-32380D03*
X26660Y-32380D03*
X25782Y-27460D03*
X26382Y-27460D03*
X22101Y-32795D03*
X22701Y-32795D03*
G54D23*
X29035Y-30900D03*
X29035Y-31500D03*
X31574Y-25339D03*
X31574Y-24739D03*
X30019Y-30900D03*
X30019Y-31500D03*
X28070Y-36205D03*
X28070Y-35605D03*
G54D24*
X31008Y-35196D03*
X30408Y-35196D03*
X36914Y-39409D03*
X36314Y-39409D03*
G54D23*
X31397Y-31500D03*
X31397Y-30900D03*
X25098Y-27366D03*
X25098Y-26766D03*
G54D24*
X22101Y-30866D03*
X22701Y-30866D03*
X22101Y-33582D03*
X22701Y-33582D03*
G54D23*
X32086Y-31500D03*
X32086Y-30900D03*
X33858Y-31500D03*
X33858Y-30900D03*
G54D24*
X30800Y-46600D03*
X31400Y-46600D03*
G54D23*
X32716Y-36205D03*
X32716Y-35605D03*
X37303Y-23134D03*
X37303Y-22534D03*
X37992Y-23134D03*
X37992Y-22534D03*
X38425Y-37386D03*
X38425Y-36786D03*
G54D24*
X35526Y-38385D03*
X36126Y-38385D03*
G54D23*
X30708Y-31500D03*
X30708Y-30900D03*
X28346Y-31500D03*
X28346Y-30900D03*
G54D24*
X40251Y-34448D03*
X40851Y-34448D03*
X36983Y-38503D03*
X37583Y-38503D03*
G54D25*
X24015Y-29802D03*
X24015Y-29448D03*
X24606Y-29802D03*
X24606Y-29448D03*
G54D17*
X42600Y-47500D03*
G54D18*
X42600Y-46500D03*
X42600Y-45500D03*
X42600Y-44500D03*
X42600Y-43500D03*
X42600Y-42500D03*
X42600Y-41500D03*
X42600Y-40500D03*
G54D17*
X42600Y-38900D03*
G54D18*
X42600Y-37900D03*
X42600Y-36900D03*
X42600Y-35900D03*
X42600Y-34900D03*
X42600Y-33900D03*
X42600Y-32900D03*
X42600Y-31900D03*
G54D17*
X32500Y-48200D03*
G54D18*
X32500Y-47200D03*
X33500Y-48200D03*
X33500Y-47200D03*
X34500Y-48200D03*
X34500Y-47200D03*
G54D17*
X38000Y-26000D03*
G54D18*
X38000Y-27000D03*
X38000Y-28000D03*
G54D17*
X21161Y-36523D03*
G54D18*
X21161Y-35523D03*
G54D17*
X39673Y-50295D03*
G54D18*
X38673Y-50295D03*
G54D17*
X23600Y-42500D03*
G54D18*
X23600Y-43500D03*
X23600Y-44500D03*
X23600Y-45500D03*
X23600Y-46500D03*
X23600Y-47500D03*
G54D17*
X23600Y-35500D03*
G54D18*
X23600Y-36500D03*
X23600Y-37500D03*
X23600Y-38500D03*
X23600Y-39500D03*
X23600Y-40500D03*
G54D26*
X37900Y-21595D03*
X37900Y-21005D03*
X40846Y-33818D03*
X40256Y-33818D03*
X32677Y-30925D03*
X32677Y-31515D03*
X38600Y-21595D03*
X38600Y-21005D03*
X33267Y-30925D03*
X33267Y-31515D03*
G54D27*
X35750Y-24634D03*
X35750Y-26366D03*
G54D28*
X29645Y-46574D03*
X29645Y-45000D03*
X26889Y-45000D03*
X26889Y-46574D03*
G54D24*
X25782Y-26673D03*
X26382Y-26673D03*
G54D29*
X25925Y-33096D03*
X25925Y-33963D03*
X26554Y-33096D03*
X26554Y-33963D03*
G54D30*
X39088Y-32578D03*
G54D31*
X38188Y-35078D03*
G54D30*
X37288Y-32578D03*
G54D32*
X25100Y-24500D03*
X26100Y-23500D03*
X24100Y-23500D03*
X24100Y-25500D03*
X26100Y-25500D03*
G54D33*
X23700Y-50192D03*
G54D34*
X23700Y-49207D03*
G54D35*
X41043Y-22637D03*
G54D36*
X41043Y-25037D03*
G54D37*
X39043Y-23537D03*
G54D38*
X35236Y-21259D03*
X36023Y-21259D03*
X34448Y-21259D03*
G54D39*
X33622Y-21259D03*
X36850Y-21259D03*
G54D40*
X24557Y-28602D03*
X24557Y-28346D03*
X24557Y-28090D03*
X24064Y-28602D03*
X24064Y-28346D03*
X24064Y-28090D03*
G54D41*
X44428Y-28982D03*
X44173Y-28982D03*
X43917Y-28982D03*
X43917Y-29849D03*
X44173Y-29849D03*
X44428Y-29849D03*
G54D21*
X43366Y-29908D03*
X42616Y-29908D03*
G54D23*
X44960Y-29293D03*
X44960Y-29893D03*
G54D42*
X28960Y-29254D03*
X29210Y-29254D03*
X29470Y-29254D03*
X29730Y-29254D03*
X29980Y-29254D03*
X30240Y-29254D03*
X30500Y-29254D03*
X30750Y-29254D03*
X31010Y-29254D03*
X31260Y-29254D03*
X31520Y-29254D03*
X31780Y-29254D03*
X32030Y-29254D03*
X32290Y-29254D03*
X32290Y-26454D03*
X32030Y-26454D03*
X31790Y-26454D03*
X31520Y-26454D03*
X31260Y-26454D03*
X31010Y-26454D03*
X30750Y-26454D03*
X30500Y-26454D03*
X30240Y-26454D03*
X29980Y-26454D03*
X29730Y-26454D03*
X29470Y-26454D03*
X29210Y-26454D03*
X28960Y-26454D03*
G54D43*
X29161Y-36978D03*
X29161Y-37234D03*
X29161Y-37490D03*
X29161Y-37746D03*
X31468Y-36214D03*
X29161Y-36210D03*
X29161Y-36466D03*
X29161Y-36722D03*
X31468Y-38001D03*
X31468Y-37746D03*
X31468Y-37490D03*
X31468Y-37234D03*
X31468Y-36978D03*
X31468Y-36722D03*
X29161Y-38001D03*
X31468Y-36466D03*
G54D44*
X29161Y-35915D03*
X29161Y-38297D03*
X31468Y-38297D03*
X31468Y-35915D03*
G54D45*
X33505Y-28918D03*
X27605Y-28918D03*
G54D46*
X33505Y-39618D03*
X27605Y-39618D03*
G54D47*
X25295Y-31200D03*
X25295Y-31397D03*
X25295Y-31594D03*
X25295Y-31003D03*
G54D48*
X25000Y-30708D03*
X24803Y-30708D03*
X24606Y-30708D03*
X24409Y-30708D03*
X24213Y-30708D03*
X24016Y-30708D03*
X23819Y-30708D03*
X23622Y-30708D03*
G54D47*
X23327Y-32381D03*
X23327Y-31003D03*
X23327Y-31200D03*
X23327Y-31397D03*
X23327Y-31594D03*
X23327Y-31790D03*
X23327Y-31987D03*
X23327Y-32184D03*
G54D48*
X23622Y-32676D03*
X23819Y-32676D03*
X24016Y-32676D03*
X24213Y-32676D03*
X24409Y-32676D03*
X24606Y-32676D03*
X24803Y-32676D03*
X25000Y-32676D03*
G54D47*
X25295Y-32381D03*
X25295Y-32184D03*
X25295Y-31987D03*
X25295Y-31790D03*
G54D49*
X24625Y-31377D03*
X24625Y-32007D03*
X23996Y-31377D03*
X23996Y-32007D03*
G54D23*
X26535Y-30221D03*
X26535Y-29621D03*
G54D50*
X45098Y-31112D03*
X43996Y-31112D03*
M02*
