G04 (created by PCBNEW (2013-07-07 BZR 4022)-stable) date Sat 17 Aug 2013 04:56:42 PM NZST*
%MOIN*%
G04 Gerber Fmt 3.4, Leading zero omitted, Abs format*
%FSLAX34Y34*%
G01*
G70*
G90*
G04 APERTURE LIST*
%ADD10C,0.00590551*%
%ADD11C,0.011811*%
%ADD12C,0.00984252*%
%ADD13C,0.03*%
G04 APERTURE END LIST*
G54D10*
G54D11*
X39988Y-20643D02*
X39538Y-20643D01*
X42154Y-20643D02*
X41704Y-20643D01*
X41929Y-20868D02*
X41929Y-20419D01*
X39448Y-21721D02*
X39763Y-21721D01*
X39561Y-21210D01*
X39943Y-21405D02*
X40303Y-21405D01*
X40776Y-21210D02*
X40506Y-21210D01*
X40641Y-21210D02*
X40641Y-21721D01*
X40596Y-21648D01*
X40551Y-21600D01*
X40506Y-21575D01*
X40956Y-21673D02*
X40978Y-21697D01*
X41023Y-21721D01*
X41136Y-21721D01*
X41181Y-21697D01*
X41203Y-21673D01*
X41226Y-21624D01*
X41226Y-21575D01*
X41203Y-21502D01*
X40933Y-21210D01*
X41226Y-21210D01*
X41361Y-21721D02*
X41518Y-21210D01*
X41676Y-21721D01*
X41833Y-21210D02*
X41833Y-21721D01*
X41946Y-21721D01*
X42013Y-21697D01*
X42058Y-21648D01*
X42080Y-21600D01*
X42103Y-21502D01*
X42103Y-21429D01*
X42080Y-21332D01*
X42058Y-21283D01*
X42013Y-21234D01*
X41946Y-21210D01*
X41833Y-21210D01*
X42575Y-21258D02*
X42553Y-21234D01*
X42485Y-21210D01*
X42440Y-21210D01*
X42373Y-21234D01*
X42328Y-21283D01*
X42305Y-21332D01*
X42283Y-21429D01*
X42283Y-21502D01*
X42305Y-21600D01*
X42328Y-21648D01*
X42373Y-21697D01*
X42440Y-21721D01*
X42485Y-21721D01*
X42553Y-21697D01*
X42575Y-21673D01*
G54D12*
X44910Y-47688D02*
X45422Y-47688D01*
X45105Y-47643D02*
X44910Y-47508D01*
X45252Y-47508D02*
X45057Y-47688D01*
X44910Y-47305D02*
X45252Y-47305D01*
X45422Y-47305D02*
X45398Y-47328D01*
X45374Y-47305D01*
X45398Y-47283D01*
X45422Y-47305D01*
X45374Y-47305D01*
X44935Y-46878D02*
X44910Y-46923D01*
X44910Y-47013D01*
X44935Y-47058D01*
X44959Y-47080D01*
X45008Y-47103D01*
X45154Y-47103D01*
X45203Y-47080D01*
X45227Y-47058D01*
X45252Y-47013D01*
X45252Y-46923D01*
X45227Y-46878D01*
X44910Y-46473D02*
X45179Y-46473D01*
X45227Y-46496D01*
X45252Y-46541D01*
X45252Y-46631D01*
X45227Y-46676D01*
X44935Y-46473D02*
X44910Y-46518D01*
X44910Y-46631D01*
X44935Y-46676D01*
X44984Y-46698D01*
X45032Y-46698D01*
X45081Y-46676D01*
X45105Y-46631D01*
X45105Y-46518D01*
X45130Y-46473D01*
X44910Y-46046D02*
X45422Y-46046D01*
X44935Y-46046D02*
X44910Y-46091D01*
X44910Y-46181D01*
X44935Y-46226D01*
X44959Y-46248D01*
X45008Y-46271D01*
X45154Y-46271D01*
X45203Y-46248D01*
X45227Y-46226D01*
X45252Y-46181D01*
X45252Y-46091D01*
X45227Y-46046D01*
X45105Y-45821D02*
X45105Y-45461D01*
X45252Y-45303D02*
X45252Y-45123D01*
X44910Y-45236D02*
X45349Y-45236D01*
X45398Y-45213D01*
X45422Y-45168D01*
X45422Y-45123D01*
X44910Y-44966D02*
X45252Y-44966D01*
X45154Y-44966D02*
X45203Y-44943D01*
X45227Y-44921D01*
X45252Y-44876D01*
X45252Y-44831D01*
X44935Y-44493D02*
X44910Y-44538D01*
X44910Y-44628D01*
X44935Y-44673D01*
X44984Y-44696D01*
X45179Y-44696D01*
X45227Y-44673D01*
X45252Y-44628D01*
X45252Y-44538D01*
X45227Y-44493D01*
X45179Y-44471D01*
X45130Y-44471D01*
X45081Y-44696D01*
X44910Y-44066D02*
X45179Y-44066D01*
X45227Y-44088D01*
X45252Y-44133D01*
X45252Y-44223D01*
X45227Y-44268D01*
X44935Y-44066D02*
X44910Y-44111D01*
X44910Y-44223D01*
X44935Y-44268D01*
X44984Y-44291D01*
X45032Y-44291D01*
X45081Y-44268D01*
X45105Y-44223D01*
X45105Y-44111D01*
X45130Y-44066D01*
X44910Y-43841D02*
X45422Y-43841D01*
X45105Y-43796D02*
X44910Y-43661D01*
X45252Y-43661D02*
X45057Y-43841D01*
X44910Y-43256D02*
X45422Y-43256D01*
X44935Y-43256D02*
X44910Y-43301D01*
X44910Y-43391D01*
X44935Y-43436D01*
X44959Y-43458D01*
X45008Y-43481D01*
X45154Y-43481D01*
X45203Y-43458D01*
X45227Y-43436D01*
X45252Y-43391D01*
X45252Y-43301D01*
X45227Y-43256D01*
X45252Y-42829D02*
X44910Y-42829D01*
X45252Y-43031D02*
X44984Y-43031D01*
X44935Y-43008D01*
X44910Y-42964D01*
X44910Y-42896D01*
X44935Y-42851D01*
X44959Y-42829D01*
X44910Y-42604D02*
X45252Y-42604D01*
X45422Y-42604D02*
X45398Y-42626D01*
X45374Y-42604D01*
X45398Y-42581D01*
X45422Y-42604D01*
X45374Y-42604D01*
X45252Y-42379D02*
X44910Y-42379D01*
X45203Y-42379D02*
X45227Y-42356D01*
X45252Y-42311D01*
X45252Y-42244D01*
X45227Y-42199D01*
X45179Y-42176D01*
X44910Y-42176D01*
X44910Y-41884D02*
X44935Y-41929D01*
X44959Y-41951D01*
X45008Y-41974D01*
X45154Y-41974D01*
X45203Y-41951D01*
X45227Y-41929D01*
X45252Y-41884D01*
X45252Y-41816D01*
X45227Y-41771D01*
X45203Y-41749D01*
X45154Y-41726D01*
X45008Y-41726D01*
X44959Y-41749D01*
X44935Y-41771D01*
X44910Y-41816D01*
X44910Y-41884D01*
X44959Y-41524D02*
X44935Y-41501D01*
X44910Y-41524D01*
X44935Y-41546D01*
X44959Y-41524D01*
X44910Y-41524D01*
X45252Y-41096D02*
X44837Y-41096D01*
X44789Y-41119D01*
X44764Y-41141D01*
X44740Y-41186D01*
X44740Y-41254D01*
X44764Y-41299D01*
X44935Y-41096D02*
X44910Y-41141D01*
X44910Y-41231D01*
X44935Y-41276D01*
X44959Y-41299D01*
X45008Y-41321D01*
X45154Y-41321D01*
X45203Y-41299D01*
X45227Y-41276D01*
X45252Y-41231D01*
X45252Y-41141D01*
X45227Y-41096D01*
X44910Y-40804D02*
X44935Y-40849D01*
X44959Y-40871D01*
X45008Y-40894D01*
X45154Y-40894D01*
X45203Y-40871D01*
X45227Y-40849D01*
X45252Y-40804D01*
X45252Y-40736D01*
X45227Y-40691D01*
X45203Y-40669D01*
X45154Y-40646D01*
X45008Y-40646D01*
X44959Y-40669D01*
X44935Y-40691D01*
X44910Y-40736D01*
X44910Y-40804D01*
X44910Y-40376D02*
X44935Y-40421D01*
X44959Y-40444D01*
X45008Y-40466D01*
X45154Y-40466D01*
X45203Y-40444D01*
X45227Y-40421D01*
X45252Y-40376D01*
X45252Y-40309D01*
X45227Y-40264D01*
X45203Y-40241D01*
X45154Y-40219D01*
X45008Y-40219D01*
X44959Y-40241D01*
X44935Y-40264D01*
X44910Y-40309D01*
X44910Y-40376D01*
X45252Y-39814D02*
X44837Y-39814D01*
X44789Y-39836D01*
X44764Y-39859D01*
X44740Y-39904D01*
X44740Y-39971D01*
X44764Y-40016D01*
X44935Y-39814D02*
X44910Y-39859D01*
X44910Y-39949D01*
X44935Y-39994D01*
X44959Y-40016D01*
X45008Y-40039D01*
X45154Y-40039D01*
X45203Y-40016D01*
X45227Y-39994D01*
X45252Y-39949D01*
X45252Y-39859D01*
X45227Y-39814D01*
X44910Y-39521D02*
X44935Y-39566D01*
X44984Y-39589D01*
X45422Y-39589D01*
X44935Y-39161D02*
X44910Y-39206D01*
X44910Y-39296D01*
X44935Y-39341D01*
X44984Y-39364D01*
X45179Y-39364D01*
X45227Y-39341D01*
X45252Y-39296D01*
X45252Y-39206D01*
X45227Y-39161D01*
X45179Y-39139D01*
X45130Y-39139D01*
X45081Y-39364D01*
X44935Y-38734D02*
X44910Y-38779D01*
X44910Y-38869D01*
X44935Y-38914D01*
X44959Y-38937D01*
X45008Y-38959D01*
X45154Y-38959D01*
X45203Y-38937D01*
X45227Y-38914D01*
X45252Y-38869D01*
X45252Y-38779D01*
X45227Y-38734D01*
X44910Y-38464D02*
X44935Y-38509D01*
X44959Y-38532D01*
X45008Y-38554D01*
X45154Y-38554D01*
X45203Y-38532D01*
X45227Y-38509D01*
X45252Y-38464D01*
X45252Y-38397D01*
X45227Y-38352D01*
X45203Y-38329D01*
X45154Y-38307D01*
X45008Y-38307D01*
X44959Y-38329D01*
X44935Y-38352D01*
X44910Y-38397D01*
X44910Y-38464D01*
X44910Y-37902D02*
X45422Y-37902D01*
X44935Y-37902D02*
X44910Y-37947D01*
X44910Y-38037D01*
X44935Y-38082D01*
X44959Y-38104D01*
X45008Y-38127D01*
X45154Y-38127D01*
X45203Y-38104D01*
X45227Y-38082D01*
X45252Y-38037D01*
X45252Y-37947D01*
X45227Y-37902D01*
X44935Y-37497D02*
X44910Y-37542D01*
X44910Y-37632D01*
X44935Y-37677D01*
X44984Y-37699D01*
X45179Y-37699D01*
X45227Y-37677D01*
X45252Y-37632D01*
X45252Y-37542D01*
X45227Y-37497D01*
X45179Y-37474D01*
X45130Y-37474D01*
X45081Y-37699D01*
X44959Y-37272D02*
X44935Y-37249D01*
X44910Y-37272D01*
X44935Y-37294D01*
X44959Y-37272D01*
X44910Y-37272D01*
X44935Y-36844D02*
X44910Y-36889D01*
X44910Y-36979D01*
X44935Y-37024D01*
X44959Y-37047D01*
X45008Y-37069D01*
X45154Y-37069D01*
X45203Y-37047D01*
X45227Y-37024D01*
X45252Y-36979D01*
X45252Y-36889D01*
X45227Y-36844D01*
X44910Y-36574D02*
X44935Y-36619D01*
X44959Y-36642D01*
X45008Y-36664D01*
X45154Y-36664D01*
X45203Y-36642D01*
X45227Y-36619D01*
X45252Y-36574D01*
X45252Y-36507D01*
X45227Y-36462D01*
X45203Y-36439D01*
X45154Y-36417D01*
X45008Y-36417D01*
X44959Y-36439D01*
X44935Y-36462D01*
X44910Y-36507D01*
X44910Y-36574D01*
X44910Y-36214D02*
X45252Y-36214D01*
X45203Y-36214D02*
X45227Y-36192D01*
X45252Y-36147D01*
X45252Y-36079D01*
X45227Y-36034D01*
X45179Y-36012D01*
X44910Y-36012D01*
X45179Y-36012D02*
X45227Y-35989D01*
X45252Y-35944D01*
X45252Y-35877D01*
X45227Y-35832D01*
X45179Y-35809D01*
X44910Y-35809D01*
X44715Y-35089D02*
X44740Y-35112D01*
X44813Y-35157D01*
X44862Y-35179D01*
X44935Y-35202D01*
X45057Y-35224D01*
X45154Y-35224D01*
X45276Y-35202D01*
X45349Y-35179D01*
X45398Y-35157D01*
X45471Y-35112D01*
X45495Y-35089D01*
X44910Y-34910D02*
X45252Y-34910D01*
X45154Y-34910D02*
X45203Y-34887D01*
X45227Y-34865D01*
X45252Y-34820D01*
X45252Y-34775D01*
X44910Y-34370D02*
X44910Y-34640D01*
X44910Y-34505D02*
X45422Y-34505D01*
X45349Y-34550D01*
X45300Y-34595D01*
X45276Y-34640D01*
X45422Y-34212D02*
X45422Y-33897D01*
X44910Y-34100D01*
X45422Y-33762D02*
X45422Y-33447D01*
X44910Y-33650D01*
X44715Y-33312D02*
X44740Y-33290D01*
X44813Y-33245D01*
X44862Y-33222D01*
X44935Y-33200D01*
X45057Y-33177D01*
X45154Y-33177D01*
X45276Y-33200D01*
X45349Y-33222D01*
X45398Y-33245D01*
X45471Y-33290D01*
X45495Y-33312D01*
G54D10*
X28155Y-36818D02*
X28155Y-36418D01*
X28155Y-36418D02*
X27155Y-36418D01*
X27155Y-36418D02*
X27155Y-36818D01*
X28555Y-42418D02*
X28555Y-36818D01*
X28555Y-36818D02*
X26755Y-36818D01*
X26755Y-36818D02*
X26755Y-42418D01*
X26755Y-42418D02*
X28555Y-42418D01*
X33955Y-42418D02*
X33955Y-42818D01*
X33955Y-42818D02*
X32955Y-42818D01*
X32955Y-42818D02*
X32955Y-42418D01*
X34355Y-36818D02*
X34355Y-42418D01*
X34355Y-42418D02*
X32555Y-42418D01*
X32555Y-42418D02*
X32555Y-36818D01*
X32555Y-36818D02*
X34355Y-36818D01*
X36955Y-27918D02*
X24155Y-27918D01*
X24155Y-27918D02*
X24155Y-51318D01*
X24155Y-51318D02*
X36955Y-51318D01*
X36955Y-51318D02*
X36955Y-27918D01*
X40590Y-20629D02*
X40255Y-20629D01*
X41043Y-20629D02*
X41437Y-20629D01*
X41043Y-20629D02*
G75*
G03X41043Y-20629I-98J0D01*
G74*
G01*
X41134Y-20929D02*
G75*
G02X41141Y-20334I-189J299D01*
G74*
G01*
X30898Y-39253D02*
X30916Y-39310D01*
X30935Y-39328D01*
X30973Y-39347D01*
X31029Y-39347D01*
X31066Y-39328D01*
X31085Y-39310D01*
X31104Y-39272D01*
X31104Y-39122D01*
X30710Y-39122D01*
X30710Y-39253D01*
X30729Y-39291D01*
X30748Y-39310D01*
X30785Y-39328D01*
X30823Y-39328D01*
X30860Y-39310D01*
X30879Y-39291D01*
X30898Y-39253D01*
X30898Y-39122D01*
X30991Y-39497D02*
X30991Y-39685D01*
X31104Y-39460D02*
X30710Y-39591D01*
X31104Y-39722D01*
X30710Y-39797D02*
X30710Y-40022D01*
X31104Y-39910D02*
X30710Y-39910D01*
X30710Y-40097D02*
X30710Y-40322D01*
X31104Y-40209D02*
X30710Y-40209D01*
X30748Y-40434D02*
X30729Y-40453D01*
X30710Y-40491D01*
X30710Y-40584D01*
X30729Y-40622D01*
X30748Y-40641D01*
X30785Y-40659D01*
X30823Y-40659D01*
X30879Y-40641D01*
X31104Y-40416D01*
X31104Y-40659D01*
X31803Y-38434D02*
X31822Y-38490D01*
X31841Y-38509D01*
X31878Y-38528D01*
X31934Y-38528D01*
X31972Y-38509D01*
X31991Y-38490D01*
X32009Y-38453D01*
X32009Y-38303D01*
X31616Y-38303D01*
X31616Y-38434D01*
X31634Y-38472D01*
X31653Y-38490D01*
X31691Y-38509D01*
X31728Y-38509D01*
X31766Y-38490D01*
X31784Y-38472D01*
X31803Y-38434D01*
X31803Y-38303D01*
X32009Y-38697D02*
X31616Y-38697D01*
X31803Y-38697D02*
X31803Y-38922D01*
X32009Y-38922D02*
X31616Y-38922D01*
X31616Y-39071D02*
X31616Y-39315D01*
X31766Y-39184D01*
X31766Y-39240D01*
X31784Y-39278D01*
X31803Y-39296D01*
X31841Y-39315D01*
X31934Y-39315D01*
X31972Y-39296D01*
X31991Y-39278D01*
X32009Y-39240D01*
X32009Y-39128D01*
X31991Y-39090D01*
X31972Y-39071D01*
X31653Y-39465D02*
X31634Y-39484D01*
X31616Y-39521D01*
X31616Y-39615D01*
X31634Y-39653D01*
X31653Y-39671D01*
X31691Y-39690D01*
X31728Y-39690D01*
X31784Y-39671D01*
X32009Y-39446D01*
X32009Y-39690D01*
X32009Y-40065D02*
X32009Y-39840D01*
X32009Y-39953D02*
X31616Y-39953D01*
X31672Y-39915D01*
X31709Y-39878D01*
X31728Y-39840D01*
X31859Y-40234D02*
X31859Y-40534D01*
X32009Y-40928D02*
X32009Y-40703D01*
X32009Y-40815D02*
X31616Y-40815D01*
X31672Y-40778D01*
X31709Y-40740D01*
X31728Y-40703D01*
X32009Y-41096D02*
X31616Y-41096D01*
X31616Y-41246D01*
X31634Y-41284D01*
X31653Y-41302D01*
X31691Y-41321D01*
X31747Y-41321D01*
X31784Y-41302D01*
X31803Y-41284D01*
X31822Y-41246D01*
X31822Y-41096D01*
G54D13*
X33402Y-34256D02*
X33402Y-35780D01*
X27802Y-43456D02*
X27802Y-44980D01*
X27802Y-34256D02*
X27802Y-35780D01*
X28564Y-35018D02*
X27040Y-35018D01*
X33402Y-43456D02*
X33402Y-44980D01*
X34164Y-44218D02*
X32640Y-44218D01*
M02*
