G04 (created by PCBNEW (2013-07-07 BZR 4022)-stable) date Fri 19 Jul 2013 08:55:56 PM NZST*
%MOIN*%
G04 Gerber Fmt 3.4, Leading zero omitted, Abs format*
%FSLAX34Y34*%
G01*
G70*
G90*
G04 APERTURE LIST*
%ADD10C,0.00590551*%
%ADD11C,0.015*%
%ADD12C,0.006*%
%ADD13C,0.008*%
%ADD14C,0.0039*%
%ADD15C,0.0047*%
%ADD16C,0.005*%
%ADD17C,0.0028*%
%ADD18C,0.012*%
%ADD19C,0.0026*%
%ADD20C,0.004*%
%ADD21C,0.00787402*%
%ADD22C,2.75591e-07*%
%ADD23C,0.0043*%
%ADD24C,0.0045*%
%ADD25C,0.00393701*%
%ADD26C,0.01*%
%ADD27C,0.00295276*%
%ADD28C,0.0059*%
G04 APERTURE END LIST*
G54D10*
G54D11*
X29102Y-23355D02*
X31898Y-23355D01*
X31898Y-23355D02*
X31898Y-19733D01*
X31898Y-19733D02*
X29102Y-19733D01*
X29102Y-19733D02*
X29102Y-23355D01*
G54D12*
X37310Y-40342D02*
X37310Y-40792D01*
X35130Y-40342D02*
X35130Y-40782D01*
X37310Y-40342D02*
X35130Y-40342D01*
X37780Y-41222D02*
X38210Y-41222D01*
X37790Y-43432D02*
X38210Y-43432D01*
X38210Y-43442D02*
X38220Y-41222D01*
X34240Y-43422D02*
X34230Y-41252D01*
X34930Y-43852D02*
X37760Y-43852D01*
X34240Y-41242D02*
X34650Y-41242D01*
X34690Y-43602D02*
X34690Y-40822D01*
X37770Y-40802D02*
X34730Y-40802D01*
X37770Y-43852D02*
X37770Y-40852D01*
X35100Y-44302D02*
X37320Y-44302D01*
X37320Y-44302D02*
X37320Y-43852D01*
X34920Y-43848D02*
X34690Y-43618D01*
X35100Y-44300D02*
X35100Y-43848D01*
X34690Y-43422D02*
X34238Y-43422D01*
X35283Y-43440D02*
G75*
G03X35283Y-43440I-188J0D01*
G74*
G01*
G54D11*
X41400Y-28400D02*
X41400Y-29400D01*
X41400Y-29400D02*
X39400Y-29400D01*
X39400Y-29400D02*
X39400Y-28400D01*
X39400Y-28400D02*
X41400Y-28400D01*
X38900Y-30900D02*
X38900Y-26900D01*
X38900Y-26900D02*
X41900Y-26900D01*
X41900Y-26900D02*
X41900Y-30900D01*
X41900Y-30900D02*
X38900Y-30900D01*
G54D13*
X37029Y-28632D02*
X37029Y-27432D01*
X37029Y-27432D02*
X34229Y-27432D01*
X34229Y-27432D02*
X34229Y-28632D01*
X37029Y-29832D02*
X37029Y-30132D01*
X37029Y-30132D02*
X36429Y-31032D01*
X36429Y-31032D02*
X34829Y-31032D01*
X34829Y-31032D02*
X34229Y-30132D01*
X34229Y-30132D02*
X34229Y-29832D01*
G54D14*
X25679Y-29925D02*
G75*
G03X25679Y-29925I-50J0D01*
G74*
G01*
X26079Y-29925D02*
X25679Y-29925D01*
X25679Y-29925D02*
X25679Y-29325D01*
X25679Y-29325D02*
X26079Y-29325D01*
X26479Y-29325D02*
X26879Y-29325D01*
X26879Y-29325D02*
X26879Y-29925D01*
X26879Y-29925D02*
X26479Y-29925D01*
X33350Y-44950D02*
G75*
G03X33350Y-44950I-50J0D01*
G74*
G01*
X33300Y-45400D02*
X33300Y-45000D01*
X33300Y-45000D02*
X33900Y-45000D01*
X33900Y-45000D02*
X33900Y-45400D01*
X33900Y-45800D02*
X33900Y-46200D01*
X33900Y-46200D02*
X33300Y-46200D01*
X33300Y-46200D02*
X33300Y-45800D01*
X34011Y-26929D02*
G75*
G03X34011Y-26929I-50J0D01*
G74*
G01*
X33961Y-26479D02*
X33961Y-26879D01*
X33961Y-26879D02*
X33361Y-26879D01*
X33361Y-26879D02*
X33361Y-26479D01*
X33361Y-26079D02*
X33361Y-25679D01*
X33361Y-25679D02*
X33961Y-25679D01*
X33961Y-25679D02*
X33961Y-26079D01*
G54D15*
X34244Y-45897D02*
X34244Y-46172D01*
X34244Y-45503D02*
X34244Y-45228D01*
X34756Y-45897D02*
X34756Y-46172D01*
X34756Y-45228D02*
X34756Y-45503D01*
X34750Y-46172D02*
X34250Y-46172D01*
X34250Y-45228D02*
X34750Y-45228D01*
X22598Y-31870D02*
X22873Y-31870D01*
X22204Y-31870D02*
X21929Y-31870D01*
X22598Y-31358D02*
X22873Y-31358D01*
X21929Y-31358D02*
X22204Y-31358D01*
X22873Y-31364D02*
X22873Y-31864D01*
X21929Y-31864D02*
X21929Y-31364D01*
X26771Y-31653D02*
X27046Y-31653D01*
X26377Y-31653D02*
X26102Y-31653D01*
X26771Y-31141D02*
X27046Y-31141D01*
X26102Y-31141D02*
X26377Y-31141D01*
X27046Y-31147D02*
X27046Y-31647D01*
X26102Y-31647D02*
X26102Y-31147D01*
X26456Y-29074D02*
X26731Y-29074D01*
X26062Y-29074D02*
X25787Y-29074D01*
X26456Y-28562D02*
X26731Y-28562D01*
X25787Y-28562D02*
X26062Y-28562D01*
X26731Y-28568D02*
X26731Y-29068D01*
X25787Y-29068D02*
X25787Y-28568D01*
X26653Y-33996D02*
X26928Y-33996D01*
X26259Y-33996D02*
X25984Y-33996D01*
X26653Y-33484D02*
X26928Y-33484D01*
X25984Y-33484D02*
X26259Y-33484D01*
X26928Y-33490D02*
X26928Y-33990D01*
X25984Y-33990D02*
X25984Y-33490D01*
X27696Y-32047D02*
X27696Y-31772D01*
X27696Y-32441D02*
X27696Y-32716D01*
X27184Y-32047D02*
X27184Y-31772D01*
X27184Y-32716D02*
X27184Y-32441D01*
X27190Y-31772D02*
X27690Y-31772D01*
X27690Y-32716D02*
X27190Y-32716D01*
X26771Y-30964D02*
X27046Y-30964D01*
X26377Y-30964D02*
X26102Y-30964D01*
X26771Y-30452D02*
X27046Y-30452D01*
X26102Y-30452D02*
X26377Y-30452D01*
X27046Y-30458D02*
X27046Y-30958D01*
X26102Y-30958D02*
X26102Y-30458D01*
X26279Y-27716D02*
X26554Y-27716D01*
X25885Y-27716D02*
X25610Y-27716D01*
X26279Y-27204D02*
X26554Y-27204D01*
X25610Y-27204D02*
X25885Y-27204D01*
X26554Y-27210D02*
X26554Y-27710D01*
X25610Y-27710D02*
X25610Y-27210D01*
X22598Y-33051D02*
X22873Y-33051D01*
X22204Y-33051D02*
X21929Y-33051D01*
X22598Y-32539D02*
X22873Y-32539D01*
X21929Y-32539D02*
X22204Y-32539D01*
X22873Y-32545D02*
X22873Y-33045D01*
X21929Y-33045D02*
X21929Y-32545D01*
X28779Y-31397D02*
X28779Y-31672D01*
X28779Y-31003D02*
X28779Y-30728D01*
X29291Y-31397D02*
X29291Y-31672D01*
X29291Y-30728D02*
X29291Y-31003D01*
X29285Y-31672D02*
X28785Y-31672D01*
X28785Y-30728D02*
X29285Y-30728D01*
X31830Y-24842D02*
X31830Y-24567D01*
X31830Y-25236D02*
X31830Y-25511D01*
X31318Y-24842D02*
X31318Y-24567D01*
X31318Y-25511D02*
X31318Y-25236D01*
X31324Y-24567D02*
X31824Y-24567D01*
X31824Y-25511D02*
X31324Y-25511D01*
X29763Y-31397D02*
X29763Y-31672D01*
X29763Y-31003D02*
X29763Y-30728D01*
X30275Y-31397D02*
X30275Y-31672D01*
X30275Y-30728D02*
X30275Y-31003D01*
X30269Y-31672D02*
X29769Y-31672D01*
X29769Y-30728D02*
X30269Y-30728D01*
X28326Y-35708D02*
X28326Y-35433D01*
X28326Y-36102D02*
X28326Y-36377D01*
X27814Y-35708D02*
X27814Y-35433D01*
X27814Y-36377D02*
X27814Y-36102D01*
X27820Y-35433D02*
X28320Y-35433D01*
X28320Y-36377D02*
X27820Y-36377D01*
X30511Y-34940D02*
X30236Y-34940D01*
X30905Y-34940D02*
X31180Y-34940D01*
X30511Y-35452D02*
X30236Y-35452D01*
X31180Y-35452D02*
X30905Y-35452D01*
X30236Y-35446D02*
X30236Y-34946D01*
X31180Y-34946D02*
X31180Y-35446D01*
X36417Y-39153D02*
X36142Y-39153D01*
X36811Y-39153D02*
X37086Y-39153D01*
X36417Y-39665D02*
X36142Y-39665D01*
X37086Y-39665D02*
X36811Y-39665D01*
X36142Y-39659D02*
X36142Y-39159D01*
X37086Y-39159D02*
X37086Y-39659D01*
G54D16*
X31147Y-31650D02*
X31147Y-30750D01*
X31147Y-30750D02*
X31647Y-30750D01*
X31647Y-30750D02*
X31647Y-31650D01*
X31647Y-31650D02*
X31147Y-31650D01*
X24848Y-27516D02*
X24848Y-26616D01*
X24848Y-26616D02*
X25348Y-26616D01*
X25348Y-26616D02*
X25348Y-27516D01*
X25348Y-27516D02*
X24848Y-27516D01*
X21951Y-30616D02*
X22851Y-30616D01*
X22851Y-30616D02*
X22851Y-31116D01*
X22851Y-31116D02*
X21951Y-31116D01*
X21951Y-31116D02*
X21951Y-30616D01*
X21951Y-33332D02*
X22851Y-33332D01*
X22851Y-33332D02*
X22851Y-33832D01*
X22851Y-33832D02*
X21951Y-33832D01*
X21951Y-33832D02*
X21951Y-33332D01*
X31836Y-31650D02*
X31836Y-30750D01*
X31836Y-30750D02*
X32336Y-30750D01*
X32336Y-30750D02*
X32336Y-31650D01*
X32336Y-31650D02*
X31836Y-31650D01*
X33608Y-31650D02*
X33608Y-30750D01*
X33608Y-30750D02*
X34108Y-30750D01*
X34108Y-30750D02*
X34108Y-31650D01*
X34108Y-31650D02*
X33608Y-31650D01*
X30150Y-46350D02*
X31050Y-46350D01*
X31050Y-46350D02*
X31050Y-46850D01*
X31050Y-46850D02*
X30150Y-46850D01*
X30150Y-46850D02*
X30150Y-46350D01*
X32466Y-36355D02*
X32466Y-35455D01*
X32466Y-35455D02*
X32966Y-35455D01*
X32966Y-35455D02*
X32966Y-36355D01*
X32966Y-36355D02*
X32466Y-36355D01*
X37053Y-23284D02*
X37053Y-22384D01*
X37053Y-22384D02*
X37553Y-22384D01*
X37553Y-22384D02*
X37553Y-23284D01*
X37553Y-23284D02*
X37053Y-23284D01*
X37742Y-23284D02*
X37742Y-22384D01*
X37742Y-22384D02*
X38242Y-22384D01*
X38242Y-22384D02*
X38242Y-23284D01*
X38242Y-23284D02*
X37742Y-23284D01*
X39612Y-37654D02*
X39612Y-36754D01*
X39612Y-36754D02*
X40112Y-36754D01*
X40112Y-36754D02*
X40112Y-37654D01*
X40112Y-37654D02*
X39612Y-37654D01*
X34687Y-38332D02*
X35587Y-38332D01*
X35587Y-38332D02*
X35587Y-38832D01*
X35587Y-38832D02*
X34687Y-38832D01*
X34687Y-38832D02*
X34687Y-38332D01*
X30458Y-31650D02*
X30458Y-30750D01*
X30458Y-30750D02*
X30958Y-30750D01*
X30958Y-30750D02*
X30958Y-31650D01*
X30958Y-31650D02*
X30458Y-31650D01*
X28096Y-31650D02*
X28096Y-30750D01*
X28096Y-30750D02*
X28596Y-30750D01*
X28596Y-30750D02*
X28596Y-31650D01*
X28596Y-31650D02*
X28096Y-31650D01*
X39612Y-38835D02*
X39612Y-37935D01*
X39612Y-37935D02*
X40112Y-37935D01*
X40112Y-37935D02*
X40112Y-38835D01*
X40112Y-38835D02*
X39612Y-38835D01*
X35868Y-38332D02*
X36768Y-38332D01*
X36768Y-38332D02*
X36768Y-38832D01*
X36768Y-38832D02*
X35868Y-38832D01*
X35868Y-38832D02*
X35868Y-38332D01*
G54D17*
X23865Y-29725D02*
X23865Y-29925D01*
X23865Y-29925D02*
X24165Y-29925D01*
X24165Y-29925D02*
X24165Y-29725D01*
X23865Y-29525D02*
X23865Y-29325D01*
X23865Y-29325D02*
X24165Y-29325D01*
X24165Y-29325D02*
X24165Y-29525D01*
X24456Y-29725D02*
X24456Y-29925D01*
X24456Y-29925D02*
X24756Y-29925D01*
X24756Y-29925D02*
X24756Y-29725D01*
X24456Y-29525D02*
X24456Y-29325D01*
X24456Y-29325D02*
X24756Y-29325D01*
X24756Y-29325D02*
X24756Y-29525D01*
G54D18*
X43000Y-47900D02*
X42200Y-47900D01*
X43000Y-40100D02*
X42200Y-40100D01*
X42200Y-47900D02*
X42200Y-40100D01*
X43000Y-40100D02*
X43000Y-47900D01*
X43000Y-39300D02*
X42200Y-39300D01*
X43000Y-31500D02*
X42200Y-31500D01*
X42200Y-39300D02*
X42200Y-31500D01*
X43000Y-31500D02*
X43000Y-39300D01*
G54D13*
X35000Y-48700D02*
X32000Y-48700D01*
X32000Y-46700D02*
X35000Y-46700D01*
X35000Y-46700D02*
X35000Y-48700D01*
X32000Y-48700D02*
X32000Y-46700D01*
G54D12*
X37500Y-25500D02*
X38500Y-25500D01*
X38500Y-25500D02*
X38500Y-28500D01*
X38500Y-28500D02*
X37500Y-28500D01*
X37500Y-28500D02*
X37500Y-25500D01*
X38500Y-26500D02*
X37500Y-26500D01*
X21661Y-37023D02*
X20661Y-37023D01*
X20661Y-37023D02*
X20661Y-35023D01*
X20661Y-35023D02*
X21661Y-35023D01*
X21661Y-35023D02*
X21661Y-37023D01*
X40173Y-49795D02*
X40173Y-50795D01*
X40173Y-50795D02*
X38173Y-50795D01*
X38173Y-50795D02*
X38173Y-49795D01*
X38173Y-49795D02*
X40173Y-49795D01*
G54D18*
X23100Y-42000D02*
X24100Y-42000D01*
X24100Y-42000D02*
X24100Y-48000D01*
X24100Y-48000D02*
X23100Y-48000D01*
X23100Y-48000D02*
X23100Y-42000D01*
X23100Y-43000D02*
X24100Y-43000D01*
X23100Y-35000D02*
X24100Y-35000D01*
X24100Y-35000D02*
X24100Y-41000D01*
X24100Y-41000D02*
X23100Y-41000D01*
X23100Y-41000D02*
X23100Y-35000D01*
X23100Y-36000D02*
X24100Y-36000D01*
G54D19*
X37697Y-20925D02*
X38051Y-20925D01*
X38051Y-20925D02*
X38051Y-20768D01*
X37697Y-20768D02*
X38051Y-20768D01*
X37697Y-20925D02*
X37697Y-20768D01*
X37697Y-21436D02*
X38051Y-21436D01*
X38051Y-21436D02*
X38051Y-21279D01*
X37697Y-21279D02*
X38051Y-21279D01*
X37697Y-21436D02*
X37697Y-21279D01*
X37697Y-21102D02*
X37756Y-21102D01*
X37756Y-21102D02*
X37756Y-20984D01*
X37697Y-20984D02*
X37756Y-20984D01*
X37697Y-21102D02*
X37697Y-20984D01*
X37992Y-21102D02*
X38051Y-21102D01*
X38051Y-21102D02*
X38051Y-20984D01*
X37992Y-20984D02*
X38051Y-20984D01*
X37992Y-21102D02*
X37992Y-20984D01*
X37815Y-21102D02*
X37933Y-21102D01*
X37933Y-21102D02*
X37933Y-20984D01*
X37815Y-20984D02*
X37933Y-20984D01*
X37815Y-21102D02*
X37815Y-20984D01*
G54D20*
X37717Y-20925D02*
X37717Y-21279D01*
X38031Y-20925D02*
X38031Y-21279D01*
G54D19*
X40323Y-38223D02*
X40677Y-38223D01*
X40677Y-38223D02*
X40677Y-38066D01*
X40323Y-38066D02*
X40677Y-38066D01*
X40323Y-38223D02*
X40323Y-38066D01*
X40323Y-38734D02*
X40677Y-38734D01*
X40677Y-38734D02*
X40677Y-38577D01*
X40323Y-38577D02*
X40677Y-38577D01*
X40323Y-38734D02*
X40323Y-38577D01*
X40323Y-38400D02*
X40382Y-38400D01*
X40382Y-38400D02*
X40382Y-38282D01*
X40323Y-38282D02*
X40382Y-38282D01*
X40323Y-38400D02*
X40323Y-38282D01*
X40618Y-38400D02*
X40677Y-38400D01*
X40677Y-38400D02*
X40677Y-38282D01*
X40618Y-38282D02*
X40677Y-38282D01*
X40618Y-38400D02*
X40618Y-38282D01*
X40441Y-38400D02*
X40559Y-38400D01*
X40559Y-38400D02*
X40559Y-38282D01*
X40441Y-38282D02*
X40559Y-38282D01*
X40441Y-38400D02*
X40441Y-38282D01*
G54D20*
X40343Y-38223D02*
X40343Y-38577D01*
X40657Y-38223D02*
X40657Y-38577D01*
G54D19*
X32854Y-31397D02*
X32500Y-31397D01*
X32500Y-31397D02*
X32500Y-31554D01*
X32854Y-31554D02*
X32500Y-31554D01*
X32854Y-31397D02*
X32854Y-31554D01*
X32854Y-30886D02*
X32500Y-30886D01*
X32500Y-30886D02*
X32500Y-31043D01*
X32854Y-31043D02*
X32500Y-31043D01*
X32854Y-30886D02*
X32854Y-31043D01*
X32854Y-31220D02*
X32795Y-31220D01*
X32795Y-31220D02*
X32795Y-31338D01*
X32854Y-31338D02*
X32795Y-31338D01*
X32854Y-31220D02*
X32854Y-31338D01*
X32559Y-31220D02*
X32500Y-31220D01*
X32500Y-31220D02*
X32500Y-31338D01*
X32559Y-31338D02*
X32500Y-31338D01*
X32559Y-31220D02*
X32559Y-31338D01*
X32736Y-31220D02*
X32618Y-31220D01*
X32618Y-31220D02*
X32618Y-31338D01*
X32736Y-31338D02*
X32618Y-31338D01*
X32736Y-31220D02*
X32736Y-31338D01*
G54D20*
X32834Y-31397D02*
X32834Y-31043D01*
X32520Y-31397D02*
X32520Y-31043D01*
G54D19*
X38326Y-20925D02*
X38680Y-20925D01*
X38680Y-20925D02*
X38680Y-20768D01*
X38326Y-20768D02*
X38680Y-20768D01*
X38326Y-20925D02*
X38326Y-20768D01*
X38326Y-21436D02*
X38680Y-21436D01*
X38680Y-21436D02*
X38680Y-21279D01*
X38326Y-21279D02*
X38680Y-21279D01*
X38326Y-21436D02*
X38326Y-21279D01*
X38326Y-21102D02*
X38385Y-21102D01*
X38385Y-21102D02*
X38385Y-20984D01*
X38326Y-20984D02*
X38385Y-20984D01*
X38326Y-21102D02*
X38326Y-20984D01*
X38621Y-21102D02*
X38680Y-21102D01*
X38680Y-21102D02*
X38680Y-20984D01*
X38621Y-20984D02*
X38680Y-20984D01*
X38621Y-21102D02*
X38621Y-20984D01*
X38444Y-21102D02*
X38562Y-21102D01*
X38562Y-21102D02*
X38562Y-20984D01*
X38444Y-20984D02*
X38562Y-20984D01*
X38444Y-21102D02*
X38444Y-20984D01*
G54D20*
X38346Y-20925D02*
X38346Y-21279D01*
X38660Y-20925D02*
X38660Y-21279D01*
G54D19*
X33444Y-31397D02*
X33090Y-31397D01*
X33090Y-31397D02*
X33090Y-31554D01*
X33444Y-31554D02*
X33090Y-31554D01*
X33444Y-31397D02*
X33444Y-31554D01*
X33444Y-30886D02*
X33090Y-30886D01*
X33090Y-30886D02*
X33090Y-31043D01*
X33444Y-31043D02*
X33090Y-31043D01*
X33444Y-30886D02*
X33444Y-31043D01*
X33444Y-31220D02*
X33385Y-31220D01*
X33385Y-31220D02*
X33385Y-31338D01*
X33444Y-31338D02*
X33385Y-31338D01*
X33444Y-31220D02*
X33444Y-31338D01*
X33149Y-31220D02*
X33090Y-31220D01*
X33090Y-31220D02*
X33090Y-31338D01*
X33149Y-31338D02*
X33090Y-31338D01*
X33149Y-31220D02*
X33149Y-31338D01*
X33326Y-31220D02*
X33208Y-31220D01*
X33208Y-31220D02*
X33208Y-31338D01*
X33326Y-31338D02*
X33208Y-31338D01*
X33326Y-31220D02*
X33326Y-31338D01*
G54D20*
X33424Y-31397D02*
X33424Y-31043D01*
X33110Y-31397D02*
X33110Y-31043D01*
G54D16*
X35500Y-26400D02*
X36050Y-26400D01*
X35400Y-26350D02*
X36100Y-26350D01*
X35250Y-26300D02*
X36250Y-26300D01*
X36300Y-26250D02*
X35200Y-26250D01*
X35150Y-26200D02*
X36350Y-26200D01*
X36400Y-26150D02*
X35100Y-26150D01*
X35050Y-26100D02*
X36450Y-26100D01*
X36700Y-25500D02*
G75*
G03X36700Y-25500I-950J0D01*
G74*
G01*
X34700Y-26550D02*
X34700Y-24750D01*
X34700Y-24750D02*
X35000Y-24450D01*
X35000Y-24450D02*
X36500Y-24450D01*
X36500Y-24450D02*
X36800Y-24750D01*
X36800Y-24750D02*
X36800Y-26550D01*
X36800Y-26550D02*
X34700Y-26550D01*
X35750Y-24650D02*
X35750Y-24950D01*
X35600Y-24800D02*
X35900Y-24800D01*
G54D10*
X28340Y-45750D02*
G75*
G03X28340Y-45750I-590J0D01*
G74*
G01*
X26529Y-44568D02*
X28970Y-44568D01*
X28970Y-44568D02*
X28970Y-46931D01*
X28970Y-46931D02*
X26529Y-46931D01*
X26529Y-46931D02*
X26529Y-44568D01*
G54D15*
X26279Y-26929D02*
X26554Y-26929D01*
X25885Y-26929D02*
X25610Y-26929D01*
X26279Y-26417D02*
X26554Y-26417D01*
X25610Y-26417D02*
X25885Y-26417D01*
X26554Y-26423D02*
X26554Y-26923D01*
X25610Y-26923D02*
X25610Y-26423D01*
G54D10*
X26968Y-31929D02*
X26968Y-33188D01*
X26968Y-33188D02*
X25944Y-33188D01*
X25944Y-33188D02*
X25944Y-31929D01*
X25944Y-31929D02*
X26968Y-31929D01*
G54D16*
X37638Y-33178D02*
X37638Y-31928D01*
X37638Y-31928D02*
X36938Y-31928D01*
X36938Y-31928D02*
X36938Y-33178D01*
X39438Y-33178D02*
X39438Y-31928D01*
X39438Y-31928D02*
X38738Y-31928D01*
X38738Y-31928D02*
X38738Y-33178D01*
X36838Y-35578D02*
X36838Y-33178D01*
X36838Y-33178D02*
X39538Y-33178D01*
X39538Y-33178D02*
X39538Y-36278D01*
X39538Y-36328D02*
X36838Y-36328D01*
X36838Y-36278D02*
X36838Y-35578D01*
G54D11*
X26147Y-19911D02*
X26147Y-19539D01*
X24053Y-19911D02*
X24053Y-19539D01*
X24053Y-23260D02*
X24053Y-21772D01*
X26147Y-23260D02*
X26147Y-21772D01*
X23843Y-20035D02*
X25205Y-19911D01*
X26357Y-21524D02*
X24053Y-21772D01*
X23843Y-21524D02*
X26357Y-21276D01*
X23843Y-21276D02*
X26357Y-21028D01*
X23843Y-21028D02*
X26357Y-20780D01*
X23843Y-20780D02*
X26357Y-20531D01*
X23843Y-20531D02*
X26357Y-20283D01*
X23843Y-20283D02*
X26357Y-20035D01*
X23843Y-20035D02*
X24053Y-19911D01*
X24053Y-19911D02*
X26147Y-19911D01*
X26147Y-19911D02*
X26357Y-20035D01*
X26357Y-20035D02*
X26357Y-21648D01*
X26357Y-21648D02*
X26147Y-21772D01*
X26147Y-21772D02*
X24053Y-21772D01*
X24053Y-21772D02*
X23843Y-21648D01*
X23843Y-21648D02*
X23843Y-20035D01*
X26147Y-19539D02*
X24053Y-19539D01*
X23860Y-23260D02*
X26340Y-23260D01*
X26340Y-23260D02*
X26340Y-25740D01*
X26340Y-25740D02*
X23860Y-25740D01*
X23860Y-25740D02*
X23860Y-23260D01*
G54D12*
X27302Y-50959D02*
X27302Y-48440D01*
X27302Y-50959D02*
X22774Y-50959D01*
X22774Y-50959D02*
X22774Y-48440D01*
X22774Y-48440D02*
X27302Y-48440D01*
X24625Y-50959D02*
X24625Y-48440D01*
G54D11*
X42743Y-19837D02*
X42743Y-19537D01*
X42743Y-19537D02*
X39343Y-19537D01*
X39343Y-19537D02*
X39343Y-19837D01*
X42743Y-21037D02*
X39343Y-21037D01*
X42743Y-24837D02*
X39343Y-24837D01*
X39343Y-19837D02*
X39343Y-24837D01*
X42743Y-19837D02*
X42743Y-24837D01*
G54D10*
X36338Y-20393D02*
X36338Y-18818D01*
X36338Y-18818D02*
X35236Y-18818D01*
X35236Y-18818D02*
X35236Y-20393D01*
X34055Y-20551D02*
X36417Y-20551D01*
X36417Y-20551D02*
X36417Y-20433D01*
X34055Y-20551D02*
X34055Y-20433D01*
X36929Y-22125D02*
X33543Y-22125D01*
X33543Y-22125D02*
X33543Y-20393D01*
X33543Y-20393D02*
X36929Y-20393D01*
X36929Y-20393D02*
X36929Y-22125D01*
X44822Y-30374D02*
X45295Y-30374D01*
X45295Y-30374D02*
X45295Y-31122D01*
X45295Y-31122D02*
X44822Y-31122D01*
X44822Y-31122D02*
X44822Y-30374D01*
G54D16*
X43726Y-31493D02*
X43726Y-30593D01*
X43726Y-30593D02*
X44226Y-30593D01*
X44226Y-30593D02*
X44226Y-31493D01*
X44226Y-31493D02*
X43726Y-31493D01*
G54D14*
X44916Y-30216D02*
G75*
G03X44916Y-30216I-50J0D01*
G74*
G01*
X44866Y-29766D02*
X44866Y-30166D01*
X44866Y-30166D02*
X44266Y-30166D01*
X44266Y-30166D02*
X44266Y-29766D01*
X44266Y-29366D02*
X44266Y-28966D01*
X44266Y-28966D02*
X44866Y-28966D01*
X44866Y-28966D02*
X44866Y-29366D01*
G54D15*
X45059Y-31791D02*
X45334Y-31791D01*
X44665Y-31791D02*
X44390Y-31791D01*
X45059Y-31279D02*
X45334Y-31279D01*
X44390Y-31279D02*
X44665Y-31279D01*
X45334Y-31285D02*
X45334Y-31785D01*
X44390Y-31785D02*
X44390Y-31285D01*
G54D16*
X28951Y-28704D02*
G75*
G03X28951Y-28704I-141J0D01*
G74*
G01*
X28610Y-27604D02*
X28910Y-27604D01*
X28910Y-27604D02*
X28910Y-28104D01*
X28910Y-28104D02*
X28610Y-28104D01*
X32660Y-28904D02*
X28610Y-28904D01*
X28610Y-26804D02*
X32660Y-26804D01*
X28610Y-26804D02*
X28610Y-28904D01*
X32660Y-26804D02*
X32660Y-28904D01*
X31187Y-38385D02*
X31187Y-35826D01*
X31181Y-35826D02*
X29448Y-35826D01*
X29450Y-35826D02*
X29450Y-38385D01*
X29448Y-38385D02*
X31181Y-38385D01*
X29826Y-36156D02*
G75*
G03X29826Y-36156I-111J0D01*
G74*
G01*
G54D21*
X25393Y-30708D02*
G75*
G03X25393Y-30708I-98J0D01*
G74*
G01*
X25295Y-30905D02*
X25295Y-32480D01*
X25295Y-32480D02*
X25098Y-32677D01*
X25098Y-32677D02*
X23523Y-32677D01*
X23523Y-32677D02*
X23326Y-32480D01*
X23326Y-32480D02*
X23326Y-30905D01*
X23326Y-30905D02*
X23523Y-30708D01*
X23523Y-30708D02*
X25098Y-30708D01*
X25098Y-30708D02*
X25295Y-30905D01*
G54D22*
X0Y0D02*
X0Y0D01*
X0Y0D01*
X0Y0D01*
X0Y0D01*
X0Y0D01*
X0Y0D01*
X0Y0D01*
X0Y0D01*
X0Y0D01*
X0Y0D01*
X0Y0D01*
X0Y0D01*
X0Y0D01*
X0Y0D01*
X0Y0D01*
X0Y0D01*
X0Y0D01*
X0Y0D01*
X0Y0D01*
X0Y0D02*
X0Y0D01*
X0Y0D02*
X0Y0D01*
X0Y0D02*
X0Y0D01*
X0Y0D01*
X0Y0D01*
X0Y0D01*
X0Y0D01*
X0Y0D01*
X0Y0D01*
X0Y0D01*
X0Y0D01*
X0Y0D02*
X0Y0D01*
X0Y0D01*
X0Y0D01*
X0Y0D01*
X0Y0D01*
X0Y0D01*
X0Y0D01*
X0Y0D01*
X0Y0D01*
X0Y0D01*
X0Y0D01*
X0Y0D01*
X0Y0D01*
X0Y0D01*
X0Y0D01*
X0Y0D01*
X0Y0D01*
X0Y0D01*
X0Y0D02*
X0Y0D01*
X0Y0D01*
X0Y0D02*
X0Y0D01*
X0Y0D02*
X0Y0D01*
X0Y0D01*
X0Y0D02*
X0Y0D01*
X0Y0D01*
X0Y0D02*
X0Y0D01*
X0Y0D02*
X0Y0D01*
X0Y0D01*
X0Y0D02*
X0Y0D01*
X0Y0D01*
X0Y0D02*
X0Y0D01*
X0Y0D02*
X0Y0D01*
X0Y0D01*
X0Y0D02*
X0Y0D01*
X0Y0D01*
G54D18*
X28048Y-21394D02*
X28048Y-21823D01*
X28019Y-21909D01*
X27962Y-21966D01*
X27876Y-21994D01*
X27819Y-21994D01*
X28648Y-21994D02*
X28305Y-21994D01*
X28476Y-21994D02*
X28476Y-21394D01*
X28419Y-21480D01*
X28362Y-21537D01*
X28305Y-21566D01*
G54D13*
X37904Y-44114D02*
X37904Y-44519D01*
X37923Y-44567D01*
X37942Y-44591D01*
X37980Y-44614D01*
X38057Y-44614D01*
X38095Y-44591D01*
X38114Y-44567D01*
X38133Y-44519D01*
X38133Y-44114D01*
X38495Y-44114D02*
X38418Y-44114D01*
X38380Y-44138D01*
X38361Y-44162D01*
X38323Y-44234D01*
X38304Y-44329D01*
X38304Y-44519D01*
X38323Y-44567D01*
X38342Y-44591D01*
X38380Y-44614D01*
X38457Y-44614D01*
X38495Y-44591D01*
X38514Y-44567D01*
X38533Y-44519D01*
X38533Y-44400D01*
X38514Y-44353D01*
X38495Y-44329D01*
X38457Y-44305D01*
X38380Y-44305D01*
X38342Y-44329D01*
X38323Y-44353D01*
X38304Y-44400D01*
G54D18*
X39600Y-31578D02*
X39685Y-31602D01*
X39828Y-31602D01*
X39885Y-31578D01*
X39914Y-31554D01*
X39942Y-31507D01*
X39942Y-31459D01*
X39914Y-31411D01*
X39885Y-31388D01*
X39828Y-31364D01*
X39714Y-31340D01*
X39657Y-31316D01*
X39628Y-31292D01*
X39600Y-31245D01*
X39600Y-31197D01*
X39628Y-31150D01*
X39657Y-31126D01*
X39714Y-31102D01*
X39857Y-31102D01*
X39942Y-31126D01*
X40142Y-31102D02*
X40285Y-31602D01*
X40400Y-31245D01*
X40514Y-31602D01*
X40657Y-31102D01*
X41200Y-31602D02*
X40857Y-31602D01*
X41028Y-31602D02*
X41028Y-31102D01*
X40971Y-31173D01*
X40914Y-31221D01*
X40857Y-31245D01*
G54D13*
X35425Y-31244D02*
X35425Y-31567D01*
X35444Y-31606D01*
X35463Y-31625D01*
X35501Y-31644D01*
X35577Y-31644D01*
X35615Y-31625D01*
X35634Y-31606D01*
X35653Y-31567D01*
X35653Y-31244D01*
X35825Y-31282D02*
X35844Y-31263D01*
X35882Y-31244D01*
X35977Y-31244D01*
X36015Y-31263D01*
X36034Y-31282D01*
X36053Y-31320D01*
X36053Y-31358D01*
X36034Y-31415D01*
X35806Y-31644D01*
X36053Y-31644D01*
G54D23*
X27296Y-29799D02*
X27230Y-29799D01*
X27230Y-29902D02*
X27230Y-29705D01*
X27324Y-29705D01*
X27465Y-29799D02*
X27493Y-29808D01*
X27502Y-29818D01*
X27512Y-29836D01*
X27512Y-29865D01*
X27502Y-29883D01*
X27493Y-29893D01*
X27474Y-29902D01*
X27399Y-29902D01*
X27399Y-29705D01*
X27465Y-29705D01*
X27484Y-29714D01*
X27493Y-29724D01*
X27502Y-29743D01*
X27502Y-29761D01*
X27493Y-29780D01*
X27484Y-29790D01*
X27465Y-29799D01*
X27399Y-29799D01*
X27699Y-29902D02*
X27587Y-29902D01*
X27643Y-29902D02*
X27643Y-29705D01*
X27624Y-29733D01*
X27606Y-29752D01*
X27587Y-29761D01*
X33473Y-44775D02*
X33463Y-44784D01*
X33435Y-44793D01*
X33417Y-44793D01*
X33388Y-44784D01*
X33370Y-44765D01*
X33360Y-44747D01*
X33351Y-44709D01*
X33351Y-44681D01*
X33360Y-44643D01*
X33370Y-44625D01*
X33388Y-44606D01*
X33417Y-44596D01*
X33435Y-44596D01*
X33463Y-44606D01*
X33473Y-44615D01*
X33548Y-44615D02*
X33557Y-44606D01*
X33576Y-44596D01*
X33623Y-44596D01*
X33642Y-44606D01*
X33651Y-44615D01*
X33660Y-44634D01*
X33660Y-44653D01*
X33651Y-44681D01*
X33539Y-44793D01*
X33660Y-44793D01*
X33736Y-44615D02*
X33745Y-44606D01*
X33764Y-44596D01*
X33811Y-44596D01*
X33829Y-44606D01*
X33839Y-44615D01*
X33848Y-44634D01*
X33848Y-44653D01*
X33839Y-44681D01*
X33726Y-44793D01*
X33848Y-44793D01*
X33628Y-25454D02*
X33619Y-25464D01*
X33591Y-25473D01*
X33572Y-25473D01*
X33544Y-25464D01*
X33525Y-25445D01*
X33516Y-25426D01*
X33506Y-25389D01*
X33506Y-25360D01*
X33516Y-25323D01*
X33525Y-25304D01*
X33544Y-25285D01*
X33572Y-25276D01*
X33591Y-25276D01*
X33619Y-25285D01*
X33628Y-25295D01*
X33806Y-25276D02*
X33713Y-25276D01*
X33703Y-25370D01*
X33713Y-25360D01*
X33731Y-25351D01*
X33778Y-25351D01*
X33797Y-25360D01*
X33806Y-25370D01*
X33816Y-25389D01*
X33816Y-25435D01*
X33806Y-25454D01*
X33797Y-25464D01*
X33778Y-25473D01*
X33731Y-25473D01*
X33713Y-25464D01*
X33703Y-25454D01*
G54D24*
X34384Y-45072D02*
X34375Y-45082D01*
X34350Y-45091D01*
X34332Y-45091D01*
X34307Y-45082D01*
X34290Y-45063D01*
X34281Y-45044D01*
X34272Y-45006D01*
X34272Y-44977D01*
X34281Y-44939D01*
X34290Y-44920D01*
X34307Y-44901D01*
X34332Y-44891D01*
X34350Y-44891D01*
X34375Y-44901D01*
X34384Y-44911D01*
X34452Y-44911D02*
X34461Y-44901D01*
X34478Y-44891D01*
X34521Y-44891D01*
X34538Y-44901D01*
X34547Y-44911D01*
X34555Y-44930D01*
X34555Y-44949D01*
X34547Y-44977D01*
X34444Y-45091D01*
X34555Y-45091D01*
X34615Y-44891D02*
X34727Y-44891D01*
X34667Y-44968D01*
X34692Y-44968D01*
X34710Y-44977D01*
X34718Y-44987D01*
X34727Y-45006D01*
X34727Y-45053D01*
X34718Y-45072D01*
X34710Y-45082D01*
X34692Y-45091D01*
X34641Y-45091D01*
X34624Y-45082D01*
X34615Y-45072D01*
X21459Y-31676D02*
X21450Y-31685D01*
X21424Y-31695D01*
X21407Y-31695D01*
X21381Y-31685D01*
X21364Y-31666D01*
X21356Y-31647D01*
X21347Y-31609D01*
X21347Y-31580D01*
X21356Y-31542D01*
X21364Y-31523D01*
X21381Y-31504D01*
X21407Y-31495D01*
X21424Y-31495D01*
X21450Y-31504D01*
X21459Y-31514D01*
X21630Y-31695D02*
X21527Y-31695D01*
X21579Y-31695D02*
X21579Y-31495D01*
X21561Y-31523D01*
X21544Y-31542D01*
X21527Y-31552D01*
X21801Y-31695D02*
X21699Y-31695D01*
X21750Y-31695D02*
X21750Y-31495D01*
X21733Y-31523D01*
X21716Y-31542D01*
X21699Y-31552D01*
X27246Y-31459D02*
X27237Y-31469D01*
X27212Y-31478D01*
X27195Y-31478D01*
X27169Y-31469D01*
X27152Y-31450D01*
X27143Y-31430D01*
X27135Y-31392D01*
X27135Y-31364D01*
X27143Y-31326D01*
X27152Y-31307D01*
X27169Y-31288D01*
X27195Y-31278D01*
X27212Y-31278D01*
X27237Y-31288D01*
X27246Y-31297D01*
X27417Y-31478D02*
X27315Y-31478D01*
X27366Y-31478D02*
X27366Y-31278D01*
X27349Y-31307D01*
X27332Y-31326D01*
X27315Y-31335D01*
X27486Y-31297D02*
X27495Y-31288D01*
X27512Y-31278D01*
X27555Y-31278D01*
X27572Y-31288D01*
X27580Y-31297D01*
X27589Y-31316D01*
X27589Y-31335D01*
X27580Y-31364D01*
X27477Y-31478D01*
X27589Y-31478D01*
X27115Y-28585D02*
X27107Y-28595D01*
X27081Y-28604D01*
X27064Y-28604D01*
X27038Y-28595D01*
X27021Y-28576D01*
X27012Y-28556D01*
X27004Y-28518D01*
X27004Y-28490D01*
X27012Y-28452D01*
X27021Y-28433D01*
X27038Y-28414D01*
X27064Y-28404D01*
X27081Y-28404D01*
X27107Y-28414D01*
X27115Y-28423D01*
X27218Y-28490D02*
X27201Y-28480D01*
X27192Y-28471D01*
X27184Y-28452D01*
X27184Y-28442D01*
X27192Y-28423D01*
X27201Y-28414D01*
X27218Y-28404D01*
X27252Y-28404D01*
X27269Y-28414D01*
X27278Y-28423D01*
X27287Y-28442D01*
X27287Y-28452D01*
X27278Y-28471D01*
X27269Y-28480D01*
X27252Y-28490D01*
X27218Y-28490D01*
X27201Y-28499D01*
X27192Y-28509D01*
X27184Y-28528D01*
X27184Y-28566D01*
X27192Y-28585D01*
X27201Y-28595D01*
X27218Y-28604D01*
X27252Y-28604D01*
X27269Y-28595D01*
X27278Y-28585D01*
X27287Y-28566D01*
X27287Y-28528D01*
X27278Y-28509D01*
X27269Y-28499D01*
X27252Y-28490D01*
X25731Y-33855D02*
X25740Y-33864D01*
X25750Y-33890D01*
X25750Y-33907D01*
X25740Y-33933D01*
X25721Y-33950D01*
X25702Y-33958D01*
X25664Y-33967D01*
X25635Y-33967D01*
X25597Y-33958D01*
X25578Y-33950D01*
X25559Y-33933D01*
X25550Y-33907D01*
X25550Y-33890D01*
X25559Y-33864D01*
X25569Y-33855D01*
X25750Y-33684D02*
X25750Y-33787D01*
X25750Y-33735D02*
X25550Y-33735D01*
X25578Y-33753D01*
X25597Y-33770D01*
X25607Y-33787D01*
X25550Y-33624D02*
X25550Y-33504D01*
X25750Y-33581D01*
X27502Y-33245D02*
X27512Y-33254D01*
X27521Y-33279D01*
X27521Y-33297D01*
X27512Y-33322D01*
X27493Y-33339D01*
X27474Y-33348D01*
X27436Y-33357D01*
X27407Y-33357D01*
X27369Y-33348D01*
X27350Y-33339D01*
X27331Y-33322D01*
X27321Y-33297D01*
X27321Y-33279D01*
X27331Y-33254D01*
X27340Y-33245D01*
X27521Y-33074D02*
X27521Y-33177D01*
X27521Y-33125D02*
X27321Y-33125D01*
X27350Y-33142D01*
X27369Y-33159D01*
X27379Y-33177D01*
X27521Y-32988D02*
X27521Y-32954D01*
X27512Y-32937D01*
X27502Y-32928D01*
X27474Y-32911D01*
X27436Y-32902D01*
X27359Y-32902D01*
X27340Y-32911D01*
X27331Y-32919D01*
X27321Y-32937D01*
X27321Y-32971D01*
X27331Y-32988D01*
X27340Y-32997D01*
X27359Y-33005D01*
X27407Y-33005D01*
X27426Y-32997D01*
X27436Y-32988D01*
X27445Y-32971D01*
X27445Y-32937D01*
X27436Y-32919D01*
X27426Y-32911D01*
X27407Y-32902D01*
X27246Y-30770D02*
X27237Y-30780D01*
X27212Y-30789D01*
X27195Y-30789D01*
X27169Y-30780D01*
X27152Y-30761D01*
X27143Y-30741D01*
X27135Y-30703D01*
X27135Y-30675D01*
X27143Y-30637D01*
X27152Y-30618D01*
X27169Y-30599D01*
X27195Y-30589D01*
X27212Y-30589D01*
X27237Y-30599D01*
X27246Y-30608D01*
X27417Y-30789D02*
X27315Y-30789D01*
X27366Y-30789D02*
X27366Y-30589D01*
X27349Y-30618D01*
X27332Y-30637D01*
X27315Y-30646D01*
X27529Y-30589D02*
X27546Y-30589D01*
X27563Y-30599D01*
X27572Y-30608D01*
X27580Y-30627D01*
X27589Y-30665D01*
X27589Y-30713D01*
X27580Y-30751D01*
X27572Y-30770D01*
X27563Y-30780D01*
X27546Y-30789D01*
X27529Y-30789D01*
X27512Y-30780D01*
X27503Y-30770D01*
X27495Y-30751D01*
X27486Y-30713D01*
X27486Y-30665D01*
X27495Y-30627D01*
X27503Y-30608D01*
X27512Y-30599D01*
X27529Y-30589D01*
X26840Y-27522D02*
X26831Y-27532D01*
X26805Y-27541D01*
X26788Y-27541D01*
X26762Y-27532D01*
X26745Y-27513D01*
X26737Y-27493D01*
X26728Y-27455D01*
X26728Y-27427D01*
X26737Y-27389D01*
X26745Y-27370D01*
X26762Y-27351D01*
X26788Y-27341D01*
X26805Y-27341D01*
X26831Y-27351D01*
X26840Y-27360D01*
X26994Y-27408D02*
X26994Y-27541D01*
X26951Y-27332D02*
X26908Y-27474D01*
X27020Y-27474D01*
X21380Y-32896D02*
X21371Y-32906D01*
X21346Y-32915D01*
X21328Y-32915D01*
X21303Y-32906D01*
X21286Y-32887D01*
X21277Y-32867D01*
X21268Y-32829D01*
X21268Y-32801D01*
X21277Y-32763D01*
X21286Y-32744D01*
X21303Y-32725D01*
X21328Y-32715D01*
X21346Y-32715D01*
X21371Y-32725D01*
X21380Y-32734D01*
X21551Y-32915D02*
X21448Y-32915D01*
X21500Y-32915D02*
X21500Y-32715D01*
X21483Y-32744D01*
X21466Y-32763D01*
X21448Y-32772D01*
X21706Y-32715D02*
X21671Y-32715D01*
X21654Y-32725D01*
X21646Y-32734D01*
X21628Y-32763D01*
X21620Y-32801D01*
X21620Y-32877D01*
X21628Y-32896D01*
X21637Y-32906D01*
X21654Y-32915D01*
X21688Y-32915D01*
X21706Y-32906D01*
X21714Y-32896D01*
X21723Y-32877D01*
X21723Y-32829D01*
X21714Y-32810D01*
X21706Y-32801D01*
X21688Y-32791D01*
X21654Y-32791D01*
X21637Y-32801D01*
X21628Y-32810D01*
X21620Y-32829D01*
X28919Y-30475D02*
X28911Y-30484D01*
X28885Y-30494D01*
X28868Y-30494D01*
X28842Y-30484D01*
X28825Y-30465D01*
X28816Y-30446D01*
X28808Y-30408D01*
X28808Y-30380D01*
X28816Y-30341D01*
X28825Y-30322D01*
X28842Y-30303D01*
X28868Y-30294D01*
X28885Y-30294D01*
X28911Y-30303D01*
X28919Y-30313D01*
X29091Y-30494D02*
X28988Y-30494D01*
X29039Y-30494D02*
X29039Y-30294D01*
X29022Y-30322D01*
X29005Y-30341D01*
X28988Y-30351D01*
X29151Y-30294D02*
X29262Y-30294D01*
X29202Y-30370D01*
X29228Y-30370D01*
X29245Y-30380D01*
X29254Y-30389D01*
X29262Y-30408D01*
X29262Y-30456D01*
X29254Y-30475D01*
X29245Y-30484D01*
X29228Y-30494D01*
X29176Y-30494D01*
X29159Y-30484D01*
X29151Y-30475D01*
X30954Y-25199D02*
X30945Y-25209D01*
X30919Y-25218D01*
X30902Y-25218D01*
X30877Y-25209D01*
X30859Y-25190D01*
X30851Y-25171D01*
X30842Y-25133D01*
X30842Y-25104D01*
X30851Y-25066D01*
X30859Y-25047D01*
X30877Y-25028D01*
X30902Y-25018D01*
X30919Y-25018D01*
X30945Y-25028D01*
X30954Y-25037D01*
X31125Y-25218D02*
X31022Y-25218D01*
X31074Y-25218D02*
X31074Y-25018D01*
X31057Y-25047D01*
X31039Y-25066D01*
X31022Y-25075D01*
X29903Y-32443D02*
X29895Y-32453D01*
X29869Y-32462D01*
X29852Y-32462D01*
X29826Y-32453D01*
X29809Y-32434D01*
X29801Y-32415D01*
X29792Y-32377D01*
X29792Y-32348D01*
X29801Y-32310D01*
X29809Y-32291D01*
X29826Y-32272D01*
X29852Y-32262D01*
X29869Y-32262D01*
X29895Y-32272D01*
X29903Y-32281D01*
X30075Y-32462D02*
X29972Y-32462D01*
X30023Y-32462D02*
X30023Y-32262D01*
X30006Y-32291D01*
X29989Y-32310D01*
X29972Y-32319D01*
X30229Y-32329D02*
X30229Y-32462D01*
X30186Y-32253D02*
X30143Y-32396D01*
X30255Y-32396D01*
X29843Y-30431D02*
X29861Y-30431D01*
X29878Y-30441D01*
X29886Y-30450D01*
X29895Y-30469D01*
X29903Y-30507D01*
X29903Y-30555D01*
X29895Y-30593D01*
X29886Y-30612D01*
X29878Y-30622D01*
X29861Y-30631D01*
X29843Y-30631D01*
X29826Y-30622D01*
X29818Y-30612D01*
X29809Y-30593D01*
X29801Y-30555D01*
X29801Y-30507D01*
X29809Y-30469D01*
X29818Y-30450D01*
X29826Y-30441D01*
X29843Y-30431D01*
X30058Y-30498D02*
X30058Y-30631D01*
X29981Y-30498D02*
X29981Y-30603D01*
X29989Y-30622D01*
X30006Y-30631D01*
X30032Y-30631D01*
X30049Y-30622D01*
X30058Y-30612D01*
X30238Y-30631D02*
X30135Y-30631D01*
X30186Y-30631D02*
X30186Y-30431D01*
X30169Y-30460D01*
X30152Y-30479D01*
X30135Y-30488D01*
X27955Y-35239D02*
X27946Y-35248D01*
X27920Y-35258D01*
X27903Y-35258D01*
X27878Y-35248D01*
X27860Y-35229D01*
X27852Y-35210D01*
X27843Y-35172D01*
X27843Y-35143D01*
X27852Y-35105D01*
X27860Y-35086D01*
X27878Y-35067D01*
X27903Y-35058D01*
X27920Y-35058D01*
X27946Y-35067D01*
X27955Y-35077D01*
X28126Y-35258D02*
X28023Y-35258D01*
X28075Y-35258D02*
X28075Y-35058D01*
X28058Y-35086D01*
X28040Y-35105D01*
X28023Y-35115D01*
X28229Y-35143D02*
X28212Y-35134D01*
X28203Y-35124D01*
X28195Y-35105D01*
X28195Y-35096D01*
X28203Y-35077D01*
X28212Y-35067D01*
X28229Y-35058D01*
X28263Y-35058D01*
X28280Y-35067D01*
X28289Y-35077D01*
X28298Y-35096D01*
X28298Y-35105D01*
X28289Y-35124D01*
X28280Y-35134D01*
X28263Y-35143D01*
X28229Y-35143D01*
X28212Y-35153D01*
X28203Y-35162D01*
X28195Y-35181D01*
X28195Y-35220D01*
X28203Y-35239D01*
X28212Y-35248D01*
X28229Y-35258D01*
X28263Y-35258D01*
X28280Y-35248D01*
X28289Y-35239D01*
X28298Y-35220D01*
X28298Y-35181D01*
X28289Y-35162D01*
X28280Y-35153D01*
X28263Y-35143D01*
X30888Y-34766D02*
X30879Y-34776D01*
X30853Y-34785D01*
X30836Y-34785D01*
X30811Y-34776D01*
X30793Y-34757D01*
X30785Y-34738D01*
X30776Y-34699D01*
X30776Y-34671D01*
X30785Y-34633D01*
X30793Y-34614D01*
X30811Y-34595D01*
X30836Y-34585D01*
X30853Y-34585D01*
X30879Y-34595D01*
X30888Y-34604D01*
X30956Y-34604D02*
X30965Y-34595D01*
X30982Y-34585D01*
X31025Y-34585D01*
X31042Y-34595D01*
X31051Y-34604D01*
X31059Y-34623D01*
X31059Y-34642D01*
X31051Y-34671D01*
X30948Y-34785D01*
X31059Y-34785D01*
X31231Y-34785D02*
X31128Y-34785D01*
X31179Y-34785D02*
X31179Y-34585D01*
X31162Y-34614D01*
X31145Y-34633D01*
X31128Y-34642D01*
X36793Y-38979D02*
X36785Y-38988D01*
X36759Y-38998D01*
X36742Y-38998D01*
X36716Y-38988D01*
X36699Y-38969D01*
X36690Y-38950D01*
X36682Y-38912D01*
X36682Y-38883D01*
X36690Y-38845D01*
X36699Y-38826D01*
X36716Y-38807D01*
X36742Y-38798D01*
X36759Y-38798D01*
X36785Y-38807D01*
X36793Y-38817D01*
X36862Y-38817D02*
X36870Y-38807D01*
X36888Y-38798D01*
X36930Y-38798D01*
X36948Y-38807D01*
X36956Y-38817D01*
X36965Y-38836D01*
X36965Y-38855D01*
X36956Y-38883D01*
X36853Y-38998D01*
X36965Y-38998D01*
X37076Y-38798D02*
X37093Y-38798D01*
X37110Y-38807D01*
X37119Y-38817D01*
X37128Y-38836D01*
X37136Y-38874D01*
X37136Y-38922D01*
X37128Y-38960D01*
X37119Y-38979D01*
X37110Y-38988D01*
X37093Y-38998D01*
X37076Y-38998D01*
X37059Y-38988D01*
X37050Y-38979D01*
X37042Y-38960D01*
X37033Y-38922D01*
X37033Y-38874D01*
X37042Y-38836D01*
X37050Y-38817D01*
X37059Y-38807D01*
X37076Y-38798D01*
X31367Y-32462D02*
X31307Y-32367D01*
X31264Y-32462D02*
X31264Y-32262D01*
X31333Y-32262D01*
X31350Y-32272D01*
X31359Y-32281D01*
X31367Y-32300D01*
X31367Y-32329D01*
X31359Y-32348D01*
X31350Y-32358D01*
X31333Y-32367D01*
X31264Y-32367D01*
X31521Y-32262D02*
X31487Y-32262D01*
X31470Y-32272D01*
X31461Y-32281D01*
X31444Y-32310D01*
X31436Y-32348D01*
X31436Y-32424D01*
X31444Y-32443D01*
X31453Y-32453D01*
X31470Y-32462D01*
X31504Y-32462D01*
X31521Y-32453D01*
X31530Y-32443D01*
X31539Y-32424D01*
X31539Y-32377D01*
X31530Y-32358D01*
X31521Y-32348D01*
X31504Y-32339D01*
X31470Y-32339D01*
X31453Y-32348D01*
X31444Y-32358D01*
X31436Y-32377D01*
X25068Y-27935D02*
X24982Y-27935D01*
X24982Y-27735D01*
X25222Y-27935D02*
X25119Y-27935D01*
X25171Y-27935D02*
X25171Y-27735D01*
X25154Y-27763D01*
X25136Y-27782D01*
X25119Y-27792D01*
X22095Y-30395D02*
X22035Y-30300D01*
X21993Y-30395D02*
X21993Y-30195D01*
X22061Y-30195D01*
X22078Y-30205D01*
X22087Y-30214D01*
X22095Y-30234D01*
X22095Y-30262D01*
X22087Y-30281D01*
X22078Y-30291D01*
X22061Y-30300D01*
X21993Y-30300D01*
X22155Y-30195D02*
X22267Y-30195D01*
X22207Y-30272D01*
X22233Y-30272D01*
X22250Y-30281D01*
X22258Y-30291D01*
X22267Y-30310D01*
X22267Y-30357D01*
X22258Y-30376D01*
X22250Y-30386D01*
X22233Y-30395D01*
X22181Y-30395D01*
X22164Y-30386D01*
X22155Y-30376D01*
X21505Y-33663D02*
X21445Y-33568D01*
X21402Y-33663D02*
X21402Y-33463D01*
X21471Y-33463D01*
X21488Y-33473D01*
X21496Y-33482D01*
X21505Y-33501D01*
X21505Y-33530D01*
X21496Y-33549D01*
X21488Y-33558D01*
X21471Y-33568D01*
X21402Y-33568D01*
X21591Y-33663D02*
X21625Y-33663D01*
X21642Y-33654D01*
X21651Y-33644D01*
X21668Y-33616D01*
X21676Y-33577D01*
X21676Y-33501D01*
X21668Y-33482D01*
X21659Y-33473D01*
X21642Y-33463D01*
X21608Y-33463D01*
X21591Y-33473D01*
X21582Y-33482D01*
X21574Y-33501D01*
X21574Y-33549D01*
X21582Y-33568D01*
X21591Y-33577D01*
X21608Y-33587D01*
X21642Y-33587D01*
X21659Y-33577D01*
X21668Y-33568D01*
X21676Y-33549D01*
X32056Y-32069D02*
X31996Y-31973D01*
X31953Y-32069D02*
X31953Y-31869D01*
X32022Y-31869D01*
X32039Y-31878D01*
X32048Y-31888D01*
X32056Y-31907D01*
X32056Y-31935D01*
X32048Y-31954D01*
X32039Y-31964D01*
X32022Y-31973D01*
X31953Y-31973D01*
X32116Y-31869D02*
X32236Y-31869D01*
X32159Y-32069D01*
X33828Y-32462D02*
X33768Y-32367D01*
X33725Y-32462D02*
X33725Y-32262D01*
X33793Y-32262D01*
X33811Y-32272D01*
X33819Y-32281D01*
X33828Y-32300D01*
X33828Y-32329D01*
X33819Y-32348D01*
X33811Y-32358D01*
X33793Y-32367D01*
X33725Y-32367D01*
X33931Y-32348D02*
X33913Y-32339D01*
X33905Y-32329D01*
X33896Y-32310D01*
X33896Y-32300D01*
X33905Y-32281D01*
X33913Y-32272D01*
X33931Y-32262D01*
X33965Y-32262D01*
X33982Y-32272D01*
X33991Y-32281D01*
X33999Y-32300D01*
X33999Y-32310D01*
X33991Y-32329D01*
X33982Y-32339D01*
X33965Y-32348D01*
X33931Y-32348D01*
X33913Y-32358D01*
X33905Y-32367D01*
X33896Y-32386D01*
X33896Y-32424D01*
X33905Y-32443D01*
X33913Y-32453D01*
X33931Y-32462D01*
X33965Y-32462D01*
X33982Y-32453D01*
X33991Y-32443D01*
X33999Y-32424D01*
X33999Y-32386D01*
X33991Y-32367D01*
X33982Y-32358D01*
X33965Y-32348D01*
X30484Y-46680D02*
X30424Y-46585D01*
X30381Y-46680D02*
X30381Y-46480D01*
X30450Y-46480D01*
X30467Y-46490D01*
X30475Y-46500D01*
X30484Y-46519D01*
X30484Y-46547D01*
X30475Y-46566D01*
X30467Y-46576D01*
X30450Y-46585D01*
X30381Y-46585D01*
X30655Y-46680D02*
X30552Y-46680D01*
X30604Y-46680D02*
X30604Y-46480D01*
X30587Y-46509D01*
X30570Y-46528D01*
X30552Y-46538D01*
X30715Y-46480D02*
X30827Y-46480D01*
X30767Y-46557D01*
X30792Y-46557D01*
X30810Y-46566D01*
X30818Y-46576D01*
X30827Y-46595D01*
X30827Y-46642D01*
X30818Y-46661D01*
X30810Y-46671D01*
X30792Y-46680D01*
X30741Y-46680D01*
X30724Y-46671D01*
X30715Y-46661D01*
X32797Y-36907D02*
X32702Y-36967D01*
X32797Y-37009D02*
X32597Y-37009D01*
X32597Y-36941D01*
X32607Y-36924D01*
X32616Y-36915D01*
X32635Y-36907D01*
X32664Y-36907D01*
X32683Y-36915D01*
X32692Y-36924D01*
X32702Y-36941D01*
X32702Y-37009D01*
X32797Y-36735D02*
X32797Y-36838D01*
X32797Y-36787D02*
X32597Y-36787D01*
X32626Y-36804D01*
X32645Y-36821D01*
X32654Y-36838D01*
X32597Y-36624D02*
X32597Y-36607D01*
X32607Y-36589D01*
X32616Y-36581D01*
X32635Y-36572D01*
X32673Y-36564D01*
X32721Y-36564D01*
X32759Y-36572D01*
X32778Y-36581D01*
X32787Y-36589D01*
X32797Y-36607D01*
X32797Y-36624D01*
X32787Y-36641D01*
X32778Y-36649D01*
X32759Y-36658D01*
X32721Y-36667D01*
X32673Y-36667D01*
X32635Y-36658D01*
X32616Y-36649D01*
X32607Y-36641D01*
X32597Y-36624D01*
X37273Y-23702D02*
X37213Y-23607D01*
X37170Y-23702D02*
X37170Y-23502D01*
X37238Y-23502D01*
X37256Y-23512D01*
X37264Y-23522D01*
X37273Y-23541D01*
X37273Y-23569D01*
X37264Y-23588D01*
X37256Y-23598D01*
X37238Y-23607D01*
X37170Y-23607D01*
X37444Y-23702D02*
X37341Y-23702D01*
X37393Y-23702D02*
X37393Y-23502D01*
X37376Y-23531D01*
X37358Y-23550D01*
X37341Y-23560D01*
X37962Y-23702D02*
X37902Y-23607D01*
X37859Y-23702D02*
X37859Y-23502D01*
X37927Y-23502D01*
X37944Y-23512D01*
X37953Y-23522D01*
X37962Y-23541D01*
X37962Y-23569D01*
X37953Y-23588D01*
X37944Y-23598D01*
X37927Y-23607D01*
X37859Y-23607D01*
X38030Y-23522D02*
X38039Y-23512D01*
X38056Y-23502D01*
X38099Y-23502D01*
X38116Y-23512D01*
X38124Y-23522D01*
X38133Y-23541D01*
X38133Y-23560D01*
X38124Y-23588D01*
X38022Y-23702D01*
X38133Y-23702D01*
X39844Y-36498D02*
X39784Y-36403D01*
X39742Y-36498D02*
X39742Y-36298D01*
X39810Y-36298D01*
X39827Y-36307D01*
X39836Y-36317D01*
X39844Y-36336D01*
X39844Y-36364D01*
X39836Y-36383D01*
X39827Y-36393D01*
X39810Y-36403D01*
X39742Y-36403D01*
X40016Y-36498D02*
X39913Y-36498D01*
X39964Y-36498D02*
X39964Y-36298D01*
X39947Y-36326D01*
X39930Y-36345D01*
X39913Y-36355D01*
X40187Y-36498D02*
X40084Y-36498D01*
X40136Y-36498D02*
X40136Y-36298D01*
X40119Y-36326D01*
X40102Y-36345D01*
X40084Y-36355D01*
X35022Y-38073D02*
X34962Y-37977D01*
X34919Y-38073D02*
X34919Y-37873D01*
X34987Y-37873D01*
X35004Y-37882D01*
X35013Y-37892D01*
X35022Y-37911D01*
X35022Y-37939D01*
X35013Y-37958D01*
X35004Y-37968D01*
X34987Y-37977D01*
X34919Y-37977D01*
X35193Y-38073D02*
X35090Y-38073D01*
X35142Y-38073D02*
X35142Y-37873D01*
X35124Y-37901D01*
X35107Y-37920D01*
X35090Y-37930D01*
X35356Y-37873D02*
X35270Y-37873D01*
X35262Y-37968D01*
X35270Y-37958D01*
X35287Y-37949D01*
X35330Y-37949D01*
X35347Y-37958D01*
X35356Y-37968D01*
X35364Y-37987D01*
X35364Y-38034D01*
X35356Y-38054D01*
X35347Y-38063D01*
X35330Y-38073D01*
X35287Y-38073D01*
X35270Y-38063D01*
X35262Y-38054D01*
X30678Y-32069D02*
X30618Y-31973D01*
X30575Y-32069D02*
X30575Y-31869D01*
X30644Y-31869D01*
X30661Y-31878D01*
X30670Y-31888D01*
X30678Y-31907D01*
X30678Y-31935D01*
X30670Y-31954D01*
X30661Y-31964D01*
X30644Y-31973D01*
X30575Y-31973D01*
X30841Y-31869D02*
X30755Y-31869D01*
X30747Y-31964D01*
X30755Y-31954D01*
X30772Y-31945D01*
X30815Y-31945D01*
X30832Y-31954D01*
X30841Y-31964D01*
X30850Y-31983D01*
X30850Y-32031D01*
X30841Y-32050D01*
X30832Y-32059D01*
X30815Y-32069D01*
X30772Y-32069D01*
X30755Y-32059D01*
X30747Y-32050D01*
X28316Y-32462D02*
X28256Y-32367D01*
X28213Y-32462D02*
X28213Y-32262D01*
X28282Y-32262D01*
X28299Y-32272D01*
X28307Y-32281D01*
X28316Y-32300D01*
X28316Y-32329D01*
X28307Y-32348D01*
X28299Y-32358D01*
X28282Y-32367D01*
X28213Y-32367D01*
X28470Y-32329D02*
X28470Y-32462D01*
X28427Y-32253D02*
X28385Y-32396D01*
X28496Y-32396D01*
X39746Y-39254D02*
X39686Y-39158D01*
X39643Y-39254D02*
X39643Y-39054D01*
X39712Y-39054D01*
X39729Y-39063D01*
X39737Y-39073D01*
X39746Y-39092D01*
X39746Y-39120D01*
X39737Y-39139D01*
X39729Y-39149D01*
X39712Y-39158D01*
X39643Y-39158D01*
X39917Y-39254D02*
X39815Y-39254D01*
X39866Y-39254D02*
X39866Y-39054D01*
X39849Y-39082D01*
X39832Y-39101D01*
X39815Y-39111D01*
X39986Y-39073D02*
X39995Y-39063D01*
X40012Y-39054D01*
X40055Y-39054D01*
X40072Y-39063D01*
X40080Y-39073D01*
X40089Y-39092D01*
X40089Y-39111D01*
X40080Y-39139D01*
X39977Y-39254D01*
X40089Y-39254D01*
X36104Y-38073D02*
X36044Y-37977D01*
X36001Y-38073D02*
X36001Y-37873D01*
X36070Y-37873D01*
X36087Y-37882D01*
X36096Y-37892D01*
X36104Y-37911D01*
X36104Y-37939D01*
X36096Y-37958D01*
X36087Y-37968D01*
X36070Y-37977D01*
X36001Y-37977D01*
X36276Y-38073D02*
X36173Y-38073D01*
X36224Y-38073D02*
X36224Y-37873D01*
X36207Y-37901D01*
X36190Y-37920D01*
X36173Y-37930D01*
X36430Y-37939D02*
X36430Y-38073D01*
X36387Y-37863D02*
X36344Y-38006D01*
X36456Y-38006D01*
G54D25*
X23490Y-29686D02*
X23481Y-29696D01*
X23453Y-29705D01*
X23434Y-29705D01*
X23406Y-29696D01*
X23387Y-29677D01*
X23378Y-29658D01*
X23368Y-29621D01*
X23368Y-29593D01*
X23378Y-29555D01*
X23387Y-29536D01*
X23406Y-29518D01*
X23434Y-29508D01*
X23453Y-29508D01*
X23481Y-29518D01*
X23490Y-29527D01*
X23556Y-29508D02*
X23687Y-29508D01*
X23603Y-29705D01*
X25065Y-29686D02*
X25056Y-29696D01*
X25028Y-29705D01*
X25009Y-29705D01*
X24981Y-29696D01*
X24962Y-29677D01*
X24953Y-29658D01*
X24943Y-29621D01*
X24943Y-29593D01*
X24953Y-29555D01*
X24962Y-29536D01*
X24981Y-29518D01*
X25009Y-29508D01*
X25028Y-29508D01*
X25056Y-29518D01*
X25065Y-29527D01*
X25234Y-29508D02*
X25196Y-29508D01*
X25178Y-29518D01*
X25168Y-29527D01*
X25149Y-29555D01*
X25140Y-29593D01*
X25140Y-29668D01*
X25149Y-29686D01*
X25159Y-29696D01*
X25178Y-29705D01*
X25215Y-29705D01*
X25234Y-29696D01*
X25243Y-29686D01*
X25253Y-29668D01*
X25253Y-29621D01*
X25243Y-29602D01*
X25234Y-29593D01*
X25215Y-29583D01*
X25178Y-29583D01*
X25159Y-29593D01*
X25149Y-29602D01*
X25140Y-29621D01*
G54D13*
X43331Y-47205D02*
X43331Y-47491D01*
X43312Y-47548D01*
X43274Y-47586D01*
X43216Y-47605D01*
X43178Y-47605D01*
X43521Y-47605D02*
X43521Y-47205D01*
X43674Y-47205D01*
X43712Y-47225D01*
X43731Y-47244D01*
X43750Y-47282D01*
X43750Y-47339D01*
X43731Y-47377D01*
X43712Y-47396D01*
X43674Y-47415D01*
X43521Y-47415D01*
X44093Y-47205D02*
X44016Y-47205D01*
X43978Y-47225D01*
X43959Y-47244D01*
X43921Y-47301D01*
X43902Y-47377D01*
X43902Y-47529D01*
X43921Y-47567D01*
X43940Y-47586D01*
X43978Y-47605D01*
X44055Y-47605D01*
X44093Y-47586D01*
X44112Y-47567D01*
X44131Y-47529D01*
X44131Y-47434D01*
X44112Y-47396D01*
X44093Y-47377D01*
X44055Y-47358D01*
X43978Y-47358D01*
X43940Y-47377D01*
X43921Y-47396D01*
X43902Y-47434D01*
X42248Y-39454D02*
X42248Y-39740D01*
X42229Y-39797D01*
X42191Y-39835D01*
X42134Y-39854D01*
X42096Y-39854D01*
X42439Y-39854D02*
X42439Y-39454D01*
X42591Y-39454D01*
X42629Y-39473D01*
X42648Y-39492D01*
X42667Y-39531D01*
X42667Y-39588D01*
X42648Y-39626D01*
X42629Y-39645D01*
X42591Y-39664D01*
X42439Y-39664D01*
X43010Y-39588D02*
X43010Y-39854D01*
X42915Y-39435D02*
X42819Y-39721D01*
X43067Y-39721D01*
X32195Y-49361D02*
X32195Y-48961D01*
X32195Y-49152D02*
X32423Y-49152D01*
X32423Y-49361D02*
X32423Y-48961D01*
X32576Y-48961D02*
X32823Y-48961D01*
X32690Y-49114D01*
X32747Y-49114D01*
X32785Y-49133D01*
X32804Y-49152D01*
X32823Y-49190D01*
X32823Y-49285D01*
X32804Y-49323D01*
X32785Y-49342D01*
X32747Y-49361D01*
X32633Y-49361D01*
X32595Y-49342D01*
X32576Y-49323D01*
G54D12*
X37852Y-29565D02*
X38138Y-29565D01*
X38195Y-29584D01*
X38233Y-29622D01*
X38252Y-29679D01*
X38252Y-29717D01*
X38252Y-29375D02*
X37852Y-29375D01*
X37852Y-29222D01*
X37871Y-29184D01*
X37890Y-29165D01*
X37928Y-29146D01*
X37985Y-29146D01*
X38023Y-29165D01*
X38042Y-29184D01*
X38061Y-29222D01*
X38061Y-29375D01*
X38252Y-28765D02*
X38252Y-28994D01*
X38252Y-28879D02*
X37852Y-28879D01*
X37909Y-28917D01*
X37947Y-28956D01*
X37966Y-28994D01*
X20911Y-34467D02*
X20911Y-34681D01*
X20897Y-34724D01*
X20868Y-34752D01*
X20825Y-34767D01*
X20797Y-34767D01*
X21054Y-34767D02*
X21054Y-34467D01*
X21168Y-34467D01*
X21197Y-34481D01*
X21211Y-34495D01*
X21225Y-34524D01*
X21225Y-34567D01*
X21211Y-34595D01*
X21197Y-34609D01*
X21168Y-34624D01*
X21054Y-34624D01*
X21339Y-34495D02*
X21354Y-34481D01*
X21382Y-34467D01*
X21454Y-34467D01*
X21482Y-34481D01*
X21497Y-34495D01*
X21511Y-34524D01*
X21511Y-34552D01*
X21497Y-34595D01*
X21325Y-34767D01*
X21511Y-34767D01*
X38923Y-50866D02*
X38923Y-51080D01*
X38908Y-51123D01*
X38880Y-51152D01*
X38837Y-51166D01*
X38808Y-51166D01*
X39066Y-51166D02*
X39066Y-50866D01*
X39180Y-50866D01*
X39208Y-50880D01*
X39223Y-50895D01*
X39237Y-50923D01*
X39237Y-50966D01*
X39223Y-50995D01*
X39208Y-51009D01*
X39180Y-51023D01*
X39066Y-51023D01*
X39337Y-50866D02*
X39537Y-50866D01*
X39408Y-51166D01*
G54D13*
X23288Y-41395D02*
X23288Y-41681D01*
X23269Y-41738D01*
X23231Y-41776D01*
X23174Y-41795D01*
X23136Y-41795D01*
X23479Y-41795D02*
X23479Y-41395D01*
X23631Y-41395D01*
X23669Y-41414D01*
X23688Y-41433D01*
X23707Y-41471D01*
X23707Y-41529D01*
X23688Y-41567D01*
X23669Y-41586D01*
X23631Y-41605D01*
X23479Y-41605D01*
X24069Y-41395D02*
X23879Y-41395D01*
X23860Y-41586D01*
X23879Y-41567D01*
X23917Y-41548D01*
X24012Y-41548D01*
X24050Y-41567D01*
X24069Y-41586D01*
X24088Y-41624D01*
X24088Y-41719D01*
X24069Y-41757D01*
X24050Y-41776D01*
X24012Y-41795D01*
X23917Y-41795D01*
X23879Y-41776D01*
X23860Y-41757D01*
X23288Y-34309D02*
X23288Y-34594D01*
X23269Y-34652D01*
X23231Y-34690D01*
X23174Y-34709D01*
X23136Y-34709D01*
X23479Y-34709D02*
X23479Y-34309D01*
X23631Y-34309D01*
X23669Y-34328D01*
X23688Y-34347D01*
X23707Y-34385D01*
X23707Y-34442D01*
X23688Y-34480D01*
X23669Y-34499D01*
X23631Y-34518D01*
X23479Y-34518D01*
X23841Y-34309D02*
X24088Y-34309D01*
X23955Y-34461D01*
X24012Y-34461D01*
X24050Y-34480D01*
X24069Y-34499D01*
X24088Y-34537D01*
X24088Y-34632D01*
X24069Y-34671D01*
X24050Y-34690D01*
X24012Y-34709D01*
X23898Y-34709D01*
X23860Y-34690D01*
X23841Y-34671D01*
G54D16*
X37726Y-20395D02*
X37726Y-20195D01*
X37774Y-20195D01*
X37802Y-20205D01*
X37821Y-20224D01*
X37831Y-20243D01*
X37840Y-20281D01*
X37840Y-20310D01*
X37831Y-20348D01*
X37821Y-20367D01*
X37802Y-20386D01*
X37774Y-20395D01*
X37726Y-20395D01*
X38031Y-20395D02*
X37916Y-20395D01*
X37974Y-20395D02*
X37974Y-20195D01*
X37954Y-20224D01*
X37935Y-20243D01*
X37916Y-20253D01*
X40352Y-37693D02*
X40352Y-37493D01*
X40400Y-37493D01*
X40428Y-37503D01*
X40447Y-37522D01*
X40457Y-37541D01*
X40466Y-37579D01*
X40466Y-37607D01*
X40457Y-37645D01*
X40447Y-37664D01*
X40428Y-37684D01*
X40400Y-37693D01*
X40352Y-37693D01*
X40638Y-37493D02*
X40600Y-37493D01*
X40580Y-37503D01*
X40571Y-37512D01*
X40552Y-37541D01*
X40542Y-37579D01*
X40542Y-37655D01*
X40552Y-37674D01*
X40561Y-37684D01*
X40580Y-37693D01*
X40619Y-37693D01*
X40638Y-37684D01*
X40647Y-37674D01*
X40657Y-37655D01*
X40657Y-37607D01*
X40647Y-37588D01*
X40638Y-37579D01*
X40619Y-37569D01*
X40580Y-37569D01*
X40561Y-37579D01*
X40552Y-37588D01*
X40542Y-37607D01*
X32529Y-30120D02*
X32529Y-29920D01*
X32577Y-29920D01*
X32605Y-29929D01*
X32624Y-29948D01*
X32634Y-29967D01*
X32643Y-30006D01*
X32643Y-30034D01*
X32634Y-30072D01*
X32624Y-30091D01*
X32605Y-30110D01*
X32577Y-30120D01*
X32529Y-30120D01*
X32710Y-29920D02*
X32834Y-29920D01*
X32767Y-29996D01*
X32796Y-29996D01*
X32815Y-30006D01*
X32824Y-30015D01*
X32834Y-30034D01*
X32834Y-30082D01*
X32824Y-30101D01*
X32815Y-30110D01*
X32796Y-30120D01*
X32739Y-30120D01*
X32720Y-30110D01*
X32710Y-30101D01*
X38356Y-20395D02*
X38356Y-20195D01*
X38403Y-20195D01*
X38432Y-20205D01*
X38451Y-20224D01*
X38461Y-20243D01*
X38470Y-20281D01*
X38470Y-20310D01*
X38461Y-20348D01*
X38451Y-20367D01*
X38432Y-20386D01*
X38403Y-20395D01*
X38356Y-20395D01*
X38546Y-20214D02*
X38556Y-20205D01*
X38575Y-20195D01*
X38622Y-20195D01*
X38642Y-20205D01*
X38651Y-20214D01*
X38661Y-20234D01*
X38661Y-20253D01*
X38651Y-20281D01*
X38537Y-20395D01*
X38661Y-20395D01*
X33120Y-30514D02*
X33120Y-30314D01*
X33167Y-30314D01*
X33196Y-30323D01*
X33215Y-30342D01*
X33224Y-30361D01*
X33234Y-30399D01*
X33234Y-30428D01*
X33224Y-30466D01*
X33215Y-30485D01*
X33196Y-30504D01*
X33167Y-30514D01*
X33120Y-30514D01*
X33405Y-30380D02*
X33405Y-30514D01*
X33358Y-30304D02*
X33310Y-30447D01*
X33434Y-30447D01*
G54D15*
X34415Y-24470D02*
X34406Y-24479D01*
X34378Y-24489D01*
X34359Y-24489D01*
X34331Y-24479D01*
X34312Y-24461D01*
X34303Y-24442D01*
X34294Y-24404D01*
X34294Y-24376D01*
X34303Y-24339D01*
X34312Y-24320D01*
X34331Y-24301D01*
X34359Y-24292D01*
X34378Y-24292D01*
X34406Y-24301D01*
X34415Y-24310D01*
X34481Y-24292D02*
X34603Y-24292D01*
X34537Y-24367D01*
X34566Y-24367D01*
X34584Y-24376D01*
X34594Y-24385D01*
X34603Y-24404D01*
X34603Y-24451D01*
X34594Y-24470D01*
X34584Y-24479D01*
X34566Y-24489D01*
X34509Y-24489D01*
X34491Y-24479D01*
X34481Y-24470D01*
G54D10*
X27330Y-47710D02*
X27386Y-47729D01*
X27480Y-47729D01*
X27517Y-47710D01*
X27536Y-47691D01*
X27555Y-47654D01*
X27555Y-47616D01*
X27536Y-47579D01*
X27517Y-47560D01*
X27480Y-47541D01*
X27405Y-47523D01*
X27367Y-47504D01*
X27348Y-47485D01*
X27330Y-47448D01*
X27330Y-47410D01*
X27348Y-47373D01*
X27367Y-47354D01*
X27405Y-47335D01*
X27498Y-47335D01*
X27555Y-47354D01*
X27704Y-47373D02*
X27723Y-47354D01*
X27761Y-47335D01*
X27854Y-47335D01*
X27892Y-47354D01*
X27911Y-47373D01*
X27929Y-47410D01*
X27929Y-47448D01*
X27911Y-47504D01*
X27686Y-47729D01*
X27929Y-47729D01*
X26203Y-43969D02*
X26203Y-43575D01*
X26353Y-43575D01*
X26390Y-43594D01*
X26409Y-43613D01*
X26428Y-43650D01*
X26428Y-43706D01*
X26409Y-43744D01*
X26390Y-43763D01*
X26353Y-43781D01*
X26203Y-43781D01*
X26728Y-43763D02*
X26784Y-43781D01*
X26803Y-43800D01*
X26821Y-43838D01*
X26821Y-43894D01*
X26803Y-43931D01*
X26784Y-43950D01*
X26746Y-43969D01*
X26596Y-43969D01*
X26596Y-43575D01*
X26728Y-43575D01*
X26765Y-43594D01*
X26784Y-43613D01*
X26803Y-43650D01*
X26803Y-43688D01*
X26784Y-43725D01*
X26765Y-43744D01*
X26728Y-43763D01*
X26596Y-43763D01*
X26971Y-43950D02*
X27028Y-43969D01*
X27121Y-43969D01*
X27159Y-43950D01*
X27178Y-43931D01*
X27196Y-43894D01*
X27196Y-43856D01*
X27178Y-43819D01*
X27159Y-43800D01*
X27121Y-43781D01*
X27046Y-43763D01*
X27009Y-43744D01*
X26990Y-43725D01*
X26971Y-43688D01*
X26971Y-43650D01*
X26990Y-43613D01*
X27009Y-43594D01*
X27046Y-43575D01*
X27140Y-43575D01*
X27196Y-43594D01*
X27271Y-44006D02*
X27571Y-44006D01*
X27646Y-43950D02*
X27703Y-43969D01*
X27796Y-43969D01*
X27834Y-43950D01*
X27853Y-43931D01*
X27871Y-43894D01*
X27871Y-43856D01*
X27853Y-43819D01*
X27834Y-43800D01*
X27796Y-43781D01*
X27721Y-43763D01*
X27684Y-43744D01*
X27665Y-43725D01*
X27646Y-43688D01*
X27646Y-43650D01*
X27665Y-43613D01*
X27684Y-43594D01*
X27721Y-43575D01*
X27815Y-43575D01*
X27871Y-43594D01*
X28040Y-43969D02*
X28040Y-43575D01*
X28171Y-43856D01*
X28303Y-43575D01*
X28303Y-43969D01*
X28490Y-43969D02*
X28490Y-43575D01*
X28584Y-43575D01*
X28640Y-43594D01*
X28677Y-43631D01*
X28696Y-43669D01*
X28715Y-43744D01*
X28715Y-43800D01*
X28696Y-43875D01*
X28677Y-43913D01*
X28640Y-43950D01*
X28584Y-43969D01*
X28490Y-43969D01*
G54D24*
X26840Y-26735D02*
X26831Y-26744D01*
X26805Y-26754D01*
X26788Y-26754D01*
X26762Y-26744D01*
X26745Y-26725D01*
X26737Y-26706D01*
X26728Y-26668D01*
X26728Y-26639D01*
X26737Y-26601D01*
X26745Y-26582D01*
X26762Y-26563D01*
X26788Y-26554D01*
X26805Y-26554D01*
X26831Y-26563D01*
X26840Y-26573D01*
X26908Y-26573D02*
X26917Y-26563D01*
X26934Y-26554D01*
X26977Y-26554D01*
X26994Y-26563D01*
X27002Y-26573D01*
X27011Y-26592D01*
X27011Y-26611D01*
X27002Y-26639D01*
X26900Y-26754D01*
X27011Y-26754D01*
G54D10*
X27487Y-32536D02*
X27487Y-32686D01*
X27382Y-32371D02*
X27487Y-32536D01*
X27592Y-32371D01*
X27862Y-32686D02*
X27682Y-32686D01*
X27772Y-32686D02*
X27772Y-32371D01*
X27742Y-32416D01*
X27712Y-32446D01*
X27682Y-32461D01*
G54D13*
X37715Y-36531D02*
X37848Y-37031D01*
X37981Y-36531D01*
X38343Y-37031D02*
X38210Y-36793D01*
X38115Y-37031D02*
X38115Y-36531D01*
X38267Y-36531D01*
X38305Y-36554D01*
X38324Y-36578D01*
X38343Y-36626D01*
X38343Y-36697D01*
X38324Y-36745D01*
X38305Y-36769D01*
X38267Y-36793D01*
X38115Y-36793D01*
X38724Y-37031D02*
X38496Y-37031D01*
X38610Y-37031D02*
X38610Y-36531D01*
X38572Y-36602D01*
X38534Y-36650D01*
X38496Y-36673D01*
G54D18*
X26686Y-24677D02*
X26971Y-24677D01*
X26628Y-24849D02*
X26828Y-24249D01*
X27028Y-24849D01*
X27228Y-24849D02*
X27228Y-24249D01*
X27571Y-24849D01*
X27571Y-24249D01*
X27771Y-24249D02*
X28114Y-24249D01*
X27943Y-24849D02*
X27943Y-24249D01*
X28628Y-24849D02*
X28286Y-24849D01*
X28457Y-24849D02*
X28457Y-24249D01*
X28400Y-24334D01*
X28343Y-24392D01*
X28286Y-24420D01*
G54D12*
X27867Y-49767D02*
X27910Y-49781D01*
X27925Y-49796D01*
X27939Y-49824D01*
X27939Y-49867D01*
X27925Y-49896D01*
X27910Y-49910D01*
X27882Y-49924D01*
X27767Y-49924D01*
X27767Y-49624D01*
X27867Y-49624D01*
X27896Y-49638D01*
X27910Y-49653D01*
X27925Y-49681D01*
X27925Y-49710D01*
X27910Y-49738D01*
X27896Y-49753D01*
X27867Y-49767D01*
X27767Y-49767D01*
X28053Y-49838D02*
X28196Y-49838D01*
X28025Y-49924D02*
X28125Y-49624D01*
X28225Y-49924D01*
X28282Y-49624D02*
X28453Y-49624D01*
X28367Y-49924D02*
X28367Y-49624D01*
X28510Y-49624D02*
X28682Y-49624D01*
X28596Y-49924D02*
X28596Y-49624D01*
X28939Y-49924D02*
X28767Y-49924D01*
X28853Y-49924D02*
X28853Y-49624D01*
X28825Y-49667D01*
X28796Y-49696D01*
X28767Y-49710D01*
G54D26*
X41106Y-25746D02*
X41106Y-26031D01*
X41087Y-26089D01*
X41049Y-26127D01*
X40992Y-26146D01*
X40954Y-26146D01*
X41278Y-25784D02*
X41297Y-25765D01*
X41335Y-25746D01*
X41430Y-25746D01*
X41468Y-25765D01*
X41487Y-25784D01*
X41506Y-25822D01*
X41506Y-25860D01*
X41487Y-25917D01*
X41259Y-26146D01*
X41506Y-26146D01*
G54D10*
X35034Y-22679D02*
X35090Y-22698D01*
X35184Y-22698D01*
X35222Y-22679D01*
X35240Y-22661D01*
X35259Y-22623D01*
X35259Y-22586D01*
X35240Y-22548D01*
X35222Y-22529D01*
X35184Y-22511D01*
X35109Y-22492D01*
X35072Y-22473D01*
X35053Y-22455D01*
X35034Y-22417D01*
X35034Y-22380D01*
X35053Y-22342D01*
X35072Y-22323D01*
X35109Y-22305D01*
X35203Y-22305D01*
X35259Y-22323D01*
X35634Y-22698D02*
X35409Y-22698D01*
X35522Y-22698D02*
X35522Y-22305D01*
X35484Y-22361D01*
X35447Y-22398D01*
X35409Y-22417D01*
G54D25*
X22965Y-28416D02*
X22994Y-28428D01*
X23003Y-28439D01*
X23012Y-28461D01*
X23012Y-28495D01*
X23003Y-28517D01*
X22994Y-28529D01*
X22975Y-28540D01*
X22900Y-28540D01*
X22900Y-28304D01*
X22965Y-28304D01*
X22984Y-28315D01*
X22994Y-28326D01*
X23003Y-28349D01*
X23003Y-28371D01*
X22994Y-28394D01*
X22984Y-28405D01*
X22965Y-28416D01*
X22900Y-28416D01*
X23190Y-28540D02*
X23097Y-28540D01*
X23097Y-28304D01*
X23256Y-28540D02*
X23256Y-28304D01*
X23368Y-28540D01*
X23368Y-28304D01*
X23565Y-28540D02*
X23453Y-28540D01*
X23509Y-28540D02*
X23509Y-28304D01*
X23490Y-28338D01*
X23472Y-28360D01*
X23453Y-28371D01*
G54D27*
X44969Y-29977D02*
X44969Y-30088D01*
X44974Y-30101D01*
X44980Y-30108D01*
X44991Y-30114D01*
X45014Y-30114D01*
X45025Y-30108D01*
X45030Y-30101D01*
X45036Y-30088D01*
X45036Y-29977D01*
X45149Y-29977D02*
X45092Y-29977D01*
X45087Y-30042D01*
X45092Y-30036D01*
X45104Y-30029D01*
X45132Y-30029D01*
X45143Y-30036D01*
X45149Y-30042D01*
X45154Y-30055D01*
X45154Y-30088D01*
X45149Y-30101D01*
X45143Y-30108D01*
X45132Y-30114D01*
X45104Y-30114D01*
X45092Y-30108D01*
X45087Y-30101D01*
G54D24*
X43946Y-30336D02*
X43860Y-30336D01*
X43860Y-30136D01*
X43997Y-30155D02*
X44006Y-30146D01*
X44023Y-30136D01*
X44066Y-30136D01*
X44083Y-30146D01*
X44092Y-30155D01*
X44100Y-30174D01*
X44100Y-30194D01*
X44092Y-30222D01*
X43989Y-30336D01*
X44100Y-30336D01*
G54D23*
X44037Y-29599D02*
X44046Y-29609D01*
X44056Y-29637D01*
X44056Y-29656D01*
X44046Y-29684D01*
X44027Y-29702D01*
X44009Y-29712D01*
X43971Y-29721D01*
X43943Y-29721D01*
X43906Y-29712D01*
X43887Y-29702D01*
X43868Y-29684D01*
X43859Y-29656D01*
X43859Y-29637D01*
X43868Y-29609D01*
X43877Y-29599D01*
X44056Y-29505D02*
X44056Y-29468D01*
X44046Y-29449D01*
X44037Y-29440D01*
X44009Y-29421D01*
X43971Y-29412D01*
X43896Y-29412D01*
X43877Y-29421D01*
X43868Y-29430D01*
X43859Y-29449D01*
X43859Y-29487D01*
X43868Y-29505D01*
X43877Y-29515D01*
X43896Y-29524D01*
X43943Y-29524D01*
X43962Y-29515D01*
X43971Y-29505D01*
X43981Y-29487D01*
X43981Y-29449D01*
X43971Y-29430D01*
X43962Y-29421D01*
X43943Y-29412D01*
G54D24*
X44924Y-32340D02*
X44933Y-32348D01*
X44943Y-32374D01*
X44943Y-32391D01*
X44933Y-32417D01*
X44914Y-32434D01*
X44895Y-32442D01*
X44857Y-32451D01*
X44828Y-32451D01*
X44790Y-32442D01*
X44771Y-32434D01*
X44752Y-32417D01*
X44743Y-32391D01*
X44743Y-32374D01*
X44752Y-32348D01*
X44762Y-32340D01*
X44943Y-32168D02*
X44943Y-32271D01*
X44943Y-32220D02*
X44743Y-32220D01*
X44771Y-32237D01*
X44790Y-32254D01*
X44800Y-32271D01*
X44743Y-32005D02*
X44743Y-32091D01*
X44838Y-32100D01*
X44828Y-32091D01*
X44819Y-32074D01*
X44819Y-32031D01*
X44828Y-32014D01*
X44838Y-32005D01*
X44857Y-31997D01*
X44905Y-31997D01*
X44924Y-32005D01*
X44933Y-32014D01*
X44943Y-32031D01*
X44943Y-32074D01*
X44933Y-32091D01*
X44924Y-32100D01*
G54D16*
X32842Y-27478D02*
X32842Y-27721D01*
X32856Y-27750D01*
X32870Y-27764D01*
X32899Y-27778D01*
X32956Y-27778D01*
X32985Y-27764D01*
X32999Y-27750D01*
X33013Y-27721D01*
X33013Y-27478D01*
X33313Y-27778D02*
X33142Y-27778D01*
X33228Y-27778D02*
X33228Y-27478D01*
X33199Y-27521D01*
X33170Y-27550D01*
X33142Y-27564D01*
G54D28*
X29208Y-38906D02*
X29208Y-39161D01*
X29223Y-39191D01*
X29238Y-39206D01*
X29268Y-39221D01*
X29328Y-39221D01*
X29358Y-39206D01*
X29373Y-39191D01*
X29388Y-39161D01*
X29388Y-38906D01*
X29673Y-39011D02*
X29673Y-39221D01*
X29598Y-38891D02*
X29523Y-39116D01*
X29718Y-39116D01*
G54D25*
X25576Y-31932D02*
X25863Y-31932D01*
X25897Y-31917D01*
X25913Y-31902D01*
X25930Y-31872D01*
X25930Y-31812D01*
X25913Y-31782D01*
X25897Y-31767D01*
X25863Y-31752D01*
X25576Y-31752D01*
X25576Y-31632D02*
X25576Y-31437D01*
X25711Y-31542D01*
X25711Y-31497D01*
X25728Y-31467D01*
X25745Y-31452D01*
X25778Y-31437D01*
X25863Y-31437D01*
X25897Y-31452D01*
X25913Y-31467D01*
X25930Y-31497D01*
X25930Y-31587D01*
X25913Y-31617D01*
X25897Y-31632D01*
X22872Y-32930D02*
X22872Y-32780D01*
X22962Y-32960D02*
X22647Y-32855D01*
X22962Y-32750D01*
X22647Y-32690D02*
X22647Y-32510D01*
X22962Y-32600D02*
X22647Y-32600D01*
X22782Y-32360D02*
X22767Y-32390D01*
X22752Y-32405D01*
X22722Y-32420D01*
X22707Y-32420D01*
X22677Y-32405D01*
X22662Y-32390D01*
X22647Y-32360D01*
X22647Y-32300D01*
X22662Y-32270D01*
X22677Y-32255D01*
X22707Y-32240D01*
X22722Y-32240D01*
X22752Y-32255D01*
X22767Y-32270D01*
X22782Y-32300D01*
X22782Y-32360D01*
X22797Y-32390D01*
X22812Y-32405D01*
X22842Y-32420D01*
X22902Y-32420D01*
X22932Y-32405D01*
X22947Y-32390D01*
X22962Y-32360D01*
X22962Y-32300D01*
X22947Y-32270D01*
X22932Y-32255D01*
X22902Y-32240D01*
X22842Y-32240D01*
X22812Y-32255D01*
X22797Y-32270D01*
X22782Y-32300D01*
X22647Y-31970D02*
X22647Y-32030D01*
X22662Y-32060D01*
X22677Y-32075D01*
X22722Y-32105D01*
X22782Y-32120D01*
X22902Y-32120D01*
X22932Y-32105D01*
X22947Y-32090D01*
X22962Y-32060D01*
X22962Y-32000D01*
X22947Y-31970D01*
X22932Y-31955D01*
X22902Y-31940D01*
X22827Y-31940D01*
X22797Y-31955D01*
X22782Y-31970D01*
X22767Y-32000D01*
X22767Y-32060D01*
X22782Y-32090D01*
X22797Y-32105D01*
X22827Y-32120D01*
X22962Y-31625D02*
X22812Y-31730D01*
X22962Y-31805D02*
X22647Y-31805D01*
X22647Y-31685D01*
X22662Y-31655D01*
X22677Y-31640D01*
X22707Y-31625D01*
X22752Y-31625D01*
X22782Y-31640D01*
X22797Y-31655D01*
X22812Y-31685D01*
X22812Y-31805D01*
X22797Y-31385D02*
X22797Y-31490D01*
X22962Y-31490D02*
X22647Y-31490D01*
X22647Y-31340D01*
X22677Y-31235D02*
X22662Y-31220D01*
X22647Y-31190D01*
X22647Y-31115D01*
X22662Y-31085D01*
X22677Y-31070D01*
X22707Y-31055D01*
X22737Y-31055D01*
X22782Y-31070D01*
X22962Y-31250D01*
X22962Y-31055D01*
X22647Y-30950D02*
X22647Y-30755D01*
X22767Y-30860D01*
X22767Y-30815D01*
X22782Y-30785D01*
X22797Y-30770D01*
X22827Y-30755D01*
X22902Y-30755D01*
X22932Y-30770D01*
X22947Y-30785D01*
X22962Y-30815D01*
X22962Y-30905D01*
X22947Y-30935D01*
X22932Y-30950D01*
X22962Y-30455D02*
X22962Y-30635D01*
X22962Y-30545D02*
X22647Y-30545D01*
X22692Y-30575D01*
X22722Y-30605D01*
X22737Y-30635D01*
M02*
