G04 (created by PCBNEW (2013-07-07 BZR 4022)-stable) date Tue 23 Jul 2013 03:50:31 PM NZST*
%MOIN*%
G04 Gerber Fmt 3.4, Leading zero omitted, Abs format*
%FSLAX34Y34*%
G01*
G70*
G90*
G04 APERTURE LIST*
%ADD10C,0.00590551*%
%ADD11C,0.011811*%
%ADD12C,0.00984252*%
%ADD13C,0.03*%
G04 APERTURE END LIST*
G54D10*
G54D11*
X39988Y-20643D02*
X39538Y-20643D01*
X42154Y-20643D02*
X41704Y-20643D01*
X41929Y-20868D02*
X41929Y-20419D01*
X39448Y-21721D02*
X39763Y-21721D01*
X39561Y-21210D01*
X39943Y-21405D02*
X40303Y-21405D01*
X40776Y-21210D02*
X40506Y-21210D01*
X40641Y-21210D02*
X40641Y-21721D01*
X40596Y-21648D01*
X40551Y-21600D01*
X40506Y-21575D01*
X40956Y-21673D02*
X40978Y-21697D01*
X41023Y-21721D01*
X41136Y-21721D01*
X41181Y-21697D01*
X41203Y-21673D01*
X41226Y-21624D01*
X41226Y-21575D01*
X41203Y-21502D01*
X40933Y-21210D01*
X41226Y-21210D01*
X41361Y-21721D02*
X41518Y-21210D01*
X41676Y-21721D01*
X41833Y-21210D02*
X41833Y-21721D01*
X41946Y-21721D01*
X42013Y-21697D01*
X42058Y-21648D01*
X42080Y-21600D01*
X42103Y-21502D01*
X42103Y-21429D01*
X42080Y-21332D01*
X42058Y-21283D01*
X42013Y-21234D01*
X41946Y-21210D01*
X41833Y-21210D01*
X42575Y-21258D02*
X42553Y-21234D01*
X42485Y-21210D01*
X42440Y-21210D01*
X42373Y-21234D01*
X42328Y-21283D01*
X42305Y-21332D01*
X42283Y-21429D01*
X42283Y-21502D01*
X42305Y-21600D01*
X42328Y-21648D01*
X42373Y-21697D01*
X42440Y-21721D01*
X42485Y-21721D01*
X42553Y-21697D01*
X42575Y-21673D01*
G54D12*
X43801Y-45779D02*
X44234Y-45779D01*
X43966Y-45742D02*
X43801Y-45629D01*
X44089Y-45629D02*
X43924Y-45779D01*
X43801Y-45461D02*
X44089Y-45461D01*
X44234Y-45461D02*
X44213Y-45479D01*
X44192Y-45461D01*
X44213Y-45442D01*
X44234Y-45461D01*
X44192Y-45461D01*
X43821Y-45104D02*
X43801Y-45142D01*
X43801Y-45217D01*
X43821Y-45254D01*
X43842Y-45273D01*
X43883Y-45292D01*
X44007Y-45292D01*
X44048Y-45273D01*
X44069Y-45254D01*
X44089Y-45217D01*
X44089Y-45142D01*
X44069Y-45104D01*
X43801Y-44767D02*
X44027Y-44767D01*
X44069Y-44786D01*
X44089Y-44823D01*
X44089Y-44898D01*
X44069Y-44936D01*
X43821Y-44767D02*
X43801Y-44805D01*
X43801Y-44898D01*
X43821Y-44936D01*
X43862Y-44955D01*
X43904Y-44955D01*
X43945Y-44936D01*
X43966Y-44898D01*
X43966Y-44805D01*
X43986Y-44767D01*
X43801Y-44411D02*
X44234Y-44411D01*
X43821Y-44411D02*
X43801Y-44448D01*
X43801Y-44523D01*
X43821Y-44561D01*
X43842Y-44580D01*
X43883Y-44598D01*
X44007Y-44598D01*
X44048Y-44580D01*
X44069Y-44561D01*
X44089Y-44523D01*
X44089Y-44448D01*
X44069Y-44411D01*
X43966Y-44223D02*
X43966Y-43923D01*
X44089Y-43792D02*
X44089Y-43642D01*
X43801Y-43736D02*
X44172Y-43736D01*
X44213Y-43717D01*
X44234Y-43680D01*
X44234Y-43642D01*
X43801Y-43511D02*
X44089Y-43511D01*
X44007Y-43511D02*
X44048Y-43492D01*
X44069Y-43473D01*
X44089Y-43436D01*
X44089Y-43398D01*
X43821Y-43117D02*
X43801Y-43155D01*
X43801Y-43230D01*
X43821Y-43267D01*
X43862Y-43286D01*
X44027Y-43286D01*
X44069Y-43267D01*
X44089Y-43230D01*
X44089Y-43155D01*
X44069Y-43117D01*
X44027Y-43098D01*
X43986Y-43098D01*
X43945Y-43286D01*
X43801Y-42761D02*
X44027Y-42761D01*
X44069Y-42780D01*
X44089Y-42817D01*
X44089Y-42892D01*
X44069Y-42930D01*
X43821Y-42761D02*
X43801Y-42799D01*
X43801Y-42892D01*
X43821Y-42930D01*
X43862Y-42949D01*
X43904Y-42949D01*
X43945Y-42930D01*
X43966Y-42892D01*
X43966Y-42799D01*
X43986Y-42761D01*
X43801Y-42574D02*
X44234Y-42574D01*
X43966Y-42536D02*
X43801Y-42424D01*
X44089Y-42424D02*
X43924Y-42574D01*
X43801Y-42086D02*
X44234Y-42086D01*
X43821Y-42086D02*
X43801Y-42124D01*
X43801Y-42199D01*
X43821Y-42236D01*
X43842Y-42255D01*
X43883Y-42274D01*
X44007Y-42274D01*
X44048Y-42255D01*
X44069Y-42236D01*
X44089Y-42199D01*
X44089Y-42124D01*
X44069Y-42086D01*
X44089Y-41730D02*
X43801Y-41730D01*
X44089Y-41899D02*
X43862Y-41899D01*
X43821Y-41880D01*
X43801Y-41842D01*
X43801Y-41786D01*
X43821Y-41749D01*
X43842Y-41730D01*
X43801Y-41542D02*
X44089Y-41542D01*
X44234Y-41542D02*
X44213Y-41561D01*
X44192Y-41542D01*
X44213Y-41524D01*
X44234Y-41542D01*
X44192Y-41542D01*
X44089Y-41355D02*
X43801Y-41355D01*
X44048Y-41355D02*
X44069Y-41336D01*
X44089Y-41299D01*
X44089Y-41242D01*
X44069Y-41205D01*
X44027Y-41186D01*
X43801Y-41186D01*
X43801Y-40943D02*
X43821Y-40980D01*
X43842Y-40999D01*
X43883Y-41017D01*
X44007Y-41017D01*
X44048Y-40999D01*
X44069Y-40980D01*
X44089Y-40943D01*
X44089Y-40886D01*
X44069Y-40849D01*
X44048Y-40830D01*
X44007Y-40811D01*
X43883Y-40811D01*
X43842Y-40830D01*
X43821Y-40849D01*
X43801Y-40886D01*
X43801Y-40943D01*
X43842Y-40643D02*
X43821Y-40624D01*
X43801Y-40643D01*
X43821Y-40661D01*
X43842Y-40643D01*
X43801Y-40643D01*
X44089Y-40286D02*
X43739Y-40286D01*
X43697Y-40305D01*
X43677Y-40324D01*
X43656Y-40361D01*
X43656Y-40418D01*
X43677Y-40455D01*
X43821Y-40286D02*
X43801Y-40324D01*
X43801Y-40399D01*
X43821Y-40436D01*
X43842Y-40455D01*
X43883Y-40474D01*
X44007Y-40474D01*
X44048Y-40455D01*
X44069Y-40436D01*
X44089Y-40399D01*
X44089Y-40324D01*
X44069Y-40286D01*
X43801Y-40043D02*
X43821Y-40080D01*
X43842Y-40099D01*
X43883Y-40118D01*
X44007Y-40118D01*
X44048Y-40099D01*
X44069Y-40080D01*
X44089Y-40043D01*
X44089Y-39986D01*
X44069Y-39949D01*
X44048Y-39930D01*
X44007Y-39911D01*
X43883Y-39911D01*
X43842Y-39930D01*
X43821Y-39949D01*
X43801Y-39986D01*
X43801Y-40043D01*
X43801Y-39686D02*
X43821Y-39724D01*
X43842Y-39743D01*
X43883Y-39761D01*
X44007Y-39761D01*
X44048Y-39743D01*
X44069Y-39724D01*
X44089Y-39686D01*
X44089Y-39630D01*
X44069Y-39593D01*
X44048Y-39574D01*
X44007Y-39555D01*
X43883Y-39555D01*
X43842Y-39574D01*
X43821Y-39593D01*
X43801Y-39630D01*
X43801Y-39686D01*
X44089Y-39218D02*
X43739Y-39218D01*
X43697Y-39236D01*
X43677Y-39255D01*
X43656Y-39293D01*
X43656Y-39349D01*
X43677Y-39386D01*
X43821Y-39218D02*
X43801Y-39255D01*
X43801Y-39330D01*
X43821Y-39368D01*
X43842Y-39386D01*
X43883Y-39405D01*
X44007Y-39405D01*
X44048Y-39386D01*
X44069Y-39368D01*
X44089Y-39330D01*
X44089Y-39255D01*
X44069Y-39218D01*
X43801Y-38974D02*
X43821Y-39011D01*
X43862Y-39030D01*
X44234Y-39030D01*
X43821Y-38674D02*
X43801Y-38712D01*
X43801Y-38787D01*
X43821Y-38824D01*
X43862Y-38843D01*
X44027Y-38843D01*
X44069Y-38824D01*
X44089Y-38787D01*
X44089Y-38712D01*
X44069Y-38674D01*
X44027Y-38655D01*
X43986Y-38655D01*
X43945Y-38843D01*
X43821Y-38318D02*
X43801Y-38355D01*
X43801Y-38430D01*
X43821Y-38468D01*
X43842Y-38487D01*
X43883Y-38505D01*
X44007Y-38505D01*
X44048Y-38487D01*
X44069Y-38468D01*
X44089Y-38430D01*
X44089Y-38355D01*
X44069Y-38318D01*
X43801Y-38093D02*
X43821Y-38130D01*
X43842Y-38149D01*
X43883Y-38168D01*
X44007Y-38168D01*
X44048Y-38149D01*
X44069Y-38130D01*
X44089Y-38093D01*
X44089Y-38037D01*
X44069Y-37999D01*
X44048Y-37980D01*
X44007Y-37962D01*
X43883Y-37962D01*
X43842Y-37980D01*
X43821Y-37999D01*
X43801Y-38037D01*
X43801Y-38093D01*
X43801Y-37624D02*
X44234Y-37624D01*
X43821Y-37624D02*
X43801Y-37662D01*
X43801Y-37737D01*
X43821Y-37774D01*
X43842Y-37793D01*
X43883Y-37812D01*
X44007Y-37812D01*
X44048Y-37793D01*
X44069Y-37774D01*
X44089Y-37737D01*
X44089Y-37662D01*
X44069Y-37624D01*
X43821Y-37287D02*
X43801Y-37324D01*
X43801Y-37399D01*
X43821Y-37437D01*
X43862Y-37455D01*
X44027Y-37455D01*
X44069Y-37437D01*
X44089Y-37399D01*
X44089Y-37324D01*
X44069Y-37287D01*
X44027Y-37268D01*
X43986Y-37268D01*
X43945Y-37455D01*
X43842Y-37099D02*
X43821Y-37080D01*
X43801Y-37099D01*
X43821Y-37118D01*
X43842Y-37099D01*
X43801Y-37099D01*
X43821Y-36743D02*
X43801Y-36781D01*
X43801Y-36856D01*
X43821Y-36893D01*
X43842Y-36912D01*
X43883Y-36931D01*
X44007Y-36931D01*
X44048Y-36912D01*
X44069Y-36893D01*
X44089Y-36856D01*
X44089Y-36781D01*
X44069Y-36743D01*
X43801Y-36518D02*
X43821Y-36556D01*
X43842Y-36574D01*
X43883Y-36593D01*
X44007Y-36593D01*
X44048Y-36574D01*
X44069Y-36556D01*
X44089Y-36518D01*
X44089Y-36462D01*
X44069Y-36424D01*
X44048Y-36406D01*
X44007Y-36387D01*
X43883Y-36387D01*
X43842Y-36406D01*
X43821Y-36424D01*
X43801Y-36462D01*
X43801Y-36518D01*
X43801Y-36218D02*
X44089Y-36218D01*
X44048Y-36218D02*
X44069Y-36199D01*
X44089Y-36162D01*
X44089Y-36106D01*
X44069Y-36068D01*
X44027Y-36049D01*
X43801Y-36049D01*
X44027Y-36049D02*
X44069Y-36031D01*
X44089Y-35993D01*
X44089Y-35937D01*
X44069Y-35899D01*
X44027Y-35881D01*
X43801Y-35881D01*
X43636Y-35281D02*
X43656Y-35299D01*
X43718Y-35337D01*
X43759Y-35356D01*
X43821Y-35374D01*
X43924Y-35393D01*
X44007Y-35393D01*
X44110Y-35374D01*
X44172Y-35356D01*
X44213Y-35337D01*
X44275Y-35299D01*
X44296Y-35281D01*
X43801Y-35131D02*
X44089Y-35131D01*
X44007Y-35131D02*
X44048Y-35112D01*
X44069Y-35093D01*
X44089Y-35056D01*
X44089Y-35018D01*
X43801Y-34868D02*
X43801Y-34793D01*
X43821Y-34756D01*
X43842Y-34737D01*
X43904Y-34700D01*
X43986Y-34681D01*
X44151Y-34681D01*
X44192Y-34700D01*
X44213Y-34718D01*
X44234Y-34756D01*
X44234Y-34831D01*
X44213Y-34868D01*
X44192Y-34887D01*
X44151Y-34906D01*
X44048Y-34906D01*
X44007Y-34887D01*
X43986Y-34868D01*
X43966Y-34831D01*
X43966Y-34756D01*
X43986Y-34718D01*
X44007Y-34700D01*
X44048Y-34681D01*
X44234Y-34550D02*
X44234Y-34287D01*
X43801Y-34456D01*
X43636Y-34175D02*
X43656Y-34156D01*
X43718Y-34118D01*
X43759Y-34100D01*
X43821Y-34081D01*
X43924Y-34062D01*
X44007Y-34062D01*
X44110Y-34081D01*
X44172Y-34100D01*
X44213Y-34118D01*
X44275Y-34156D01*
X44296Y-34175D01*
G54D10*
X28155Y-36818D02*
X28155Y-36418D01*
X28155Y-36418D02*
X27155Y-36418D01*
X27155Y-36418D02*
X27155Y-36818D01*
X28555Y-42418D02*
X28555Y-36818D01*
X28555Y-36818D02*
X26755Y-36818D01*
X26755Y-36818D02*
X26755Y-42418D01*
X26755Y-42418D02*
X28555Y-42418D01*
X33955Y-42418D02*
X33955Y-42818D01*
X33955Y-42818D02*
X32955Y-42818D01*
X32955Y-42818D02*
X32955Y-42418D01*
X34355Y-36818D02*
X34355Y-42418D01*
X34355Y-42418D02*
X32555Y-42418D01*
X32555Y-42418D02*
X32555Y-36818D01*
X32555Y-36818D02*
X34355Y-36818D01*
X36955Y-27918D02*
X24155Y-27918D01*
X24155Y-27918D02*
X24155Y-51318D01*
X24155Y-51318D02*
X36955Y-51318D01*
X36955Y-51318D02*
X36955Y-27918D01*
X40590Y-20629D02*
X40255Y-20629D01*
X41043Y-20629D02*
X41437Y-20629D01*
X41043Y-20629D02*
G75*
G03X41043Y-20629I-98J0D01*
G74*
G01*
X41134Y-20929D02*
G75*
G02X41141Y-20334I-189J299D01*
G74*
G01*
X29658Y-38890D02*
X29676Y-38946D01*
X29695Y-38965D01*
X29733Y-38983D01*
X29789Y-38983D01*
X29826Y-38965D01*
X29845Y-38946D01*
X29864Y-38908D01*
X29864Y-38758D01*
X29470Y-38758D01*
X29470Y-38890D01*
X29489Y-38927D01*
X29508Y-38946D01*
X29545Y-38965D01*
X29583Y-38965D01*
X29620Y-38946D01*
X29639Y-38927D01*
X29658Y-38890D01*
X29658Y-38758D01*
X29751Y-39133D02*
X29751Y-39321D01*
X29864Y-39096D02*
X29470Y-39227D01*
X29864Y-39358D01*
X29470Y-39433D02*
X29470Y-39658D01*
X29864Y-39546D02*
X29470Y-39546D01*
X29470Y-39733D02*
X29470Y-39958D01*
X29864Y-39846D02*
X29470Y-39846D01*
X29508Y-40071D02*
X29489Y-40089D01*
X29470Y-40127D01*
X29470Y-40221D01*
X29489Y-40258D01*
X29508Y-40277D01*
X29545Y-40296D01*
X29583Y-40296D01*
X29639Y-40277D01*
X29864Y-40052D01*
X29864Y-40296D01*
X31658Y-38099D02*
X31676Y-38155D01*
X31695Y-38174D01*
X31733Y-38193D01*
X31789Y-38193D01*
X31826Y-38174D01*
X31845Y-38155D01*
X31864Y-38118D01*
X31864Y-37968D01*
X31470Y-37968D01*
X31470Y-38099D01*
X31489Y-38137D01*
X31508Y-38155D01*
X31545Y-38174D01*
X31583Y-38174D01*
X31620Y-38155D01*
X31639Y-38137D01*
X31658Y-38099D01*
X31658Y-37968D01*
X31864Y-38361D02*
X31470Y-38361D01*
X31658Y-38361D02*
X31658Y-38586D01*
X31864Y-38586D02*
X31470Y-38586D01*
X31470Y-38736D02*
X31470Y-38980D01*
X31620Y-38849D01*
X31620Y-38905D01*
X31639Y-38943D01*
X31658Y-38961D01*
X31695Y-38980D01*
X31789Y-38980D01*
X31826Y-38961D01*
X31845Y-38943D01*
X31864Y-38905D01*
X31864Y-38793D01*
X31845Y-38755D01*
X31826Y-38736D01*
X31508Y-39130D02*
X31489Y-39149D01*
X31470Y-39186D01*
X31470Y-39280D01*
X31489Y-39318D01*
X31508Y-39336D01*
X31545Y-39355D01*
X31583Y-39355D01*
X31639Y-39336D01*
X31864Y-39111D01*
X31864Y-39355D01*
X31864Y-39730D02*
X31864Y-39505D01*
X31864Y-39618D02*
X31470Y-39618D01*
X31527Y-39580D01*
X31564Y-39543D01*
X31583Y-39505D01*
X31714Y-39899D02*
X31714Y-40199D01*
X31864Y-40592D02*
X31864Y-40367D01*
X31864Y-40480D02*
X31470Y-40480D01*
X31527Y-40442D01*
X31564Y-40405D01*
X31583Y-40367D01*
X31864Y-40761D02*
X31470Y-40761D01*
X31470Y-40911D01*
X31489Y-40949D01*
X31508Y-40967D01*
X31545Y-40986D01*
X31602Y-40986D01*
X31639Y-40967D01*
X31658Y-40949D01*
X31676Y-40911D01*
X31676Y-40761D01*
G54D13*
X33402Y-34256D02*
X33402Y-35780D01*
X27802Y-43456D02*
X27802Y-44980D01*
X27802Y-34256D02*
X27802Y-35780D01*
X28564Y-35018D02*
X27040Y-35018D01*
X33402Y-43456D02*
X33402Y-44980D01*
X34164Y-44218D02*
X32640Y-44218D01*
M02*
