G04 (created by PCBNEW (2013-07-24 BZR 4024)-stable) date Mon 03 Mar 2014 03:49:26 PM NZDT*
%MOIN*%
G04 Gerber Fmt 3.4, Leading zero omitted, Abs format*
%FSLAX34Y34*%
G01*
G70*
G90*
G04 APERTURE LIST*
%ADD10C,0.00590551*%
%ADD11C,0.1*%
%ADD12R,0.0629921X0.0629921*%
%ADD13R,0.055X0.055*%
%ADD14C,0.055*%
%ADD15C,0.0334646*%
%ADD16C,0.0255906*%
%ADD17C,0.00984252*%
%ADD18C,0.0137795*%
%ADD19C,0.00787402*%
%ADD20C,0.01*%
G04 APERTURE END LIST*
G54D10*
G54D11*
X25100Y-24500D03*
X26100Y-23500D03*
X24100Y-23500D03*
X24100Y-25500D03*
X26100Y-25500D03*
G54D12*
X24625Y-31377D03*
X24625Y-32007D03*
X23996Y-31377D03*
X23996Y-32007D03*
G54D13*
X30000Y-34100D03*
G54D14*
X30000Y-33100D03*
X30000Y-32100D03*
X30000Y-31100D03*
G54D13*
X30000Y-29100D03*
G54D14*
X30000Y-30100D03*
G54D13*
X30000Y-37100D03*
G54D14*
X30000Y-36100D03*
X30000Y-35100D03*
G54D15*
X25200Y-34700D03*
X23100Y-34700D03*
G54D16*
X25100Y-33500D03*
X24094Y-33307D03*
X24488Y-33385D03*
X23400Y-33900D03*
X24803Y-33110D03*
X23346Y-30708D03*
X23700Y-33307D03*
X22600Y-30200D03*
G54D15*
X22900Y-28000D03*
X22900Y-27000D03*
X22900Y-26000D03*
X22900Y-25000D03*
X22900Y-24000D03*
X22900Y-23100D03*
X22900Y-29000D03*
X30600Y-31600D03*
X30600Y-34700D03*
X30600Y-37700D03*
X27600Y-37700D03*
X24600Y-37700D03*
X21600Y-37700D03*
X21600Y-35500D03*
X21500Y-30400D03*
X21500Y-29000D03*
X21500Y-28000D03*
X21500Y-27000D03*
X21500Y-26000D03*
X21500Y-25000D03*
X21500Y-24000D03*
X28000Y-30700D03*
X28000Y-32500D03*
X27200Y-24000D03*
X27200Y-23100D03*
X27900Y-23200D03*
X28800Y-24100D03*
X27200Y-29000D03*
X27200Y-28000D03*
X27200Y-27000D03*
X27200Y-26000D03*
X27200Y-25000D03*
X28800Y-25000D03*
X28800Y-26000D03*
X28800Y-27000D03*
X28800Y-28000D03*
X28000Y-29000D03*
X27200Y-32900D03*
X30600Y-28300D03*
X25157Y-33937D03*
X23110Y-33149D03*
X22496Y-34224D03*
X24842Y-28346D03*
G54D17*
X23100Y-34700D02*
X23100Y-35400D01*
X28900Y-35100D02*
X30000Y-35100D01*
X27500Y-36500D02*
X28900Y-35100D01*
X24200Y-36500D02*
X27500Y-36500D01*
X23100Y-35400D02*
X24200Y-36500D01*
X25200Y-34700D02*
X25200Y-34700D01*
X25300Y-33500D02*
X25100Y-33500D01*
X25500Y-33700D02*
X25300Y-33500D01*
X25500Y-34400D02*
X25500Y-33700D01*
X25200Y-34700D02*
X25500Y-34400D01*
X24094Y-33307D02*
X24094Y-34894D01*
X30100Y-32100D02*
X30000Y-32100D01*
X28100Y-34100D02*
X30100Y-32100D01*
X28100Y-34100D02*
X28100Y-34100D01*
X26600Y-35600D02*
X28100Y-34100D01*
X24800Y-35600D02*
X26600Y-35600D01*
X24094Y-34894D02*
X24800Y-35600D01*
X24488Y-33385D02*
X24488Y-34788D01*
X30000Y-31100D02*
X30000Y-31100D01*
X27800Y-33300D02*
X30000Y-31100D01*
X27800Y-33800D02*
X27800Y-33300D01*
X26300Y-35300D02*
X27800Y-33800D01*
X25000Y-35300D02*
X26300Y-35300D01*
X24488Y-34788D02*
X25000Y-35300D01*
X23400Y-33900D02*
X23400Y-35200D01*
X29300Y-34100D02*
X30000Y-34100D01*
X27200Y-36200D02*
X29300Y-34100D01*
X24400Y-36200D02*
X27200Y-36200D01*
X23400Y-35200D02*
X24400Y-36200D01*
X22100Y-31400D02*
X22100Y-35000D01*
X22791Y-30708D02*
X22100Y-31400D01*
X23346Y-30708D02*
X22791Y-30708D01*
X28600Y-36100D02*
X30000Y-36100D01*
X27900Y-36800D02*
X28600Y-36100D01*
X23900Y-36800D02*
X27900Y-36800D01*
X22100Y-35000D02*
X23900Y-36800D01*
X23700Y-33307D02*
X23700Y-35000D01*
X29700Y-33100D02*
X30000Y-33100D01*
X26900Y-35900D02*
X29700Y-33100D01*
X24600Y-35900D02*
X26900Y-35900D01*
X23700Y-35000D02*
X24600Y-35900D01*
X23700Y-37100D02*
X30000Y-37100D01*
X21800Y-35200D02*
X23700Y-37100D01*
X21800Y-31000D02*
X21800Y-35200D01*
X22600Y-30200D02*
X21800Y-31000D01*
X22900Y-28000D02*
X22900Y-29000D01*
X22900Y-26000D02*
X22900Y-27000D01*
X22900Y-24000D02*
X22900Y-25000D01*
X21500Y-24000D02*
X22400Y-23100D01*
X30600Y-34700D02*
X30600Y-37700D01*
X27600Y-37700D02*
X24600Y-37700D01*
X21600Y-37700D02*
X21600Y-35500D01*
X21500Y-30400D02*
X21500Y-29000D01*
X21500Y-28000D02*
X21500Y-27000D01*
X21500Y-26000D02*
X21500Y-25000D01*
X30600Y-30100D02*
X30600Y-31600D01*
X22400Y-23100D02*
X22900Y-23100D01*
X28000Y-30700D02*
X28000Y-32500D01*
X28000Y-30700D02*
X28700Y-30100D01*
G54D18*
X27200Y-23100D02*
X27200Y-24000D01*
X28800Y-24100D02*
X27900Y-23200D01*
X27200Y-30100D02*
X27200Y-29000D01*
X27200Y-28000D02*
X27200Y-27000D01*
X27200Y-26000D02*
X27200Y-25000D01*
X28800Y-25000D02*
X28800Y-26000D01*
X28800Y-27000D02*
X28800Y-28000D01*
X28000Y-29000D02*
X28000Y-30700D01*
X27200Y-32900D02*
X27200Y-30100D01*
G54D17*
X28700Y-30100D02*
X30000Y-30100D01*
X22900Y-23200D02*
X22900Y-23100D01*
X30000Y-30100D02*
X30600Y-30100D01*
X30600Y-30100D02*
X30600Y-28300D01*
G54D19*
X22496Y-34224D02*
X22822Y-34224D01*
X23110Y-33937D02*
X23110Y-33149D01*
X22822Y-34224D02*
X23110Y-33937D01*
G54D18*
X24100Y-25500D02*
X24100Y-23500D01*
G54D10*
G36*
X26750Y-32550D02*
X26559Y-32550D01*
X26559Y-26030D01*
X26100Y-25570D01*
X25640Y-26030D01*
X25691Y-26146D01*
X25970Y-26253D01*
X26268Y-26245D01*
X26508Y-26146D01*
X26559Y-26030D01*
X26559Y-32550D01*
X25220Y-32550D01*
X25143Y-32473D01*
X25153Y-32464D01*
X25190Y-32372D01*
X25190Y-31742D01*
X25190Y-31692D01*
X25190Y-31643D01*
X25190Y-31013D01*
X25153Y-30921D01*
X25082Y-30851D01*
X24990Y-30813D01*
X24891Y-30812D01*
X24738Y-30812D01*
X24675Y-30875D01*
X24675Y-31327D01*
X25128Y-31327D01*
X25190Y-31265D01*
X25190Y-31013D01*
X25190Y-31643D01*
X25190Y-31643D01*
X25190Y-31490D01*
X25128Y-31427D01*
X24675Y-31427D01*
X24675Y-31505D01*
X24675Y-31880D01*
X24675Y-31957D01*
X25128Y-31957D01*
X25190Y-31895D01*
X25190Y-31742D01*
X25190Y-31742D01*
X25190Y-32372D01*
X25190Y-32120D01*
X25128Y-32057D01*
X24728Y-32057D01*
X24575Y-31905D01*
X24575Y-31880D01*
X24575Y-31505D01*
X24575Y-31427D01*
X24575Y-31327D01*
X24575Y-30875D01*
X24559Y-30859D01*
X24559Y-26030D01*
X24100Y-25570D01*
X23640Y-26030D01*
X23691Y-26146D01*
X23970Y-26253D01*
X24268Y-26245D01*
X24508Y-26146D01*
X24559Y-26030D01*
X24559Y-30859D01*
X24513Y-30812D01*
X24360Y-30812D01*
X24311Y-30812D01*
X24261Y-30812D01*
X24108Y-30812D01*
X24046Y-30875D01*
X24046Y-31327D01*
X24123Y-31327D01*
X24498Y-31327D01*
X24575Y-31327D01*
X24575Y-31427D01*
X24498Y-31427D01*
X24123Y-31427D01*
X24098Y-31427D01*
X23946Y-31275D01*
X23946Y-30875D01*
X23883Y-30812D01*
X23730Y-30812D01*
X23712Y-30812D01*
X23724Y-30784D01*
X23724Y-30633D01*
X23667Y-30494D01*
X23560Y-30388D01*
X23421Y-30330D01*
X23350Y-30330D01*
X23350Y-25509D01*
X23354Y-25668D01*
X23453Y-25908D01*
X23569Y-25959D01*
X24029Y-25500D01*
X23569Y-25040D01*
X23453Y-25091D01*
X23350Y-25360D01*
X23350Y-23509D01*
X23354Y-23668D01*
X23453Y-23908D01*
X23569Y-23959D01*
X24029Y-23500D01*
X23569Y-23040D01*
X23453Y-23091D01*
X23350Y-23360D01*
X23350Y-22889D01*
X23675Y-22889D01*
X23640Y-22969D01*
X24100Y-23429D01*
X24559Y-22969D01*
X24524Y-22889D01*
X25675Y-22889D01*
X25640Y-22969D01*
X26100Y-23429D01*
X26559Y-22969D01*
X26524Y-22889D01*
X26750Y-22889D01*
X26750Y-23099D01*
X26746Y-23091D01*
X26630Y-23040D01*
X26170Y-23500D01*
X26630Y-23959D01*
X26746Y-23908D01*
X26750Y-23899D01*
X26750Y-25099D01*
X26746Y-25091D01*
X26630Y-25040D01*
X26559Y-25110D01*
X26559Y-24969D01*
X26508Y-24853D01*
X26229Y-24746D01*
X25931Y-24754D01*
X25780Y-24816D01*
X25849Y-24649D01*
X25850Y-24351D01*
X25779Y-24180D01*
X25970Y-24253D01*
X26268Y-24245D01*
X26508Y-24146D01*
X26559Y-24030D01*
X26100Y-23570D01*
X26094Y-23576D01*
X26023Y-23505D01*
X26029Y-23500D01*
X25569Y-23040D01*
X25453Y-23091D01*
X25346Y-23370D01*
X25354Y-23668D01*
X25416Y-23819D01*
X25249Y-23750D01*
X24951Y-23749D01*
X24780Y-23820D01*
X24853Y-23629D01*
X24845Y-23331D01*
X24746Y-23091D01*
X24630Y-23040D01*
X24170Y-23500D01*
X24176Y-23505D01*
X24105Y-23576D01*
X24100Y-23570D01*
X23640Y-24030D01*
X23691Y-24146D01*
X23970Y-24253D01*
X24268Y-24245D01*
X24419Y-24183D01*
X24350Y-24350D01*
X24349Y-24648D01*
X24420Y-24819D01*
X24229Y-24746D01*
X23931Y-24754D01*
X23691Y-24853D01*
X23640Y-24969D01*
X24100Y-25429D01*
X24105Y-25423D01*
X24176Y-25494D01*
X24170Y-25500D01*
X24630Y-25959D01*
X24746Y-25908D01*
X24853Y-25629D01*
X24845Y-25331D01*
X24783Y-25180D01*
X24950Y-25249D01*
X25248Y-25250D01*
X25419Y-25179D01*
X25346Y-25370D01*
X25354Y-25668D01*
X25453Y-25908D01*
X25569Y-25959D01*
X26029Y-25500D01*
X26023Y-25494D01*
X26094Y-25423D01*
X26100Y-25429D01*
X26559Y-24969D01*
X26559Y-25110D01*
X26170Y-25500D01*
X26630Y-25959D01*
X26746Y-25908D01*
X26750Y-25899D01*
X26750Y-32550D01*
X26750Y-32550D01*
G37*
G54D20*
X26750Y-32550D02*
X26559Y-32550D01*
X26559Y-26030D01*
X26100Y-25570D01*
X25640Y-26030D01*
X25691Y-26146D01*
X25970Y-26253D01*
X26268Y-26245D01*
X26508Y-26146D01*
X26559Y-26030D01*
X26559Y-32550D01*
X25220Y-32550D01*
X25143Y-32473D01*
X25153Y-32464D01*
X25190Y-32372D01*
X25190Y-31742D01*
X25190Y-31692D01*
X25190Y-31643D01*
X25190Y-31013D01*
X25153Y-30921D01*
X25082Y-30851D01*
X24990Y-30813D01*
X24891Y-30812D01*
X24738Y-30812D01*
X24675Y-30875D01*
X24675Y-31327D01*
X25128Y-31327D01*
X25190Y-31265D01*
X25190Y-31013D01*
X25190Y-31643D01*
X25190Y-31643D01*
X25190Y-31490D01*
X25128Y-31427D01*
X24675Y-31427D01*
X24675Y-31505D01*
X24675Y-31880D01*
X24675Y-31957D01*
X25128Y-31957D01*
X25190Y-31895D01*
X25190Y-31742D01*
X25190Y-31742D01*
X25190Y-32372D01*
X25190Y-32120D01*
X25128Y-32057D01*
X24728Y-32057D01*
X24575Y-31905D01*
X24575Y-31880D01*
X24575Y-31505D01*
X24575Y-31427D01*
X24575Y-31327D01*
X24575Y-30875D01*
X24559Y-30859D01*
X24559Y-26030D01*
X24100Y-25570D01*
X23640Y-26030D01*
X23691Y-26146D01*
X23970Y-26253D01*
X24268Y-26245D01*
X24508Y-26146D01*
X24559Y-26030D01*
X24559Y-30859D01*
X24513Y-30812D01*
X24360Y-30812D01*
X24311Y-30812D01*
X24261Y-30812D01*
X24108Y-30812D01*
X24046Y-30875D01*
X24046Y-31327D01*
X24123Y-31327D01*
X24498Y-31327D01*
X24575Y-31327D01*
X24575Y-31427D01*
X24498Y-31427D01*
X24123Y-31427D01*
X24098Y-31427D01*
X23946Y-31275D01*
X23946Y-30875D01*
X23883Y-30812D01*
X23730Y-30812D01*
X23712Y-30812D01*
X23724Y-30784D01*
X23724Y-30633D01*
X23667Y-30494D01*
X23560Y-30388D01*
X23421Y-30330D01*
X23350Y-30330D01*
X23350Y-25509D01*
X23354Y-25668D01*
X23453Y-25908D01*
X23569Y-25959D01*
X24029Y-25500D01*
X23569Y-25040D01*
X23453Y-25091D01*
X23350Y-25360D01*
X23350Y-23509D01*
X23354Y-23668D01*
X23453Y-23908D01*
X23569Y-23959D01*
X24029Y-23500D01*
X23569Y-23040D01*
X23453Y-23091D01*
X23350Y-23360D01*
X23350Y-22889D01*
X23675Y-22889D01*
X23640Y-22969D01*
X24100Y-23429D01*
X24559Y-22969D01*
X24524Y-22889D01*
X25675Y-22889D01*
X25640Y-22969D01*
X26100Y-23429D01*
X26559Y-22969D01*
X26524Y-22889D01*
X26750Y-22889D01*
X26750Y-23099D01*
X26746Y-23091D01*
X26630Y-23040D01*
X26170Y-23500D01*
X26630Y-23959D01*
X26746Y-23908D01*
X26750Y-23899D01*
X26750Y-25099D01*
X26746Y-25091D01*
X26630Y-25040D01*
X26559Y-25110D01*
X26559Y-24969D01*
X26508Y-24853D01*
X26229Y-24746D01*
X25931Y-24754D01*
X25780Y-24816D01*
X25849Y-24649D01*
X25850Y-24351D01*
X25779Y-24180D01*
X25970Y-24253D01*
X26268Y-24245D01*
X26508Y-24146D01*
X26559Y-24030D01*
X26100Y-23570D01*
X26094Y-23576D01*
X26023Y-23505D01*
X26029Y-23500D01*
X25569Y-23040D01*
X25453Y-23091D01*
X25346Y-23370D01*
X25354Y-23668D01*
X25416Y-23819D01*
X25249Y-23750D01*
X24951Y-23749D01*
X24780Y-23820D01*
X24853Y-23629D01*
X24845Y-23331D01*
X24746Y-23091D01*
X24630Y-23040D01*
X24170Y-23500D01*
X24176Y-23505D01*
X24105Y-23576D01*
X24100Y-23570D01*
X23640Y-24030D01*
X23691Y-24146D01*
X23970Y-24253D01*
X24268Y-24245D01*
X24419Y-24183D01*
X24350Y-24350D01*
X24349Y-24648D01*
X24420Y-24819D01*
X24229Y-24746D01*
X23931Y-24754D01*
X23691Y-24853D01*
X23640Y-24969D01*
X24100Y-25429D01*
X24105Y-25423D01*
X24176Y-25494D01*
X24170Y-25500D01*
X24630Y-25959D01*
X24746Y-25908D01*
X24853Y-25629D01*
X24845Y-25331D01*
X24783Y-25180D01*
X24950Y-25249D01*
X25248Y-25250D01*
X25419Y-25179D01*
X25346Y-25370D01*
X25354Y-25668D01*
X25453Y-25908D01*
X25569Y-25959D01*
X26029Y-25500D01*
X26023Y-25494D01*
X26094Y-25423D01*
X26100Y-25429D01*
X26559Y-24969D01*
X26559Y-25110D01*
X26170Y-25500D01*
X26630Y-25959D01*
X26746Y-25908D01*
X26750Y-25899D01*
X26750Y-32550D01*
G54D10*
G36*
X25200Y-34276D02*
X25194Y-34282D01*
X25117Y-34282D01*
X24963Y-34346D01*
X24846Y-34463D01*
X24787Y-34605D01*
X24787Y-33721D01*
X24885Y-33820D01*
X25024Y-33877D01*
X25174Y-33878D01*
X25200Y-33867D01*
X25200Y-34276D01*
X25200Y-34276D01*
G37*
G54D20*
X25200Y-34276D02*
X25194Y-34282D01*
X25117Y-34282D01*
X24963Y-34346D01*
X24846Y-34463D01*
X24787Y-34605D01*
X24787Y-33721D01*
X24885Y-33820D01*
X25024Y-33877D01*
X25174Y-33878D01*
X25200Y-33867D01*
X25200Y-34276D01*
G54D10*
G36*
X25259Y-33157D02*
X25181Y-33124D01*
X25181Y-33035D01*
X25123Y-32896D01*
X25017Y-32790D01*
X24878Y-32732D01*
X24728Y-32732D01*
X24589Y-32789D01*
X24482Y-32895D01*
X24436Y-33007D01*
X24413Y-33007D01*
X24354Y-33032D01*
X24308Y-32986D01*
X24169Y-32929D01*
X24019Y-32929D01*
X23946Y-32959D01*
X23946Y-32510D01*
X23946Y-32057D01*
X23493Y-32057D01*
X23431Y-32120D01*
X23431Y-32372D01*
X23469Y-32464D01*
X23539Y-32534D01*
X23631Y-32572D01*
X23730Y-32572D01*
X23883Y-32572D01*
X23946Y-32510D01*
X23946Y-32959D01*
X23897Y-32979D01*
X23776Y-32929D01*
X23625Y-32929D01*
X23486Y-32986D01*
X23380Y-33092D01*
X23322Y-33231D01*
X23322Y-33381D01*
X23380Y-33520D01*
X23381Y-33522D01*
X23325Y-33521D01*
X23186Y-33579D01*
X23079Y-33685D01*
X23022Y-33824D01*
X23021Y-33974D01*
X23079Y-34113D01*
X23100Y-34135D01*
X23100Y-34282D01*
X23017Y-34282D01*
X22863Y-34346D01*
X22746Y-34463D01*
X22682Y-34616D01*
X22682Y-34782D01*
X22746Y-34936D01*
X22800Y-34990D01*
X22800Y-35277D01*
X22399Y-34876D01*
X22399Y-31523D01*
X22915Y-31007D01*
X23111Y-31007D01*
X23132Y-31028D01*
X23270Y-31086D01*
X23315Y-31086D01*
X23431Y-31201D01*
X23431Y-31265D01*
X23493Y-31327D01*
X23557Y-31327D01*
X23657Y-31427D01*
X23493Y-31427D01*
X23431Y-31490D01*
X23431Y-31643D01*
X23431Y-31643D01*
X23431Y-31692D01*
X23431Y-31742D01*
X23431Y-31742D01*
X23431Y-31895D01*
X23493Y-31957D01*
X23946Y-31957D01*
X23946Y-31950D01*
X24046Y-31950D01*
X24046Y-31957D01*
X24053Y-31957D01*
X24053Y-32057D01*
X24046Y-32057D01*
X24046Y-32510D01*
X24108Y-32572D01*
X24261Y-32572D01*
X24311Y-32572D01*
X24360Y-32572D01*
X24513Y-32572D01*
X24575Y-32510D01*
X24575Y-32346D01*
X24675Y-32446D01*
X24675Y-32510D01*
X24738Y-32572D01*
X24802Y-32572D01*
X25251Y-33021D01*
X25259Y-33157D01*
X25259Y-33157D01*
G37*
G54D20*
X25259Y-33157D02*
X25181Y-33124D01*
X25181Y-33035D01*
X25123Y-32896D01*
X25017Y-32790D01*
X24878Y-32732D01*
X24728Y-32732D01*
X24589Y-32789D01*
X24482Y-32895D01*
X24436Y-33007D01*
X24413Y-33007D01*
X24354Y-33032D01*
X24308Y-32986D01*
X24169Y-32929D01*
X24019Y-32929D01*
X23946Y-32959D01*
X23946Y-32510D01*
X23946Y-32057D01*
X23493Y-32057D01*
X23431Y-32120D01*
X23431Y-32372D01*
X23469Y-32464D01*
X23539Y-32534D01*
X23631Y-32572D01*
X23730Y-32572D01*
X23883Y-32572D01*
X23946Y-32510D01*
X23946Y-32959D01*
X23897Y-32979D01*
X23776Y-32929D01*
X23625Y-32929D01*
X23486Y-32986D01*
X23380Y-33092D01*
X23322Y-33231D01*
X23322Y-33381D01*
X23380Y-33520D01*
X23381Y-33522D01*
X23325Y-33521D01*
X23186Y-33579D01*
X23079Y-33685D01*
X23022Y-33824D01*
X23021Y-33974D01*
X23079Y-34113D01*
X23100Y-34135D01*
X23100Y-34282D01*
X23017Y-34282D01*
X22863Y-34346D01*
X22746Y-34463D01*
X22682Y-34616D01*
X22682Y-34782D01*
X22746Y-34936D01*
X22800Y-34990D01*
X22800Y-35277D01*
X22399Y-34876D01*
X22399Y-31523D01*
X22915Y-31007D01*
X23111Y-31007D01*
X23132Y-31028D01*
X23270Y-31086D01*
X23315Y-31086D01*
X23431Y-31201D01*
X23431Y-31265D01*
X23493Y-31327D01*
X23557Y-31327D01*
X23657Y-31427D01*
X23493Y-31427D01*
X23431Y-31490D01*
X23431Y-31643D01*
X23431Y-31643D01*
X23431Y-31692D01*
X23431Y-31742D01*
X23431Y-31742D01*
X23431Y-31895D01*
X23493Y-31957D01*
X23946Y-31957D01*
X23946Y-31950D01*
X24046Y-31950D01*
X24046Y-31957D01*
X24053Y-31957D01*
X24053Y-32057D01*
X24046Y-32057D01*
X24046Y-32510D01*
X24108Y-32572D01*
X24261Y-32572D01*
X24311Y-32572D01*
X24360Y-32572D01*
X24513Y-32572D01*
X24575Y-32510D01*
X24575Y-32346D01*
X24675Y-32446D01*
X24675Y-32510D01*
X24738Y-32572D01*
X24802Y-32572D01*
X25251Y-33021D01*
X25259Y-33157D01*
G54D10*
G36*
X30810Y-38010D02*
X30529Y-38010D01*
X30529Y-30175D01*
X30525Y-30086D01*
X30525Y-29325D01*
X30525Y-28775D01*
X30487Y-28683D01*
X30416Y-28613D01*
X30324Y-28575D01*
X30225Y-28574D01*
X29675Y-28574D01*
X29583Y-28612D01*
X29513Y-28683D01*
X29475Y-28775D01*
X29474Y-28874D01*
X29474Y-29424D01*
X29512Y-29516D01*
X29583Y-29586D01*
X29675Y-29624D01*
X29762Y-29625D01*
X29727Y-29639D01*
X29702Y-29732D01*
X30000Y-30029D01*
X30297Y-29732D01*
X30272Y-29639D01*
X30231Y-29625D01*
X30324Y-29625D01*
X30416Y-29587D01*
X30486Y-29516D01*
X30524Y-29424D01*
X30525Y-29325D01*
X30525Y-30086D01*
X30518Y-29967D01*
X30460Y-29827D01*
X30367Y-29802D01*
X30070Y-30100D01*
X30367Y-30397D01*
X30460Y-30372D01*
X30529Y-30175D01*
X30529Y-38010D01*
X21289Y-38010D01*
X21289Y-24019D01*
X22419Y-22889D01*
X23050Y-22889D01*
X23050Y-30409D01*
X22922Y-30409D01*
X22977Y-30275D01*
X22978Y-30125D01*
X22920Y-29986D01*
X22814Y-29879D01*
X22675Y-29822D01*
X22525Y-29821D01*
X22386Y-29879D01*
X22279Y-29985D01*
X22222Y-30124D01*
X22222Y-30154D01*
X21588Y-30788D01*
X21523Y-30885D01*
X21500Y-31000D01*
X21500Y-35200D01*
X21523Y-35314D01*
X21588Y-35411D01*
X23488Y-37311D01*
X23488Y-37311D01*
X23553Y-37354D01*
X23585Y-37376D01*
X23585Y-37376D01*
X23700Y-37399D01*
X29474Y-37399D01*
X29474Y-37424D01*
X29512Y-37516D01*
X29583Y-37586D01*
X29675Y-37624D01*
X29774Y-37625D01*
X30324Y-37625D01*
X30416Y-37587D01*
X30486Y-37516D01*
X30524Y-37424D01*
X30525Y-37325D01*
X30525Y-36775D01*
X30487Y-36683D01*
X30416Y-36613D01*
X30324Y-36575D01*
X30225Y-36574D01*
X30225Y-36574D01*
X30297Y-36545D01*
X30444Y-36397D01*
X30524Y-36204D01*
X30525Y-35996D01*
X30445Y-35803D01*
X30297Y-35655D01*
X30164Y-35599D01*
X30297Y-35545D01*
X30444Y-35397D01*
X30524Y-35204D01*
X30525Y-34996D01*
X30445Y-34803D01*
X30297Y-34655D01*
X30225Y-34625D01*
X30324Y-34625D01*
X30416Y-34587D01*
X30486Y-34516D01*
X30524Y-34424D01*
X30525Y-34325D01*
X30525Y-33775D01*
X30487Y-33683D01*
X30416Y-33613D01*
X30324Y-33575D01*
X30225Y-33574D01*
X30225Y-33574D01*
X30297Y-33545D01*
X30444Y-33397D01*
X30524Y-33204D01*
X30525Y-32996D01*
X30445Y-32803D01*
X30297Y-32655D01*
X30164Y-32599D01*
X30297Y-32545D01*
X30444Y-32397D01*
X30524Y-32204D01*
X30525Y-31996D01*
X30445Y-31803D01*
X30297Y-31655D01*
X30164Y-31599D01*
X30297Y-31545D01*
X30444Y-31397D01*
X30524Y-31204D01*
X30525Y-30996D01*
X30445Y-30803D01*
X30297Y-30655D01*
X30171Y-30602D01*
X30272Y-30560D01*
X30297Y-30467D01*
X30000Y-30170D01*
X29929Y-30241D01*
X29929Y-30100D01*
X29632Y-29802D01*
X29539Y-29827D01*
X29470Y-30024D01*
X29481Y-30232D01*
X29539Y-30372D01*
X29632Y-30397D01*
X29929Y-30100D01*
X29929Y-30241D01*
X29702Y-30467D01*
X29727Y-30560D01*
X29837Y-30599D01*
X29703Y-30654D01*
X29555Y-30802D01*
X29475Y-30995D01*
X29474Y-31201D01*
X27588Y-33088D01*
X27523Y-33185D01*
X27500Y-33300D01*
X27500Y-33676D01*
X27050Y-34126D01*
X27050Y-22889D01*
X27780Y-22889D01*
X28910Y-24019D01*
X28910Y-27200D01*
X28932Y-27310D01*
X28995Y-27404D01*
X29595Y-28004D01*
X29595Y-28004D01*
X29689Y-28067D01*
X29689Y-28067D01*
X29707Y-28070D01*
X29800Y-28089D01*
X29900Y-28089D01*
X30680Y-28089D01*
X30810Y-28219D01*
X30810Y-38010D01*
X30810Y-38010D01*
G37*
G54D20*
X30810Y-38010D02*
X30529Y-38010D01*
X30529Y-30175D01*
X30525Y-30086D01*
X30525Y-29325D01*
X30525Y-28775D01*
X30487Y-28683D01*
X30416Y-28613D01*
X30324Y-28575D01*
X30225Y-28574D01*
X29675Y-28574D01*
X29583Y-28612D01*
X29513Y-28683D01*
X29475Y-28775D01*
X29474Y-28874D01*
X29474Y-29424D01*
X29512Y-29516D01*
X29583Y-29586D01*
X29675Y-29624D01*
X29762Y-29625D01*
X29727Y-29639D01*
X29702Y-29732D01*
X30000Y-30029D01*
X30297Y-29732D01*
X30272Y-29639D01*
X30231Y-29625D01*
X30324Y-29625D01*
X30416Y-29587D01*
X30486Y-29516D01*
X30524Y-29424D01*
X30525Y-29325D01*
X30525Y-30086D01*
X30518Y-29967D01*
X30460Y-29827D01*
X30367Y-29802D01*
X30070Y-30100D01*
X30367Y-30397D01*
X30460Y-30372D01*
X30529Y-30175D01*
X30529Y-38010D01*
X21289Y-38010D01*
X21289Y-24019D01*
X22419Y-22889D01*
X23050Y-22889D01*
X23050Y-30409D01*
X22922Y-30409D01*
X22977Y-30275D01*
X22978Y-30125D01*
X22920Y-29986D01*
X22814Y-29879D01*
X22675Y-29822D01*
X22525Y-29821D01*
X22386Y-29879D01*
X22279Y-29985D01*
X22222Y-30124D01*
X22222Y-30154D01*
X21588Y-30788D01*
X21523Y-30885D01*
X21500Y-31000D01*
X21500Y-35200D01*
X21523Y-35314D01*
X21588Y-35411D01*
X23488Y-37311D01*
X23488Y-37311D01*
X23553Y-37354D01*
X23585Y-37376D01*
X23585Y-37376D01*
X23700Y-37399D01*
X29474Y-37399D01*
X29474Y-37424D01*
X29512Y-37516D01*
X29583Y-37586D01*
X29675Y-37624D01*
X29774Y-37625D01*
X30324Y-37625D01*
X30416Y-37587D01*
X30486Y-37516D01*
X30524Y-37424D01*
X30525Y-37325D01*
X30525Y-36775D01*
X30487Y-36683D01*
X30416Y-36613D01*
X30324Y-36575D01*
X30225Y-36574D01*
X30225Y-36574D01*
X30297Y-36545D01*
X30444Y-36397D01*
X30524Y-36204D01*
X30525Y-35996D01*
X30445Y-35803D01*
X30297Y-35655D01*
X30164Y-35599D01*
X30297Y-35545D01*
X30444Y-35397D01*
X30524Y-35204D01*
X30525Y-34996D01*
X30445Y-34803D01*
X30297Y-34655D01*
X30225Y-34625D01*
X30324Y-34625D01*
X30416Y-34587D01*
X30486Y-34516D01*
X30524Y-34424D01*
X30525Y-34325D01*
X30525Y-33775D01*
X30487Y-33683D01*
X30416Y-33613D01*
X30324Y-33575D01*
X30225Y-33574D01*
X30225Y-33574D01*
X30297Y-33545D01*
X30444Y-33397D01*
X30524Y-33204D01*
X30525Y-32996D01*
X30445Y-32803D01*
X30297Y-32655D01*
X30164Y-32599D01*
X30297Y-32545D01*
X30444Y-32397D01*
X30524Y-32204D01*
X30525Y-31996D01*
X30445Y-31803D01*
X30297Y-31655D01*
X30164Y-31599D01*
X30297Y-31545D01*
X30444Y-31397D01*
X30524Y-31204D01*
X30525Y-30996D01*
X30445Y-30803D01*
X30297Y-30655D01*
X30171Y-30602D01*
X30272Y-30560D01*
X30297Y-30467D01*
X30000Y-30170D01*
X29929Y-30241D01*
X29929Y-30100D01*
X29632Y-29802D01*
X29539Y-29827D01*
X29470Y-30024D01*
X29481Y-30232D01*
X29539Y-30372D01*
X29632Y-30397D01*
X29929Y-30100D01*
X29929Y-30241D01*
X29702Y-30467D01*
X29727Y-30560D01*
X29837Y-30599D01*
X29703Y-30654D01*
X29555Y-30802D01*
X29475Y-30995D01*
X29474Y-31201D01*
X27588Y-33088D01*
X27523Y-33185D01*
X27500Y-33300D01*
X27500Y-33676D01*
X27050Y-34126D01*
X27050Y-22889D01*
X27780Y-22889D01*
X28910Y-24019D01*
X28910Y-27200D01*
X28932Y-27310D01*
X28995Y-27404D01*
X29595Y-28004D01*
X29595Y-28004D01*
X29689Y-28067D01*
X29689Y-28067D01*
X29707Y-28070D01*
X29800Y-28089D01*
X29900Y-28089D01*
X30680Y-28089D01*
X30810Y-28219D01*
X30810Y-38010D01*
M02*
