M48
;DRILL file {Pcbnew (2013-07-24 BZR 4024)-stable} date Sat 15 Feb 2014 11:51:41 AM NZDT
;FORMAT={-:-/ absolute / metric / decimal}
FMAT,2
METRIC,TZ
T1C0.400
T2C0.600
T3C0.800
T4C0.813
T5C1.524
%
G90
G05
M71
T1
X59.436Y-86.106
X63.Y-84.1
T2
X54.356Y-61.214
X54.356Y-63.5
X54.356Y-66.04
X54.356Y-68.58
X54.356Y-71.12
X54.356Y-73.66
X54.356Y-76.454
X54.356Y-78.994
X54.356Y-82.042
X54.356Y-89.916
X54.356Y-96.012
X56.642Y-58.928
X57.14Y-86.93
X57.404Y-90.932
X57.404Y-92.964
X58.166Y-58.674
X58.166Y-60.96
X58.166Y-63.5
X58.166Y-66.04
X58.166Y-68.58
X58.166Y-71.12
X58.166Y-73.66
X58.166Y-76.454
X58.674Y-88.138
X58.7Y-84.2
X59.3Y-78.
X59.944Y-91.186
X60.2Y-84.6
X61.2Y-84.6
X61.214Y-96.012
X62.2Y-84.8
X63.1Y-72.
X63.754Y-85.09
X63.9Y-86.2
X64.008Y-88.138
X65.024Y-92.456
X67.564Y-92.456
X68.834Y-80.518
X69.088Y-58.674
X69.088Y-60.96
X69.088Y-63.5
X69.088Y-66.04
X69.088Y-68.58
X69.088Y-71.12
X69.088Y-73.66
X69.088Y-76.454
X69.088Y-83.566
X69.088Y-86.106
X70.104Y-92.456
X70.612Y-82.042
X70.866Y-58.928
X71.882Y-78.994
X73.152Y-61.214
X73.152Y-63.5
X73.152Y-66.04
X73.152Y-68.58
X73.152Y-71.12
X73.152Y-73.66
X73.152Y-76.454
X73.152Y-78.994
X73.152Y-82.042
X73.152Y-89.916
X73.152Y-96.012
T3
X60.95Y-79.7
X60.95Y-81.3
X62.55Y-79.7
X62.55Y-81.3
T4
X56.134Y-94.742
X58.674Y-94.742
X63.754Y-94.742
X66.294Y-94.742
X68.834Y-94.742
X71.374Y-94.742
X71.882Y-83.82
X71.882Y-86.36
T5
X61.214Y-59.69
X61.214Y-64.77
X63.754Y-62.23
X66.294Y-59.69
X66.294Y-64.77
T0
M30
