G04 (created by PCBNEW (2013-07-24 BZR 4024)-stable) date Mon 03 Mar 2014 03:49:26 PM NZDT*
%MOIN*%
G04 Gerber Fmt 3.4, Leading zero omitted, Abs format*
%FSLAX34Y34*%
G01*
G70*
G90*
G04 APERTURE LIST*
%ADD10C,0.00590551*%
%ADD11R,0.0236X0.0157*%
%ADD12R,0.035X0.055*%
%ADD13R,0.025X0.045*%
%ADD14R,0.045X0.025*%
%ADD15C,0.1*%
%ADD16R,0.015748X0.011811*%
%ADD17R,0.037874X0.017874*%
%ADD18R,0.017874X0.037874*%
%ADD19R,0.0708661X0.0708661*%
%ADD20R,0.0472441X0.0551181*%
%ADD21R,0.055X0.055*%
%ADD22C,0.055*%
G04 APERTURE END LIST*
G54D10*
G54D11*
X24606Y-29802D03*
X24606Y-29448D03*
G54D12*
X27304Y-30826D03*
X26554Y-30826D03*
G54D13*
X22101Y-31614D03*
X22701Y-31614D03*
X25881Y-31535D03*
X26481Y-31535D03*
G54D14*
X25866Y-30969D03*
X25866Y-30369D03*
G54D13*
X26077Y-34724D03*
X26677Y-34724D03*
X26060Y-32380D03*
X26660Y-32380D03*
X25782Y-27460D03*
X26382Y-27460D03*
X22101Y-32795D03*
X22701Y-32795D03*
G54D14*
X25098Y-27366D03*
X25098Y-26766D03*
G54D13*
X22101Y-30866D03*
X22701Y-30866D03*
X22101Y-33582D03*
X22701Y-33582D03*
G54D11*
X24015Y-29802D03*
X24015Y-29448D03*
G54D13*
X25782Y-26673D03*
X26382Y-26673D03*
G54D15*
X25100Y-24500D03*
X26100Y-23500D03*
X24100Y-23500D03*
X24100Y-25500D03*
X26100Y-25500D03*
G54D16*
X24557Y-28602D03*
X24557Y-28346D03*
X24557Y-28090D03*
X24064Y-28602D03*
X24064Y-28346D03*
X24064Y-28090D03*
G54D17*
X25295Y-31200D03*
X25295Y-31397D03*
X25295Y-31594D03*
X25295Y-31003D03*
G54D18*
X25000Y-30708D03*
X24803Y-30708D03*
X24606Y-30708D03*
X24409Y-30708D03*
X24213Y-30708D03*
X24016Y-30708D03*
X23819Y-30708D03*
X23622Y-30708D03*
G54D17*
X23327Y-32381D03*
X23327Y-31003D03*
X23327Y-31200D03*
X23327Y-31397D03*
X23327Y-31594D03*
X23327Y-31790D03*
X23327Y-31987D03*
X23327Y-32184D03*
G54D18*
X23622Y-32676D03*
X23819Y-32676D03*
X24016Y-32676D03*
X24213Y-32676D03*
X24409Y-32676D03*
X24606Y-32676D03*
X24803Y-32676D03*
X25000Y-32676D03*
G54D17*
X25295Y-32381D03*
X25295Y-32184D03*
X25295Y-31987D03*
X25295Y-31790D03*
G54D19*
X24625Y-31377D03*
X24625Y-32007D03*
X23996Y-31377D03*
X23996Y-32007D03*
G54D14*
X26535Y-30221D03*
X26535Y-29621D03*
G54D20*
X25925Y-33096D03*
X25925Y-33963D03*
X26554Y-33096D03*
X26554Y-33963D03*
G54D21*
X30000Y-34100D03*
G54D22*
X30000Y-33100D03*
X30000Y-32100D03*
X30000Y-31100D03*
G54D21*
X30000Y-29100D03*
G54D22*
X30000Y-30100D03*
G54D21*
X30000Y-37100D03*
G54D22*
X30000Y-36100D03*
X30000Y-35100D03*
M02*
