G04 (created by PCBNEW (2013-07-24 BZR 4024)-stable) date Mon 03 Mar 2014 03:49:26 PM NZDT*
%MOIN*%
G04 Gerber Fmt 3.4, Leading zero omitted, Abs format*
%FSLAX34Y34*%
G01*
G70*
G90*
G04 APERTURE LIST*
%ADD10C,0.00590551*%
%ADD11R,0.0236X0.0157*%
%ADD12R,0.00590551X0.00590551*%
%ADD13R,0.035X0.055*%
%ADD14R,0.025X0.045*%
%ADD15R,0.045X0.025*%
%ADD16C,0.1*%
%ADD17R,0.015748X0.011811*%
%ADD18R,0.03X0.01*%
%ADD19R,0.01X0.03*%
%ADD20R,0.0629921X0.0629921*%
%ADD21R,0.0472441X0.0551181*%
%ADD22R,0.055X0.055*%
%ADD23C,0.055*%
%ADD24C,0.0334646*%
%ADD25C,0.0255906*%
%ADD26C,0.019685*%
%ADD27C,0.0137795*%
%ADD28C,0.00787402*%
%ADD29C,0.0393701*%
%ADD30C,0.00984252*%
%ADD31C,0.01*%
G04 APERTURE END LIST*
G54D10*
G54D11*
X24606Y-29802D03*
X24606Y-29448D03*
G54D12*
X0Y0D03*
X0Y59D03*
G54D13*
X27304Y-30826D03*
X26554Y-30826D03*
G54D14*
X22101Y-31614D03*
X22701Y-31614D03*
X25881Y-31535D03*
X26481Y-31535D03*
G54D15*
X25866Y-30969D03*
X25866Y-30369D03*
G54D14*
X26077Y-34724D03*
X26677Y-34724D03*
X26060Y-32380D03*
X26660Y-32380D03*
X25782Y-27460D03*
X26382Y-27460D03*
X22101Y-32795D03*
X22701Y-32795D03*
G54D15*
X25098Y-27366D03*
X25098Y-26766D03*
G54D14*
X22101Y-30866D03*
X22701Y-30866D03*
X22101Y-33582D03*
X22701Y-33582D03*
G54D11*
X24015Y-29802D03*
X24015Y-29448D03*
G54D14*
X25782Y-26673D03*
X26382Y-26673D03*
G54D16*
X25100Y-24500D03*
X26100Y-23500D03*
X24100Y-23500D03*
X24100Y-25500D03*
X26100Y-25500D03*
G54D17*
X24557Y-28602D03*
X24557Y-28346D03*
X24557Y-28090D03*
X24064Y-28602D03*
X24064Y-28346D03*
X24064Y-28090D03*
G54D18*
X25295Y-31200D03*
X25295Y-31397D03*
X25295Y-31594D03*
X25295Y-31003D03*
G54D19*
X25000Y-30708D03*
X24803Y-30708D03*
X24606Y-30708D03*
X24409Y-30708D03*
X24213Y-30708D03*
X24016Y-30708D03*
X23819Y-30708D03*
X23622Y-30708D03*
G54D18*
X23327Y-32381D03*
X23327Y-31003D03*
X23327Y-31200D03*
X23327Y-31397D03*
X23327Y-31594D03*
X23327Y-31790D03*
X23327Y-31987D03*
X23327Y-32184D03*
G54D19*
X23622Y-32676D03*
X23819Y-32676D03*
X24016Y-32676D03*
X24213Y-32676D03*
X24409Y-32676D03*
X24606Y-32676D03*
X24803Y-32676D03*
X25000Y-32676D03*
G54D18*
X25295Y-32381D03*
X25295Y-32184D03*
X25295Y-31987D03*
X25295Y-31790D03*
G54D20*
X24625Y-31377D03*
X24625Y-32007D03*
X23996Y-31377D03*
X23996Y-32007D03*
G54D15*
X26535Y-30221D03*
X26535Y-29621D03*
G54D21*
X25925Y-33096D03*
X25925Y-33963D03*
X26554Y-33096D03*
X26554Y-33963D03*
G54D22*
X30000Y-34100D03*
G54D23*
X30000Y-33100D03*
X30000Y-32100D03*
X30000Y-31100D03*
G54D22*
X30000Y-29100D03*
G54D23*
X30000Y-30100D03*
G54D22*
X30000Y-37100D03*
G54D23*
X30000Y-36100D03*
X30000Y-35100D03*
G54D24*
X25200Y-34700D03*
X23100Y-34700D03*
G54D25*
X25100Y-33500D03*
X24094Y-33307D03*
X24488Y-33385D03*
X23400Y-33900D03*
X24803Y-33110D03*
X23346Y-30708D03*
X23700Y-33307D03*
X22600Y-30200D03*
G54D24*
X22900Y-28000D03*
X22900Y-27000D03*
X22900Y-26000D03*
X22900Y-25000D03*
X22900Y-24000D03*
X22900Y-23100D03*
X22900Y-29000D03*
X30600Y-31600D03*
X30600Y-34700D03*
X30600Y-37700D03*
X27600Y-37700D03*
X24600Y-37700D03*
X21600Y-37700D03*
X21600Y-35500D03*
X21500Y-30400D03*
X21500Y-29000D03*
X21500Y-28000D03*
X21500Y-27000D03*
X21500Y-26000D03*
X21500Y-25000D03*
X21500Y-24000D03*
X28000Y-30700D03*
X28000Y-32500D03*
X27200Y-24000D03*
X27200Y-23100D03*
X27900Y-23200D03*
X28800Y-24100D03*
X27200Y-29000D03*
X27200Y-28000D03*
X27200Y-27000D03*
X27200Y-26000D03*
X27200Y-25000D03*
X28800Y-25000D03*
X28800Y-26000D03*
X28800Y-27000D03*
X28800Y-28000D03*
X28000Y-29000D03*
X27200Y-32900D03*
X30600Y-28300D03*
X25157Y-33937D03*
X23110Y-33149D03*
X22496Y-34224D03*
X24842Y-28346D03*
G54D26*
X25098Y-26766D02*
X25688Y-26766D01*
X25688Y-26766D02*
X25782Y-26673D01*
G54D27*
X25098Y-26766D02*
X25098Y-24501D01*
X25098Y-24501D02*
X25100Y-24500D01*
G54D28*
X24606Y-30078D02*
X24606Y-29802D01*
X24409Y-30276D02*
X24606Y-30078D01*
X24409Y-30708D02*
X24409Y-30276D01*
G54D27*
X24557Y-28602D02*
X24557Y-29399D01*
X24557Y-29399D02*
X24606Y-29448D01*
G54D28*
X24213Y-30708D02*
X24213Y-30000D01*
X24213Y-30000D02*
X24015Y-29802D01*
G54D27*
X24064Y-28602D02*
X24064Y-29399D01*
X24064Y-29399D02*
X24015Y-29448D01*
G54D29*
X25098Y-27366D02*
X24233Y-27366D01*
X24050Y-27550D02*
X24050Y-27850D01*
G54D26*
X24050Y-27850D02*
X24050Y-28065D01*
G54D29*
X24233Y-27366D02*
X24050Y-27550D01*
G54D26*
X25098Y-27366D02*
X25688Y-27366D01*
X25688Y-27366D02*
X25782Y-27460D01*
G54D30*
X25200Y-34700D02*
X23100Y-34700D01*
X25100Y-32776D02*
X25000Y-32676D01*
X25100Y-32776D02*
X25100Y-33500D01*
X24094Y-33307D02*
X24212Y-33188D01*
X24212Y-32677D02*
X24212Y-33188D01*
X24488Y-33385D02*
X24488Y-33031D01*
X24488Y-33031D02*
X24606Y-32913D01*
X24606Y-32677D02*
X24606Y-32913D01*
G54D28*
X26077Y-34724D02*
X25787Y-34724D01*
X25511Y-32598D02*
X25295Y-32381D01*
X25511Y-34448D02*
X25511Y-32598D01*
X25787Y-34724D02*
X25511Y-34448D01*
X26077Y-34724D02*
X26077Y-34670D01*
X26554Y-34193D02*
X26554Y-33963D01*
X26077Y-34670D02*
X26554Y-34193D01*
G54D27*
X26696Y-33963D02*
X26554Y-33963D01*
G54D30*
X23326Y-31988D02*
X23326Y-31791D01*
G54D28*
X23169Y-31791D02*
X22913Y-32047D01*
X22913Y-32047D02*
X22204Y-32047D01*
X22204Y-32047D02*
X22101Y-31944D01*
X22101Y-31944D02*
X22101Y-31614D01*
G54D30*
X23326Y-31791D02*
X23169Y-31791D01*
G54D28*
X26060Y-32380D02*
X26060Y-32961D01*
X26060Y-32961D02*
X25925Y-33096D01*
X25295Y-32184D02*
X25864Y-32184D01*
X25864Y-32184D02*
X26060Y-32380D01*
X25295Y-31594D02*
X25531Y-31594D01*
X25684Y-30969D02*
X25866Y-30969D01*
X25590Y-31062D02*
X25684Y-30969D01*
X25590Y-31535D02*
X25590Y-31062D01*
X25531Y-31594D02*
X25590Y-31535D01*
G54D30*
X26554Y-30826D02*
X26554Y-30239D01*
G54D27*
X26554Y-30239D02*
X26535Y-30221D01*
G54D30*
X26554Y-30239D02*
X26535Y-30221D01*
G54D28*
X26554Y-30193D02*
X26589Y-30157D01*
X26200Y-31240D02*
X26554Y-30886D01*
X26200Y-31397D02*
X26200Y-31240D01*
X25881Y-31535D02*
X26062Y-31535D01*
X26062Y-31535D02*
X26200Y-31397D01*
X25295Y-31790D02*
X25625Y-31790D01*
X25625Y-31790D02*
X25881Y-31535D01*
X25881Y-31638D02*
X25881Y-31456D01*
G54D10*
X23400Y-33622D02*
X23400Y-33900D01*
G54D30*
X22701Y-33582D02*
X22740Y-33622D01*
X22740Y-33622D02*
X23400Y-33622D01*
X23400Y-33622D02*
X24291Y-33622D01*
X24291Y-33622D02*
X24330Y-33622D01*
X24330Y-33622D02*
X24370Y-33661D01*
X24370Y-33661D02*
X24685Y-33661D01*
X24685Y-33661D02*
X24803Y-33543D01*
X24803Y-33543D02*
X24803Y-33110D01*
G54D10*
X24803Y-32677D02*
X24803Y-33110D01*
X23622Y-30708D02*
X23346Y-30708D01*
G54D30*
X24015Y-32677D02*
X24015Y-32992D01*
G54D10*
X23700Y-33307D02*
X24015Y-32992D01*
G54D30*
X22701Y-30866D02*
X22701Y-30301D01*
X22701Y-30301D02*
X22600Y-30200D01*
G54D10*
X22716Y-30851D02*
X22701Y-30866D01*
G54D30*
X23326Y-31397D02*
X23090Y-31397D01*
X23090Y-31397D02*
X22952Y-31259D01*
X22952Y-31259D02*
X22952Y-31117D01*
X22952Y-31117D02*
X22701Y-30866D01*
G54D27*
X27600Y-35000D02*
X27600Y-31300D01*
X27600Y-31122D02*
X27304Y-30826D01*
X27600Y-31300D02*
X27600Y-31122D01*
X27304Y-30826D02*
X28630Y-29500D01*
X28630Y-29500D02*
X29600Y-29500D01*
X29600Y-29500D02*
X30000Y-29100D01*
X27600Y-35000D02*
X27600Y-35000D01*
X27300Y-35300D02*
X27600Y-35000D01*
X22101Y-34901D02*
X22500Y-35300D01*
X22101Y-33582D02*
X22101Y-34901D01*
X22500Y-35300D02*
X27300Y-35300D01*
G54D30*
X22101Y-32795D02*
X22101Y-33582D01*
X22101Y-33582D02*
X22125Y-33607D01*
X22101Y-32795D02*
X21732Y-32425D01*
X21850Y-30866D02*
X22101Y-30866D01*
X21732Y-30984D02*
X21850Y-30866D01*
X21732Y-32425D02*
X21732Y-30984D01*
G54D28*
X23326Y-32185D02*
X23051Y-32185D01*
G54D30*
X23051Y-32185D02*
X22913Y-32322D01*
X22913Y-32322D02*
X22204Y-32322D01*
X22204Y-32322D02*
X22101Y-32425D01*
X22101Y-32425D02*
X22101Y-32795D01*
X22900Y-23100D02*
X22900Y-24000D01*
X22900Y-27000D02*
X22900Y-28000D01*
X22900Y-25000D02*
X22900Y-26000D01*
X30600Y-31600D02*
X30600Y-34700D01*
X30600Y-37700D02*
X27600Y-37700D01*
X24600Y-37700D02*
X21600Y-37700D01*
X21600Y-35500D02*
X21500Y-35400D01*
X21500Y-35400D02*
X21500Y-30400D01*
X21500Y-29000D02*
X21500Y-28000D01*
X21500Y-27000D02*
X21500Y-26000D01*
X21500Y-25000D02*
X21500Y-24000D01*
G54D27*
X28800Y-25000D02*
X28800Y-24100D01*
X27200Y-24000D02*
X27200Y-25000D01*
X27900Y-23200D02*
X27200Y-23100D01*
X27200Y-29000D02*
X27200Y-28000D01*
X27200Y-27000D02*
X27200Y-26000D01*
X28800Y-26000D02*
X28800Y-27000D01*
X28800Y-28000D02*
X28000Y-29000D01*
X26968Y-33267D02*
X27200Y-33036D01*
X27200Y-33036D02*
X27200Y-32900D01*
X27200Y-32900D02*
X27200Y-32900D01*
X26677Y-34724D02*
X26968Y-34433D01*
X26797Y-33096D02*
X26554Y-33096D01*
X26968Y-33267D02*
X26797Y-33096D01*
X26968Y-33307D02*
X26968Y-33267D01*
X26968Y-34433D02*
X26968Y-33900D01*
X26968Y-33900D02*
X26968Y-33307D01*
G54D28*
X26660Y-32380D02*
X26660Y-32991D01*
X26660Y-32991D02*
X26554Y-33096D01*
X25925Y-33963D02*
X25925Y-33838D01*
X25925Y-33838D02*
X26554Y-33208D01*
X26554Y-33208D02*
X26554Y-33096D01*
G54D30*
X25145Y-33948D02*
X25157Y-33937D01*
X25145Y-33948D02*
X24881Y-34212D01*
X24881Y-34212D02*
X22496Y-34224D01*
X25866Y-30369D02*
X25866Y-30290D01*
X25866Y-30290D02*
X26535Y-29621D01*
G54D28*
X25866Y-30369D02*
X25866Y-30333D01*
X22701Y-32795D02*
X23228Y-32795D01*
X23228Y-32795D02*
X23327Y-32696D01*
X23326Y-32933D02*
X23327Y-32933D01*
X23110Y-33149D02*
X23326Y-32933D01*
X25295Y-31003D02*
X25295Y-30689D01*
X25614Y-30369D02*
X25866Y-30369D01*
X25295Y-30689D02*
X25614Y-30369D01*
G54D27*
X26660Y-32380D02*
X26660Y-31714D01*
X26660Y-31714D02*
X26481Y-31535D01*
G54D28*
X25295Y-31987D02*
X25807Y-31987D01*
X25807Y-31987D02*
X25866Y-31929D01*
X25866Y-31929D02*
X26338Y-31929D01*
X26338Y-31929D02*
X26481Y-31786D01*
X26481Y-31786D02*
X26481Y-31535D01*
X23996Y-32007D02*
X23996Y-31377D01*
X24625Y-32007D02*
X24625Y-31377D01*
X23996Y-32007D02*
X24625Y-32007D01*
X23819Y-32676D02*
X23819Y-32184D01*
X23819Y-32184D02*
X23996Y-32007D01*
X24409Y-32676D02*
X24409Y-32224D01*
X24409Y-32224D02*
X24625Y-32007D01*
X25295Y-31987D02*
X24645Y-31987D01*
X24645Y-31987D02*
X24625Y-32007D01*
X22409Y-34224D02*
X22401Y-34216D01*
X22409Y-34224D02*
X22496Y-34224D01*
G54D27*
X24842Y-28346D02*
X24557Y-28346D01*
G54D28*
X23819Y-30708D02*
X23819Y-31200D01*
X23819Y-31200D02*
X23996Y-31377D01*
G54D10*
X23819Y-32676D02*
X23819Y-32952D01*
X23385Y-32992D02*
X23327Y-32933D01*
X23779Y-32992D02*
X23385Y-32992D01*
X23819Y-32952D02*
X23779Y-32992D01*
X23327Y-32933D02*
X23327Y-32696D01*
X23327Y-32696D02*
X23327Y-32381D01*
G54D28*
X23326Y-31594D02*
X23779Y-31594D01*
X23779Y-31594D02*
X23996Y-31377D01*
X23326Y-31594D02*
X22721Y-31594D01*
X22721Y-31594D02*
X22701Y-31614D01*
X24015Y-30708D02*
X24015Y-31358D01*
G54D10*
X24015Y-31358D02*
X23996Y-31377D01*
G54D28*
X24606Y-30708D02*
X24606Y-31358D01*
X24606Y-31358D02*
X24625Y-31377D01*
X25295Y-31200D02*
X24803Y-31200D01*
X24803Y-31200D02*
X24625Y-31377D01*
X25295Y-31003D02*
X25295Y-31200D01*
X25295Y-31397D02*
X24645Y-31397D01*
X24645Y-31397D02*
X24625Y-31377D01*
G54D30*
X22519Y-32795D02*
X22701Y-32795D01*
X22401Y-32913D02*
X22519Y-32795D01*
X22401Y-34216D02*
X22401Y-32913D01*
G54D10*
X23326Y-32381D02*
X23272Y-32381D01*
G54D26*
X26382Y-26673D02*
X26382Y-25782D01*
X26382Y-25782D02*
X26100Y-25500D01*
G54D30*
X26100Y-25500D02*
X26100Y-23500D01*
G54D27*
X24064Y-28346D02*
X24557Y-28346D01*
G54D26*
X26382Y-27460D02*
X26382Y-26673D01*
G54D10*
G36*
X24023Y-30202D02*
X23900Y-30079D01*
X23900Y-30031D01*
X23927Y-30031D01*
X23976Y-30031D01*
X24023Y-30078D01*
X24023Y-30202D01*
X24023Y-30202D01*
G37*
G54D31*
X24023Y-30202D02*
X23900Y-30079D01*
X23900Y-30031D01*
X23927Y-30031D01*
X23976Y-30031D01*
X24023Y-30078D01*
X24023Y-30202D01*
G54D10*
G36*
X24407Y-30010D02*
X24402Y-30014D01*
X24402Y-30007D01*
X24403Y-30008D01*
X24407Y-30010D01*
X24407Y-30010D01*
G37*
G54D31*
X24407Y-30010D02*
X24402Y-30014D01*
X24402Y-30007D01*
X24403Y-30008D01*
X24407Y-30010D01*
G54D10*
G36*
X22759Y-31664D02*
X22751Y-31664D01*
X22751Y-31672D01*
X22651Y-31672D01*
X22651Y-31664D01*
X22643Y-31664D01*
X22643Y-31564D01*
X22651Y-31564D01*
X22651Y-31556D01*
X22751Y-31556D01*
X22751Y-31564D01*
X22759Y-31564D01*
X22759Y-31664D01*
X22759Y-31664D01*
G37*
G54D31*
X22759Y-31664D02*
X22751Y-31664D01*
X22751Y-31672D01*
X22651Y-31672D01*
X22651Y-31664D01*
X22643Y-31664D01*
X22643Y-31564D01*
X22651Y-31564D01*
X22651Y-31556D01*
X22751Y-31556D01*
X22751Y-31564D01*
X22759Y-31564D01*
X22759Y-31664D01*
G54D10*
G36*
X23433Y-33040D02*
X23380Y-33092D01*
X23322Y-33231D01*
X23322Y-33322D01*
X23076Y-33322D01*
X23076Y-33308D01*
X23038Y-33216D01*
X23011Y-33188D01*
X23038Y-33162D01*
X23076Y-33070D01*
X23076Y-32970D01*
X23076Y-32907D01*
X23014Y-32845D01*
X22751Y-32845D01*
X22751Y-32853D01*
X22651Y-32853D01*
X22651Y-32845D01*
X22643Y-32845D01*
X22643Y-32745D01*
X22651Y-32745D01*
X22651Y-32737D01*
X22751Y-32737D01*
X22751Y-32745D01*
X23014Y-32745D01*
X23076Y-32682D01*
X23076Y-32660D01*
X23127Y-32681D01*
X23226Y-32681D01*
X23214Y-32681D01*
X23277Y-32619D01*
X23277Y-32681D01*
X23321Y-32681D01*
X23321Y-32876D01*
X23359Y-32968D01*
X23430Y-33038D01*
X23433Y-33040D01*
X23433Y-33040D01*
G37*
G54D31*
X23433Y-33040D02*
X23380Y-33092D01*
X23322Y-33231D01*
X23322Y-33322D01*
X23076Y-33322D01*
X23076Y-33308D01*
X23038Y-33216D01*
X23011Y-33188D01*
X23038Y-33162D01*
X23076Y-33070D01*
X23076Y-32970D01*
X23076Y-32907D01*
X23014Y-32845D01*
X22751Y-32845D01*
X22751Y-32853D01*
X22651Y-32853D01*
X22651Y-32845D01*
X22643Y-32845D01*
X22643Y-32745D01*
X22651Y-32745D01*
X22651Y-32737D01*
X22751Y-32737D01*
X22751Y-32745D01*
X23014Y-32745D01*
X23076Y-32682D01*
X23076Y-32660D01*
X23127Y-32681D01*
X23226Y-32681D01*
X23214Y-32681D01*
X23277Y-32619D01*
X23277Y-32681D01*
X23321Y-32681D01*
X23321Y-32876D01*
X23359Y-32968D01*
X23430Y-33038D01*
X23433Y-33040D01*
G54D10*
G36*
X24683Y-32057D02*
X24675Y-32057D01*
X24675Y-32065D01*
X24575Y-32065D01*
X24575Y-32057D01*
X24575Y-31957D01*
X24575Y-31880D01*
X24575Y-31505D01*
X24575Y-31427D01*
X24498Y-31427D01*
X24123Y-31427D01*
X24046Y-31427D01*
X24046Y-31505D01*
X24046Y-31880D01*
X24046Y-31957D01*
X24123Y-31957D01*
X24498Y-31957D01*
X24575Y-31957D01*
X24575Y-32057D01*
X24498Y-32057D01*
X24123Y-32057D01*
X24046Y-32057D01*
X24046Y-32065D01*
X23946Y-32065D01*
X23946Y-32057D01*
X23938Y-32057D01*
X23938Y-31957D01*
X23946Y-31957D01*
X23946Y-31880D01*
X23946Y-31505D01*
X23946Y-31427D01*
X23938Y-31427D01*
X23938Y-31327D01*
X23946Y-31327D01*
X23946Y-31320D01*
X24046Y-31320D01*
X24046Y-31327D01*
X24123Y-31327D01*
X24498Y-31327D01*
X24575Y-31327D01*
X24575Y-31320D01*
X24675Y-31320D01*
X24675Y-31327D01*
X24683Y-31327D01*
X24683Y-31427D01*
X24675Y-31427D01*
X24675Y-31505D01*
X24675Y-31880D01*
X24675Y-31957D01*
X24683Y-31957D01*
X24683Y-32057D01*
X24683Y-32057D01*
G37*
G54D31*
X24683Y-32057D02*
X24675Y-32057D01*
X24675Y-32065D01*
X24575Y-32065D01*
X24575Y-32057D01*
X24575Y-31957D01*
X24575Y-31880D01*
X24575Y-31505D01*
X24575Y-31427D01*
X24498Y-31427D01*
X24123Y-31427D01*
X24046Y-31427D01*
X24046Y-31505D01*
X24046Y-31880D01*
X24046Y-31957D01*
X24123Y-31957D01*
X24498Y-31957D01*
X24575Y-31957D01*
X24575Y-32057D01*
X24498Y-32057D01*
X24123Y-32057D01*
X24046Y-32057D01*
X24046Y-32065D01*
X23946Y-32065D01*
X23946Y-32057D01*
X23938Y-32057D01*
X23938Y-31957D01*
X23946Y-31957D01*
X23946Y-31880D01*
X23946Y-31505D01*
X23946Y-31427D01*
X23938Y-31427D01*
X23938Y-31327D01*
X23946Y-31327D01*
X23946Y-31320D01*
X24046Y-31320D01*
X24046Y-31327D01*
X24123Y-31327D01*
X24498Y-31327D01*
X24575Y-31327D01*
X24575Y-31320D01*
X24675Y-31320D01*
X24675Y-31327D01*
X24683Y-31327D01*
X24683Y-31427D01*
X24675Y-31427D01*
X24675Y-31505D01*
X24675Y-31880D01*
X24675Y-31957D01*
X24683Y-31957D01*
X24683Y-32057D01*
G54D10*
G36*
X25222Y-34282D02*
X25117Y-34282D01*
X24963Y-34346D01*
X24909Y-34400D01*
X23390Y-34400D01*
X23336Y-34346D01*
X23183Y-34282D01*
X23017Y-34282D01*
X22863Y-34346D01*
X22746Y-34463D01*
X22682Y-34616D01*
X22682Y-34782D01*
X22746Y-34936D01*
X22790Y-34981D01*
X22632Y-34981D01*
X22420Y-34769D01*
X22420Y-34005D01*
X22434Y-34019D01*
X22526Y-34057D01*
X22626Y-34057D01*
X22876Y-34057D01*
X22968Y-34019D01*
X23021Y-33965D01*
X23021Y-33974D01*
X23079Y-34113D01*
X23185Y-34220D01*
X23324Y-34277D01*
X23474Y-34278D01*
X23613Y-34220D01*
X23720Y-34114D01*
X23777Y-33975D01*
X23777Y-33921D01*
X24230Y-33921D01*
X24255Y-33937D01*
X24255Y-33937D01*
X24370Y-33960D01*
X24685Y-33960D01*
X24799Y-33937D01*
X24896Y-33872D01*
X24930Y-33838D01*
X25024Y-33877D01*
X25174Y-33878D01*
X25222Y-33858D01*
X25222Y-34282D01*
X25222Y-34282D01*
G37*
G54D31*
X25222Y-34282D02*
X25117Y-34282D01*
X24963Y-34346D01*
X24909Y-34400D01*
X23390Y-34400D01*
X23336Y-34346D01*
X23183Y-34282D01*
X23017Y-34282D01*
X22863Y-34346D01*
X22746Y-34463D01*
X22682Y-34616D01*
X22682Y-34782D01*
X22746Y-34936D01*
X22790Y-34981D01*
X22632Y-34981D01*
X22420Y-34769D01*
X22420Y-34005D01*
X22434Y-34019D01*
X22526Y-34057D01*
X22626Y-34057D01*
X22876Y-34057D01*
X22968Y-34019D01*
X23021Y-33965D01*
X23021Y-33974D01*
X23079Y-34113D01*
X23185Y-34220D01*
X23324Y-34277D01*
X23474Y-34278D01*
X23613Y-34220D01*
X23720Y-34114D01*
X23777Y-33975D01*
X23777Y-33921D01*
X24230Y-33921D01*
X24255Y-33937D01*
X24255Y-33937D01*
X24370Y-33960D01*
X24685Y-33960D01*
X24799Y-33937D01*
X24896Y-33872D01*
X24930Y-33838D01*
X25024Y-33877D01*
X25174Y-33878D01*
X25222Y-33858D01*
X25222Y-34282D01*
G54D10*
G36*
X25982Y-34013D02*
X25975Y-34013D01*
X25975Y-34020D01*
X25875Y-34020D01*
X25875Y-34013D01*
X25867Y-34013D01*
X25867Y-33913D01*
X25875Y-33913D01*
X25875Y-33905D01*
X25975Y-33905D01*
X25975Y-33913D01*
X25982Y-33913D01*
X25982Y-34013D01*
X25982Y-34013D01*
G37*
G54D31*
X25982Y-34013D02*
X25975Y-34013D01*
X25975Y-34020D01*
X25875Y-34020D01*
X25875Y-34013D01*
X25867Y-34013D01*
X25867Y-33913D01*
X25875Y-33913D01*
X25875Y-33905D01*
X25975Y-33905D01*
X25975Y-33913D01*
X25982Y-33913D01*
X25982Y-34013D01*
G54D10*
G36*
X27281Y-34867D02*
X27167Y-34981D01*
X27052Y-34981D01*
X27052Y-34899D01*
X27052Y-34836D01*
X26990Y-34774D01*
X26727Y-34774D01*
X26727Y-34782D01*
X26627Y-34782D01*
X26627Y-34774D01*
X26620Y-34774D01*
X26620Y-34674D01*
X26627Y-34674D01*
X26627Y-34666D01*
X26727Y-34666D01*
X26727Y-34674D01*
X26990Y-34674D01*
X27052Y-34611D01*
X27052Y-34548D01*
X27052Y-34449D01*
X27014Y-34357D01*
X27013Y-34355D01*
X27041Y-34288D01*
X27041Y-34189D01*
X27041Y-33637D01*
X27003Y-33546D01*
X26987Y-33530D01*
X27003Y-33513D01*
X27041Y-33422D01*
X27041Y-33209D01*
X26978Y-33146D01*
X26604Y-33146D01*
X26604Y-33154D01*
X26504Y-33154D01*
X26504Y-33146D01*
X26497Y-33146D01*
X26497Y-33046D01*
X26504Y-33046D01*
X26504Y-33039D01*
X26604Y-33039D01*
X26604Y-33046D01*
X26978Y-33046D01*
X27041Y-32984D01*
X27041Y-32771D01*
X27013Y-32705D01*
X27034Y-32654D01*
X27035Y-32555D01*
X27035Y-32492D01*
X26972Y-32430D01*
X26710Y-32430D01*
X26710Y-32437D01*
X26610Y-32437D01*
X26610Y-32430D01*
X26602Y-32430D01*
X26602Y-32330D01*
X26610Y-32330D01*
X26610Y-32322D01*
X26710Y-32322D01*
X26710Y-32330D01*
X26972Y-32330D01*
X27035Y-32267D01*
X27035Y-32204D01*
X27034Y-32105D01*
X26996Y-32013D01*
X26926Y-31942D01*
X26834Y-31904D01*
X26815Y-31904D01*
X26817Y-31902D01*
X26856Y-31810D01*
X26856Y-31710D01*
X26856Y-31647D01*
X26793Y-31585D01*
X26531Y-31585D01*
X26531Y-31593D01*
X26431Y-31593D01*
X26431Y-31585D01*
X26423Y-31585D01*
X26423Y-31575D01*
X26447Y-31539D01*
X26468Y-31508D01*
X26468Y-31508D01*
X26474Y-31477D01*
X26531Y-31477D01*
X26531Y-31485D01*
X26793Y-31485D01*
X26856Y-31422D01*
X26856Y-31359D01*
X26856Y-31319D01*
X26870Y-31313D01*
X26929Y-31255D01*
X26987Y-31313D01*
X27079Y-31351D01*
X27178Y-31351D01*
X27281Y-31351D01*
X27281Y-34867D01*
X27281Y-34867D01*
G37*
G54D31*
X27281Y-34867D02*
X27167Y-34981D01*
X27052Y-34981D01*
X27052Y-34899D01*
X27052Y-34836D01*
X26990Y-34774D01*
X26727Y-34774D01*
X26727Y-34782D01*
X26627Y-34782D01*
X26627Y-34774D01*
X26620Y-34774D01*
X26620Y-34674D01*
X26627Y-34674D01*
X26627Y-34666D01*
X26727Y-34666D01*
X26727Y-34674D01*
X26990Y-34674D01*
X27052Y-34611D01*
X27052Y-34548D01*
X27052Y-34449D01*
X27014Y-34357D01*
X27013Y-34355D01*
X27041Y-34288D01*
X27041Y-34189D01*
X27041Y-33637D01*
X27003Y-33546D01*
X26987Y-33530D01*
X27003Y-33513D01*
X27041Y-33422D01*
X27041Y-33209D01*
X26978Y-33146D01*
X26604Y-33146D01*
X26604Y-33154D01*
X26504Y-33154D01*
X26504Y-33146D01*
X26497Y-33146D01*
X26497Y-33046D01*
X26504Y-33046D01*
X26504Y-33039D01*
X26604Y-33039D01*
X26604Y-33046D01*
X26978Y-33046D01*
X27041Y-32984D01*
X27041Y-32771D01*
X27013Y-32705D01*
X27034Y-32654D01*
X27035Y-32555D01*
X27035Y-32492D01*
X26972Y-32430D01*
X26710Y-32430D01*
X26710Y-32437D01*
X26610Y-32437D01*
X26610Y-32430D01*
X26602Y-32430D01*
X26602Y-32330D01*
X26610Y-32330D01*
X26610Y-32322D01*
X26710Y-32322D01*
X26710Y-32330D01*
X26972Y-32330D01*
X27035Y-32267D01*
X27035Y-32204D01*
X27034Y-32105D01*
X26996Y-32013D01*
X26926Y-31942D01*
X26834Y-31904D01*
X26815Y-31904D01*
X26817Y-31902D01*
X26856Y-31810D01*
X26856Y-31710D01*
X26856Y-31647D01*
X26793Y-31585D01*
X26531Y-31585D01*
X26531Y-31593D01*
X26431Y-31593D01*
X26431Y-31585D01*
X26423Y-31585D01*
X26423Y-31575D01*
X26447Y-31539D01*
X26468Y-31508D01*
X26468Y-31508D01*
X26474Y-31477D01*
X26531Y-31477D01*
X26531Y-31485D01*
X26793Y-31485D01*
X26856Y-31422D01*
X26856Y-31359D01*
X26856Y-31319D01*
X26870Y-31313D01*
X26929Y-31255D01*
X26987Y-31313D01*
X27079Y-31351D01*
X27178Y-31351D01*
X27281Y-31351D01*
X27281Y-34867D01*
G54D10*
G36*
X30810Y-38010D02*
X30529Y-38010D01*
X30529Y-30175D01*
X30518Y-29967D01*
X30460Y-29827D01*
X30367Y-29802D01*
X30070Y-30100D01*
X30367Y-30397D01*
X30460Y-30372D01*
X30529Y-30175D01*
X30529Y-38010D01*
X30525Y-38010D01*
X30525Y-35996D01*
X30445Y-35803D01*
X30297Y-35655D01*
X30164Y-35599D01*
X30297Y-35545D01*
X30444Y-35397D01*
X30524Y-35204D01*
X30525Y-34996D01*
X30445Y-34803D01*
X30297Y-34655D01*
X30225Y-34625D01*
X30324Y-34625D01*
X30416Y-34587D01*
X30486Y-34516D01*
X30524Y-34424D01*
X30525Y-34325D01*
X30525Y-33775D01*
X30487Y-33683D01*
X30416Y-33613D01*
X30324Y-33575D01*
X30225Y-33574D01*
X30225Y-33574D01*
X30297Y-33545D01*
X30444Y-33397D01*
X30524Y-33204D01*
X30525Y-32996D01*
X30445Y-32803D01*
X30297Y-32655D01*
X30164Y-32599D01*
X30297Y-32545D01*
X30444Y-32397D01*
X30524Y-32204D01*
X30525Y-31996D01*
X30445Y-31803D01*
X30297Y-31655D01*
X30164Y-31599D01*
X30297Y-31545D01*
X30444Y-31397D01*
X30524Y-31204D01*
X30525Y-30996D01*
X30445Y-30803D01*
X30297Y-30655D01*
X30171Y-30602D01*
X30272Y-30560D01*
X30297Y-30467D01*
X30000Y-30170D01*
X29702Y-30467D01*
X29727Y-30560D01*
X29837Y-30599D01*
X29703Y-30654D01*
X29555Y-30802D01*
X29475Y-30995D01*
X29474Y-31203D01*
X29554Y-31397D01*
X29702Y-31544D01*
X29835Y-31600D01*
X29703Y-31654D01*
X29555Y-31802D01*
X29475Y-31995D01*
X29474Y-32203D01*
X29554Y-32397D01*
X29702Y-32544D01*
X29835Y-32600D01*
X29703Y-32654D01*
X29555Y-32802D01*
X29475Y-32995D01*
X29474Y-33203D01*
X29554Y-33397D01*
X29702Y-33544D01*
X29774Y-33574D01*
X29675Y-33574D01*
X29583Y-33612D01*
X29513Y-33683D01*
X29475Y-33775D01*
X29474Y-33874D01*
X29474Y-34424D01*
X29512Y-34516D01*
X29583Y-34586D01*
X29675Y-34624D01*
X29774Y-34625D01*
X29774Y-34625D01*
X29703Y-34654D01*
X29555Y-34802D01*
X29475Y-34995D01*
X29474Y-35203D01*
X29554Y-35397D01*
X29702Y-35544D01*
X29835Y-35600D01*
X29703Y-35654D01*
X29555Y-35802D01*
X29475Y-35995D01*
X29474Y-36203D01*
X29554Y-36397D01*
X29702Y-36544D01*
X29774Y-36574D01*
X29675Y-36574D01*
X29583Y-36612D01*
X29513Y-36683D01*
X29475Y-36775D01*
X29474Y-36874D01*
X29474Y-37424D01*
X29512Y-37516D01*
X29583Y-37586D01*
X29675Y-37624D01*
X29774Y-37625D01*
X30324Y-37625D01*
X30416Y-37587D01*
X30486Y-37516D01*
X30524Y-37424D01*
X30525Y-37325D01*
X30525Y-36775D01*
X30487Y-36683D01*
X30416Y-36613D01*
X30324Y-36575D01*
X30225Y-36574D01*
X30225Y-36574D01*
X30297Y-36545D01*
X30444Y-36397D01*
X30524Y-36204D01*
X30525Y-35996D01*
X30525Y-38010D01*
X21289Y-38010D01*
X21289Y-24019D01*
X22419Y-22889D01*
X23150Y-22889D01*
X23150Y-30380D01*
X23132Y-30388D01*
X23029Y-30490D01*
X23000Y-30461D01*
X23000Y-30301D01*
X22978Y-30187D01*
X22977Y-30187D01*
X22978Y-30125D01*
X22920Y-29986D01*
X22814Y-29879D01*
X22675Y-29822D01*
X22525Y-29821D01*
X22386Y-29879D01*
X22279Y-29985D01*
X22222Y-30124D01*
X22221Y-30274D01*
X22270Y-30391D01*
X22177Y-30391D01*
X21927Y-30391D01*
X21835Y-30429D01*
X21764Y-30499D01*
X21726Y-30591D01*
X21726Y-30595D01*
X21638Y-30654D01*
X21520Y-30772D01*
X21455Y-30869D01*
X21433Y-30984D01*
X21433Y-32425D01*
X21455Y-32540D01*
X21520Y-32637D01*
X21726Y-32843D01*
X21726Y-33069D01*
X21764Y-33161D01*
X21791Y-33188D01*
X21764Y-33215D01*
X21726Y-33307D01*
X21726Y-33407D01*
X21726Y-33857D01*
X21764Y-33949D01*
X21782Y-33967D01*
X21782Y-34901D01*
X21806Y-35023D01*
X21876Y-35127D01*
X22274Y-35525D01*
X22274Y-35525D01*
X22326Y-35560D01*
X22377Y-35594D01*
X22377Y-35594D01*
X22500Y-35618D01*
X27300Y-35618D01*
X27300Y-35618D01*
X27422Y-35594D01*
X27422Y-35594D01*
X27525Y-35525D01*
X27825Y-35225D01*
X27825Y-35225D01*
X27894Y-35122D01*
X27918Y-35000D01*
X27918Y-35000D01*
X27918Y-31300D01*
X27918Y-31122D01*
X27894Y-31000D01*
X27894Y-31000D01*
X27860Y-30948D01*
X27825Y-30897D01*
X27825Y-30897D01*
X27755Y-30826D01*
X28762Y-29818D01*
X29571Y-29818D01*
X29539Y-29827D01*
X29470Y-30024D01*
X29481Y-30232D01*
X29539Y-30372D01*
X29632Y-30397D01*
X29929Y-30100D01*
X29923Y-30094D01*
X29994Y-30023D01*
X30000Y-30029D01*
X30297Y-29732D01*
X30272Y-29639D01*
X30231Y-29625D01*
X30324Y-29625D01*
X30416Y-29587D01*
X30486Y-29516D01*
X30524Y-29424D01*
X30525Y-29325D01*
X30525Y-28775D01*
X30487Y-28683D01*
X30416Y-28613D01*
X30324Y-28575D01*
X30225Y-28574D01*
X29675Y-28574D01*
X29583Y-28612D01*
X29513Y-28683D01*
X29475Y-28775D01*
X29474Y-28874D01*
X29474Y-29174D01*
X29467Y-29181D01*
X28630Y-29181D01*
X28508Y-29205D01*
X28457Y-29239D01*
X28405Y-29274D01*
X27378Y-30301D01*
X27079Y-30301D01*
X27010Y-30330D01*
X27010Y-30296D01*
X27010Y-30046D01*
X26972Y-29954D01*
X26950Y-29932D01*
X26950Y-29910D01*
X26972Y-29887D01*
X27010Y-29795D01*
X27010Y-29733D01*
X26950Y-29673D01*
X26950Y-29569D01*
X27010Y-29508D01*
X27010Y-29446D01*
X26972Y-29354D01*
X26950Y-29332D01*
X26950Y-22889D01*
X27780Y-22889D01*
X28910Y-24019D01*
X28910Y-27200D01*
X28932Y-27310D01*
X28995Y-27404D01*
X29595Y-28004D01*
X29595Y-28004D01*
X29689Y-28067D01*
X29689Y-28067D01*
X29707Y-28070D01*
X29800Y-28089D01*
X29900Y-28089D01*
X30680Y-28089D01*
X30810Y-28219D01*
X30810Y-38010D01*
X30810Y-38010D01*
G37*
G54D31*
X30810Y-38010D02*
X30529Y-38010D01*
X30529Y-30175D01*
X30518Y-29967D01*
X30460Y-29827D01*
X30367Y-29802D01*
X30070Y-30100D01*
X30367Y-30397D01*
X30460Y-30372D01*
X30529Y-30175D01*
X30529Y-38010D01*
X30525Y-38010D01*
X30525Y-35996D01*
X30445Y-35803D01*
X30297Y-35655D01*
X30164Y-35599D01*
X30297Y-35545D01*
X30444Y-35397D01*
X30524Y-35204D01*
X30525Y-34996D01*
X30445Y-34803D01*
X30297Y-34655D01*
X30225Y-34625D01*
X30324Y-34625D01*
X30416Y-34587D01*
X30486Y-34516D01*
X30524Y-34424D01*
X30525Y-34325D01*
X30525Y-33775D01*
X30487Y-33683D01*
X30416Y-33613D01*
X30324Y-33575D01*
X30225Y-33574D01*
X30225Y-33574D01*
X30297Y-33545D01*
X30444Y-33397D01*
X30524Y-33204D01*
X30525Y-32996D01*
X30445Y-32803D01*
X30297Y-32655D01*
X30164Y-32599D01*
X30297Y-32545D01*
X30444Y-32397D01*
X30524Y-32204D01*
X30525Y-31996D01*
X30445Y-31803D01*
X30297Y-31655D01*
X30164Y-31599D01*
X30297Y-31545D01*
X30444Y-31397D01*
X30524Y-31204D01*
X30525Y-30996D01*
X30445Y-30803D01*
X30297Y-30655D01*
X30171Y-30602D01*
X30272Y-30560D01*
X30297Y-30467D01*
X30000Y-30170D01*
X29702Y-30467D01*
X29727Y-30560D01*
X29837Y-30599D01*
X29703Y-30654D01*
X29555Y-30802D01*
X29475Y-30995D01*
X29474Y-31203D01*
X29554Y-31397D01*
X29702Y-31544D01*
X29835Y-31600D01*
X29703Y-31654D01*
X29555Y-31802D01*
X29475Y-31995D01*
X29474Y-32203D01*
X29554Y-32397D01*
X29702Y-32544D01*
X29835Y-32600D01*
X29703Y-32654D01*
X29555Y-32802D01*
X29475Y-32995D01*
X29474Y-33203D01*
X29554Y-33397D01*
X29702Y-33544D01*
X29774Y-33574D01*
X29675Y-33574D01*
X29583Y-33612D01*
X29513Y-33683D01*
X29475Y-33775D01*
X29474Y-33874D01*
X29474Y-34424D01*
X29512Y-34516D01*
X29583Y-34586D01*
X29675Y-34624D01*
X29774Y-34625D01*
X29774Y-34625D01*
X29703Y-34654D01*
X29555Y-34802D01*
X29475Y-34995D01*
X29474Y-35203D01*
X29554Y-35397D01*
X29702Y-35544D01*
X29835Y-35600D01*
X29703Y-35654D01*
X29555Y-35802D01*
X29475Y-35995D01*
X29474Y-36203D01*
X29554Y-36397D01*
X29702Y-36544D01*
X29774Y-36574D01*
X29675Y-36574D01*
X29583Y-36612D01*
X29513Y-36683D01*
X29475Y-36775D01*
X29474Y-36874D01*
X29474Y-37424D01*
X29512Y-37516D01*
X29583Y-37586D01*
X29675Y-37624D01*
X29774Y-37625D01*
X30324Y-37625D01*
X30416Y-37587D01*
X30486Y-37516D01*
X30524Y-37424D01*
X30525Y-37325D01*
X30525Y-36775D01*
X30487Y-36683D01*
X30416Y-36613D01*
X30324Y-36575D01*
X30225Y-36574D01*
X30225Y-36574D01*
X30297Y-36545D01*
X30444Y-36397D01*
X30524Y-36204D01*
X30525Y-35996D01*
X30525Y-38010D01*
X21289Y-38010D01*
X21289Y-24019D01*
X22419Y-22889D01*
X23150Y-22889D01*
X23150Y-30380D01*
X23132Y-30388D01*
X23029Y-30490D01*
X23000Y-30461D01*
X23000Y-30301D01*
X22978Y-30187D01*
X22977Y-30187D01*
X22978Y-30125D01*
X22920Y-29986D01*
X22814Y-29879D01*
X22675Y-29822D01*
X22525Y-29821D01*
X22386Y-29879D01*
X22279Y-29985D01*
X22222Y-30124D01*
X22221Y-30274D01*
X22270Y-30391D01*
X22177Y-30391D01*
X21927Y-30391D01*
X21835Y-30429D01*
X21764Y-30499D01*
X21726Y-30591D01*
X21726Y-30595D01*
X21638Y-30654D01*
X21520Y-30772D01*
X21455Y-30869D01*
X21433Y-30984D01*
X21433Y-32425D01*
X21455Y-32540D01*
X21520Y-32637D01*
X21726Y-32843D01*
X21726Y-33069D01*
X21764Y-33161D01*
X21791Y-33188D01*
X21764Y-33215D01*
X21726Y-33307D01*
X21726Y-33407D01*
X21726Y-33857D01*
X21764Y-33949D01*
X21782Y-33967D01*
X21782Y-34901D01*
X21806Y-35023D01*
X21876Y-35127D01*
X22274Y-35525D01*
X22274Y-35525D01*
X22326Y-35560D01*
X22377Y-35594D01*
X22377Y-35594D01*
X22500Y-35618D01*
X27300Y-35618D01*
X27300Y-35618D01*
X27422Y-35594D01*
X27422Y-35594D01*
X27525Y-35525D01*
X27825Y-35225D01*
X27825Y-35225D01*
X27894Y-35122D01*
X27918Y-35000D01*
X27918Y-35000D01*
X27918Y-31300D01*
X27918Y-31122D01*
X27894Y-31000D01*
X27894Y-31000D01*
X27860Y-30948D01*
X27825Y-30897D01*
X27825Y-30897D01*
X27755Y-30826D01*
X28762Y-29818D01*
X29571Y-29818D01*
X29539Y-29827D01*
X29470Y-30024D01*
X29481Y-30232D01*
X29539Y-30372D01*
X29632Y-30397D01*
X29929Y-30100D01*
X29923Y-30094D01*
X29994Y-30023D01*
X30000Y-30029D01*
X30297Y-29732D01*
X30272Y-29639D01*
X30231Y-29625D01*
X30324Y-29625D01*
X30416Y-29587D01*
X30486Y-29516D01*
X30524Y-29424D01*
X30525Y-29325D01*
X30525Y-28775D01*
X30487Y-28683D01*
X30416Y-28613D01*
X30324Y-28575D01*
X30225Y-28574D01*
X29675Y-28574D01*
X29583Y-28612D01*
X29513Y-28683D01*
X29475Y-28775D01*
X29474Y-28874D01*
X29474Y-29174D01*
X29467Y-29181D01*
X28630Y-29181D01*
X28508Y-29205D01*
X28457Y-29239D01*
X28405Y-29274D01*
X27378Y-30301D01*
X27079Y-30301D01*
X27010Y-30330D01*
X27010Y-30296D01*
X27010Y-30046D01*
X26972Y-29954D01*
X26950Y-29932D01*
X26950Y-29910D01*
X26972Y-29887D01*
X27010Y-29795D01*
X27010Y-29733D01*
X26950Y-29673D01*
X26950Y-29569D01*
X27010Y-29508D01*
X27010Y-29446D01*
X26972Y-29354D01*
X26950Y-29332D01*
X26950Y-22889D01*
X27780Y-22889D01*
X28910Y-24019D01*
X28910Y-27200D01*
X28932Y-27310D01*
X28995Y-27404D01*
X29595Y-28004D01*
X29595Y-28004D01*
X29689Y-28067D01*
X29689Y-28067D01*
X29707Y-28070D01*
X29800Y-28089D01*
X29900Y-28089D01*
X30680Y-28089D01*
X30810Y-28219D01*
X30810Y-38010D01*
M02*
