M48
;DRILL file {Pcbnew (2013-07-24 BZR 4024)-stable} date Mon 03 Mar 2014 03:48:41 PM NZDT
;FORMAT={-:-/ absolute / metric / decimal}
FMAT,2
METRIC,TZ
T1C0.400
T2C0.600
T3C0.800
T4C0.813
T5C1.524
%
G90
G05
M71
T1
X57.404Y-76.708
X59.436Y-86.106
X63.Y-84.1
T2
X54.61Y-60.96
X54.61Y-63.5
X54.61Y-66.04
X54.61Y-68.58
X54.61Y-71.12
X54.61Y-73.66
X54.61Y-77.216
X54.864Y-90.17
X54.864Y-95.758
X57.14Y-86.93
X58.166Y-58.674
X58.166Y-60.96
X58.166Y-63.5
X58.166Y-66.04
X58.166Y-68.58
X58.166Y-71.12
X58.166Y-73.66
X58.674Y-88.138
X58.7Y-84.2
X59.3Y-78.
X60.2Y-84.6
X61.2Y-84.6
X62.2Y-84.8
X62.484Y-95.758
X63.1Y-72.
X63.754Y-85.09
X63.9Y-86.2
X64.008Y-88.138
X69.088Y-58.674
X69.088Y-60.96
X69.088Y-63.5
X69.088Y-66.04
X69.088Y-68.58
X69.088Y-71.12
X69.088Y-73.66
X69.088Y-83.566
X70.104Y-95.758
X70.866Y-58.928
X71.12Y-73.66
X71.12Y-77.978
X71.12Y-82.55
X73.152Y-61.214
X73.152Y-63.5
X73.152Y-66.04
X73.152Y-68.58
X73.152Y-71.12
X77.724Y-71.882
X77.724Y-80.264
X77.724Y-88.138
X77.724Y-95.758
T3
X60.95Y-79.7
X60.95Y-81.3
X62.55Y-79.7
X62.55Y-81.3
T4
X76.2Y-73.914
X76.2Y-76.454
X76.2Y-78.994
X76.2Y-81.534
X76.2Y-84.074
X76.2Y-86.614
X76.2Y-89.154
X76.2Y-91.694
X76.2Y-94.234
T5
X61.214Y-59.69
X61.214Y-64.77
X63.754Y-62.23
X66.294Y-59.69
X66.294Y-64.77
T0
M30
